M48
; DRILL file {KiCad (5.1.9)-1} date 01/06/21 17:38:25
; FORMAT={-:-/ absolute / inch / decimal}
; #@! TF.CreationDate,2021-01-06T17:38:25+00:00
; #@! TF.GenerationSoftware,Kicad,Pcbnew,(5.1.9)-1
; #@! TF.FileFunction,Plated,1,2,PTH
FMAT,2
INCH
T1C0.0157
T2C0.0400
T3C0.0669
%
G90
G05
T1
X5.2756Y-3.6614
X5.7244Y-3.1693
X6.0472Y-3.0709
X6.0945Y-3.378
X6.0984Y-3.6614
X6.1378Y-3.4252
X6.1457Y-3.6614
X6.1841Y-3.7136
X6.185Y-3.5039
X6.2205Y-2.9567
X6.237Y-4.116
X6.2677Y-3.4213
X6.303Y-3.882
X6.3465Y-3.7126
X6.3917Y-3.5433
X6.4252Y-3.5079
X6.4252Y-3.626
X6.5039Y-3.6772
X6.6496Y-3.1969
X6.6929Y-3.0157
X6.7008Y-2.878
X6.7441Y-2.9065
X6.7441Y-3.0197
X6.7441Y-3.6772
X6.7913Y-3.5433
X6.7992Y-3.1969
X6.8425Y-3.4213
X6.9016Y-3.2165
X6.9055Y-3.5952
X7.0101Y-3.3511
X7.041Y-3.531
X7.129Y-3.079
T2
X5.1969Y-3.3661
X5.4439Y-2.3492
X5.5439Y-2.3492
X5.6439Y-2.3492
X5.7439Y-2.3492
X5.8039Y-4.2492
X5.8439Y-2.3492
X5.9039Y-4.2492
X5.9439Y-2.3492
X5.9646Y-2.6559
X5.9646Y-2.7559
X6.0039Y-4.2492
X6.0439Y-2.3492
X6.1039Y-4.2492
X6.1439Y-2.3492
X6.2039Y-4.2492
X6.2439Y-2.3492
X6.3039Y-4.2492
X6.3439Y-2.3492
X6.4039Y-4.2492
X6.4839Y-2.7165
X6.5039Y-2.3492
X6.5039Y-4.2492
X6.5839Y-2.7165
X6.6039Y-2.3492
X6.6839Y-2.7165
X6.7039Y-2.3492
X6.7039Y-4.2492
X6.7839Y-2.7165
X6.8039Y-2.3492
X6.8039Y-4.2492
X6.9039Y-2.3492
X6.9039Y-4.2492
X7.0039Y-2.3492
X7.0039Y-4.2492
X7.1039Y-2.3492
X7.1039Y-4.2492
X7.2039Y-2.3492
X7.2039Y-4.2492
X7.2094Y-3.1512
X7.2094Y-3.2512
X7.2094Y-3.3511
X7.3094Y-3.1512
X7.3094Y-3.2512
X7.3094Y-3.3511
T3
X4.8134Y-3.264
X4.8134Y-3.4648
X4.9138Y-3.3644
X5.0142Y-3.264
X5.0142Y-3.4648
T0
M30
