%TF.GenerationSoftware,KiCad,Pcbnew,(5.1.9)-1*%
%TF.CreationDate,2021-01-06T17:38:29+00:00*%
%TF.ProjectId,RFMduino,52464d64-7569-46e6-9f2e-6b696361645f,rev?*%
%TF.SameCoordinates,Original*%
%TF.FileFunction,Soldermask,Top*%
%TF.FilePolarity,Negative*%
%FSLAX46Y46*%
G04 Gerber Fmt 4.6, Leading zero omitted, Abs format (unit mm)*
G04 Created by KiCad (PCBNEW (5.1.9)-1) date 2021-01-06 17:38:29*
%MOMM*%
%LPD*%
G01*
G04 APERTURE LIST*
%ADD10C,2.082800*%
%ADD11C,2.550000*%
%ADD12R,0.900000X0.800000*%
%ADD13R,1.750000X0.950000*%
%ADD14R,1.750000X3.200000*%
%ADD15C,2.133600*%
%ADD16C,3.378200*%
G04 APERTURE END LIST*
%TO.C,C1*%
G36*
G01*
X153275000Y-73450000D02*
X153275000Y-72950000D01*
G75*
G02*
X153500000Y-72725000I225000J0D01*
G01*
X153950000Y-72725000D01*
G75*
G02*
X154175000Y-72950000I0J-225000D01*
G01*
X154175000Y-73450000D01*
G75*
G02*
X153950000Y-73675000I-225000J0D01*
G01*
X153500000Y-73675000D01*
G75*
G02*
X153275000Y-73450000I0J225000D01*
G01*
G37*
G36*
G01*
X154825000Y-73450000D02*
X154825000Y-72950000D01*
G75*
G02*
X155050000Y-72725000I225000J0D01*
G01*
X155500000Y-72725000D01*
G75*
G02*
X155725000Y-72950000I0J-225000D01*
G01*
X155725000Y-73450000D01*
G75*
G02*
X155500000Y-73675000I-225000J0D01*
G01*
X155050000Y-73675000D01*
G75*
G02*
X154825000Y-73450000I0J225000D01*
G01*
G37*
%TD*%
%TO.C,C2*%
G36*
G01*
X142175000Y-75350000D02*
X142175000Y-75850000D01*
G75*
G02*
X141950000Y-76075000I-225000J0D01*
G01*
X141500000Y-76075000D01*
G75*
G02*
X141275000Y-75850000I0J225000D01*
G01*
X141275000Y-75350000D01*
G75*
G02*
X141500000Y-75125000I225000J0D01*
G01*
X141950000Y-75125000D01*
G75*
G02*
X142175000Y-75350000I0J-225000D01*
G01*
G37*
G36*
G01*
X143725000Y-75350000D02*
X143725000Y-75850000D01*
G75*
G02*
X143500000Y-76075000I-225000J0D01*
G01*
X143050000Y-76075000D01*
G75*
G02*
X142825000Y-75850000I0J225000D01*
G01*
X142825000Y-75350000D01*
G75*
G02*
X143050000Y-75125000I225000J0D01*
G01*
X143500000Y-75125000D01*
G75*
G02*
X143725000Y-75350000I0J-225000D01*
G01*
G37*
%TD*%
%TO.C,C3*%
G36*
G01*
X159850000Y-83475000D02*
X159350000Y-83475000D01*
G75*
G02*
X159125000Y-83250000I0J225000D01*
G01*
X159125000Y-82800000D01*
G75*
G02*
X159350000Y-82575000I225000J0D01*
G01*
X159850000Y-82575000D01*
G75*
G02*
X160075000Y-82800000I0J-225000D01*
G01*
X160075000Y-83250000D01*
G75*
G02*
X159850000Y-83475000I-225000J0D01*
G01*
G37*
G36*
G01*
X159850000Y-85025000D02*
X159350000Y-85025000D01*
G75*
G02*
X159125000Y-84800000I0J225000D01*
G01*
X159125000Y-84350000D01*
G75*
G02*
X159350000Y-84125000I225000J0D01*
G01*
X159850000Y-84125000D01*
G75*
G02*
X160075000Y-84350000I0J-225000D01*
G01*
X160075000Y-84800000D01*
G75*
G02*
X159850000Y-85025000I-225000J0D01*
G01*
G37*
%TD*%
%TO.C,C4*%
G36*
G01*
X134725000Y-90750000D02*
X134725000Y-91250000D01*
G75*
G02*
X134500000Y-91475000I-225000J0D01*
G01*
X134050000Y-91475000D01*
G75*
G02*
X133825000Y-91250000I0J225000D01*
G01*
X133825000Y-90750000D01*
G75*
G02*
X134050000Y-90525000I225000J0D01*
G01*
X134500000Y-90525000D01*
G75*
G02*
X134725000Y-90750000I0J-225000D01*
G01*
G37*
G36*
G01*
X133175000Y-90750000D02*
X133175000Y-91250000D01*
G75*
G02*
X132950000Y-91475000I-225000J0D01*
G01*
X132500000Y-91475000D01*
G75*
G02*
X132275000Y-91250000I0J225000D01*
G01*
X132275000Y-90750000D01*
G75*
G02*
X132500000Y-90525000I225000J0D01*
G01*
X132950000Y-90525000D01*
G75*
G02*
X133175000Y-90750000I0J-225000D01*
G01*
G37*
%TD*%
D10*
%TO.C,J1*%
X151500000Y-70000000D03*
X151500000Y-67460000D03*
%TD*%
%TO.C,J2*%
X172310000Y-69000000D03*
X169770000Y-69000000D03*
X167230000Y-69000000D03*
X164690000Y-69000000D03*
%TD*%
%TO.C,J3*%
X132000000Y-85500000D03*
%TD*%
D11*
%TO.C,J4*%
X124810000Y-85455000D03*
X122261000Y-88005000D03*
X127360000Y-88005000D03*
X127360000Y-82905000D03*
X122261000Y-82905000D03*
%TD*%
D12*
%TO.C,Q1*%
X177500000Y-79050000D03*
X177500000Y-80950000D03*
X179500000Y-80000000D03*
%TD*%
%TO.C,R1*%
G36*
G01*
X158725000Y-93925000D02*
X159275000Y-93925000D01*
G75*
G02*
X159475000Y-94125000I0J-200000D01*
G01*
X159475000Y-94525000D01*
G75*
G02*
X159275000Y-94725000I-200000J0D01*
G01*
X158725000Y-94725000D01*
G75*
G02*
X158525000Y-94525000I0J200000D01*
G01*
X158525000Y-94125000D01*
G75*
G02*
X158725000Y-93925000I200000J0D01*
G01*
G37*
G36*
G01*
X158725000Y-92275000D02*
X159275000Y-92275000D01*
G75*
G02*
X159475000Y-92475000I0J-200000D01*
G01*
X159475000Y-92875000D01*
G75*
G02*
X159275000Y-93075000I-200000J0D01*
G01*
X158725000Y-93075000D01*
G75*
G02*
X158525000Y-92875000I0J200000D01*
G01*
X158525000Y-92475000D01*
G75*
G02*
X158725000Y-92275000I200000J0D01*
G01*
G37*
%TD*%
%TO.C,R2*%
G36*
G01*
X169725000Y-93275000D02*
X170275000Y-93275000D01*
G75*
G02*
X170475000Y-93475000I0J-200000D01*
G01*
X170475000Y-93875000D01*
G75*
G02*
X170275000Y-94075000I-200000J0D01*
G01*
X169725000Y-94075000D01*
G75*
G02*
X169525000Y-93875000I0J200000D01*
G01*
X169525000Y-93475000D01*
G75*
G02*
X169725000Y-93275000I200000J0D01*
G01*
G37*
G36*
G01*
X169725000Y-94925000D02*
X170275000Y-94925000D01*
G75*
G02*
X170475000Y-95125000I0J-200000D01*
G01*
X170475000Y-95525000D01*
G75*
G02*
X170275000Y-95725000I-200000J0D01*
G01*
X169725000Y-95725000D01*
G75*
G02*
X169525000Y-95525000I0J200000D01*
G01*
X169525000Y-95125000D01*
G75*
G02*
X169725000Y-94925000I200000J0D01*
G01*
G37*
%TD*%
%TO.C,R3*%
G36*
G01*
X179225000Y-74275000D02*
X179775000Y-74275000D01*
G75*
G02*
X179975000Y-74475000I0J-200000D01*
G01*
X179975000Y-74875000D01*
G75*
G02*
X179775000Y-75075000I-200000J0D01*
G01*
X179225000Y-75075000D01*
G75*
G02*
X179025000Y-74875000I0J200000D01*
G01*
X179025000Y-74475000D01*
G75*
G02*
X179225000Y-74275000I200000J0D01*
G01*
G37*
G36*
G01*
X179225000Y-75925000D02*
X179775000Y-75925000D01*
G75*
G02*
X179975000Y-76125000I0J-200000D01*
G01*
X179975000Y-76525000D01*
G75*
G02*
X179775000Y-76725000I-200000J0D01*
G01*
X179225000Y-76725000D01*
G75*
G02*
X179025000Y-76525000I0J200000D01*
G01*
X179025000Y-76125000D01*
G75*
G02*
X179225000Y-75925000I200000J0D01*
G01*
G37*
%TD*%
%TO.C,R4*%
G36*
G01*
X175225000Y-80100000D02*
X175775000Y-80100000D01*
G75*
G02*
X175975000Y-80300000I0J-200000D01*
G01*
X175975000Y-80700000D01*
G75*
G02*
X175775000Y-80900000I-200000J0D01*
G01*
X175225000Y-80900000D01*
G75*
G02*
X175025000Y-80700000I0J200000D01*
G01*
X175025000Y-80300000D01*
G75*
G02*
X175225000Y-80100000I200000J0D01*
G01*
G37*
G36*
G01*
X175225000Y-78450000D02*
X175775000Y-78450000D01*
G75*
G02*
X175975000Y-78650000I0J-200000D01*
G01*
X175975000Y-79050000D01*
G75*
G02*
X175775000Y-79250000I-200000J0D01*
G01*
X175225000Y-79250000D01*
G75*
G02*
X175025000Y-79050000I0J200000D01*
G01*
X175025000Y-78650000D01*
G75*
G02*
X175225000Y-78450000I200000J0D01*
G01*
G37*
%TD*%
D13*
%TO.C,U1*%
X151650000Y-77800000D03*
X151650000Y-75500000D03*
X151650000Y-73200000D03*
D14*
X145350000Y-75500000D03*
%TD*%
%TO.C,U2*%
G36*
G01*
X160601480Y-84153680D02*
X161800360Y-84153680D01*
G75*
G02*
X161901960Y-84255280I0J-101600D01*
G01*
X161901960Y-84854720D01*
G75*
G02*
X161800360Y-84956320I-101600J0D01*
G01*
X160601480Y-84956320D01*
G75*
G02*
X160499880Y-84854720I0J101600D01*
G01*
X160499880Y-84255280D01*
G75*
G02*
X160601480Y-84153680I101600J0D01*
G01*
G37*
G36*
G01*
X160601480Y-85423680D02*
X161800360Y-85423680D01*
G75*
G02*
X161901960Y-85525280I0J-101600D01*
G01*
X161901960Y-86124720D01*
G75*
G02*
X161800360Y-86226320I-101600J0D01*
G01*
X160601480Y-86226320D01*
G75*
G02*
X160499880Y-86124720I0J101600D01*
G01*
X160499880Y-85525280D01*
G75*
G02*
X160601480Y-85423680I101600J0D01*
G01*
G37*
G36*
G01*
X160601480Y-86693680D02*
X161800360Y-86693680D01*
G75*
G02*
X161901960Y-86795280I0J-101600D01*
G01*
X161901960Y-87394720D01*
G75*
G02*
X161800360Y-87496320I-101600J0D01*
G01*
X160601480Y-87496320D01*
G75*
G02*
X160499880Y-87394720I0J101600D01*
G01*
X160499880Y-86795280D01*
G75*
G02*
X160601480Y-86693680I101600J0D01*
G01*
G37*
G36*
G01*
X160601480Y-87963680D02*
X161800360Y-87963680D01*
G75*
G02*
X161901960Y-88065280I0J-101600D01*
G01*
X161901960Y-88664720D01*
G75*
G02*
X161800360Y-88766320I-101600J0D01*
G01*
X160601480Y-88766320D01*
G75*
G02*
X160499880Y-88664720I0J101600D01*
G01*
X160499880Y-88065280D01*
G75*
G02*
X160601480Y-87963680I101600J0D01*
G01*
G37*
G36*
G01*
X160601480Y-89233680D02*
X161800360Y-89233680D01*
G75*
G02*
X161901960Y-89335280I0J-101600D01*
G01*
X161901960Y-89934720D01*
G75*
G02*
X161800360Y-90036320I-101600J0D01*
G01*
X160601480Y-90036320D01*
G75*
G02*
X160499880Y-89934720I0J101600D01*
G01*
X160499880Y-89335280D01*
G75*
G02*
X160601480Y-89233680I101600J0D01*
G01*
G37*
G36*
G01*
X160601480Y-90503680D02*
X161800360Y-90503680D01*
G75*
G02*
X161901960Y-90605280I0J-101600D01*
G01*
X161901960Y-91204720D01*
G75*
G02*
X161800360Y-91306320I-101600J0D01*
G01*
X160601480Y-91306320D01*
G75*
G02*
X160499880Y-91204720I0J101600D01*
G01*
X160499880Y-90605280D01*
G75*
G02*
X160601480Y-90503680I101600J0D01*
G01*
G37*
G36*
G01*
X160601480Y-91773680D02*
X161800360Y-91773680D01*
G75*
G02*
X161901960Y-91875280I0J-101600D01*
G01*
X161901960Y-92474720D01*
G75*
G02*
X161800360Y-92576320I-101600J0D01*
G01*
X160601480Y-92576320D01*
G75*
G02*
X160499880Y-92474720I0J101600D01*
G01*
X160499880Y-91875280D01*
G75*
G02*
X160601480Y-91773680I101600J0D01*
G01*
G37*
G36*
G01*
X160601480Y-93043680D02*
X161800360Y-93043680D01*
G75*
G02*
X161901960Y-93145280I0J-101600D01*
G01*
X161901960Y-93744720D01*
G75*
G02*
X161800360Y-93846320I-101600J0D01*
G01*
X160601480Y-93846320D01*
G75*
G02*
X160499880Y-93744720I0J101600D01*
G01*
X160499880Y-93145280D01*
G75*
G02*
X160601480Y-93043680I101600J0D01*
G01*
G37*
G36*
G01*
X166199640Y-93043680D02*
X167398520Y-93043680D01*
G75*
G02*
X167500120Y-93145280I0J-101600D01*
G01*
X167500120Y-93744720D01*
G75*
G02*
X167398520Y-93846320I-101600J0D01*
G01*
X166199640Y-93846320D01*
G75*
G02*
X166098040Y-93744720I0J101600D01*
G01*
X166098040Y-93145280D01*
G75*
G02*
X166199640Y-93043680I101600J0D01*
G01*
G37*
G36*
G01*
X166199640Y-91773680D02*
X167398520Y-91773680D01*
G75*
G02*
X167500120Y-91875280I0J-101600D01*
G01*
X167500120Y-92474720D01*
G75*
G02*
X167398520Y-92576320I-101600J0D01*
G01*
X166199640Y-92576320D01*
G75*
G02*
X166098040Y-92474720I0J101600D01*
G01*
X166098040Y-91875280D01*
G75*
G02*
X166199640Y-91773680I101600J0D01*
G01*
G37*
G36*
G01*
X166199640Y-90503680D02*
X167398520Y-90503680D01*
G75*
G02*
X167500120Y-90605280I0J-101600D01*
G01*
X167500120Y-91204720D01*
G75*
G02*
X167398520Y-91306320I-101600J0D01*
G01*
X166199640Y-91306320D01*
G75*
G02*
X166098040Y-91204720I0J101600D01*
G01*
X166098040Y-90605280D01*
G75*
G02*
X166199640Y-90503680I101600J0D01*
G01*
G37*
G36*
G01*
X166199640Y-89233680D02*
X167398520Y-89233680D01*
G75*
G02*
X167500120Y-89335280I0J-101600D01*
G01*
X167500120Y-89934720D01*
G75*
G02*
X167398520Y-90036320I-101600J0D01*
G01*
X166199640Y-90036320D01*
G75*
G02*
X166098040Y-89934720I0J101600D01*
G01*
X166098040Y-89335280D01*
G75*
G02*
X166199640Y-89233680I101600J0D01*
G01*
G37*
G36*
G01*
X166199640Y-87963680D02*
X167398520Y-87963680D01*
G75*
G02*
X167500120Y-88065280I0J-101600D01*
G01*
X167500120Y-88664720D01*
G75*
G02*
X167398520Y-88766320I-101600J0D01*
G01*
X166199640Y-88766320D01*
G75*
G02*
X166098040Y-88664720I0J101600D01*
G01*
X166098040Y-88065280D01*
G75*
G02*
X166199640Y-87963680I101600J0D01*
G01*
G37*
G36*
G01*
X166199640Y-86693680D02*
X167398520Y-86693680D01*
G75*
G02*
X167500120Y-86795280I0J-101600D01*
G01*
X167500120Y-87394720D01*
G75*
G02*
X167398520Y-87496320I-101600J0D01*
G01*
X166199640Y-87496320D01*
G75*
G02*
X166098040Y-87394720I0J101600D01*
G01*
X166098040Y-86795280D01*
G75*
G02*
X166199640Y-86693680I101600J0D01*
G01*
G37*
G36*
G01*
X166199640Y-85423680D02*
X167398520Y-85423680D01*
G75*
G02*
X167500120Y-85525280I0J-101600D01*
G01*
X167500120Y-86124720D01*
G75*
G02*
X167398520Y-86226320I-101600J0D01*
G01*
X166199640Y-86226320D01*
G75*
G02*
X166098040Y-86124720I0J101600D01*
G01*
X166098040Y-85525280D01*
G75*
G02*
X166199640Y-85423680I101600J0D01*
G01*
G37*
G36*
G01*
X166199640Y-84153680D02*
X167398520Y-84153680D01*
G75*
G02*
X167500120Y-84255280I0J-101600D01*
G01*
X167500120Y-84854720D01*
G75*
G02*
X167398520Y-84956320I-101600J0D01*
G01*
X166199640Y-84956320D01*
G75*
G02*
X166098040Y-84854720I0J101600D01*
G01*
X166098040Y-84255280D01*
G75*
G02*
X166199640Y-84153680I101600J0D01*
G01*
G37*
%TD*%
%TO.C,U3*%
G36*
G01*
X153599550Y-96398260D02*
X153599550Y-97597140D01*
G75*
G02*
X153497950Y-97698740I-101600J0D01*
G01*
X150498210Y-97698740D01*
G75*
G02*
X150396610Y-97597140I0J101600D01*
G01*
X150396610Y-96398260D01*
G75*
G02*
X150498210Y-96296660I101600J0D01*
G01*
X153497950Y-96296660D01*
G75*
G02*
X153599550Y-96398260I0J-101600D01*
G01*
G37*
G36*
G01*
X153599550Y-94399280D02*
X153599550Y-95598160D01*
G75*
G02*
X153497950Y-95699760I-101600J0D01*
G01*
X150498210Y-95699760D01*
G75*
G02*
X150396610Y-95598160I0J101600D01*
G01*
X150396610Y-94399280D01*
G75*
G02*
X150498210Y-94297680I101600J0D01*
G01*
X153497950Y-94297680D01*
G75*
G02*
X153599550Y-94399280I0J-101600D01*
G01*
G37*
G36*
G01*
X153599550Y-92400300D02*
X153599550Y-93599180D01*
G75*
G02*
X153497950Y-93700780I-101600J0D01*
G01*
X150498210Y-93700780D01*
G75*
G02*
X150396610Y-93599180I0J101600D01*
G01*
X150396610Y-92400300D01*
G75*
G02*
X150498210Y-92298700I101600J0D01*
G01*
X153497950Y-92298700D01*
G75*
G02*
X153599550Y-92400300I0J-101600D01*
G01*
G37*
G36*
G01*
X153599550Y-90398780D02*
X153599550Y-91597660D01*
G75*
G02*
X153497950Y-91699260I-101600J0D01*
G01*
X150498210Y-91699260D01*
G75*
G02*
X150396610Y-91597660I0J101600D01*
G01*
X150396610Y-90398780D01*
G75*
G02*
X150498210Y-90297180I101600J0D01*
G01*
X153497950Y-90297180D01*
G75*
G02*
X153599550Y-90398780I0J-101600D01*
G01*
G37*
G36*
G01*
X153599550Y-88402340D02*
X153599550Y-89601220D01*
G75*
G02*
X153497950Y-89702820I-101600J0D01*
G01*
X150498210Y-89702820D01*
G75*
G02*
X150396610Y-89601220I0J101600D01*
G01*
X150396610Y-88402340D01*
G75*
G02*
X150498210Y-88300740I101600J0D01*
G01*
X153497950Y-88300740D01*
G75*
G02*
X153599550Y-88402340I0J-101600D01*
G01*
G37*
G36*
G01*
X153599550Y-86400820D02*
X153599550Y-87599700D01*
G75*
G02*
X153497950Y-87701300I-101600J0D01*
G01*
X150498210Y-87701300D01*
G75*
G02*
X150396610Y-87599700I0J101600D01*
G01*
X150396610Y-86400820D01*
G75*
G02*
X150498210Y-86299220I101600J0D01*
G01*
X153497950Y-86299220D01*
G75*
G02*
X153599550Y-86400820I0J-101600D01*
G01*
G37*
G36*
G01*
X153599550Y-84401840D02*
X153599550Y-85600720D01*
G75*
G02*
X153497950Y-85702320I-101600J0D01*
G01*
X150498210Y-85702320D01*
G75*
G02*
X150396610Y-85600720I0J101600D01*
G01*
X150396610Y-84401840D01*
G75*
G02*
X150498210Y-84300240I101600J0D01*
G01*
X153497950Y-84300240D01*
G75*
G02*
X153599550Y-84401840I0J-101600D01*
G01*
G37*
G36*
G01*
X153599550Y-82402860D02*
X153599550Y-83601740D01*
G75*
G02*
X153497950Y-83703340I-101600J0D01*
G01*
X150498210Y-83703340D01*
G75*
G02*
X150396610Y-83601740I0J101600D01*
G01*
X150396610Y-82402860D01*
G75*
G02*
X150498210Y-82301260I101600J0D01*
G01*
X153497950Y-82301260D01*
G75*
G02*
X153599550Y-82402860I0J-101600D01*
G01*
G37*
G36*
G01*
X138603390Y-82402860D02*
X138603390Y-83601740D01*
G75*
G02*
X138501790Y-83703340I-101600J0D01*
G01*
X135502050Y-83703340D01*
G75*
G02*
X135400450Y-83601740I0J101600D01*
G01*
X135400450Y-82402860D01*
G75*
G02*
X135502050Y-82301260I101600J0D01*
G01*
X138501790Y-82301260D01*
G75*
G02*
X138603390Y-82402860I0J-101600D01*
G01*
G37*
G36*
G01*
X138603390Y-84401840D02*
X138603390Y-85600720D01*
G75*
G02*
X138501790Y-85702320I-101600J0D01*
G01*
X135502050Y-85702320D01*
G75*
G02*
X135400450Y-85600720I0J101600D01*
G01*
X135400450Y-84401840D01*
G75*
G02*
X135502050Y-84300240I101600J0D01*
G01*
X138501790Y-84300240D01*
G75*
G02*
X138603390Y-84401840I0J-101600D01*
G01*
G37*
G36*
G01*
X138603390Y-86400820D02*
X138603390Y-87599700D01*
G75*
G02*
X138501790Y-87701300I-101600J0D01*
G01*
X135502050Y-87701300D01*
G75*
G02*
X135400450Y-87599700I0J101600D01*
G01*
X135400450Y-86400820D01*
G75*
G02*
X135502050Y-86299220I101600J0D01*
G01*
X138501790Y-86299220D01*
G75*
G02*
X138603390Y-86400820I0J-101600D01*
G01*
G37*
G36*
G01*
X138603390Y-88402340D02*
X138603390Y-89601220D01*
G75*
G02*
X138501790Y-89702820I-101600J0D01*
G01*
X135502050Y-89702820D01*
G75*
G02*
X135400450Y-89601220I0J101600D01*
G01*
X135400450Y-88402340D01*
G75*
G02*
X135502050Y-88300740I101600J0D01*
G01*
X138501790Y-88300740D01*
G75*
G02*
X138603390Y-88402340I0J-101600D01*
G01*
G37*
G36*
G01*
X138603390Y-90398780D02*
X138603390Y-91597660D01*
G75*
G02*
X138501790Y-91699260I-101600J0D01*
G01*
X135502050Y-91699260D01*
G75*
G02*
X135400450Y-91597660I0J101600D01*
G01*
X135400450Y-90398780D01*
G75*
G02*
X135502050Y-90297180I101600J0D01*
G01*
X138501790Y-90297180D01*
G75*
G02*
X138603390Y-90398780I0J-101600D01*
G01*
G37*
G36*
G01*
X138603390Y-92400300D02*
X138603390Y-93599180D01*
G75*
G02*
X138501790Y-93700780I-101600J0D01*
G01*
X135502050Y-93700780D01*
G75*
G02*
X135400450Y-93599180I0J101600D01*
G01*
X135400450Y-92400300D01*
G75*
G02*
X135502050Y-92298700I101600J0D01*
G01*
X138501790Y-92298700D01*
G75*
G02*
X138603390Y-92400300I0J-101600D01*
G01*
G37*
G36*
G01*
X138603390Y-94399280D02*
X138603390Y-95598160D01*
G75*
G02*
X138501790Y-95699760I-101600J0D01*
G01*
X135502050Y-95699760D01*
G75*
G02*
X135400450Y-95598160I0J101600D01*
G01*
X135400450Y-94399280D01*
G75*
G02*
X135502050Y-94297680I101600J0D01*
G01*
X138501790Y-94297680D01*
G75*
G02*
X138603390Y-94399280I0J-101600D01*
G01*
G37*
G36*
G01*
X138603390Y-96398260D02*
X138603390Y-97597140D01*
G75*
G02*
X138501790Y-97698740I-101600J0D01*
G01*
X135502050Y-97698740D01*
G75*
G02*
X135400450Y-97597140I0J101600D01*
G01*
X135400450Y-96398260D01*
G75*
G02*
X135502050Y-96296660I101600J0D01*
G01*
X138501790Y-96296660D01*
G75*
G02*
X138603390Y-96398260I0J-101600D01*
G01*
G37*
%TD*%
D15*
%TO.C,B1*%
X155040000Y-107930000D03*
X157580000Y-107930000D03*
X170280000Y-107930000D03*
X172820000Y-107930000D03*
X175360000Y-107930000D03*
X177900000Y-107930000D03*
X180440000Y-107930000D03*
X182980000Y-107930000D03*
X143356000Y-59670000D03*
X182980000Y-59670000D03*
X180440000Y-59670000D03*
X177900000Y-59670000D03*
X175360000Y-59670000D03*
X172820000Y-59670000D03*
X170280000Y-59670000D03*
X167740000Y-59670000D03*
X165200000Y-59670000D03*
X161136000Y-59670000D03*
X158596000Y-59670000D03*
X156056000Y-59670000D03*
X153516000Y-59670000D03*
X150976000Y-59670000D03*
X148436000Y-59670000D03*
X160120000Y-107930000D03*
X162660000Y-107930000D03*
X145896000Y-59670000D03*
X185659700Y-85118260D03*
X149960000Y-107930000D03*
X183119700Y-80040800D03*
X185659700Y-82580800D03*
X147420000Y-107930000D03*
X152500000Y-107930000D03*
X183119700Y-85118260D03*
X183119700Y-82580800D03*
X138276000Y-59670000D03*
X140816000Y-59670000D03*
X185659700Y-80040800D03*
X165200000Y-107930000D03*
D16*
X134720000Y-59670000D03*
X185520000Y-74910000D03*
X185520000Y-102850000D03*
X133450000Y-107930000D03*
%TD*%
M02*
