%TF.GenerationSoftware,KiCad,Pcbnew,(5.1.9)-1*%
%TF.CreationDate,2021-01-06T17:38:29+00:00*%
%TF.ProjectId,RFMduino,52464d64-7569-46e6-9f2e-6b696361645f,rev?*%
%TF.SameCoordinates,Original*%
%TF.FileFunction,Copper,L1,Top*%
%TF.FilePolarity,Positive*%
%FSLAX46Y46*%
G04 Gerber Fmt 4.6, Leading zero omitted, Abs format (unit mm)*
G04 Created by KiCad (PCBNEW (5.1.9)-1) date 2021-01-06 17:38:29*
%MOMM*%
%LPD*%
G01*
G04 APERTURE LIST*
%TA.AperFunction,ComponentPad*%
%ADD10C,1.879600*%
%TD*%
%TA.AperFunction,ComponentPad*%
%ADD11C,2.550000*%
%TD*%
%TA.AperFunction,SMDPad,CuDef*%
%ADD12R,0.900000X0.800000*%
%TD*%
%TA.AperFunction,SMDPad,CuDef*%
%ADD13R,1.750000X0.950000*%
%TD*%
%TA.AperFunction,SMDPad,CuDef*%
%ADD14R,1.750000X3.200000*%
%TD*%
%TA.AperFunction,SMDPad,CuDef*%
%ADD15R,1.198880X0.599440*%
%TD*%
%TA.AperFunction,SMDPad,CuDef*%
%ADD16R,2.999740X1.198880*%
%TD*%
%TA.AperFunction,ComponentPad*%
%ADD17C,1.930400*%
%TD*%
%TA.AperFunction,ViaPad*%
%ADD18C,0.800000*%
%TD*%
%TA.AperFunction,Conductor*%
%ADD19C,0.500000*%
%TD*%
%TA.AperFunction,Conductor*%
%ADD20C,0.254000*%
%TD*%
%TA.AperFunction,Conductor*%
%ADD21C,0.100000*%
%TD*%
G04 APERTURE END LIST*
%TO.P,C1,1*%
%TO.N,Net-(C1-Pad1)*%
%TA.AperFunction,SMDPad,CuDef*%
G36*
G01*
X153275000Y-73450000D02*
X153275000Y-72950000D01*
G75*
G02*
X153500000Y-72725000I225000J0D01*
G01*
X153950000Y-72725000D01*
G75*
G02*
X154175000Y-72950000I0J-225000D01*
G01*
X154175000Y-73450000D01*
G75*
G02*
X153950000Y-73675000I-225000J0D01*
G01*
X153500000Y-73675000D01*
G75*
G02*
X153275000Y-73450000I0J225000D01*
G01*
G37*
%TD.AperFunction*%
%TO.P,C1,2*%
%TO.N,Earth*%
%TA.AperFunction,SMDPad,CuDef*%
G36*
G01*
X154825000Y-73450000D02*
X154825000Y-72950000D01*
G75*
G02*
X155050000Y-72725000I225000J0D01*
G01*
X155500000Y-72725000D01*
G75*
G02*
X155725000Y-72950000I0J-225000D01*
G01*
X155725000Y-73450000D01*
G75*
G02*
X155500000Y-73675000I-225000J0D01*
G01*
X155050000Y-73675000D01*
G75*
G02*
X154825000Y-73450000I0J225000D01*
G01*
G37*
%TD.AperFunction*%
%TD*%
%TO.P,C2,2*%
%TO.N,Earth*%
%TA.AperFunction,SMDPad,CuDef*%
G36*
G01*
X142175000Y-75350000D02*
X142175000Y-75850000D01*
G75*
G02*
X141950000Y-76075000I-225000J0D01*
G01*
X141500000Y-76075000D01*
G75*
G02*
X141275000Y-75850000I0J225000D01*
G01*
X141275000Y-75350000D01*
G75*
G02*
X141500000Y-75125000I225000J0D01*
G01*
X141950000Y-75125000D01*
G75*
G02*
X142175000Y-75350000I0J-225000D01*
G01*
G37*
%TD.AperFunction*%
%TO.P,C2,1*%
%TO.N,+3V3*%
%TA.AperFunction,SMDPad,CuDef*%
G36*
G01*
X143725000Y-75350000D02*
X143725000Y-75850000D01*
G75*
G02*
X143500000Y-76075000I-225000J0D01*
G01*
X143050000Y-76075000D01*
G75*
G02*
X142825000Y-75850000I0J225000D01*
G01*
X142825000Y-75350000D01*
G75*
G02*
X143050000Y-75125000I225000J0D01*
G01*
X143500000Y-75125000D01*
G75*
G02*
X143725000Y-75350000I0J-225000D01*
G01*
G37*
%TD.AperFunction*%
%TD*%
%TO.P,C3,2*%
%TO.N,Earth*%
%TA.AperFunction,SMDPad,CuDef*%
G36*
G01*
X159850000Y-83475000D02*
X159350000Y-83475000D01*
G75*
G02*
X159125000Y-83250000I0J225000D01*
G01*
X159125000Y-82800000D01*
G75*
G02*
X159350000Y-82575000I225000J0D01*
G01*
X159850000Y-82575000D01*
G75*
G02*
X160075000Y-82800000I0J-225000D01*
G01*
X160075000Y-83250000D01*
G75*
G02*
X159850000Y-83475000I-225000J0D01*
G01*
G37*
%TD.AperFunction*%
%TO.P,C3,1*%
%TO.N,+3V3*%
%TA.AperFunction,SMDPad,CuDef*%
G36*
G01*
X159850000Y-85025000D02*
X159350000Y-85025000D01*
G75*
G02*
X159125000Y-84800000I0J225000D01*
G01*
X159125000Y-84350000D01*
G75*
G02*
X159350000Y-84125000I225000J0D01*
G01*
X159850000Y-84125000D01*
G75*
G02*
X160075000Y-84350000I0J-225000D01*
G01*
X160075000Y-84800000D01*
G75*
G02*
X159850000Y-85025000I-225000J0D01*
G01*
G37*
%TD.AperFunction*%
%TD*%
%TO.P,C4,1*%
%TO.N,+3V3*%
%TA.AperFunction,SMDPad,CuDef*%
G36*
G01*
X134725000Y-90750000D02*
X134725000Y-91250000D01*
G75*
G02*
X134500000Y-91475000I-225000J0D01*
G01*
X134050000Y-91475000D01*
G75*
G02*
X133825000Y-91250000I0J225000D01*
G01*
X133825000Y-90750000D01*
G75*
G02*
X134050000Y-90525000I225000J0D01*
G01*
X134500000Y-90525000D01*
G75*
G02*
X134725000Y-90750000I0J-225000D01*
G01*
G37*
%TD.AperFunction*%
%TO.P,C4,2*%
%TO.N,Earth*%
%TA.AperFunction,SMDPad,CuDef*%
G36*
G01*
X133175000Y-90750000D02*
X133175000Y-91250000D01*
G75*
G02*
X132950000Y-91475000I-225000J0D01*
G01*
X132500000Y-91475000D01*
G75*
G02*
X132275000Y-91250000I0J225000D01*
G01*
X132275000Y-90750000D01*
G75*
G02*
X132500000Y-90525000I225000J0D01*
G01*
X132950000Y-90525000D01*
G75*
G02*
X133175000Y-90750000I0J-225000D01*
G01*
G37*
%TD.AperFunction*%
%TD*%
D10*
%TO.P,J1,1*%
%TO.N,Net-(C1-Pad1)*%
X151500000Y-70000000D03*
%TO.P,J1,2*%
%TO.N,VCC*%
X151500000Y-67460000D03*
%TD*%
%TO.P,J2,1*%
%TO.N,/SDA*%
X172310000Y-69000000D03*
%TO.P,J2,2*%
%TO.N,/SCL*%
X169770000Y-69000000D03*
%TO.P,J2,3*%
%TO.N,5V*%
X167230000Y-69000000D03*
%TO.P,J2,4*%
%TO.N,Earth*%
X164690000Y-69000000D03*
%TD*%
%TO.P,J3,1*%
%TO.N,/ANT*%
X132000000Y-85500000D03*
%TD*%
D11*
%TO.P,J4,1*%
%TO.N,/ANT*%
X124810000Y-85455000D03*
%TO.P,J4,2*%
%TO.N,Earth*%
X122261000Y-88005000D03*
%TO.P,J4,3*%
X127360000Y-88005000D03*
%TO.P,J4,4*%
X127360000Y-82905000D03*
%TO.P,J4,5*%
X122261000Y-82905000D03*
%TD*%
D12*
%TO.P,Q1,1*%
%TO.N,+3V3*%
X177500000Y-79050000D03*
%TO.P,Q1,2*%
%TO.N,/MISO_3V3*%
X177500000Y-80950000D03*
%TO.P,Q1,3*%
%TO.N,/MISO_5V*%
X179500000Y-80000000D03*
%TD*%
%TO.P,R1,2*%
%TO.N,5V*%
%TA.AperFunction,SMDPad,CuDef*%
G36*
G01*
X158725000Y-93925000D02*
X159275000Y-93925000D01*
G75*
G02*
X159475000Y-94125000I0J-200000D01*
G01*
X159475000Y-94525000D01*
G75*
G02*
X159275000Y-94725000I-200000J0D01*
G01*
X158725000Y-94725000D01*
G75*
G02*
X158525000Y-94525000I0J200000D01*
G01*
X158525000Y-94125000D01*
G75*
G02*
X158725000Y-93925000I200000J0D01*
G01*
G37*
%TD.AperFunction*%
%TO.P,R1,1*%
%TO.N,/RST_5V*%
%TA.AperFunction,SMDPad,CuDef*%
G36*
G01*
X158725000Y-92275000D02*
X159275000Y-92275000D01*
G75*
G02*
X159475000Y-92475000I0J-200000D01*
G01*
X159475000Y-92875000D01*
G75*
G02*
X159275000Y-93075000I-200000J0D01*
G01*
X158725000Y-93075000D01*
G75*
G02*
X158525000Y-92875000I0J200000D01*
G01*
X158525000Y-92475000D01*
G75*
G02*
X158725000Y-92275000I200000J0D01*
G01*
G37*
%TD.AperFunction*%
%TD*%
%TO.P,R2,1*%
%TO.N,/CS_5V*%
%TA.AperFunction,SMDPad,CuDef*%
G36*
G01*
X169725000Y-93275000D02*
X170275000Y-93275000D01*
G75*
G02*
X170475000Y-93475000I0J-200000D01*
G01*
X170475000Y-93875000D01*
G75*
G02*
X170275000Y-94075000I-200000J0D01*
G01*
X169725000Y-94075000D01*
G75*
G02*
X169525000Y-93875000I0J200000D01*
G01*
X169525000Y-93475000D01*
G75*
G02*
X169725000Y-93275000I200000J0D01*
G01*
G37*
%TD.AperFunction*%
%TO.P,R2,2*%
%TO.N,5V*%
%TA.AperFunction,SMDPad,CuDef*%
G36*
G01*
X169725000Y-94925000D02*
X170275000Y-94925000D01*
G75*
G02*
X170475000Y-95125000I0J-200000D01*
G01*
X170475000Y-95525000D01*
G75*
G02*
X170275000Y-95725000I-200000J0D01*
G01*
X169725000Y-95725000D01*
G75*
G02*
X169525000Y-95525000I0J200000D01*
G01*
X169525000Y-95125000D01*
G75*
G02*
X169725000Y-94925000I200000J0D01*
G01*
G37*
%TD.AperFunction*%
%TD*%
%TO.P,R3,1*%
%TO.N,5V*%
%TA.AperFunction,SMDPad,CuDef*%
G36*
G01*
X179225000Y-74275000D02*
X179775000Y-74275000D01*
G75*
G02*
X179975000Y-74475000I0J-200000D01*
G01*
X179975000Y-74875000D01*
G75*
G02*
X179775000Y-75075000I-200000J0D01*
G01*
X179225000Y-75075000D01*
G75*
G02*
X179025000Y-74875000I0J200000D01*
G01*
X179025000Y-74475000D01*
G75*
G02*
X179225000Y-74275000I200000J0D01*
G01*
G37*
%TD.AperFunction*%
%TO.P,R3,2*%
%TO.N,/MISO_5V*%
%TA.AperFunction,SMDPad,CuDef*%
G36*
G01*
X179225000Y-75925000D02*
X179775000Y-75925000D01*
G75*
G02*
X179975000Y-76125000I0J-200000D01*
G01*
X179975000Y-76525000D01*
G75*
G02*
X179775000Y-76725000I-200000J0D01*
G01*
X179225000Y-76725000D01*
G75*
G02*
X179025000Y-76525000I0J200000D01*
G01*
X179025000Y-76125000D01*
G75*
G02*
X179225000Y-75925000I200000J0D01*
G01*
G37*
%TD.AperFunction*%
%TD*%
%TO.P,R4,2*%
%TO.N,/MISO_3V3*%
%TA.AperFunction,SMDPad,CuDef*%
G36*
G01*
X175225000Y-80100000D02*
X175775000Y-80100000D01*
G75*
G02*
X175975000Y-80300000I0J-200000D01*
G01*
X175975000Y-80700000D01*
G75*
G02*
X175775000Y-80900000I-200000J0D01*
G01*
X175225000Y-80900000D01*
G75*
G02*
X175025000Y-80700000I0J200000D01*
G01*
X175025000Y-80300000D01*
G75*
G02*
X175225000Y-80100000I200000J0D01*
G01*
G37*
%TD.AperFunction*%
%TO.P,R4,1*%
%TO.N,+3V3*%
%TA.AperFunction,SMDPad,CuDef*%
G36*
G01*
X175225000Y-78450000D02*
X175775000Y-78450000D01*
G75*
G02*
X175975000Y-78650000I0J-200000D01*
G01*
X175975000Y-79050000D01*
G75*
G02*
X175775000Y-79250000I-200000J0D01*
G01*
X175225000Y-79250000D01*
G75*
G02*
X175025000Y-79050000I0J200000D01*
G01*
X175025000Y-78650000D01*
G75*
G02*
X175225000Y-78450000I200000J0D01*
G01*
G37*
%TD.AperFunction*%
%TD*%
D13*
%TO.P,U1,1*%
%TO.N,Earth*%
X151650000Y-77800000D03*
%TO.P,U1,2*%
%TO.N,+3V3*%
X151650000Y-75500000D03*
%TO.P,U1,3*%
%TO.N,Net-(C1-Pad1)*%
X151650000Y-73200000D03*
D14*
%TO.P,U1,2*%
%TO.N,+3V3*%
X145350000Y-75500000D03*
%TD*%
D15*
%TO.P,U2,1*%
%TO.N,+3V3*%
X161200920Y-84555000D03*
%TO.P,U2,2*%
%TO.N,/MOSI_3V3*%
X161200920Y-85825000D03*
%TO.P,U2,3*%
%TO.N,/MOSI_5V*%
X161200920Y-87095000D03*
%TO.P,U2,4*%
%TO.N,/SCK_3V3*%
X161200920Y-88365000D03*
%TO.P,U2,5*%
%TO.N,/SCK_5V*%
X161200920Y-89635000D03*
%TO.P,U2,6*%
%TO.N,/RST_3V3*%
X161200920Y-90905000D03*
%TO.P,U2,7*%
%TO.N,/RST_5V*%
X161200920Y-92175000D03*
%TO.P,U2,8*%
%TO.N,Earth*%
X161200920Y-93445000D03*
%TO.P,U2,9*%
%TO.N,/CS_5V*%
X166799080Y-93445000D03*
%TO.P,U2,10*%
%TO.N,/CS_3V3*%
X166799080Y-92175000D03*
%TO.P,U2,11*%
%TO.N,Net-(U2-Pad11)*%
X166799080Y-90905000D03*
%TO.P,U2,12*%
%TO.N,Net-(U2-Pad12)*%
X166799080Y-89635000D03*
%TO.P,U2,13*%
%TO.N,N/C*%
X166799080Y-88365000D03*
%TO.P,U2,14*%
%TO.N,Net-(U2-Pad14)*%
X166799080Y-87095000D03*
%TO.P,U2,15*%
%TO.N,Net-(U2-Pad15)*%
X166799080Y-85825000D03*
%TO.P,U2,16*%
%TO.N,N/C*%
X166799080Y-84555000D03*
%TD*%
D16*
%TO.P,U3,1*%
%TO.N,Earth*%
X151998080Y-96997700D03*
%TO.P,U3,2*%
%TO.N,/MISO_3V3*%
X151998080Y-94998720D03*
%TO.P,U3,3*%
%TO.N,/MOSI_3V3*%
X151998080Y-92999740D03*
%TO.P,U3,4*%
%TO.N,/SCK_3V3*%
X151998080Y-90998220D03*
%TO.P,U3,5*%
%TO.N,/CS_3V3*%
X151998080Y-89001780D03*
%TO.P,U3,6*%
%TO.N,/RST_3V3*%
X151998080Y-87000260D03*
%TO.P,U3,7*%
%TO.N,Net-(U3-Pad7)*%
X151998080Y-85001280D03*
%TO.P,U3,8*%
%TO.N,Earth*%
X151998080Y-83002300D03*
%TO.P,U3,9*%
%TO.N,/ANT*%
X137001920Y-83002300D03*
%TO.P,U3,10*%
%TO.N,Earth*%
X137001920Y-85001280D03*
%TO.P,U3,11*%
%TO.N,Net-(U3-Pad11)*%
X137001920Y-87000260D03*
%TO.P,U3,12*%
%TO.N,Net-(U3-Pad12)*%
X137001920Y-89001780D03*
%TO.P,U3,13*%
%TO.N,+3V3*%
X137001920Y-90998220D03*
%TO.P,U3,14*%
%TO.N,Net-(U3-Pad14)*%
X137001920Y-92999740D03*
%TO.P,U3,15*%
%TO.N,Net-(U3-Pad15)*%
X137001920Y-94998720D03*
%TO.P,U3,16*%
%TO.N,Net-(U3-Pad16)*%
X137001920Y-96997700D03*
%TD*%
D17*
%TO.P,B1,3.3V*%
%TO.N,Net-(B1-Pad3.3V)*%
X155040000Y-107930000D03*
%TO.P,B1,5V*%
%TO.N,5V*%
X157580000Y-107930000D03*
%TO.P,B1,A0*%
%TO.N,Net-(B1-PadA0)*%
X170280000Y-107930000D03*
%TO.P,B1,A1*%
%TO.N,Net-(B1-PadA1)*%
X172820000Y-107930000D03*
%TO.P,B1,A2*%
%TO.N,Net-(B1-PadA2)*%
X175360000Y-107930000D03*
%TO.P,B1,A3*%
%TO.N,Net-(B1-PadA3)*%
X177900000Y-107930000D03*
%TO.P,B1,A4*%
%TO.N,Net-(B1-PadA4)*%
X180440000Y-107930000D03*
%TO.P,B1,A5*%
%TO.N,Net-(B1-PadA5)*%
X182980000Y-107930000D03*
%TO.P,B1,AREF*%
%TO.N,Net-(B1-PadAREF)*%
X143356000Y-59670000D03*
%TO.P,B1,D0*%
%TO.N,Net-(B1-PadD0)*%
X182980000Y-59670000D03*
%TO.P,B1,D1*%
%TO.N,Net-(B1-PadD1)*%
X180440000Y-59670000D03*
%TO.P,B1,D2*%
%TO.N,Net-(B1-PadD2)*%
X177900000Y-59670000D03*
%TO.P,B1,D3*%
%TO.N,/RST_5V*%
X175360000Y-59670000D03*
%TO.P,B1,D4*%
%TO.N,/CS_5V*%
X172820000Y-59670000D03*
%TO.P,B1,D5*%
%TO.N,Net-(B1-PadD5)*%
X170280000Y-59670000D03*
%TO.P,B1,D6*%
%TO.N,Net-(B1-PadD6)*%
X167740000Y-59670000D03*
%TO.P,B1,D7*%
%TO.N,Net-(B1-PadD7)*%
X165200000Y-59670000D03*
%TO.P,B1,D8*%
%TO.N,Net-(B1-PadD8)*%
X161136000Y-59670000D03*
%TO.P,B1,D9*%
%TO.N,Net-(B1-PadD9)*%
X158596000Y-59670000D03*
%TO.P,B1,D10*%
%TO.N,Net-(B1-PadD10)*%
X156056000Y-59670000D03*
%TO.P,B1,D11*%
%TO.N,Net-(B1-PadD11)*%
X153516000Y-59670000D03*
%TO.P,B1,D12*%
%TO.N,Net-(B1-PadD12)*%
X150976000Y-59670000D03*
%TO.P,B1,D13*%
%TO.N,Net-(B1-PadD13)*%
X148436000Y-59670000D03*
%TO.P,B1,GND@*%
%TO.N,Earth*%
X160120000Y-107930000D03*
X162660000Y-107930000D03*
X145896000Y-59670000D03*
X185659700Y-85118260D03*
%TO.P,B1,IORE*%
%TO.N,Net-(B1-PadIORE)*%
X149960000Y-107930000D03*
%TO.P,B1,MISO*%
%TO.N,/MISO_5V*%
X183119700Y-80040800D03*
%TO.P,B1,MOSI*%
%TO.N,/MOSI_5V*%
X185659700Y-82580800D03*
%TO.P,B1,NC*%
%TO.N,N/C*%
X147420000Y-107930000D03*
%TO.P,B1,RESE*%
%TO.N,Net-(B1-PadRESE)*%
X152500000Y-107930000D03*
X183119700Y-85118260D03*
%TO.P,B1,SCK*%
%TO.N,/SCK_5V*%
X183119700Y-82580800D03*
%TO.P,B1,SCL*%
%TO.N,/SCL*%
X138276000Y-59670000D03*
%TO.P,B1,SDA*%
%TO.N,/SDA*%
X140816000Y-59670000D03*
%TO.P,B1,VCC*%
%TO.N,VCC*%
X185659700Y-80040800D03*
%TO.P,B1,VIN*%
%TO.N,Net-(B1-PadVIN)*%
X165200000Y-107930000D03*
%TD*%
D18*
%TO.N,5V*%
X157075000Y-94325000D03*
X181076600Y-78206600D03*
X178841400Y-89687400D03*
%TO.N,Net-(B1-PadRESE)*%
X178056860Y-85118260D03*
X158419800Y-104546400D03*
%TO.N,/RST_5V*%
X165200000Y-93400000D03*
X171300000Y-93400000D03*
X171300000Y-76700000D03*
X171300000Y-73825000D03*
%TO.N,/CS_5V*%
X170000000Y-76600000D03*
X170200000Y-73100000D03*
%TO.N,Earth*%
X158000000Y-75100000D03*
X153600000Y-78000000D03*
X161200000Y-94300000D03*
X160096200Y-98602800D03*
%TO.N,/MOSI_5V*%
X173800000Y-86900000D03*
X159200000Y-86900000D03*
%TO.N,/SCK_5V*%
X162350000Y-90000000D03*
X172500000Y-90000000D03*
%TO.N,+3V3*%
X145400000Y-80500000D03*
X134000000Y-93000000D03*
X172700000Y-81200000D03*
X168900000Y-81200000D03*
%TO.N,/MISO_3V3*%
X175400000Y-91319254D03*
X175300000Y-81700000D03*
%TO.N,/MOSI_3V3*%
X154900000Y-92999740D03*
X154800000Y-85800000D03*
%TO.N,/RST_3V3*%
X155900000Y-87000000D03*
X156100000Y-93000000D03*
%TO.N,/CS_3V3*%
X163200000Y-92100000D03*
X163200000Y-89100000D03*
X157100000Y-89000000D03*
%TD*%
D19*
%TO.N,5V*%
X179500000Y-74675000D02*
X169475000Y-74675000D01*
X167230000Y-72430000D02*
X167230000Y-69000000D01*
X169475000Y-74675000D02*
X167230000Y-72430000D01*
X160000000Y-95325000D02*
X159000000Y-94325000D01*
X170000000Y-95325000D02*
X160000000Y-95325000D01*
X159000000Y-94325000D02*
X157075000Y-94325000D01*
X179500000Y-74675000D02*
X180575000Y-74675000D01*
X181076600Y-76251600D02*
X181076600Y-78206600D01*
X179500000Y-74675000D02*
X181076600Y-76251600D01*
X178841400Y-89687400D02*
X178841400Y-94843600D01*
X178841400Y-94843600D02*
X167792400Y-105892600D01*
X167792400Y-105892600D02*
X167792400Y-108813600D01*
X167792400Y-108813600D02*
X166903400Y-109702600D01*
X166903400Y-109702600D02*
X158597600Y-109702600D01*
X157580000Y-108685000D02*
X157580000Y-107930000D01*
X158597600Y-109702600D02*
X157580000Y-108685000D01*
%TO.N,Net-(B1-PadRESE)*%
X183119700Y-85118260D02*
X178056860Y-85118260D01*
X158419800Y-104546400D02*
X153619200Y-104546400D01*
X152500000Y-105665600D02*
X152500000Y-107930000D01*
X153619200Y-104546400D02*
X152500000Y-105665600D01*
%TO.N,/RST_5V*%
X159500000Y-92175000D02*
X159000000Y-92675000D01*
X161200920Y-92175000D02*
X159500000Y-92175000D01*
X161640082Y-92175000D02*
X162865082Y-93400000D01*
X161200920Y-92175000D02*
X161640082Y-92175000D01*
X162865082Y-93400000D02*
X165200000Y-93400000D01*
X171300000Y-93400000D02*
X171300000Y-76700000D01*
X175360000Y-61560000D02*
X175360000Y-59670000D01*
X177300000Y-63500000D02*
X175360000Y-61560000D01*
X177300000Y-69600000D02*
X177300000Y-63500000D01*
X173075000Y-73825000D02*
X177300000Y-69600000D01*
X171300000Y-73825000D02*
X173075000Y-73825000D01*
%TO.N,/CS_5V*%
X167029080Y-93675000D02*
X166799080Y-93445000D01*
X170000000Y-93675000D02*
X167029080Y-93675000D01*
X170000000Y-93675000D02*
X170000000Y-76600000D01*
X172820000Y-59670000D02*
X172820000Y-64920000D01*
X172820000Y-64920000D02*
X175200000Y-67300000D01*
X175200000Y-67300000D02*
X175200000Y-69900000D01*
X170200000Y-73100000D02*
X170800000Y-72500000D01*
X172600000Y-72500000D02*
X175200000Y-69900000D01*
X170800000Y-72500000D02*
X172600000Y-72500000D01*
%TO.N,Earth*%
X130355000Y-91000000D02*
X127360000Y-88005000D01*
X132725000Y-91000000D02*
X130355000Y-91000000D01*
X127360000Y-88005000D02*
X122261000Y-88005000D01*
X122261000Y-88005000D02*
X122261000Y-82905000D01*
X122261000Y-82905000D02*
X127360000Y-82905000D01*
X137001920Y-85001280D02*
X135901280Y-85001280D01*
X129165000Y-81100000D02*
X127360000Y-82905000D01*
X139500000Y-81100000D02*
X129165000Y-81100000D01*
X140800000Y-82400000D02*
X139500000Y-81100000D01*
X140800000Y-84300000D02*
X140800000Y-82400000D01*
X140098720Y-85001280D02*
X140800000Y-84300000D01*
X137001920Y-85001280D02*
X140098720Y-85001280D01*
X135002050Y-85001280D02*
X133900000Y-86103330D01*
X137001920Y-85001280D02*
X135002050Y-85001280D01*
X133900000Y-89825000D02*
X132725000Y-91000000D01*
X133900000Y-86103330D02*
X133900000Y-89825000D01*
X141725000Y-78875000D02*
X139500000Y-81100000D01*
X141725000Y-75600000D02*
X141725000Y-78875000D01*
X151650000Y-82654220D02*
X151998080Y-83002300D01*
X151650000Y-77800000D02*
X151650000Y-82654220D01*
X160490000Y-73200000D02*
X164690000Y-69000000D01*
X155275000Y-73200000D02*
X160490000Y-73200000D01*
X155275000Y-73200000D02*
X155275000Y-67875000D01*
X155275000Y-67875000D02*
X150300000Y-62900000D01*
X149126000Y-62900000D02*
X145896000Y-59670000D01*
X150300000Y-62900000D02*
X149126000Y-62900000D01*
X159900000Y-73200000D02*
X158000000Y-75100000D01*
X160490000Y-73200000D02*
X159900000Y-73200000D01*
X151850000Y-78000000D02*
X151650000Y-77800000D01*
X153600000Y-78000000D02*
X151850000Y-78000000D01*
X159600000Y-76700000D02*
X158000000Y-75100000D01*
X159600000Y-83025000D02*
X159600000Y-76700000D01*
X161200920Y-94299080D02*
X161200000Y-94300000D01*
X161200920Y-93445000D02*
X161200920Y-94299080D01*
X151395780Y-82400000D02*
X151998080Y-83002300D01*
X140800000Y-82400000D02*
X151395780Y-82400000D01*
X149998210Y-83002300D02*
X148900000Y-84100510D01*
X151998080Y-83002300D02*
X149998210Y-83002300D01*
X151087748Y-96997700D02*
X151998080Y-96997700D01*
X148900000Y-94809952D02*
X151087748Y-96997700D01*
X148900000Y-84100510D02*
X148900000Y-94809952D01*
X151998080Y-96997700D02*
X155997700Y-96997700D01*
X160120000Y-101120000D02*
X160120000Y-107930000D01*
X155997700Y-96997700D02*
X160120000Y-101120000D01*
X160120000Y-98626600D02*
X160096200Y-98602800D01*
X160120000Y-101120000D02*
X160120000Y-98626600D01*
%TO.N,/MISO_5V*%
X179560800Y-80060800D02*
X179500000Y-80000000D01*
X183019700Y-80060800D02*
X179560800Y-80060800D01*
X179500000Y-80000000D02*
X179500000Y-76325000D01*
%TO.N,/MOSI_5V*%
X185659700Y-82580800D02*
X186580800Y-82580800D01*
X186580800Y-82580800D02*
X187074901Y-83074901D01*
X174000000Y-86900000D02*
X173800000Y-86900000D01*
X161005920Y-86900000D02*
X161200920Y-87095000D01*
X159200000Y-86900000D02*
X161005920Y-86900000D01*
X173800000Y-86900000D02*
X181000000Y-86900000D01*
X181000000Y-86900000D02*
X181400000Y-87300000D01*
X187074901Y-86125099D02*
X187074901Y-83074901D01*
X185900000Y-87300000D02*
X187074901Y-86125099D01*
X181400000Y-87300000D02*
X185900000Y-87300000D01*
%TO.N,/SCK_5V*%
X161985000Y-89635000D02*
X162350000Y-90000000D01*
X161200920Y-89635000D02*
X161985000Y-89635000D01*
X172500000Y-90000000D02*
X172500000Y-85600000D01*
X175519200Y-82580800D02*
X183119700Y-82580800D01*
X172500000Y-85600000D02*
X175519200Y-82580800D01*
%TO.N,Net-(C1-Pad1)*%
X153725000Y-73200000D02*
X151650000Y-73200000D01*
X151650000Y-70150000D02*
X151500000Y-70000000D01*
X151650000Y-73200000D02*
X151650000Y-70150000D01*
%TO.N,+3V3*%
X134276780Y-90998220D02*
X134275000Y-91000000D01*
X137001920Y-90998220D02*
X134276780Y-90998220D01*
X143375000Y-75500000D02*
X143275000Y-75600000D01*
X145350000Y-75500000D02*
X143375000Y-75500000D01*
X151650000Y-75500000D02*
X145350000Y-75500000D01*
X175700000Y-79050000D02*
X175500000Y-78850000D01*
X177500000Y-79050000D02*
X175700000Y-79050000D01*
X159620000Y-84555000D02*
X159600000Y-84575000D01*
X161200920Y-84555000D02*
X159620000Y-84555000D01*
X145350000Y-80450000D02*
X145400000Y-80500000D01*
X145350000Y-75500000D02*
X145350000Y-80450000D01*
X134000000Y-91275000D02*
X134275000Y-91000000D01*
X134000000Y-93000000D02*
X134000000Y-91275000D01*
X175050000Y-78850000D02*
X172700000Y-81200000D01*
X175500000Y-78850000D02*
X175050000Y-78850000D01*
X161200920Y-84555000D02*
X162545000Y-84555000D01*
X165900000Y-81200000D02*
X168900000Y-81200000D01*
X162545000Y-84555000D02*
X165900000Y-81200000D01*
X154600000Y-75500000D02*
X151650000Y-75500000D01*
X155500000Y-76400000D02*
X154600000Y-75500000D01*
X155500000Y-82800000D02*
X155500000Y-76400000D01*
X157275000Y-84575000D02*
X155500000Y-82800000D01*
X159600000Y-84575000D02*
X157275000Y-84575000D01*
%TO.N,/ANT*%
X124855000Y-85500000D02*
X124810000Y-85455000D01*
X132000000Y-85500000D02*
X124855000Y-85500000D01*
X137001920Y-83002300D02*
X133697700Y-83002300D01*
X132000000Y-84700000D02*
X132000000Y-85500000D01*
X133697700Y-83002300D02*
X132000000Y-84700000D01*
%TO.N,/MISO_3V3*%
X175950000Y-80950000D02*
X175500000Y-80500000D01*
X177500000Y-80950000D02*
X175950000Y-80950000D01*
X151998080Y-94998720D02*
X155498720Y-94998720D01*
X156675010Y-96175010D02*
X157475010Y-96175010D01*
X155498720Y-94998720D02*
X156675010Y-96175010D01*
X157475010Y-96175010D02*
X158400000Y-97100000D01*
X169619254Y-97100000D02*
X175400000Y-91319254D01*
X158400000Y-97100000D02*
X169619254Y-97100000D01*
X175300000Y-80700000D02*
X175500000Y-80500000D01*
X175300000Y-81700000D02*
X175300000Y-80700000D01*
%TO.N,/MOSI_3V3*%
X157525000Y-85825000D02*
X157500000Y-85800000D01*
X161200920Y-85825000D02*
X157525000Y-85825000D01*
X154900000Y-92999740D02*
X151998080Y-92999740D01*
X154825000Y-85825000D02*
X154800000Y-85800000D01*
X157525000Y-85825000D02*
X154825000Y-85825000D01*
%TO.N,/SCK_3V3*%
X159235000Y-88365000D02*
X161200920Y-88365000D01*
X156601780Y-90998220D02*
X159235000Y-88365000D01*
X151998080Y-90998220D02*
X156601780Y-90998220D01*
%TO.N,/RST_3V3*%
X161200920Y-90905000D02*
X158095000Y-90905000D01*
X156100000Y-92900000D02*
X156100000Y-93000000D01*
X158095000Y-90905000D02*
X156100000Y-92900000D01*
X155899740Y-87000260D02*
X155900000Y-87000000D01*
X151998080Y-87000260D02*
X155899740Y-87000260D01*
%TO.N,/CS_3V3*%
X163275000Y-92175000D02*
X163200000Y-92100000D01*
X166799080Y-92175000D02*
X163275000Y-92175000D01*
X163200000Y-92100000D02*
X163200000Y-89100000D01*
X151999860Y-89000000D02*
X151998080Y-89001780D01*
X157100000Y-89000000D02*
X151999860Y-89000000D01*
%TD*%
D20*
%TO.N,Earth*%
X133303239Y-57943671D02*
X132993671Y-58253239D01*
X132750446Y-58617251D01*
X132582909Y-59021721D01*
X132497500Y-59451103D01*
X132497500Y-59888897D01*
X132582909Y-60318279D01*
X132750446Y-60722749D01*
X132993671Y-61086761D01*
X133303239Y-61396329D01*
X133667251Y-61639554D01*
X134071721Y-61807091D01*
X134501103Y-61892500D01*
X134938897Y-61892500D01*
X135368279Y-61807091D01*
X135772749Y-61639554D01*
X136136761Y-61396329D01*
X136446329Y-61086761D01*
X136689554Y-60722749D01*
X136834786Y-60372127D01*
X136857921Y-60427979D01*
X137033043Y-60690068D01*
X137255932Y-60912957D01*
X137518021Y-61088079D01*
X137809239Y-61208706D01*
X138118394Y-61270200D01*
X138433606Y-61270200D01*
X138742761Y-61208706D01*
X139033979Y-61088079D01*
X139296068Y-60912957D01*
X139518957Y-60690068D01*
X139546000Y-60649595D01*
X139573043Y-60690068D01*
X139795932Y-60912957D01*
X140058021Y-61088079D01*
X140349239Y-61208706D01*
X140658394Y-61270200D01*
X140973606Y-61270200D01*
X141282761Y-61208706D01*
X141573979Y-61088079D01*
X141836068Y-60912957D01*
X142058957Y-60690068D01*
X142086000Y-60649595D01*
X142113043Y-60690068D01*
X142335932Y-60912957D01*
X142598021Y-61088079D01*
X142889239Y-61208706D01*
X143198394Y-61270200D01*
X143513606Y-61270200D01*
X143822761Y-61208706D01*
X144113979Y-61088079D01*
X144376068Y-60912957D01*
X144508431Y-60780594D01*
X144965011Y-60780594D01*
X145056572Y-61041438D01*
X145340256Y-61178851D01*
X145645296Y-61258279D01*
X145959971Y-61276670D01*
X146272188Y-61233318D01*
X146569948Y-61129888D01*
X146735428Y-61041438D01*
X146826989Y-60780594D01*
X145896000Y-59849605D01*
X144965011Y-60780594D01*
X144508431Y-60780594D01*
X144598957Y-60690068D01*
X144682592Y-60564899D01*
X144785406Y-60600989D01*
X145716395Y-59670000D01*
X146075605Y-59670000D01*
X147006594Y-60600989D01*
X147109408Y-60564899D01*
X147193043Y-60690068D01*
X147415932Y-60912957D01*
X147678021Y-61088079D01*
X147969239Y-61208706D01*
X148278394Y-61270200D01*
X148593606Y-61270200D01*
X148902761Y-61208706D01*
X149193979Y-61088079D01*
X149456068Y-60912957D01*
X149678957Y-60690068D01*
X149706000Y-60649595D01*
X149733043Y-60690068D01*
X149955932Y-60912957D01*
X150218021Y-61088079D01*
X150509239Y-61208706D01*
X150818394Y-61270200D01*
X151133606Y-61270200D01*
X151442761Y-61208706D01*
X151733979Y-61088079D01*
X151996068Y-60912957D01*
X152218957Y-60690068D01*
X152246000Y-60649595D01*
X152273043Y-60690068D01*
X152495932Y-60912957D01*
X152758021Y-61088079D01*
X153049239Y-61208706D01*
X153358394Y-61270200D01*
X153673606Y-61270200D01*
X153982761Y-61208706D01*
X154273979Y-61088079D01*
X154536068Y-60912957D01*
X154758957Y-60690068D01*
X154786000Y-60649595D01*
X154813043Y-60690068D01*
X155035932Y-60912957D01*
X155298021Y-61088079D01*
X155589239Y-61208706D01*
X155898394Y-61270200D01*
X156213606Y-61270200D01*
X156522761Y-61208706D01*
X156813979Y-61088079D01*
X157076068Y-60912957D01*
X157298957Y-60690068D01*
X157326000Y-60649595D01*
X157353043Y-60690068D01*
X157575932Y-60912957D01*
X157838021Y-61088079D01*
X158129239Y-61208706D01*
X158438394Y-61270200D01*
X158753606Y-61270200D01*
X159062761Y-61208706D01*
X159353979Y-61088079D01*
X159616068Y-60912957D01*
X159838957Y-60690068D01*
X159866000Y-60649595D01*
X159893043Y-60690068D01*
X160115932Y-60912957D01*
X160378021Y-61088079D01*
X160669239Y-61208706D01*
X160978394Y-61270200D01*
X161293606Y-61270200D01*
X161602761Y-61208706D01*
X161893979Y-61088079D01*
X162156068Y-60912957D01*
X162378957Y-60690068D01*
X162554079Y-60427979D01*
X162674706Y-60136761D01*
X162736200Y-59827606D01*
X162736200Y-59512394D01*
X162674706Y-59203239D01*
X162554079Y-58912021D01*
X162378957Y-58649932D01*
X162156068Y-58427043D01*
X161893979Y-58251921D01*
X161602761Y-58131294D01*
X161293606Y-58069800D01*
X160978394Y-58069800D01*
X160669239Y-58131294D01*
X160378021Y-58251921D01*
X160115932Y-58427043D01*
X159893043Y-58649932D01*
X159866000Y-58690405D01*
X159838957Y-58649932D01*
X159616068Y-58427043D01*
X159353979Y-58251921D01*
X159062761Y-58131294D01*
X158753606Y-58069800D01*
X158438394Y-58069800D01*
X158129239Y-58131294D01*
X157838021Y-58251921D01*
X157575932Y-58427043D01*
X157353043Y-58649932D01*
X157326000Y-58690405D01*
X157298957Y-58649932D01*
X157076068Y-58427043D01*
X156813979Y-58251921D01*
X156522761Y-58131294D01*
X156213606Y-58069800D01*
X155898394Y-58069800D01*
X155589239Y-58131294D01*
X155298021Y-58251921D01*
X155035932Y-58427043D01*
X154813043Y-58649932D01*
X154786000Y-58690405D01*
X154758957Y-58649932D01*
X154536068Y-58427043D01*
X154273979Y-58251921D01*
X153982761Y-58131294D01*
X153673606Y-58069800D01*
X153358394Y-58069800D01*
X153049239Y-58131294D01*
X152758021Y-58251921D01*
X152495932Y-58427043D01*
X152273043Y-58649932D01*
X152246000Y-58690405D01*
X152218957Y-58649932D01*
X151996068Y-58427043D01*
X151733979Y-58251921D01*
X151442761Y-58131294D01*
X151133606Y-58069800D01*
X150818394Y-58069800D01*
X150509239Y-58131294D01*
X150218021Y-58251921D01*
X149955932Y-58427043D01*
X149733043Y-58649932D01*
X149706000Y-58690405D01*
X149678957Y-58649932D01*
X149456068Y-58427043D01*
X149193979Y-58251921D01*
X148902761Y-58131294D01*
X148593606Y-58069800D01*
X148278394Y-58069800D01*
X147969239Y-58131294D01*
X147678021Y-58251921D01*
X147415932Y-58427043D01*
X147193043Y-58649932D01*
X147109408Y-58775101D01*
X147006594Y-58739011D01*
X146075605Y-59670000D01*
X145716395Y-59670000D01*
X144785406Y-58739011D01*
X144682592Y-58775101D01*
X144598957Y-58649932D01*
X144508431Y-58559406D01*
X144965011Y-58559406D01*
X145896000Y-59490395D01*
X146826989Y-58559406D01*
X146735428Y-58298562D01*
X146451744Y-58161149D01*
X146146704Y-58081721D01*
X145832029Y-58063330D01*
X145519812Y-58106682D01*
X145222052Y-58210112D01*
X145056572Y-58298562D01*
X144965011Y-58559406D01*
X144508431Y-58559406D01*
X144376068Y-58427043D01*
X144113979Y-58251921D01*
X143822761Y-58131294D01*
X143513606Y-58069800D01*
X143198394Y-58069800D01*
X142889239Y-58131294D01*
X142598021Y-58251921D01*
X142335932Y-58427043D01*
X142113043Y-58649932D01*
X142086000Y-58690405D01*
X142058957Y-58649932D01*
X141836068Y-58427043D01*
X141573979Y-58251921D01*
X141282761Y-58131294D01*
X140973606Y-58069800D01*
X140658394Y-58069800D01*
X140349239Y-58131294D01*
X140058021Y-58251921D01*
X139795932Y-58427043D01*
X139573043Y-58649932D01*
X139546000Y-58690405D01*
X139518957Y-58649932D01*
X139296068Y-58427043D01*
X139033979Y-58251921D01*
X138742761Y-58131294D01*
X138433606Y-58069800D01*
X138118394Y-58069800D01*
X137809239Y-58131294D01*
X137518021Y-58251921D01*
X137255932Y-58427043D01*
X137033043Y-58649932D01*
X136857921Y-58912021D01*
X136834786Y-58967873D01*
X136689554Y-58617251D01*
X136446329Y-58253239D01*
X136136761Y-57943671D01*
X135936708Y-57810000D01*
X187427000Y-57810000D01*
X187427000Y-73763633D01*
X187246329Y-73493239D01*
X186936761Y-73183671D01*
X186572749Y-72940446D01*
X186168279Y-72772909D01*
X185738897Y-72687500D01*
X185301103Y-72687500D01*
X184871721Y-72772909D01*
X184467251Y-72940446D01*
X184103239Y-73183671D01*
X183793671Y-73493239D01*
X183550446Y-73857251D01*
X183382909Y-74261721D01*
X183297500Y-74691103D01*
X183297500Y-75128897D01*
X183382909Y-75558279D01*
X183550446Y-75962749D01*
X183793671Y-76326761D01*
X184103239Y-76636329D01*
X184467251Y-76879554D01*
X184871721Y-77047091D01*
X185301103Y-77132500D01*
X185738897Y-77132500D01*
X186168279Y-77047091D01*
X186572749Y-76879554D01*
X186936761Y-76636329D01*
X187246329Y-76326761D01*
X187427000Y-76056367D01*
X187427000Y-82175422D01*
X187237334Y-81985756D01*
X187209617Y-81951983D01*
X187090935Y-81854582D01*
X187077779Y-81822821D01*
X186902657Y-81560732D01*
X186679768Y-81337843D01*
X186639295Y-81310800D01*
X186679768Y-81283757D01*
X186902657Y-81060868D01*
X187077779Y-80798779D01*
X187198406Y-80507561D01*
X187259900Y-80198406D01*
X187259900Y-79883194D01*
X187198406Y-79574039D01*
X187077779Y-79282821D01*
X186902657Y-79020732D01*
X186679768Y-78797843D01*
X186417679Y-78622721D01*
X186126461Y-78502094D01*
X185817306Y-78440600D01*
X185502094Y-78440600D01*
X185192939Y-78502094D01*
X184901721Y-78622721D01*
X184639632Y-78797843D01*
X184416743Y-79020732D01*
X184389700Y-79061205D01*
X184362657Y-79020732D01*
X184139768Y-78797843D01*
X183877679Y-78622721D01*
X183586461Y-78502094D01*
X183277306Y-78440600D01*
X182962094Y-78440600D01*
X182652939Y-78502094D01*
X182361721Y-78622721D01*
X182099632Y-78797843D01*
X181876743Y-79020732D01*
X181773130Y-79175800D01*
X181441330Y-79175800D01*
X181566856Y-79123805D01*
X181736374Y-79010537D01*
X181880537Y-78866374D01*
X181993805Y-78696856D01*
X182071826Y-78508498D01*
X182111600Y-78308539D01*
X182111600Y-78104661D01*
X182071826Y-77904702D01*
X181993805Y-77716344D01*
X181961600Y-77668146D01*
X181961600Y-76295065D01*
X181965881Y-76251599D01*
X181961600Y-76208133D01*
X181961600Y-76208123D01*
X181948795Y-76078110D01*
X181898189Y-75911287D01*
X181816011Y-75757541D01*
X181772706Y-75704774D01*
X181733132Y-75656553D01*
X181733130Y-75656551D01*
X181705417Y-75622783D01*
X181671650Y-75595071D01*
X181283411Y-75206832D01*
X181314411Y-75169059D01*
X181396589Y-75015313D01*
X181447195Y-74848490D01*
X181464282Y-74675000D01*
X181447195Y-74501510D01*
X181396589Y-74334687D01*
X181314411Y-74180941D01*
X181203817Y-74046183D01*
X181069059Y-73935589D01*
X180915313Y-73853411D01*
X180748490Y-73802805D01*
X180618477Y-73790000D01*
X180255024Y-73790000D01*
X180240608Y-73778169D01*
X180095716Y-73700722D01*
X179938500Y-73653031D01*
X179775000Y-73636928D01*
X179225000Y-73636928D01*
X179061500Y-73653031D01*
X178904284Y-73700722D01*
X178759392Y-73778169D01*
X178744976Y-73790000D01*
X174361578Y-73790000D01*
X177895050Y-70256528D01*
X177928817Y-70228817D01*
X178039411Y-70094059D01*
X178121589Y-69940313D01*
X178172195Y-69773490D01*
X178185000Y-69643477D01*
X178185000Y-69643467D01*
X178189281Y-69600001D01*
X178185000Y-69556535D01*
X178185000Y-63543465D01*
X178189281Y-63499999D01*
X178185000Y-63456533D01*
X178185000Y-63456523D01*
X178172195Y-63326510D01*
X178121589Y-63159687D01*
X178039411Y-63005941D01*
X177928817Y-62871183D01*
X177895049Y-62843470D01*
X176245000Y-61193422D01*
X176245000Y-61003206D01*
X176380068Y-60912957D01*
X176602957Y-60690068D01*
X176630000Y-60649595D01*
X176657043Y-60690068D01*
X176879932Y-60912957D01*
X177142021Y-61088079D01*
X177433239Y-61208706D01*
X177742394Y-61270200D01*
X178057606Y-61270200D01*
X178366761Y-61208706D01*
X178657979Y-61088079D01*
X178920068Y-60912957D01*
X179142957Y-60690068D01*
X179170000Y-60649595D01*
X179197043Y-60690068D01*
X179419932Y-60912957D01*
X179682021Y-61088079D01*
X179973239Y-61208706D01*
X180282394Y-61270200D01*
X180597606Y-61270200D01*
X180906761Y-61208706D01*
X181197979Y-61088079D01*
X181460068Y-60912957D01*
X181682957Y-60690068D01*
X181710000Y-60649595D01*
X181737043Y-60690068D01*
X181959932Y-60912957D01*
X182222021Y-61088079D01*
X182513239Y-61208706D01*
X182822394Y-61270200D01*
X183137606Y-61270200D01*
X183446761Y-61208706D01*
X183737979Y-61088079D01*
X184000068Y-60912957D01*
X184222957Y-60690068D01*
X184398079Y-60427979D01*
X184518706Y-60136761D01*
X184580200Y-59827606D01*
X184580200Y-59512394D01*
X184518706Y-59203239D01*
X184398079Y-58912021D01*
X184222957Y-58649932D01*
X184000068Y-58427043D01*
X183737979Y-58251921D01*
X183446761Y-58131294D01*
X183137606Y-58069800D01*
X182822394Y-58069800D01*
X182513239Y-58131294D01*
X182222021Y-58251921D01*
X181959932Y-58427043D01*
X181737043Y-58649932D01*
X181710000Y-58690405D01*
X181682957Y-58649932D01*
X181460068Y-58427043D01*
X181197979Y-58251921D01*
X180906761Y-58131294D01*
X180597606Y-58069800D01*
X180282394Y-58069800D01*
X179973239Y-58131294D01*
X179682021Y-58251921D01*
X179419932Y-58427043D01*
X179197043Y-58649932D01*
X179170000Y-58690405D01*
X179142957Y-58649932D01*
X178920068Y-58427043D01*
X178657979Y-58251921D01*
X178366761Y-58131294D01*
X178057606Y-58069800D01*
X177742394Y-58069800D01*
X177433239Y-58131294D01*
X177142021Y-58251921D01*
X176879932Y-58427043D01*
X176657043Y-58649932D01*
X176630000Y-58690405D01*
X176602957Y-58649932D01*
X176380068Y-58427043D01*
X176117979Y-58251921D01*
X175826761Y-58131294D01*
X175517606Y-58069800D01*
X175202394Y-58069800D01*
X174893239Y-58131294D01*
X174602021Y-58251921D01*
X174339932Y-58427043D01*
X174117043Y-58649932D01*
X174090000Y-58690405D01*
X174062957Y-58649932D01*
X173840068Y-58427043D01*
X173577979Y-58251921D01*
X173286761Y-58131294D01*
X172977606Y-58069800D01*
X172662394Y-58069800D01*
X172353239Y-58131294D01*
X172062021Y-58251921D01*
X171799932Y-58427043D01*
X171577043Y-58649932D01*
X171550000Y-58690405D01*
X171522957Y-58649932D01*
X171300068Y-58427043D01*
X171037979Y-58251921D01*
X170746761Y-58131294D01*
X170437606Y-58069800D01*
X170122394Y-58069800D01*
X169813239Y-58131294D01*
X169522021Y-58251921D01*
X169259932Y-58427043D01*
X169037043Y-58649932D01*
X169010000Y-58690405D01*
X168982957Y-58649932D01*
X168760068Y-58427043D01*
X168497979Y-58251921D01*
X168206761Y-58131294D01*
X167897606Y-58069800D01*
X167582394Y-58069800D01*
X167273239Y-58131294D01*
X166982021Y-58251921D01*
X166719932Y-58427043D01*
X166497043Y-58649932D01*
X166470000Y-58690405D01*
X166442957Y-58649932D01*
X166220068Y-58427043D01*
X165957979Y-58251921D01*
X165666761Y-58131294D01*
X165357606Y-58069800D01*
X165042394Y-58069800D01*
X164733239Y-58131294D01*
X164442021Y-58251921D01*
X164179932Y-58427043D01*
X163957043Y-58649932D01*
X163781921Y-58912021D01*
X163661294Y-59203239D01*
X163599800Y-59512394D01*
X163599800Y-59827606D01*
X163661294Y-60136761D01*
X163781921Y-60427979D01*
X163957043Y-60690068D01*
X164179932Y-60912957D01*
X164442021Y-61088079D01*
X164733239Y-61208706D01*
X165042394Y-61270200D01*
X165357606Y-61270200D01*
X165666761Y-61208706D01*
X165957979Y-61088079D01*
X166220068Y-60912957D01*
X166442957Y-60690068D01*
X166470000Y-60649595D01*
X166497043Y-60690068D01*
X166719932Y-60912957D01*
X166982021Y-61088079D01*
X167273239Y-61208706D01*
X167582394Y-61270200D01*
X167897606Y-61270200D01*
X168206761Y-61208706D01*
X168497979Y-61088079D01*
X168760068Y-60912957D01*
X168982957Y-60690068D01*
X169010000Y-60649595D01*
X169037043Y-60690068D01*
X169259932Y-60912957D01*
X169522021Y-61088079D01*
X169813239Y-61208706D01*
X170122394Y-61270200D01*
X170437606Y-61270200D01*
X170746761Y-61208706D01*
X171037979Y-61088079D01*
X171300068Y-60912957D01*
X171522957Y-60690068D01*
X171550000Y-60649595D01*
X171577043Y-60690068D01*
X171799932Y-60912957D01*
X171935000Y-61003207D01*
X171935001Y-64876521D01*
X171930719Y-64920000D01*
X171947805Y-65093490D01*
X171998412Y-65260313D01*
X172080590Y-65414059D01*
X172163468Y-65515046D01*
X172163471Y-65515049D01*
X172191184Y-65548817D01*
X172224951Y-65576529D01*
X174315000Y-67666579D01*
X174315001Y-69533420D01*
X172233422Y-71615000D01*
X170843465Y-71615000D01*
X170799999Y-71610719D01*
X170756533Y-71615000D01*
X170756523Y-71615000D01*
X170626510Y-71627805D01*
X170459687Y-71678411D01*
X170305941Y-71760589D01*
X170305939Y-71760590D01*
X170305940Y-71760590D01*
X170204953Y-71843468D01*
X170204951Y-71843470D01*
X170171183Y-71871183D01*
X170143470Y-71904951D01*
X169954956Y-72093465D01*
X169898102Y-72104774D01*
X169709744Y-72182795D01*
X169540226Y-72296063D01*
X169396063Y-72440226D01*
X169282795Y-72609744D01*
X169204774Y-72798102D01*
X169165000Y-72998061D01*
X169165000Y-73113421D01*
X168115000Y-72063422D01*
X168115000Y-70302658D01*
X168233877Y-70223227D01*
X168453227Y-70003877D01*
X168500000Y-69933876D01*
X168546773Y-70003877D01*
X168766123Y-70223227D01*
X169024052Y-70395570D01*
X169310648Y-70514282D01*
X169614896Y-70574800D01*
X169925104Y-70574800D01*
X170229352Y-70514282D01*
X170515948Y-70395570D01*
X170773877Y-70223227D01*
X170993227Y-70003877D01*
X171040000Y-69933876D01*
X171086773Y-70003877D01*
X171306123Y-70223227D01*
X171564052Y-70395570D01*
X171850648Y-70514282D01*
X172154896Y-70574800D01*
X172465104Y-70574800D01*
X172769352Y-70514282D01*
X173055948Y-70395570D01*
X173313877Y-70223227D01*
X173533227Y-70003877D01*
X173705570Y-69745948D01*
X173824282Y-69459352D01*
X173884800Y-69155104D01*
X173884800Y-68844896D01*
X173824282Y-68540648D01*
X173705570Y-68254052D01*
X173533227Y-67996123D01*
X173313877Y-67776773D01*
X173055948Y-67604430D01*
X172769352Y-67485718D01*
X172465104Y-67425200D01*
X172154896Y-67425200D01*
X171850648Y-67485718D01*
X171564052Y-67604430D01*
X171306123Y-67776773D01*
X171086773Y-67996123D01*
X171040000Y-68066124D01*
X170993227Y-67996123D01*
X170773877Y-67776773D01*
X170515948Y-67604430D01*
X170229352Y-67485718D01*
X169925104Y-67425200D01*
X169614896Y-67425200D01*
X169310648Y-67485718D01*
X169024052Y-67604430D01*
X168766123Y-67776773D01*
X168546773Y-67996123D01*
X168500000Y-68066124D01*
X168453227Y-67996123D01*
X168233877Y-67776773D01*
X167975948Y-67604430D01*
X167689352Y-67485718D01*
X167385104Y-67425200D01*
X167074896Y-67425200D01*
X166770648Y-67485718D01*
X166484052Y-67604430D01*
X166226123Y-67776773D01*
X166006773Y-67996123D01*
X165915505Y-68132714D01*
X165782476Y-68087129D01*
X164869605Y-69000000D01*
X165782476Y-69912871D01*
X165915505Y-69867286D01*
X166006773Y-70003877D01*
X166226123Y-70223227D01*
X166345001Y-70302659D01*
X166345000Y-72386531D01*
X166340719Y-72430000D01*
X166345000Y-72473469D01*
X166345000Y-72473476D01*
X166357805Y-72603489D01*
X166408411Y-72770312D01*
X166490589Y-72924058D01*
X166601183Y-73058817D01*
X166634956Y-73086534D01*
X168818470Y-75270049D01*
X168846183Y-75303817D01*
X168879951Y-75331530D01*
X168879953Y-75331532D01*
X168903336Y-75350722D01*
X168980941Y-75414411D01*
X169134687Y-75496589D01*
X169301510Y-75547195D01*
X169431523Y-75560000D01*
X169431533Y-75560000D01*
X169474999Y-75564281D01*
X169518465Y-75560000D01*
X178609738Y-75560000D01*
X178528169Y-75659392D01*
X178450722Y-75804284D01*
X178403031Y-75961500D01*
X178386928Y-76125000D01*
X178386928Y-76525000D01*
X178403031Y-76688500D01*
X178450722Y-76845716D01*
X178528169Y-76990608D01*
X178615001Y-77096412D01*
X178615000Y-79135532D01*
X178598815Y-79148815D01*
X178588072Y-79161905D01*
X178588072Y-78650000D01*
X178575812Y-78525518D01*
X178539502Y-78405820D01*
X178480537Y-78295506D01*
X178401185Y-78198815D01*
X178304494Y-78119463D01*
X178194180Y-78060498D01*
X178074482Y-78024188D01*
X177950000Y-78011928D01*
X177050000Y-78011928D01*
X176925518Y-78024188D01*
X176805820Y-78060498D01*
X176695506Y-78119463D01*
X176640019Y-78165000D01*
X176455916Y-78165000D01*
X176367606Y-78057394D01*
X176240608Y-77953169D01*
X176095716Y-77875722D01*
X175938500Y-77828031D01*
X175775000Y-77811928D01*
X175225000Y-77811928D01*
X175061500Y-77828031D01*
X174904284Y-77875722D01*
X174759392Y-77953169D01*
X174632394Y-78057394D01*
X174614367Y-78079360D01*
X174555941Y-78110589D01*
X174454953Y-78193468D01*
X174454951Y-78193470D01*
X174421183Y-78221183D01*
X174393470Y-78254951D01*
X172454957Y-80193465D01*
X172398102Y-80204774D01*
X172209744Y-80282795D01*
X172185000Y-80299328D01*
X172185000Y-77238454D01*
X172217205Y-77190256D01*
X172295226Y-77001898D01*
X172335000Y-76801939D01*
X172335000Y-76598061D01*
X172295226Y-76398102D01*
X172217205Y-76209744D01*
X172103937Y-76040226D01*
X171959774Y-75896063D01*
X171790256Y-75782795D01*
X171601898Y-75704774D01*
X171401939Y-75665000D01*
X171198061Y-75665000D01*
X170998102Y-75704774D01*
X170809744Y-75782795D01*
X170711890Y-75848179D01*
X170659774Y-75796063D01*
X170490256Y-75682795D01*
X170301898Y-75604774D01*
X170101939Y-75565000D01*
X169898061Y-75565000D01*
X169698102Y-75604774D01*
X169509744Y-75682795D01*
X169340226Y-75796063D01*
X169196063Y-75940226D01*
X169082795Y-76109744D01*
X169004774Y-76298102D01*
X168965000Y-76498061D01*
X168965000Y-76701939D01*
X169004774Y-76901898D01*
X169082795Y-77090256D01*
X169115001Y-77138456D01*
X169115001Y-80187489D01*
X169001939Y-80165000D01*
X168798061Y-80165000D01*
X168598102Y-80204774D01*
X168409744Y-80282795D01*
X168361546Y-80315000D01*
X165943469Y-80315000D01*
X165900000Y-80310719D01*
X165856531Y-80315000D01*
X165856523Y-80315000D01*
X165726510Y-80327805D01*
X165559686Y-80378411D01*
X165405941Y-80460589D01*
X165304953Y-80543468D01*
X165304951Y-80543470D01*
X165271183Y-80571183D01*
X165243470Y-80604951D01*
X162178422Y-83670000D01*
X162052439Y-83670000D01*
X162044540Y-83665778D01*
X161924842Y-83629468D01*
X161800360Y-83617208D01*
X160695435Y-83617208D01*
X160700812Y-83599482D01*
X160713072Y-83475000D01*
X160710000Y-83310750D01*
X160551250Y-83152000D01*
X159727000Y-83152000D01*
X159727000Y-83172000D01*
X159473000Y-83172000D01*
X159473000Y-83152000D01*
X158648750Y-83152000D01*
X158490000Y-83310750D01*
X158486928Y-83475000D01*
X158499188Y-83599482D01*
X158526646Y-83690000D01*
X157641579Y-83690000D01*
X156526579Y-82575000D01*
X158486928Y-82575000D01*
X158490000Y-82739250D01*
X158648750Y-82898000D01*
X159473000Y-82898000D01*
X159473000Y-82098750D01*
X159727000Y-82098750D01*
X159727000Y-82898000D01*
X160551250Y-82898000D01*
X160710000Y-82739250D01*
X160713072Y-82575000D01*
X160700812Y-82450518D01*
X160664502Y-82330820D01*
X160605537Y-82220506D01*
X160526185Y-82123815D01*
X160429494Y-82044463D01*
X160319180Y-81985498D01*
X160199482Y-81949188D01*
X160075000Y-81936928D01*
X159885750Y-81940000D01*
X159727000Y-82098750D01*
X159473000Y-82098750D01*
X159314250Y-81940000D01*
X159125000Y-81936928D01*
X159000518Y-81949188D01*
X158880820Y-81985498D01*
X158770506Y-82044463D01*
X158673815Y-82123815D01*
X158594463Y-82220506D01*
X158535498Y-82330820D01*
X158499188Y-82450518D01*
X158486928Y-82575000D01*
X156526579Y-82575000D01*
X156385000Y-82433422D01*
X156385000Y-76443465D01*
X156389281Y-76399999D01*
X156385000Y-76356533D01*
X156385000Y-76356523D01*
X156372195Y-76226510D01*
X156321589Y-76059687D01*
X156239411Y-75905941D01*
X156128817Y-75771183D01*
X156095049Y-75743470D01*
X155256534Y-74904956D01*
X155228817Y-74871183D01*
X155094059Y-74760589D01*
X154940313Y-74678411D01*
X154773490Y-74627805D01*
X154643477Y-74615000D01*
X154643469Y-74615000D01*
X154600000Y-74610719D01*
X154556531Y-74615000D01*
X153009985Y-74615000D01*
X152976185Y-74573815D01*
X152879494Y-74494463D01*
X152769180Y-74435498D01*
X152649482Y-74399188D01*
X152525000Y-74386928D01*
X150775000Y-74386928D01*
X150650518Y-74399188D01*
X150530820Y-74435498D01*
X150420506Y-74494463D01*
X150323815Y-74573815D01*
X150290015Y-74615000D01*
X146863072Y-74615000D01*
X146863072Y-73900000D01*
X146850812Y-73775518D01*
X146814502Y-73655820D01*
X146755537Y-73545506D01*
X146676185Y-73448815D01*
X146579494Y-73369463D01*
X146469180Y-73310498D01*
X146349482Y-73274188D01*
X146225000Y-73261928D01*
X144475000Y-73261928D01*
X144350518Y-73274188D01*
X144230820Y-73310498D01*
X144120506Y-73369463D01*
X144023815Y-73448815D01*
X143944463Y-73545506D01*
X143885498Y-73655820D01*
X143849188Y-73775518D01*
X143836928Y-73900000D01*
X143836928Y-74556177D01*
X143830283Y-74552625D01*
X143668377Y-74503512D01*
X143500000Y-74486928D01*
X143050000Y-74486928D01*
X142881623Y-74503512D01*
X142719717Y-74552625D01*
X142573649Y-74630700D01*
X142529494Y-74594463D01*
X142419180Y-74535498D01*
X142299482Y-74499188D01*
X142175000Y-74486928D01*
X142010750Y-74490000D01*
X141852000Y-74648750D01*
X141852000Y-75473000D01*
X141872000Y-75473000D01*
X141872000Y-75727000D01*
X141852000Y-75727000D01*
X141852000Y-76551250D01*
X142010750Y-76710000D01*
X142175000Y-76713072D01*
X142299482Y-76700812D01*
X142419180Y-76664502D01*
X142529494Y-76605537D01*
X142573649Y-76569300D01*
X142719717Y-76647375D01*
X142881623Y-76696488D01*
X143050000Y-76713072D01*
X143500000Y-76713072D01*
X143668377Y-76696488D01*
X143830283Y-76647375D01*
X143836928Y-76643823D01*
X143836928Y-77100000D01*
X143849188Y-77224482D01*
X143885498Y-77344180D01*
X143944463Y-77454494D01*
X144023815Y-77551185D01*
X144120506Y-77630537D01*
X144230820Y-77689502D01*
X144350518Y-77725812D01*
X144465000Y-77737087D01*
X144465001Y-80052702D01*
X144404774Y-80198102D01*
X144365000Y-80398061D01*
X144365000Y-80601939D01*
X144404774Y-80801898D01*
X144482795Y-80990256D01*
X144596063Y-81159774D01*
X144740226Y-81303937D01*
X144909744Y-81417205D01*
X145098102Y-81495226D01*
X145298061Y-81535000D01*
X145501939Y-81535000D01*
X145701898Y-81495226D01*
X145890256Y-81417205D01*
X146059774Y-81303937D01*
X146203937Y-81159774D01*
X146317205Y-80990256D01*
X146395226Y-80801898D01*
X146435000Y-80601939D01*
X146435000Y-80398061D01*
X146395226Y-80198102D01*
X146317205Y-80009744D01*
X146235000Y-79886715D01*
X146235000Y-78275000D01*
X150136928Y-78275000D01*
X150149188Y-78399482D01*
X150185498Y-78519180D01*
X150244463Y-78629494D01*
X150323815Y-78726185D01*
X150420506Y-78805537D01*
X150530820Y-78864502D01*
X150650518Y-78900812D01*
X150775000Y-78913072D01*
X151364250Y-78910000D01*
X151523000Y-78751250D01*
X151523000Y-77927000D01*
X151777000Y-77927000D01*
X151777000Y-78751250D01*
X151935750Y-78910000D01*
X152525000Y-78913072D01*
X152649482Y-78900812D01*
X152769180Y-78864502D01*
X152879494Y-78805537D01*
X152976185Y-78726185D01*
X153055537Y-78629494D01*
X153114502Y-78519180D01*
X153150812Y-78399482D01*
X153163072Y-78275000D01*
X153160000Y-78085750D01*
X153001250Y-77927000D01*
X151777000Y-77927000D01*
X151523000Y-77927000D01*
X150298750Y-77927000D01*
X150140000Y-78085750D01*
X150136928Y-78275000D01*
X146235000Y-78275000D01*
X146235000Y-77737087D01*
X146349482Y-77725812D01*
X146469180Y-77689502D01*
X146579494Y-77630537D01*
X146676185Y-77551185D01*
X146755537Y-77454494D01*
X146814502Y-77344180D01*
X146820320Y-77325000D01*
X150136928Y-77325000D01*
X150140000Y-77514250D01*
X150298750Y-77673000D01*
X151523000Y-77673000D01*
X151523000Y-76848750D01*
X151777000Y-76848750D01*
X151777000Y-77673000D01*
X153001250Y-77673000D01*
X153160000Y-77514250D01*
X153163072Y-77325000D01*
X153150812Y-77200518D01*
X153114502Y-77080820D01*
X153055537Y-76970506D01*
X152976185Y-76873815D01*
X152879494Y-76794463D01*
X152769180Y-76735498D01*
X152649482Y-76699188D01*
X152525000Y-76686928D01*
X151935750Y-76690000D01*
X151777000Y-76848750D01*
X151523000Y-76848750D01*
X151364250Y-76690000D01*
X150775000Y-76686928D01*
X150650518Y-76699188D01*
X150530820Y-76735498D01*
X150420506Y-76794463D01*
X150323815Y-76873815D01*
X150244463Y-76970506D01*
X150185498Y-77080820D01*
X150149188Y-77200518D01*
X150136928Y-77325000D01*
X146820320Y-77325000D01*
X146850812Y-77224482D01*
X146863072Y-77100000D01*
X146863072Y-76385000D01*
X150290015Y-76385000D01*
X150323815Y-76426185D01*
X150420506Y-76505537D01*
X150530820Y-76564502D01*
X150650518Y-76600812D01*
X150775000Y-76613072D01*
X152525000Y-76613072D01*
X152649482Y-76600812D01*
X152769180Y-76564502D01*
X152879494Y-76505537D01*
X152976185Y-76426185D01*
X153009985Y-76385000D01*
X154233422Y-76385000D01*
X154615001Y-76766580D01*
X154615000Y-82756531D01*
X154610719Y-82800000D01*
X154615000Y-82843469D01*
X154615000Y-82843476D01*
X154627805Y-82973489D01*
X154678411Y-83140312D01*
X154760589Y-83294058D01*
X154871183Y-83428817D01*
X154904956Y-83456534D01*
X156388421Y-84940000D01*
X155375870Y-84940000D01*
X155290256Y-84882795D01*
X155101898Y-84804774D01*
X154901939Y-84765000D01*
X154698061Y-84765000D01*
X154498102Y-84804774D01*
X154309744Y-84882795D01*
X154140226Y-84996063D01*
X154136022Y-85000267D01*
X154136022Y-84401840D01*
X154123762Y-84277358D01*
X154087452Y-84157660D01*
X154028487Y-84047346D01*
X153991100Y-84001790D01*
X154028487Y-83956234D01*
X154087452Y-83845920D01*
X154123762Y-83726222D01*
X154136022Y-83601740D01*
X154132950Y-83288050D01*
X153974200Y-83129300D01*
X152125080Y-83129300D01*
X152125080Y-83149300D01*
X151871080Y-83149300D01*
X151871080Y-83129300D01*
X150021960Y-83129300D01*
X149863210Y-83288050D01*
X149860138Y-83601740D01*
X149872398Y-83726222D01*
X149908708Y-83845920D01*
X149967673Y-83956234D01*
X150005060Y-84001790D01*
X149967673Y-84047346D01*
X149908708Y-84157660D01*
X149872398Y-84277358D01*
X149860138Y-84401840D01*
X149860138Y-85600720D01*
X149872398Y-85725202D01*
X149908708Y-85844900D01*
X149967673Y-85955214D01*
X150005060Y-86000770D01*
X149967673Y-86046326D01*
X149908708Y-86156640D01*
X149872398Y-86276338D01*
X149860138Y-86400820D01*
X149860138Y-87599700D01*
X149872398Y-87724182D01*
X149908708Y-87843880D01*
X149967673Y-87954194D01*
X150006102Y-88001020D01*
X149967673Y-88047846D01*
X149908708Y-88158160D01*
X149872398Y-88277858D01*
X149860138Y-88402340D01*
X149860138Y-89601220D01*
X149872398Y-89725702D01*
X149908708Y-89845400D01*
X149967673Y-89955714D01*
X150004017Y-90000000D01*
X149967673Y-90044286D01*
X149908708Y-90154600D01*
X149872398Y-90274298D01*
X149860138Y-90398780D01*
X149860138Y-91597660D01*
X149872398Y-91722142D01*
X149908708Y-91841840D01*
X149967673Y-91952154D01*
X150006102Y-91998980D01*
X149967673Y-92045806D01*
X149908708Y-92156120D01*
X149872398Y-92275818D01*
X149860138Y-92400300D01*
X149860138Y-93599180D01*
X149872398Y-93723662D01*
X149908708Y-93843360D01*
X149967673Y-93953674D01*
X150005060Y-93999230D01*
X149967673Y-94044786D01*
X149908708Y-94155100D01*
X149872398Y-94274798D01*
X149860138Y-94399280D01*
X149860138Y-95598160D01*
X149872398Y-95722642D01*
X149908708Y-95842340D01*
X149967673Y-95952654D01*
X150005060Y-95998210D01*
X149967673Y-96043766D01*
X149908708Y-96154080D01*
X149872398Y-96273778D01*
X149860138Y-96398260D01*
X149863210Y-96711950D01*
X150021960Y-96870700D01*
X151871080Y-96870700D01*
X151871080Y-96850700D01*
X152125080Y-96850700D01*
X152125080Y-96870700D01*
X153974200Y-96870700D01*
X154132950Y-96711950D01*
X154136022Y-96398260D01*
X154123762Y-96273778D01*
X154087452Y-96154080D01*
X154028487Y-96043766D01*
X153991100Y-95998210D01*
X154028487Y-95952654D01*
X154065334Y-95883720D01*
X155132142Y-95883720D01*
X156018480Y-96770059D01*
X156046193Y-96803827D01*
X156079961Y-96831540D01*
X156079963Y-96831542D01*
X156127677Y-96870700D01*
X156180951Y-96914421D01*
X156334697Y-96996599D01*
X156501520Y-97047205D01*
X156631533Y-97060010D01*
X156631543Y-97060010D01*
X156675009Y-97064291D01*
X156718475Y-97060010D01*
X157108432Y-97060010D01*
X157743470Y-97695049D01*
X157771183Y-97728817D01*
X157804951Y-97756530D01*
X157804953Y-97756532D01*
X157861026Y-97802550D01*
X157905941Y-97839411D01*
X158059687Y-97921589D01*
X158226510Y-97972195D01*
X158356523Y-97985000D01*
X158356533Y-97985000D01*
X158399999Y-97989281D01*
X158443465Y-97985000D01*
X169575785Y-97985000D01*
X169619254Y-97989281D01*
X169662723Y-97985000D01*
X169662731Y-97985000D01*
X169792744Y-97972195D01*
X169959567Y-97921589D01*
X170113313Y-97839411D01*
X170248071Y-97728817D01*
X170275788Y-97695044D01*
X175645044Y-92325789D01*
X175701898Y-92314480D01*
X175890256Y-92236459D01*
X176059774Y-92123191D01*
X176203937Y-91979028D01*
X176317205Y-91809510D01*
X176395226Y-91621152D01*
X176435000Y-91421193D01*
X176435000Y-91217315D01*
X176395226Y-91017356D01*
X176317205Y-90828998D01*
X176203937Y-90659480D01*
X176059774Y-90515317D01*
X175890256Y-90402049D01*
X175701898Y-90324028D01*
X175501939Y-90284254D01*
X175298061Y-90284254D01*
X175098102Y-90324028D01*
X174909744Y-90402049D01*
X174740226Y-90515317D01*
X174596063Y-90659480D01*
X174482795Y-90828998D01*
X174404774Y-91017356D01*
X174393465Y-91074210D01*
X172307561Y-93160114D01*
X172295226Y-93098102D01*
X172217205Y-92909744D01*
X172185000Y-92861546D01*
X172185000Y-90989799D01*
X172198102Y-90995226D01*
X172398061Y-91035000D01*
X172601939Y-91035000D01*
X172801898Y-90995226D01*
X172990256Y-90917205D01*
X173159774Y-90803937D01*
X173303937Y-90659774D01*
X173417205Y-90490256D01*
X173495226Y-90301898D01*
X173535000Y-90101939D01*
X173535000Y-89898061D01*
X173495226Y-89698102D01*
X173417205Y-89509744D01*
X173385000Y-89461546D01*
X173385000Y-87848377D01*
X173498102Y-87895226D01*
X173698061Y-87935000D01*
X173901939Y-87935000D01*
X174101898Y-87895226D01*
X174290256Y-87817205D01*
X174338454Y-87785000D01*
X180633422Y-87785000D01*
X180743466Y-87895044D01*
X180771183Y-87928817D01*
X180905941Y-88039411D01*
X181059687Y-88121589D01*
X181226510Y-88172195D01*
X181356523Y-88185000D01*
X181356533Y-88185000D01*
X181399999Y-88189281D01*
X181443465Y-88185000D01*
X185856531Y-88185000D01*
X185900000Y-88189281D01*
X185943469Y-88185000D01*
X185943477Y-88185000D01*
X186073490Y-88172195D01*
X186240313Y-88121589D01*
X186394059Y-88039411D01*
X186528817Y-87928817D01*
X186556534Y-87895044D01*
X187427001Y-87024578D01*
X187427001Y-101703634D01*
X187246329Y-101433239D01*
X186936761Y-101123671D01*
X186572749Y-100880446D01*
X186168279Y-100712909D01*
X185738897Y-100627500D01*
X185301103Y-100627500D01*
X184871721Y-100712909D01*
X184467251Y-100880446D01*
X184103239Y-101123671D01*
X183793671Y-101433239D01*
X183550446Y-101797251D01*
X183382909Y-102201721D01*
X183297500Y-102631103D01*
X183297500Y-103068897D01*
X183382909Y-103498279D01*
X183550446Y-103902749D01*
X183793671Y-104266761D01*
X184103239Y-104576329D01*
X184467251Y-104819554D01*
X184871721Y-104987091D01*
X185301103Y-105072500D01*
X185738897Y-105072500D01*
X186168279Y-104987091D01*
X186572749Y-104819554D01*
X186936761Y-104576329D01*
X187246329Y-104266761D01*
X187427001Y-103996366D01*
X187427001Y-109830000D01*
X168027579Y-109830000D01*
X168387449Y-109470130D01*
X168421217Y-109442417D01*
X168486980Y-109362286D01*
X168531811Y-109307659D01*
X168600548Y-109179059D01*
X168613989Y-109153913D01*
X168664595Y-108987090D01*
X168677400Y-108857077D01*
X168677400Y-108857069D01*
X168681681Y-108813600D01*
X168677400Y-108770131D01*
X168677400Y-107772394D01*
X168679800Y-107772394D01*
X168679800Y-108087606D01*
X168741294Y-108396761D01*
X168861921Y-108687979D01*
X169037043Y-108950068D01*
X169259932Y-109172957D01*
X169522021Y-109348079D01*
X169813239Y-109468706D01*
X170122394Y-109530200D01*
X170437606Y-109530200D01*
X170746761Y-109468706D01*
X171037979Y-109348079D01*
X171300068Y-109172957D01*
X171522957Y-108950068D01*
X171550000Y-108909595D01*
X171577043Y-108950068D01*
X171799932Y-109172957D01*
X172062021Y-109348079D01*
X172353239Y-109468706D01*
X172662394Y-109530200D01*
X172977606Y-109530200D01*
X173286761Y-109468706D01*
X173577979Y-109348079D01*
X173840068Y-109172957D01*
X174062957Y-108950068D01*
X174090000Y-108909595D01*
X174117043Y-108950068D01*
X174339932Y-109172957D01*
X174602021Y-109348079D01*
X174893239Y-109468706D01*
X175202394Y-109530200D01*
X175517606Y-109530200D01*
X175826761Y-109468706D01*
X176117979Y-109348079D01*
X176380068Y-109172957D01*
X176602957Y-108950068D01*
X176630000Y-108909595D01*
X176657043Y-108950068D01*
X176879932Y-109172957D01*
X177142021Y-109348079D01*
X177433239Y-109468706D01*
X177742394Y-109530200D01*
X178057606Y-109530200D01*
X178366761Y-109468706D01*
X178657979Y-109348079D01*
X178920068Y-109172957D01*
X179142957Y-108950068D01*
X179170000Y-108909595D01*
X179197043Y-108950068D01*
X179419932Y-109172957D01*
X179682021Y-109348079D01*
X179973239Y-109468706D01*
X180282394Y-109530200D01*
X180597606Y-109530200D01*
X180906761Y-109468706D01*
X181197979Y-109348079D01*
X181460068Y-109172957D01*
X181682957Y-108950068D01*
X181710000Y-108909595D01*
X181737043Y-108950068D01*
X181959932Y-109172957D01*
X182222021Y-109348079D01*
X182513239Y-109468706D01*
X182822394Y-109530200D01*
X183137606Y-109530200D01*
X183446761Y-109468706D01*
X183737979Y-109348079D01*
X184000068Y-109172957D01*
X184222957Y-108950068D01*
X184398079Y-108687979D01*
X184518706Y-108396761D01*
X184580200Y-108087606D01*
X184580200Y-107772394D01*
X184518706Y-107463239D01*
X184398079Y-107172021D01*
X184222957Y-106909932D01*
X184000068Y-106687043D01*
X183737979Y-106511921D01*
X183446761Y-106391294D01*
X183137606Y-106329800D01*
X182822394Y-106329800D01*
X182513239Y-106391294D01*
X182222021Y-106511921D01*
X181959932Y-106687043D01*
X181737043Y-106909932D01*
X181710000Y-106950405D01*
X181682957Y-106909932D01*
X181460068Y-106687043D01*
X181197979Y-106511921D01*
X180906761Y-106391294D01*
X180597606Y-106329800D01*
X180282394Y-106329800D01*
X179973239Y-106391294D01*
X179682021Y-106511921D01*
X179419932Y-106687043D01*
X179197043Y-106909932D01*
X179170000Y-106950405D01*
X179142957Y-106909932D01*
X178920068Y-106687043D01*
X178657979Y-106511921D01*
X178366761Y-106391294D01*
X178057606Y-106329800D01*
X177742394Y-106329800D01*
X177433239Y-106391294D01*
X177142021Y-106511921D01*
X176879932Y-106687043D01*
X176657043Y-106909932D01*
X176630000Y-106950405D01*
X176602957Y-106909932D01*
X176380068Y-106687043D01*
X176117979Y-106511921D01*
X175826761Y-106391294D01*
X175517606Y-106329800D01*
X175202394Y-106329800D01*
X174893239Y-106391294D01*
X174602021Y-106511921D01*
X174339932Y-106687043D01*
X174117043Y-106909932D01*
X174090000Y-106950405D01*
X174062957Y-106909932D01*
X173840068Y-106687043D01*
X173577979Y-106511921D01*
X173286761Y-106391294D01*
X172977606Y-106329800D01*
X172662394Y-106329800D01*
X172353239Y-106391294D01*
X172062021Y-106511921D01*
X171799932Y-106687043D01*
X171577043Y-106909932D01*
X171550000Y-106950405D01*
X171522957Y-106909932D01*
X171300068Y-106687043D01*
X171037979Y-106511921D01*
X170746761Y-106391294D01*
X170437606Y-106329800D01*
X170122394Y-106329800D01*
X169813239Y-106391294D01*
X169522021Y-106511921D01*
X169259932Y-106687043D01*
X169037043Y-106909932D01*
X168861921Y-107172021D01*
X168741294Y-107463239D01*
X168679800Y-107772394D01*
X168677400Y-107772394D01*
X168677400Y-106259178D01*
X179436449Y-95500130D01*
X179470217Y-95472417D01*
X179500433Y-95435600D01*
X179580811Y-95337659D01*
X179662989Y-95183914D01*
X179713595Y-95017090D01*
X179719070Y-94961500D01*
X179726400Y-94887077D01*
X179726400Y-94887069D01*
X179730681Y-94843600D01*
X179726400Y-94800131D01*
X179726400Y-90225854D01*
X179758605Y-90177656D01*
X179836626Y-89989298D01*
X179876400Y-89789339D01*
X179876400Y-89585461D01*
X179836626Y-89385502D01*
X179758605Y-89197144D01*
X179645337Y-89027626D01*
X179501174Y-88883463D01*
X179331656Y-88770195D01*
X179143298Y-88692174D01*
X178943339Y-88652400D01*
X178739461Y-88652400D01*
X178539502Y-88692174D01*
X178351144Y-88770195D01*
X178181626Y-88883463D01*
X178037463Y-89027626D01*
X177924195Y-89197144D01*
X177846174Y-89385502D01*
X177806400Y-89585461D01*
X177806400Y-89789339D01*
X177846174Y-89989298D01*
X177924195Y-90177656D01*
X177956400Y-90225854D01*
X177956401Y-94477020D01*
X167197356Y-105236066D01*
X167163583Y-105263783D01*
X167052989Y-105398542D01*
X166970811Y-105552288D01*
X166920205Y-105719111D01*
X166907400Y-105849124D01*
X166907400Y-105849131D01*
X166903119Y-105892600D01*
X166907400Y-105936069D01*
X166907401Y-108447020D01*
X166536822Y-108817600D01*
X166531469Y-108817600D01*
X166618079Y-108687979D01*
X166738706Y-108396761D01*
X166800200Y-108087606D01*
X166800200Y-107772394D01*
X166738706Y-107463239D01*
X166618079Y-107172021D01*
X166442957Y-106909932D01*
X166220068Y-106687043D01*
X165957979Y-106511921D01*
X165666761Y-106391294D01*
X165357606Y-106329800D01*
X165042394Y-106329800D01*
X164733239Y-106391294D01*
X164442021Y-106511921D01*
X164179932Y-106687043D01*
X163957043Y-106909932D01*
X163873408Y-107035101D01*
X163770594Y-106999011D01*
X162839605Y-107930000D01*
X162853748Y-107944143D01*
X162674143Y-108123748D01*
X162660000Y-108109605D01*
X162645858Y-108123748D01*
X162466253Y-107944143D01*
X162480395Y-107930000D01*
X161549406Y-106999011D01*
X161390000Y-107054965D01*
X161230594Y-106999011D01*
X160299605Y-107930000D01*
X160313748Y-107944143D01*
X160134143Y-108123748D01*
X160120000Y-108109605D01*
X160105858Y-108123748D01*
X159926253Y-107944143D01*
X159940395Y-107930000D01*
X159009406Y-106999011D01*
X158906592Y-107035101D01*
X158822957Y-106909932D01*
X158732431Y-106819406D01*
X159189011Y-106819406D01*
X160120000Y-107750395D01*
X161050989Y-106819406D01*
X161729011Y-106819406D01*
X162660000Y-107750395D01*
X163590989Y-106819406D01*
X163499428Y-106558562D01*
X163215744Y-106421149D01*
X162910704Y-106341721D01*
X162596029Y-106323330D01*
X162283812Y-106366682D01*
X161986052Y-106470112D01*
X161820572Y-106558562D01*
X161729011Y-106819406D01*
X161050989Y-106819406D01*
X160959428Y-106558562D01*
X160675744Y-106421149D01*
X160370704Y-106341721D01*
X160056029Y-106323330D01*
X159743812Y-106366682D01*
X159446052Y-106470112D01*
X159280572Y-106558562D01*
X159189011Y-106819406D01*
X158732431Y-106819406D01*
X158600068Y-106687043D01*
X158337979Y-106511921D01*
X158046761Y-106391294D01*
X157737606Y-106329800D01*
X157422394Y-106329800D01*
X157113239Y-106391294D01*
X156822021Y-106511921D01*
X156559932Y-106687043D01*
X156337043Y-106909932D01*
X156310000Y-106950405D01*
X156282957Y-106909932D01*
X156060068Y-106687043D01*
X155797979Y-106511921D01*
X155506761Y-106391294D01*
X155197606Y-106329800D01*
X154882394Y-106329800D01*
X154573239Y-106391294D01*
X154282021Y-106511921D01*
X154019932Y-106687043D01*
X153797043Y-106909932D01*
X153770000Y-106950405D01*
X153742957Y-106909932D01*
X153520068Y-106687043D01*
X153385000Y-106596794D01*
X153385000Y-106032178D01*
X153985779Y-105431400D01*
X157881346Y-105431400D01*
X157929544Y-105463605D01*
X158117902Y-105541626D01*
X158317861Y-105581400D01*
X158521739Y-105581400D01*
X158721698Y-105541626D01*
X158910056Y-105463605D01*
X159079574Y-105350337D01*
X159223737Y-105206174D01*
X159337005Y-105036656D01*
X159415026Y-104848298D01*
X159454800Y-104648339D01*
X159454800Y-104444461D01*
X159415026Y-104244502D01*
X159337005Y-104056144D01*
X159223737Y-103886626D01*
X159079574Y-103742463D01*
X158910056Y-103629195D01*
X158721698Y-103551174D01*
X158521739Y-103511400D01*
X158317861Y-103511400D01*
X158117902Y-103551174D01*
X157929544Y-103629195D01*
X157881346Y-103661400D01*
X153662669Y-103661400D01*
X153619200Y-103657119D01*
X153575731Y-103661400D01*
X153575723Y-103661400D01*
X153445710Y-103674205D01*
X153278887Y-103724811D01*
X153125141Y-103806989D01*
X153024153Y-103889868D01*
X153024151Y-103889870D01*
X152990383Y-103917583D01*
X152962670Y-103951351D01*
X151904956Y-105009066D01*
X151871183Y-105036783D01*
X151760589Y-105171542D01*
X151678411Y-105325288D01*
X151627805Y-105492111D01*
X151615000Y-105622124D01*
X151615000Y-105622131D01*
X151610719Y-105665600D01*
X151615000Y-105709069D01*
X151615000Y-106596793D01*
X151479932Y-106687043D01*
X151257043Y-106909932D01*
X151230000Y-106950405D01*
X151202957Y-106909932D01*
X150980068Y-106687043D01*
X150717979Y-106511921D01*
X150426761Y-106391294D01*
X150117606Y-106329800D01*
X149802394Y-106329800D01*
X149493239Y-106391294D01*
X149202021Y-106511921D01*
X148939932Y-106687043D01*
X148717043Y-106909932D01*
X148690000Y-106950405D01*
X148662957Y-106909932D01*
X148440068Y-106687043D01*
X148177979Y-106511921D01*
X147886761Y-106391294D01*
X147577606Y-106329800D01*
X147262394Y-106329800D01*
X146953239Y-106391294D01*
X146662021Y-106511921D01*
X146399932Y-106687043D01*
X146177043Y-106909932D01*
X146001921Y-107172021D01*
X145881294Y-107463239D01*
X145819800Y-107772394D01*
X145819800Y-108087606D01*
X145881294Y-108396761D01*
X146001921Y-108687979D01*
X146177043Y-108950068D01*
X146399932Y-109172957D01*
X146662021Y-109348079D01*
X146953239Y-109468706D01*
X147262394Y-109530200D01*
X147577606Y-109530200D01*
X147886761Y-109468706D01*
X148177979Y-109348079D01*
X148440068Y-109172957D01*
X148662957Y-108950068D01*
X148690000Y-108909595D01*
X148717043Y-108950068D01*
X148939932Y-109172957D01*
X149202021Y-109348079D01*
X149493239Y-109468706D01*
X149802394Y-109530200D01*
X150117606Y-109530200D01*
X150426761Y-109468706D01*
X150717979Y-109348079D01*
X150980068Y-109172957D01*
X151202957Y-108950068D01*
X151230000Y-108909595D01*
X151257043Y-108950068D01*
X151479932Y-109172957D01*
X151742021Y-109348079D01*
X152033239Y-109468706D01*
X152342394Y-109530200D01*
X152657606Y-109530200D01*
X152966761Y-109468706D01*
X153257979Y-109348079D01*
X153520068Y-109172957D01*
X153742957Y-108950068D01*
X153770000Y-108909595D01*
X153797043Y-108950068D01*
X154019932Y-109172957D01*
X154282021Y-109348079D01*
X154573239Y-109468706D01*
X154882394Y-109530200D01*
X155197606Y-109530200D01*
X155506761Y-109468706D01*
X155797979Y-109348079D01*
X156060068Y-109172957D01*
X156282957Y-108950068D01*
X156310000Y-108909595D01*
X156337043Y-108950068D01*
X156559932Y-109172957D01*
X156822021Y-109348079D01*
X157111342Y-109467920D01*
X157473421Y-109830000D01*
X134606844Y-109830000D01*
X134866761Y-109656329D01*
X135176329Y-109346761D01*
X135419554Y-108982749D01*
X135587091Y-108578279D01*
X135672500Y-108148897D01*
X135672500Y-107711103D01*
X135587091Y-107281721D01*
X135419554Y-106877251D01*
X135176329Y-106513239D01*
X134866761Y-106203671D01*
X134502749Y-105960446D01*
X134098279Y-105792909D01*
X133668897Y-105707500D01*
X133231103Y-105707500D01*
X132801721Y-105792909D01*
X132397251Y-105960446D01*
X132033239Y-106203671D01*
X131851000Y-106385910D01*
X131851000Y-98203418D01*
X131854193Y-98171000D01*
X131841450Y-98041617D01*
X131803710Y-97917207D01*
X131742425Y-97802550D01*
X131659948Y-97702052D01*
X131559450Y-97619575D01*
X131444793Y-97558290D01*
X131320383Y-97520550D01*
X131223419Y-97511000D01*
X131191000Y-97507807D01*
X131158581Y-97511000D01*
X120167000Y-97511000D01*
X120167000Y-91475000D01*
X131636928Y-91475000D01*
X131649188Y-91599482D01*
X131685498Y-91719180D01*
X131744463Y-91829494D01*
X131823815Y-91926185D01*
X131920506Y-92005537D01*
X132030820Y-92064502D01*
X132150518Y-92100812D01*
X132275000Y-92113072D01*
X132439250Y-92110000D01*
X132598000Y-91951250D01*
X132598000Y-91127000D01*
X131798750Y-91127000D01*
X131640000Y-91285750D01*
X131636928Y-91475000D01*
X120167000Y-91475000D01*
X120167000Y-90525000D01*
X131636928Y-90525000D01*
X131640000Y-90714250D01*
X131798750Y-90873000D01*
X132598000Y-90873000D01*
X132598000Y-90048750D01*
X132852000Y-90048750D01*
X132852000Y-90873000D01*
X132872000Y-90873000D01*
X132872000Y-91127000D01*
X132852000Y-91127000D01*
X132852000Y-91951250D01*
X133010750Y-92110000D01*
X133115001Y-92111950D01*
X133115000Y-92461545D01*
X133082795Y-92509744D01*
X133004774Y-92698102D01*
X132965000Y-92898061D01*
X132965000Y-93101939D01*
X133004774Y-93301898D01*
X133082795Y-93490256D01*
X133196063Y-93659774D01*
X133340226Y-93803937D01*
X133509744Y-93917205D01*
X133698102Y-93995226D01*
X133898061Y-94035000D01*
X134101939Y-94035000D01*
X134301898Y-93995226D01*
X134490256Y-93917205D01*
X134659774Y-93803937D01*
X134803937Y-93659774D01*
X134863978Y-93569916D01*
X134863978Y-93599180D01*
X134876238Y-93723662D01*
X134912548Y-93843360D01*
X134971513Y-93953674D01*
X135008900Y-93999230D01*
X134971513Y-94044786D01*
X134912548Y-94155100D01*
X134876238Y-94274798D01*
X134863978Y-94399280D01*
X134863978Y-95598160D01*
X134876238Y-95722642D01*
X134912548Y-95842340D01*
X134971513Y-95952654D01*
X135008900Y-95998210D01*
X134971513Y-96043766D01*
X134912548Y-96154080D01*
X134876238Y-96273778D01*
X134863978Y-96398260D01*
X134863978Y-97597140D01*
X134876238Y-97721622D01*
X134912548Y-97841320D01*
X134971513Y-97951634D01*
X135050865Y-98048325D01*
X135147556Y-98127677D01*
X135257870Y-98186642D01*
X135377568Y-98222952D01*
X135502050Y-98235212D01*
X138501790Y-98235212D01*
X138626272Y-98222952D01*
X138745970Y-98186642D01*
X138856284Y-98127677D01*
X138952975Y-98048325D01*
X139032327Y-97951634D01*
X139091292Y-97841320D01*
X139127602Y-97721622D01*
X139139862Y-97597140D01*
X149860138Y-97597140D01*
X149872398Y-97721622D01*
X149908708Y-97841320D01*
X149967673Y-97951634D01*
X150047025Y-98048325D01*
X150143716Y-98127677D01*
X150254030Y-98186642D01*
X150373728Y-98222952D01*
X150498210Y-98235212D01*
X151712330Y-98232140D01*
X151871080Y-98073390D01*
X151871080Y-97124700D01*
X152125080Y-97124700D01*
X152125080Y-98073390D01*
X152283830Y-98232140D01*
X153497950Y-98235212D01*
X153622432Y-98222952D01*
X153742130Y-98186642D01*
X153852444Y-98127677D01*
X153949135Y-98048325D01*
X154028487Y-97951634D01*
X154087452Y-97841320D01*
X154123762Y-97721622D01*
X154136022Y-97597140D01*
X154132950Y-97283450D01*
X153974200Y-97124700D01*
X152125080Y-97124700D01*
X151871080Y-97124700D01*
X150021960Y-97124700D01*
X149863210Y-97283450D01*
X149860138Y-97597140D01*
X139139862Y-97597140D01*
X139139862Y-96398260D01*
X139127602Y-96273778D01*
X139091292Y-96154080D01*
X139032327Y-96043766D01*
X138994940Y-95998210D01*
X139032327Y-95952654D01*
X139091292Y-95842340D01*
X139127602Y-95722642D01*
X139139862Y-95598160D01*
X139139862Y-94399280D01*
X139127602Y-94274798D01*
X139091292Y-94155100D01*
X139032327Y-94044786D01*
X138994940Y-93999230D01*
X139032327Y-93953674D01*
X139091292Y-93843360D01*
X139127602Y-93723662D01*
X139139862Y-93599180D01*
X139139862Y-92400300D01*
X139127602Y-92275818D01*
X139091292Y-92156120D01*
X139032327Y-92045806D01*
X138993898Y-91998980D01*
X139032327Y-91952154D01*
X139091292Y-91841840D01*
X139127602Y-91722142D01*
X139139862Y-91597660D01*
X139139862Y-90398780D01*
X139127602Y-90274298D01*
X139091292Y-90154600D01*
X139032327Y-90044286D01*
X138995983Y-90000000D01*
X139032327Y-89955714D01*
X139091292Y-89845400D01*
X139127602Y-89725702D01*
X139139862Y-89601220D01*
X139139862Y-88402340D01*
X139127602Y-88277858D01*
X139091292Y-88158160D01*
X139032327Y-88047846D01*
X138993898Y-88001020D01*
X139032327Y-87954194D01*
X139091292Y-87843880D01*
X139127602Y-87724182D01*
X139139862Y-87599700D01*
X139139862Y-86400820D01*
X139127602Y-86276338D01*
X139091292Y-86156640D01*
X139032327Y-86046326D01*
X138994940Y-86000770D01*
X139032327Y-85955214D01*
X139091292Y-85844900D01*
X139127602Y-85725202D01*
X139139862Y-85600720D01*
X139136790Y-85287030D01*
X138978040Y-85128280D01*
X137128920Y-85128280D01*
X137128920Y-85148280D01*
X136874920Y-85148280D01*
X136874920Y-85128280D01*
X135025800Y-85128280D01*
X134867050Y-85287030D01*
X134863978Y-85600720D01*
X134876238Y-85725202D01*
X134912548Y-85844900D01*
X134971513Y-85955214D01*
X135008900Y-86000770D01*
X134971513Y-86046326D01*
X134912548Y-86156640D01*
X134876238Y-86276338D01*
X134863978Y-86400820D01*
X134863978Y-87599700D01*
X134876238Y-87724182D01*
X134912548Y-87843880D01*
X134971513Y-87954194D01*
X135009942Y-88001020D01*
X134971513Y-88047846D01*
X134912548Y-88158160D01*
X134876238Y-88277858D01*
X134863978Y-88402340D01*
X134863978Y-89601220D01*
X134876238Y-89725702D01*
X134912548Y-89845400D01*
X134971513Y-89955714D01*
X135007857Y-90000000D01*
X134980564Y-90033258D01*
X134979497Y-90032382D01*
X134830283Y-89952625D01*
X134668377Y-89903512D01*
X134500000Y-89886928D01*
X134050000Y-89886928D01*
X133881623Y-89903512D01*
X133719717Y-89952625D01*
X133573649Y-90030700D01*
X133529494Y-89994463D01*
X133419180Y-89935498D01*
X133299482Y-89899188D01*
X133175000Y-89886928D01*
X133010750Y-89890000D01*
X132852000Y-90048750D01*
X132598000Y-90048750D01*
X132439250Y-89890000D01*
X132275000Y-89886928D01*
X132150518Y-89899188D01*
X132030820Y-89935498D01*
X131920506Y-89994463D01*
X131823815Y-90073815D01*
X131744463Y-90170506D01*
X131685498Y-90280820D01*
X131649188Y-90400518D01*
X131636928Y-90525000D01*
X120167000Y-90525000D01*
X120167000Y-89336415D01*
X121109190Y-89336415D01*
X121238116Y-89628945D01*
X121574586Y-89797296D01*
X121937435Y-89896771D01*
X122312718Y-89923545D01*
X122686015Y-89876591D01*
X123042978Y-89757713D01*
X123283884Y-89628945D01*
X123412810Y-89336415D01*
X126208190Y-89336415D01*
X126337116Y-89628945D01*
X126673586Y-89797296D01*
X127036435Y-89896771D01*
X127411718Y-89923545D01*
X127785015Y-89876591D01*
X128141978Y-89757713D01*
X128382884Y-89628945D01*
X128511810Y-89336415D01*
X127360000Y-88184605D01*
X126208190Y-89336415D01*
X123412810Y-89336415D01*
X122261000Y-88184605D01*
X121109190Y-89336415D01*
X120167000Y-89336415D01*
X120167000Y-88056718D01*
X120342455Y-88056718D01*
X120389409Y-88430015D01*
X120508287Y-88786978D01*
X120637055Y-89027884D01*
X120929585Y-89156810D01*
X122081395Y-88005000D01*
X120929585Y-86853190D01*
X120637055Y-86982116D01*
X120468704Y-87318586D01*
X120369229Y-87681435D01*
X120342455Y-88056718D01*
X120167000Y-88056718D01*
X120167000Y-84236415D01*
X121109190Y-84236415D01*
X121238116Y-84528945D01*
X121574586Y-84697296D01*
X121937435Y-84796771D01*
X122312718Y-84823545D01*
X122686015Y-84776591D01*
X123042978Y-84657713D01*
X123081380Y-84637186D01*
X122973400Y-84897873D01*
X122900000Y-85266881D01*
X122900000Y-85643119D01*
X122973400Y-86012127D01*
X123084996Y-86281542D01*
X122947414Y-86212704D01*
X122584565Y-86113229D01*
X122209282Y-86086455D01*
X121835985Y-86133409D01*
X121479022Y-86252287D01*
X121238116Y-86381055D01*
X121109190Y-86673585D01*
X122261000Y-87825395D01*
X122275143Y-87811253D01*
X122454748Y-87990858D01*
X122440605Y-88005000D01*
X123592415Y-89156810D01*
X123884945Y-89027884D01*
X124053296Y-88691414D01*
X124152771Y-88328565D01*
X124179545Y-87953282D01*
X124132591Y-87579985D01*
X124013713Y-87223022D01*
X123992784Y-87183867D01*
X124252873Y-87291600D01*
X124621881Y-87365000D01*
X124998119Y-87365000D01*
X125367127Y-87291600D01*
X125637174Y-87179743D01*
X125567704Y-87318586D01*
X125468229Y-87681435D01*
X125441455Y-88056718D01*
X125488409Y-88430015D01*
X125607287Y-88786978D01*
X125736055Y-89027884D01*
X126028585Y-89156810D01*
X127180395Y-88005000D01*
X127539605Y-88005000D01*
X128691415Y-89156810D01*
X128983945Y-89027884D01*
X129152296Y-88691414D01*
X129251771Y-88328565D01*
X129278545Y-87953282D01*
X129231591Y-87579985D01*
X129112713Y-87223022D01*
X128983945Y-86982116D01*
X128691415Y-86853190D01*
X127539605Y-88005000D01*
X127180395Y-88005000D01*
X127166253Y-87990858D01*
X127345858Y-87811253D01*
X127360000Y-87825395D01*
X128511810Y-86673585D01*
X128384623Y-86385000D01*
X130697342Y-86385000D01*
X130776773Y-86503877D01*
X130996123Y-86723227D01*
X131254052Y-86895570D01*
X131540648Y-87014282D01*
X131844896Y-87074800D01*
X132155104Y-87074800D01*
X132459352Y-87014282D01*
X132745948Y-86895570D01*
X133003877Y-86723227D01*
X133223227Y-86503877D01*
X133395570Y-86245948D01*
X133514282Y-85959352D01*
X133574800Y-85655104D01*
X133574800Y-85344896D01*
X133514282Y-85040648D01*
X133395570Y-84754052D01*
X133316245Y-84635334D01*
X134064279Y-83887300D01*
X134934666Y-83887300D01*
X134971513Y-83956234D01*
X135008900Y-84001790D01*
X134971513Y-84047346D01*
X134912548Y-84157660D01*
X134876238Y-84277358D01*
X134863978Y-84401840D01*
X134867050Y-84715530D01*
X135025800Y-84874280D01*
X136874920Y-84874280D01*
X136874920Y-84854280D01*
X137128920Y-84854280D01*
X137128920Y-84874280D01*
X138978040Y-84874280D01*
X139136790Y-84715530D01*
X139139862Y-84401840D01*
X139127602Y-84277358D01*
X139091292Y-84157660D01*
X139032327Y-84047346D01*
X138994940Y-84001790D01*
X139032327Y-83956234D01*
X139091292Y-83845920D01*
X139127602Y-83726222D01*
X139139862Y-83601740D01*
X139139862Y-82402860D01*
X149860138Y-82402860D01*
X149863210Y-82716550D01*
X150021960Y-82875300D01*
X151871080Y-82875300D01*
X151871080Y-81926610D01*
X152125080Y-81926610D01*
X152125080Y-82875300D01*
X153974200Y-82875300D01*
X154132950Y-82716550D01*
X154136022Y-82402860D01*
X154123762Y-82278378D01*
X154087452Y-82158680D01*
X154028487Y-82048366D01*
X153949135Y-81951675D01*
X153852444Y-81872323D01*
X153742130Y-81813358D01*
X153622432Y-81777048D01*
X153497950Y-81764788D01*
X152283830Y-81767860D01*
X152125080Y-81926610D01*
X151871080Y-81926610D01*
X151712330Y-81767860D01*
X150498210Y-81764788D01*
X150373728Y-81777048D01*
X150254030Y-81813358D01*
X150143716Y-81872323D01*
X150047025Y-81951675D01*
X149967673Y-82048366D01*
X149908708Y-82158680D01*
X149872398Y-82278378D01*
X149860138Y-82402860D01*
X139139862Y-82402860D01*
X139127602Y-82278378D01*
X139091292Y-82158680D01*
X139032327Y-82048366D01*
X138952975Y-81951675D01*
X138856284Y-81872323D01*
X138745970Y-81813358D01*
X138626272Y-81777048D01*
X138501790Y-81764788D01*
X135502050Y-81764788D01*
X135377568Y-81777048D01*
X135257870Y-81813358D01*
X135147556Y-81872323D01*
X135050865Y-81951675D01*
X134971513Y-82048366D01*
X134934666Y-82117300D01*
X133741165Y-82117300D01*
X133697699Y-82113019D01*
X133654233Y-82117300D01*
X133654223Y-82117300D01*
X133524210Y-82130105D01*
X133357387Y-82180711D01*
X133203641Y-82262889D01*
X133203639Y-82262890D01*
X133203640Y-82262890D01*
X133102653Y-82345768D01*
X133102651Y-82345770D01*
X133068883Y-82373483D01*
X133041170Y-82407251D01*
X131407589Y-84040833D01*
X131254052Y-84104430D01*
X130996123Y-84276773D01*
X130776773Y-84496123D01*
X130697342Y-84615000D01*
X128221888Y-84615000D01*
X128382884Y-84528945D01*
X128511810Y-84236415D01*
X127360000Y-83084605D01*
X127345858Y-83098748D01*
X127166253Y-82919143D01*
X127180395Y-82905000D01*
X127539605Y-82905000D01*
X128691415Y-84056810D01*
X128983945Y-83927884D01*
X129152296Y-83591414D01*
X129251771Y-83228565D01*
X129278545Y-82853282D01*
X129231591Y-82479985D01*
X129112713Y-82123022D01*
X128983945Y-81882116D01*
X128691415Y-81753190D01*
X127539605Y-82905000D01*
X127180395Y-82905000D01*
X126028585Y-81753190D01*
X125736055Y-81882116D01*
X125567704Y-82218586D01*
X125468229Y-82581435D01*
X125441455Y-82956718D01*
X125488409Y-83330015D01*
X125607287Y-83686978D01*
X125628500Y-83726665D01*
X125367127Y-83618400D01*
X124998119Y-83545000D01*
X124621881Y-83545000D01*
X124252873Y-83618400D01*
X123984088Y-83729735D01*
X124053296Y-83591414D01*
X124152771Y-83228565D01*
X124179545Y-82853282D01*
X124132591Y-82479985D01*
X124013713Y-82123022D01*
X123884945Y-81882116D01*
X123592415Y-81753190D01*
X122440605Y-82905000D01*
X122454748Y-82919143D01*
X122275143Y-83098748D01*
X122261000Y-83084605D01*
X121109190Y-84236415D01*
X120167000Y-84236415D01*
X120167000Y-82956718D01*
X120342455Y-82956718D01*
X120389409Y-83330015D01*
X120508287Y-83686978D01*
X120637055Y-83927884D01*
X120929585Y-84056810D01*
X122081395Y-82905000D01*
X120929585Y-81753190D01*
X120637055Y-81882116D01*
X120468704Y-82218586D01*
X120369229Y-82581435D01*
X120342455Y-82956718D01*
X120167000Y-82956718D01*
X120167000Y-81573585D01*
X121109190Y-81573585D01*
X122261000Y-82725395D01*
X123412810Y-81573585D01*
X126208190Y-81573585D01*
X127360000Y-82725395D01*
X128511810Y-81573585D01*
X128382884Y-81281055D01*
X128046414Y-81112704D01*
X127683565Y-81013229D01*
X127308282Y-80986455D01*
X126934985Y-81033409D01*
X126578022Y-81152287D01*
X126337116Y-81281055D01*
X126208190Y-81573585D01*
X123412810Y-81573585D01*
X123283884Y-81281055D01*
X122947414Y-81112704D01*
X122584565Y-81013229D01*
X122209282Y-80986455D01*
X121835985Y-81033409D01*
X121479022Y-81152287D01*
X121238116Y-81281055D01*
X121109190Y-81573585D01*
X120167000Y-81573585D01*
X120167000Y-79019000D01*
X129253581Y-79019000D01*
X129286000Y-79022193D01*
X129318419Y-79019000D01*
X129415383Y-79009450D01*
X129539793Y-78971710D01*
X129654450Y-78910425D01*
X129754948Y-78827948D01*
X129837425Y-78727450D01*
X129898710Y-78612793D01*
X129936450Y-78488383D01*
X129949193Y-78359000D01*
X129946000Y-78326581D01*
X129946000Y-76075000D01*
X140636928Y-76075000D01*
X140649188Y-76199482D01*
X140685498Y-76319180D01*
X140744463Y-76429494D01*
X140823815Y-76526185D01*
X140920506Y-76605537D01*
X141030820Y-76664502D01*
X141150518Y-76700812D01*
X141275000Y-76713072D01*
X141439250Y-76710000D01*
X141598000Y-76551250D01*
X141598000Y-75727000D01*
X140798750Y-75727000D01*
X140640000Y-75885750D01*
X140636928Y-76075000D01*
X129946000Y-76075000D01*
X129946000Y-75125000D01*
X140636928Y-75125000D01*
X140640000Y-75314250D01*
X140798750Y-75473000D01*
X141598000Y-75473000D01*
X141598000Y-74648750D01*
X141439250Y-74490000D01*
X141275000Y-74486928D01*
X141150518Y-74499188D01*
X141030820Y-74535498D01*
X140920506Y-74594463D01*
X140823815Y-74673815D01*
X140744463Y-74770506D01*
X140685498Y-74880820D01*
X140649188Y-75000518D01*
X140636928Y-75125000D01*
X129946000Y-75125000D01*
X129946000Y-67304896D01*
X149925200Y-67304896D01*
X149925200Y-67615104D01*
X149985718Y-67919352D01*
X150104430Y-68205948D01*
X150276773Y-68463877D01*
X150496123Y-68683227D01*
X150566124Y-68730000D01*
X150496123Y-68776773D01*
X150276773Y-68996123D01*
X150104430Y-69254052D01*
X149985718Y-69540648D01*
X149925200Y-69844896D01*
X149925200Y-70155104D01*
X149985718Y-70459352D01*
X150104430Y-70745948D01*
X150276773Y-71003877D01*
X150496123Y-71223227D01*
X150754052Y-71395570D01*
X150765001Y-71400105D01*
X150765000Y-72087913D01*
X150650518Y-72099188D01*
X150530820Y-72135498D01*
X150420506Y-72194463D01*
X150323815Y-72273815D01*
X150244463Y-72370506D01*
X150185498Y-72480820D01*
X150149188Y-72600518D01*
X150136928Y-72725000D01*
X150136928Y-73675000D01*
X150149188Y-73799482D01*
X150185498Y-73919180D01*
X150244463Y-74029494D01*
X150323815Y-74126185D01*
X150420506Y-74205537D01*
X150530820Y-74264502D01*
X150650518Y-74300812D01*
X150775000Y-74313072D01*
X152525000Y-74313072D01*
X152649482Y-74300812D01*
X152769180Y-74264502D01*
X152879494Y-74205537D01*
X152973101Y-74128716D01*
X153020503Y-74167618D01*
X153169717Y-74247375D01*
X153331623Y-74296488D01*
X153500000Y-74313072D01*
X153950000Y-74313072D01*
X154118377Y-74296488D01*
X154280283Y-74247375D01*
X154426351Y-74169300D01*
X154470506Y-74205537D01*
X154580820Y-74264502D01*
X154700518Y-74300812D01*
X154825000Y-74313072D01*
X154989250Y-74310000D01*
X155148000Y-74151250D01*
X155148000Y-73327000D01*
X155402000Y-73327000D01*
X155402000Y-74151250D01*
X155560750Y-74310000D01*
X155725000Y-74313072D01*
X155849482Y-74300812D01*
X155969180Y-74264502D01*
X156079494Y-74205537D01*
X156176185Y-74126185D01*
X156255537Y-74029494D01*
X156314502Y-73919180D01*
X156350812Y-73799482D01*
X156363072Y-73675000D01*
X156360000Y-73485750D01*
X156201250Y-73327000D01*
X155402000Y-73327000D01*
X155148000Y-73327000D01*
X155128000Y-73327000D01*
X155128000Y-73073000D01*
X155148000Y-73073000D01*
X155148000Y-72248750D01*
X155402000Y-72248750D01*
X155402000Y-73073000D01*
X156201250Y-73073000D01*
X156360000Y-72914250D01*
X156363072Y-72725000D01*
X156350812Y-72600518D01*
X156314502Y-72480820D01*
X156255537Y-72370506D01*
X156176185Y-72273815D01*
X156079494Y-72194463D01*
X155969180Y-72135498D01*
X155849482Y-72099188D01*
X155725000Y-72086928D01*
X155560750Y-72090000D01*
X155402000Y-72248750D01*
X155148000Y-72248750D01*
X154989250Y-72090000D01*
X154825000Y-72086928D01*
X154700518Y-72099188D01*
X154580820Y-72135498D01*
X154470506Y-72194463D01*
X154426351Y-72230700D01*
X154280283Y-72152625D01*
X154118377Y-72103512D01*
X153950000Y-72086928D01*
X153500000Y-72086928D01*
X153331623Y-72103512D01*
X153169717Y-72152625D01*
X153020503Y-72232382D01*
X152973101Y-72271284D01*
X152879494Y-72194463D01*
X152769180Y-72135498D01*
X152649482Y-72099188D01*
X152535000Y-72087913D01*
X152535000Y-71192104D01*
X152723227Y-71003877D01*
X152895570Y-70745948D01*
X153014282Y-70459352D01*
X153074800Y-70155104D01*
X153074800Y-70092476D01*
X163777129Y-70092476D01*
X163865623Y-70350723D01*
X164144976Y-70485597D01*
X164445275Y-70563381D01*
X164754977Y-70581084D01*
X165062184Y-70538027D01*
X165355086Y-70435865D01*
X165514377Y-70350723D01*
X165602871Y-70092476D01*
X164690000Y-69179605D01*
X163777129Y-70092476D01*
X153074800Y-70092476D01*
X153074800Y-69844896D01*
X153014282Y-69540648D01*
X152895570Y-69254052D01*
X152769234Y-69064977D01*
X163108916Y-69064977D01*
X163151973Y-69372184D01*
X163254135Y-69665086D01*
X163339277Y-69824377D01*
X163597524Y-69912871D01*
X164510395Y-69000000D01*
X163597524Y-68087129D01*
X163339277Y-68175623D01*
X163204403Y-68454976D01*
X163126619Y-68755275D01*
X163108916Y-69064977D01*
X152769234Y-69064977D01*
X152723227Y-68996123D01*
X152503877Y-68776773D01*
X152433876Y-68730000D01*
X152503877Y-68683227D01*
X152723227Y-68463877D01*
X152895570Y-68205948D01*
X153014282Y-67919352D01*
X153016634Y-67907524D01*
X163777129Y-67907524D01*
X164690000Y-68820395D01*
X165602871Y-67907524D01*
X165514377Y-67649277D01*
X165235024Y-67514403D01*
X164934725Y-67436619D01*
X164625023Y-67418916D01*
X164317816Y-67461973D01*
X164024914Y-67564135D01*
X163865623Y-67649277D01*
X163777129Y-67907524D01*
X153016634Y-67907524D01*
X153074800Y-67615104D01*
X153074800Y-67304896D01*
X153014282Y-67000648D01*
X152895570Y-66714052D01*
X152723227Y-66456123D01*
X152503877Y-66236773D01*
X152245948Y-66064430D01*
X151959352Y-65945718D01*
X151655104Y-65885200D01*
X151344896Y-65885200D01*
X151040648Y-65945718D01*
X150754052Y-66064430D01*
X150496123Y-66236773D01*
X150276773Y-66456123D01*
X150104430Y-66714052D01*
X149985718Y-67000648D01*
X149925200Y-67304896D01*
X129946000Y-67304896D01*
X129946000Y-66453418D01*
X129949193Y-66421000D01*
X129936450Y-66291617D01*
X129898710Y-66167207D01*
X129837425Y-66052550D01*
X129754948Y-65952052D01*
X129654450Y-65869575D01*
X129539793Y-65808290D01*
X129415383Y-65770550D01*
X129318419Y-65761000D01*
X129286000Y-65757807D01*
X129253581Y-65761000D01*
X120167000Y-65761000D01*
X120167000Y-57810000D01*
X133503292Y-57810000D01*
X133303239Y-57943671D01*
%TA.AperFunction,Conductor*%
D21*
G36*
X133303239Y-57943671D02*
G01*
X132993671Y-58253239D01*
X132750446Y-58617251D01*
X132582909Y-59021721D01*
X132497500Y-59451103D01*
X132497500Y-59888897D01*
X132582909Y-60318279D01*
X132750446Y-60722749D01*
X132993671Y-61086761D01*
X133303239Y-61396329D01*
X133667251Y-61639554D01*
X134071721Y-61807091D01*
X134501103Y-61892500D01*
X134938897Y-61892500D01*
X135368279Y-61807091D01*
X135772749Y-61639554D01*
X136136761Y-61396329D01*
X136446329Y-61086761D01*
X136689554Y-60722749D01*
X136834786Y-60372127D01*
X136857921Y-60427979D01*
X137033043Y-60690068D01*
X137255932Y-60912957D01*
X137518021Y-61088079D01*
X137809239Y-61208706D01*
X138118394Y-61270200D01*
X138433606Y-61270200D01*
X138742761Y-61208706D01*
X139033979Y-61088079D01*
X139296068Y-60912957D01*
X139518957Y-60690068D01*
X139546000Y-60649595D01*
X139573043Y-60690068D01*
X139795932Y-60912957D01*
X140058021Y-61088079D01*
X140349239Y-61208706D01*
X140658394Y-61270200D01*
X140973606Y-61270200D01*
X141282761Y-61208706D01*
X141573979Y-61088079D01*
X141836068Y-60912957D01*
X142058957Y-60690068D01*
X142086000Y-60649595D01*
X142113043Y-60690068D01*
X142335932Y-60912957D01*
X142598021Y-61088079D01*
X142889239Y-61208706D01*
X143198394Y-61270200D01*
X143513606Y-61270200D01*
X143822761Y-61208706D01*
X144113979Y-61088079D01*
X144376068Y-60912957D01*
X144508431Y-60780594D01*
X144965011Y-60780594D01*
X145056572Y-61041438D01*
X145340256Y-61178851D01*
X145645296Y-61258279D01*
X145959971Y-61276670D01*
X146272188Y-61233318D01*
X146569948Y-61129888D01*
X146735428Y-61041438D01*
X146826989Y-60780594D01*
X145896000Y-59849605D01*
X144965011Y-60780594D01*
X144508431Y-60780594D01*
X144598957Y-60690068D01*
X144682592Y-60564899D01*
X144785406Y-60600989D01*
X145716395Y-59670000D01*
X146075605Y-59670000D01*
X147006594Y-60600989D01*
X147109408Y-60564899D01*
X147193043Y-60690068D01*
X147415932Y-60912957D01*
X147678021Y-61088079D01*
X147969239Y-61208706D01*
X148278394Y-61270200D01*
X148593606Y-61270200D01*
X148902761Y-61208706D01*
X149193979Y-61088079D01*
X149456068Y-60912957D01*
X149678957Y-60690068D01*
X149706000Y-60649595D01*
X149733043Y-60690068D01*
X149955932Y-60912957D01*
X150218021Y-61088079D01*
X150509239Y-61208706D01*
X150818394Y-61270200D01*
X151133606Y-61270200D01*
X151442761Y-61208706D01*
X151733979Y-61088079D01*
X151996068Y-60912957D01*
X152218957Y-60690068D01*
X152246000Y-60649595D01*
X152273043Y-60690068D01*
X152495932Y-60912957D01*
X152758021Y-61088079D01*
X153049239Y-61208706D01*
X153358394Y-61270200D01*
X153673606Y-61270200D01*
X153982761Y-61208706D01*
X154273979Y-61088079D01*
X154536068Y-60912957D01*
X154758957Y-60690068D01*
X154786000Y-60649595D01*
X154813043Y-60690068D01*
X155035932Y-60912957D01*
X155298021Y-61088079D01*
X155589239Y-61208706D01*
X155898394Y-61270200D01*
X156213606Y-61270200D01*
X156522761Y-61208706D01*
X156813979Y-61088079D01*
X157076068Y-60912957D01*
X157298957Y-60690068D01*
X157326000Y-60649595D01*
X157353043Y-60690068D01*
X157575932Y-60912957D01*
X157838021Y-61088079D01*
X158129239Y-61208706D01*
X158438394Y-61270200D01*
X158753606Y-61270200D01*
X159062761Y-61208706D01*
X159353979Y-61088079D01*
X159616068Y-60912957D01*
X159838957Y-60690068D01*
X159866000Y-60649595D01*
X159893043Y-60690068D01*
X160115932Y-60912957D01*
X160378021Y-61088079D01*
X160669239Y-61208706D01*
X160978394Y-61270200D01*
X161293606Y-61270200D01*
X161602761Y-61208706D01*
X161893979Y-61088079D01*
X162156068Y-60912957D01*
X162378957Y-60690068D01*
X162554079Y-60427979D01*
X162674706Y-60136761D01*
X162736200Y-59827606D01*
X162736200Y-59512394D01*
X162674706Y-59203239D01*
X162554079Y-58912021D01*
X162378957Y-58649932D01*
X162156068Y-58427043D01*
X161893979Y-58251921D01*
X161602761Y-58131294D01*
X161293606Y-58069800D01*
X160978394Y-58069800D01*
X160669239Y-58131294D01*
X160378021Y-58251921D01*
X160115932Y-58427043D01*
X159893043Y-58649932D01*
X159866000Y-58690405D01*
X159838957Y-58649932D01*
X159616068Y-58427043D01*
X159353979Y-58251921D01*
X159062761Y-58131294D01*
X158753606Y-58069800D01*
X158438394Y-58069800D01*
X158129239Y-58131294D01*
X157838021Y-58251921D01*
X157575932Y-58427043D01*
X157353043Y-58649932D01*
X157326000Y-58690405D01*
X157298957Y-58649932D01*
X157076068Y-58427043D01*
X156813979Y-58251921D01*
X156522761Y-58131294D01*
X156213606Y-58069800D01*
X155898394Y-58069800D01*
X155589239Y-58131294D01*
X155298021Y-58251921D01*
X155035932Y-58427043D01*
X154813043Y-58649932D01*
X154786000Y-58690405D01*
X154758957Y-58649932D01*
X154536068Y-58427043D01*
X154273979Y-58251921D01*
X153982761Y-58131294D01*
X153673606Y-58069800D01*
X153358394Y-58069800D01*
X153049239Y-58131294D01*
X152758021Y-58251921D01*
X152495932Y-58427043D01*
X152273043Y-58649932D01*
X152246000Y-58690405D01*
X152218957Y-58649932D01*
X151996068Y-58427043D01*
X151733979Y-58251921D01*
X151442761Y-58131294D01*
X151133606Y-58069800D01*
X150818394Y-58069800D01*
X150509239Y-58131294D01*
X150218021Y-58251921D01*
X149955932Y-58427043D01*
X149733043Y-58649932D01*
X149706000Y-58690405D01*
X149678957Y-58649932D01*
X149456068Y-58427043D01*
X149193979Y-58251921D01*
X148902761Y-58131294D01*
X148593606Y-58069800D01*
X148278394Y-58069800D01*
X147969239Y-58131294D01*
X147678021Y-58251921D01*
X147415932Y-58427043D01*
X147193043Y-58649932D01*
X147109408Y-58775101D01*
X147006594Y-58739011D01*
X146075605Y-59670000D01*
X145716395Y-59670000D01*
X144785406Y-58739011D01*
X144682592Y-58775101D01*
X144598957Y-58649932D01*
X144508431Y-58559406D01*
X144965011Y-58559406D01*
X145896000Y-59490395D01*
X146826989Y-58559406D01*
X146735428Y-58298562D01*
X146451744Y-58161149D01*
X146146704Y-58081721D01*
X145832029Y-58063330D01*
X145519812Y-58106682D01*
X145222052Y-58210112D01*
X145056572Y-58298562D01*
X144965011Y-58559406D01*
X144508431Y-58559406D01*
X144376068Y-58427043D01*
X144113979Y-58251921D01*
X143822761Y-58131294D01*
X143513606Y-58069800D01*
X143198394Y-58069800D01*
X142889239Y-58131294D01*
X142598021Y-58251921D01*
X142335932Y-58427043D01*
X142113043Y-58649932D01*
X142086000Y-58690405D01*
X142058957Y-58649932D01*
X141836068Y-58427043D01*
X141573979Y-58251921D01*
X141282761Y-58131294D01*
X140973606Y-58069800D01*
X140658394Y-58069800D01*
X140349239Y-58131294D01*
X140058021Y-58251921D01*
X139795932Y-58427043D01*
X139573043Y-58649932D01*
X139546000Y-58690405D01*
X139518957Y-58649932D01*
X139296068Y-58427043D01*
X139033979Y-58251921D01*
X138742761Y-58131294D01*
X138433606Y-58069800D01*
X138118394Y-58069800D01*
X137809239Y-58131294D01*
X137518021Y-58251921D01*
X137255932Y-58427043D01*
X137033043Y-58649932D01*
X136857921Y-58912021D01*
X136834786Y-58967873D01*
X136689554Y-58617251D01*
X136446329Y-58253239D01*
X136136761Y-57943671D01*
X135936708Y-57810000D01*
X187427000Y-57810000D01*
X187427000Y-73763633D01*
X187246329Y-73493239D01*
X186936761Y-73183671D01*
X186572749Y-72940446D01*
X186168279Y-72772909D01*
X185738897Y-72687500D01*
X185301103Y-72687500D01*
X184871721Y-72772909D01*
X184467251Y-72940446D01*
X184103239Y-73183671D01*
X183793671Y-73493239D01*
X183550446Y-73857251D01*
X183382909Y-74261721D01*
X183297500Y-74691103D01*
X183297500Y-75128897D01*
X183382909Y-75558279D01*
X183550446Y-75962749D01*
X183793671Y-76326761D01*
X184103239Y-76636329D01*
X184467251Y-76879554D01*
X184871721Y-77047091D01*
X185301103Y-77132500D01*
X185738897Y-77132500D01*
X186168279Y-77047091D01*
X186572749Y-76879554D01*
X186936761Y-76636329D01*
X187246329Y-76326761D01*
X187427000Y-76056367D01*
X187427000Y-82175422D01*
X187237334Y-81985756D01*
X187209617Y-81951983D01*
X187090935Y-81854582D01*
X187077779Y-81822821D01*
X186902657Y-81560732D01*
X186679768Y-81337843D01*
X186639295Y-81310800D01*
X186679768Y-81283757D01*
X186902657Y-81060868D01*
X187077779Y-80798779D01*
X187198406Y-80507561D01*
X187259900Y-80198406D01*
X187259900Y-79883194D01*
X187198406Y-79574039D01*
X187077779Y-79282821D01*
X186902657Y-79020732D01*
X186679768Y-78797843D01*
X186417679Y-78622721D01*
X186126461Y-78502094D01*
X185817306Y-78440600D01*
X185502094Y-78440600D01*
X185192939Y-78502094D01*
X184901721Y-78622721D01*
X184639632Y-78797843D01*
X184416743Y-79020732D01*
X184389700Y-79061205D01*
X184362657Y-79020732D01*
X184139768Y-78797843D01*
X183877679Y-78622721D01*
X183586461Y-78502094D01*
X183277306Y-78440600D01*
X182962094Y-78440600D01*
X182652939Y-78502094D01*
X182361721Y-78622721D01*
X182099632Y-78797843D01*
X181876743Y-79020732D01*
X181773130Y-79175800D01*
X181441330Y-79175800D01*
X181566856Y-79123805D01*
X181736374Y-79010537D01*
X181880537Y-78866374D01*
X181993805Y-78696856D01*
X182071826Y-78508498D01*
X182111600Y-78308539D01*
X182111600Y-78104661D01*
X182071826Y-77904702D01*
X181993805Y-77716344D01*
X181961600Y-77668146D01*
X181961600Y-76295065D01*
X181965881Y-76251599D01*
X181961600Y-76208133D01*
X181961600Y-76208123D01*
X181948795Y-76078110D01*
X181898189Y-75911287D01*
X181816011Y-75757541D01*
X181772706Y-75704774D01*
X181733132Y-75656553D01*
X181733130Y-75656551D01*
X181705417Y-75622783D01*
X181671650Y-75595071D01*
X181283411Y-75206832D01*
X181314411Y-75169059D01*
X181396589Y-75015313D01*
X181447195Y-74848490D01*
X181464282Y-74675000D01*
X181447195Y-74501510D01*
X181396589Y-74334687D01*
X181314411Y-74180941D01*
X181203817Y-74046183D01*
X181069059Y-73935589D01*
X180915313Y-73853411D01*
X180748490Y-73802805D01*
X180618477Y-73790000D01*
X180255024Y-73790000D01*
X180240608Y-73778169D01*
X180095716Y-73700722D01*
X179938500Y-73653031D01*
X179775000Y-73636928D01*
X179225000Y-73636928D01*
X179061500Y-73653031D01*
X178904284Y-73700722D01*
X178759392Y-73778169D01*
X178744976Y-73790000D01*
X174361578Y-73790000D01*
X177895050Y-70256528D01*
X177928817Y-70228817D01*
X178039411Y-70094059D01*
X178121589Y-69940313D01*
X178172195Y-69773490D01*
X178185000Y-69643477D01*
X178185000Y-69643467D01*
X178189281Y-69600001D01*
X178185000Y-69556535D01*
X178185000Y-63543465D01*
X178189281Y-63499999D01*
X178185000Y-63456533D01*
X178185000Y-63456523D01*
X178172195Y-63326510D01*
X178121589Y-63159687D01*
X178039411Y-63005941D01*
X177928817Y-62871183D01*
X177895049Y-62843470D01*
X176245000Y-61193422D01*
X176245000Y-61003206D01*
X176380068Y-60912957D01*
X176602957Y-60690068D01*
X176630000Y-60649595D01*
X176657043Y-60690068D01*
X176879932Y-60912957D01*
X177142021Y-61088079D01*
X177433239Y-61208706D01*
X177742394Y-61270200D01*
X178057606Y-61270200D01*
X178366761Y-61208706D01*
X178657979Y-61088079D01*
X178920068Y-60912957D01*
X179142957Y-60690068D01*
X179170000Y-60649595D01*
X179197043Y-60690068D01*
X179419932Y-60912957D01*
X179682021Y-61088079D01*
X179973239Y-61208706D01*
X180282394Y-61270200D01*
X180597606Y-61270200D01*
X180906761Y-61208706D01*
X181197979Y-61088079D01*
X181460068Y-60912957D01*
X181682957Y-60690068D01*
X181710000Y-60649595D01*
X181737043Y-60690068D01*
X181959932Y-60912957D01*
X182222021Y-61088079D01*
X182513239Y-61208706D01*
X182822394Y-61270200D01*
X183137606Y-61270200D01*
X183446761Y-61208706D01*
X183737979Y-61088079D01*
X184000068Y-60912957D01*
X184222957Y-60690068D01*
X184398079Y-60427979D01*
X184518706Y-60136761D01*
X184580200Y-59827606D01*
X184580200Y-59512394D01*
X184518706Y-59203239D01*
X184398079Y-58912021D01*
X184222957Y-58649932D01*
X184000068Y-58427043D01*
X183737979Y-58251921D01*
X183446761Y-58131294D01*
X183137606Y-58069800D01*
X182822394Y-58069800D01*
X182513239Y-58131294D01*
X182222021Y-58251921D01*
X181959932Y-58427043D01*
X181737043Y-58649932D01*
X181710000Y-58690405D01*
X181682957Y-58649932D01*
X181460068Y-58427043D01*
X181197979Y-58251921D01*
X180906761Y-58131294D01*
X180597606Y-58069800D01*
X180282394Y-58069800D01*
X179973239Y-58131294D01*
X179682021Y-58251921D01*
X179419932Y-58427043D01*
X179197043Y-58649932D01*
X179170000Y-58690405D01*
X179142957Y-58649932D01*
X178920068Y-58427043D01*
X178657979Y-58251921D01*
X178366761Y-58131294D01*
X178057606Y-58069800D01*
X177742394Y-58069800D01*
X177433239Y-58131294D01*
X177142021Y-58251921D01*
X176879932Y-58427043D01*
X176657043Y-58649932D01*
X176630000Y-58690405D01*
X176602957Y-58649932D01*
X176380068Y-58427043D01*
X176117979Y-58251921D01*
X175826761Y-58131294D01*
X175517606Y-58069800D01*
X175202394Y-58069800D01*
X174893239Y-58131294D01*
X174602021Y-58251921D01*
X174339932Y-58427043D01*
X174117043Y-58649932D01*
X174090000Y-58690405D01*
X174062957Y-58649932D01*
X173840068Y-58427043D01*
X173577979Y-58251921D01*
X173286761Y-58131294D01*
X172977606Y-58069800D01*
X172662394Y-58069800D01*
X172353239Y-58131294D01*
X172062021Y-58251921D01*
X171799932Y-58427043D01*
X171577043Y-58649932D01*
X171550000Y-58690405D01*
X171522957Y-58649932D01*
X171300068Y-58427043D01*
X171037979Y-58251921D01*
X170746761Y-58131294D01*
X170437606Y-58069800D01*
X170122394Y-58069800D01*
X169813239Y-58131294D01*
X169522021Y-58251921D01*
X169259932Y-58427043D01*
X169037043Y-58649932D01*
X169010000Y-58690405D01*
X168982957Y-58649932D01*
X168760068Y-58427043D01*
X168497979Y-58251921D01*
X168206761Y-58131294D01*
X167897606Y-58069800D01*
X167582394Y-58069800D01*
X167273239Y-58131294D01*
X166982021Y-58251921D01*
X166719932Y-58427043D01*
X166497043Y-58649932D01*
X166470000Y-58690405D01*
X166442957Y-58649932D01*
X166220068Y-58427043D01*
X165957979Y-58251921D01*
X165666761Y-58131294D01*
X165357606Y-58069800D01*
X165042394Y-58069800D01*
X164733239Y-58131294D01*
X164442021Y-58251921D01*
X164179932Y-58427043D01*
X163957043Y-58649932D01*
X163781921Y-58912021D01*
X163661294Y-59203239D01*
X163599800Y-59512394D01*
X163599800Y-59827606D01*
X163661294Y-60136761D01*
X163781921Y-60427979D01*
X163957043Y-60690068D01*
X164179932Y-60912957D01*
X164442021Y-61088079D01*
X164733239Y-61208706D01*
X165042394Y-61270200D01*
X165357606Y-61270200D01*
X165666761Y-61208706D01*
X165957979Y-61088079D01*
X166220068Y-60912957D01*
X166442957Y-60690068D01*
X166470000Y-60649595D01*
X166497043Y-60690068D01*
X166719932Y-60912957D01*
X166982021Y-61088079D01*
X167273239Y-61208706D01*
X167582394Y-61270200D01*
X167897606Y-61270200D01*
X168206761Y-61208706D01*
X168497979Y-61088079D01*
X168760068Y-60912957D01*
X168982957Y-60690068D01*
X169010000Y-60649595D01*
X169037043Y-60690068D01*
X169259932Y-60912957D01*
X169522021Y-61088079D01*
X169813239Y-61208706D01*
X170122394Y-61270200D01*
X170437606Y-61270200D01*
X170746761Y-61208706D01*
X171037979Y-61088079D01*
X171300068Y-60912957D01*
X171522957Y-60690068D01*
X171550000Y-60649595D01*
X171577043Y-60690068D01*
X171799932Y-60912957D01*
X171935000Y-61003207D01*
X171935001Y-64876521D01*
X171930719Y-64920000D01*
X171947805Y-65093490D01*
X171998412Y-65260313D01*
X172080590Y-65414059D01*
X172163468Y-65515046D01*
X172163471Y-65515049D01*
X172191184Y-65548817D01*
X172224951Y-65576529D01*
X174315000Y-67666579D01*
X174315001Y-69533420D01*
X172233422Y-71615000D01*
X170843465Y-71615000D01*
X170799999Y-71610719D01*
X170756533Y-71615000D01*
X170756523Y-71615000D01*
X170626510Y-71627805D01*
X170459687Y-71678411D01*
X170305941Y-71760589D01*
X170305939Y-71760590D01*
X170305940Y-71760590D01*
X170204953Y-71843468D01*
X170204951Y-71843470D01*
X170171183Y-71871183D01*
X170143470Y-71904951D01*
X169954956Y-72093465D01*
X169898102Y-72104774D01*
X169709744Y-72182795D01*
X169540226Y-72296063D01*
X169396063Y-72440226D01*
X169282795Y-72609744D01*
X169204774Y-72798102D01*
X169165000Y-72998061D01*
X169165000Y-73113421D01*
X168115000Y-72063422D01*
X168115000Y-70302658D01*
X168233877Y-70223227D01*
X168453227Y-70003877D01*
X168500000Y-69933876D01*
X168546773Y-70003877D01*
X168766123Y-70223227D01*
X169024052Y-70395570D01*
X169310648Y-70514282D01*
X169614896Y-70574800D01*
X169925104Y-70574800D01*
X170229352Y-70514282D01*
X170515948Y-70395570D01*
X170773877Y-70223227D01*
X170993227Y-70003877D01*
X171040000Y-69933876D01*
X171086773Y-70003877D01*
X171306123Y-70223227D01*
X171564052Y-70395570D01*
X171850648Y-70514282D01*
X172154896Y-70574800D01*
X172465104Y-70574800D01*
X172769352Y-70514282D01*
X173055948Y-70395570D01*
X173313877Y-70223227D01*
X173533227Y-70003877D01*
X173705570Y-69745948D01*
X173824282Y-69459352D01*
X173884800Y-69155104D01*
X173884800Y-68844896D01*
X173824282Y-68540648D01*
X173705570Y-68254052D01*
X173533227Y-67996123D01*
X173313877Y-67776773D01*
X173055948Y-67604430D01*
X172769352Y-67485718D01*
X172465104Y-67425200D01*
X172154896Y-67425200D01*
X171850648Y-67485718D01*
X171564052Y-67604430D01*
X171306123Y-67776773D01*
X171086773Y-67996123D01*
X171040000Y-68066124D01*
X170993227Y-67996123D01*
X170773877Y-67776773D01*
X170515948Y-67604430D01*
X170229352Y-67485718D01*
X169925104Y-67425200D01*
X169614896Y-67425200D01*
X169310648Y-67485718D01*
X169024052Y-67604430D01*
X168766123Y-67776773D01*
X168546773Y-67996123D01*
X168500000Y-68066124D01*
X168453227Y-67996123D01*
X168233877Y-67776773D01*
X167975948Y-67604430D01*
X167689352Y-67485718D01*
X167385104Y-67425200D01*
X167074896Y-67425200D01*
X166770648Y-67485718D01*
X166484052Y-67604430D01*
X166226123Y-67776773D01*
X166006773Y-67996123D01*
X165915505Y-68132714D01*
X165782476Y-68087129D01*
X164869605Y-69000000D01*
X165782476Y-69912871D01*
X165915505Y-69867286D01*
X166006773Y-70003877D01*
X166226123Y-70223227D01*
X166345001Y-70302659D01*
X166345000Y-72386531D01*
X166340719Y-72430000D01*
X166345000Y-72473469D01*
X166345000Y-72473476D01*
X166357805Y-72603489D01*
X166408411Y-72770312D01*
X166490589Y-72924058D01*
X166601183Y-73058817D01*
X166634956Y-73086534D01*
X168818470Y-75270049D01*
X168846183Y-75303817D01*
X168879951Y-75331530D01*
X168879953Y-75331532D01*
X168903336Y-75350722D01*
X168980941Y-75414411D01*
X169134687Y-75496589D01*
X169301510Y-75547195D01*
X169431523Y-75560000D01*
X169431533Y-75560000D01*
X169474999Y-75564281D01*
X169518465Y-75560000D01*
X178609738Y-75560000D01*
X178528169Y-75659392D01*
X178450722Y-75804284D01*
X178403031Y-75961500D01*
X178386928Y-76125000D01*
X178386928Y-76525000D01*
X178403031Y-76688500D01*
X178450722Y-76845716D01*
X178528169Y-76990608D01*
X178615001Y-77096412D01*
X178615000Y-79135532D01*
X178598815Y-79148815D01*
X178588072Y-79161905D01*
X178588072Y-78650000D01*
X178575812Y-78525518D01*
X178539502Y-78405820D01*
X178480537Y-78295506D01*
X178401185Y-78198815D01*
X178304494Y-78119463D01*
X178194180Y-78060498D01*
X178074482Y-78024188D01*
X177950000Y-78011928D01*
X177050000Y-78011928D01*
X176925518Y-78024188D01*
X176805820Y-78060498D01*
X176695506Y-78119463D01*
X176640019Y-78165000D01*
X176455916Y-78165000D01*
X176367606Y-78057394D01*
X176240608Y-77953169D01*
X176095716Y-77875722D01*
X175938500Y-77828031D01*
X175775000Y-77811928D01*
X175225000Y-77811928D01*
X175061500Y-77828031D01*
X174904284Y-77875722D01*
X174759392Y-77953169D01*
X174632394Y-78057394D01*
X174614367Y-78079360D01*
X174555941Y-78110589D01*
X174454953Y-78193468D01*
X174454951Y-78193470D01*
X174421183Y-78221183D01*
X174393470Y-78254951D01*
X172454957Y-80193465D01*
X172398102Y-80204774D01*
X172209744Y-80282795D01*
X172185000Y-80299328D01*
X172185000Y-77238454D01*
X172217205Y-77190256D01*
X172295226Y-77001898D01*
X172335000Y-76801939D01*
X172335000Y-76598061D01*
X172295226Y-76398102D01*
X172217205Y-76209744D01*
X172103937Y-76040226D01*
X171959774Y-75896063D01*
X171790256Y-75782795D01*
X171601898Y-75704774D01*
X171401939Y-75665000D01*
X171198061Y-75665000D01*
X170998102Y-75704774D01*
X170809744Y-75782795D01*
X170711890Y-75848179D01*
X170659774Y-75796063D01*
X170490256Y-75682795D01*
X170301898Y-75604774D01*
X170101939Y-75565000D01*
X169898061Y-75565000D01*
X169698102Y-75604774D01*
X169509744Y-75682795D01*
X169340226Y-75796063D01*
X169196063Y-75940226D01*
X169082795Y-76109744D01*
X169004774Y-76298102D01*
X168965000Y-76498061D01*
X168965000Y-76701939D01*
X169004774Y-76901898D01*
X169082795Y-77090256D01*
X169115001Y-77138456D01*
X169115001Y-80187489D01*
X169001939Y-80165000D01*
X168798061Y-80165000D01*
X168598102Y-80204774D01*
X168409744Y-80282795D01*
X168361546Y-80315000D01*
X165943469Y-80315000D01*
X165900000Y-80310719D01*
X165856531Y-80315000D01*
X165856523Y-80315000D01*
X165726510Y-80327805D01*
X165559686Y-80378411D01*
X165405941Y-80460589D01*
X165304953Y-80543468D01*
X165304951Y-80543470D01*
X165271183Y-80571183D01*
X165243470Y-80604951D01*
X162178422Y-83670000D01*
X162052439Y-83670000D01*
X162044540Y-83665778D01*
X161924842Y-83629468D01*
X161800360Y-83617208D01*
X160695435Y-83617208D01*
X160700812Y-83599482D01*
X160713072Y-83475000D01*
X160710000Y-83310750D01*
X160551250Y-83152000D01*
X159727000Y-83152000D01*
X159727000Y-83172000D01*
X159473000Y-83172000D01*
X159473000Y-83152000D01*
X158648750Y-83152000D01*
X158490000Y-83310750D01*
X158486928Y-83475000D01*
X158499188Y-83599482D01*
X158526646Y-83690000D01*
X157641579Y-83690000D01*
X156526579Y-82575000D01*
X158486928Y-82575000D01*
X158490000Y-82739250D01*
X158648750Y-82898000D01*
X159473000Y-82898000D01*
X159473000Y-82098750D01*
X159727000Y-82098750D01*
X159727000Y-82898000D01*
X160551250Y-82898000D01*
X160710000Y-82739250D01*
X160713072Y-82575000D01*
X160700812Y-82450518D01*
X160664502Y-82330820D01*
X160605537Y-82220506D01*
X160526185Y-82123815D01*
X160429494Y-82044463D01*
X160319180Y-81985498D01*
X160199482Y-81949188D01*
X160075000Y-81936928D01*
X159885750Y-81940000D01*
X159727000Y-82098750D01*
X159473000Y-82098750D01*
X159314250Y-81940000D01*
X159125000Y-81936928D01*
X159000518Y-81949188D01*
X158880820Y-81985498D01*
X158770506Y-82044463D01*
X158673815Y-82123815D01*
X158594463Y-82220506D01*
X158535498Y-82330820D01*
X158499188Y-82450518D01*
X158486928Y-82575000D01*
X156526579Y-82575000D01*
X156385000Y-82433422D01*
X156385000Y-76443465D01*
X156389281Y-76399999D01*
X156385000Y-76356533D01*
X156385000Y-76356523D01*
X156372195Y-76226510D01*
X156321589Y-76059687D01*
X156239411Y-75905941D01*
X156128817Y-75771183D01*
X156095049Y-75743470D01*
X155256534Y-74904956D01*
X155228817Y-74871183D01*
X155094059Y-74760589D01*
X154940313Y-74678411D01*
X154773490Y-74627805D01*
X154643477Y-74615000D01*
X154643469Y-74615000D01*
X154600000Y-74610719D01*
X154556531Y-74615000D01*
X153009985Y-74615000D01*
X152976185Y-74573815D01*
X152879494Y-74494463D01*
X152769180Y-74435498D01*
X152649482Y-74399188D01*
X152525000Y-74386928D01*
X150775000Y-74386928D01*
X150650518Y-74399188D01*
X150530820Y-74435498D01*
X150420506Y-74494463D01*
X150323815Y-74573815D01*
X150290015Y-74615000D01*
X146863072Y-74615000D01*
X146863072Y-73900000D01*
X146850812Y-73775518D01*
X146814502Y-73655820D01*
X146755537Y-73545506D01*
X146676185Y-73448815D01*
X146579494Y-73369463D01*
X146469180Y-73310498D01*
X146349482Y-73274188D01*
X146225000Y-73261928D01*
X144475000Y-73261928D01*
X144350518Y-73274188D01*
X144230820Y-73310498D01*
X144120506Y-73369463D01*
X144023815Y-73448815D01*
X143944463Y-73545506D01*
X143885498Y-73655820D01*
X143849188Y-73775518D01*
X143836928Y-73900000D01*
X143836928Y-74556177D01*
X143830283Y-74552625D01*
X143668377Y-74503512D01*
X143500000Y-74486928D01*
X143050000Y-74486928D01*
X142881623Y-74503512D01*
X142719717Y-74552625D01*
X142573649Y-74630700D01*
X142529494Y-74594463D01*
X142419180Y-74535498D01*
X142299482Y-74499188D01*
X142175000Y-74486928D01*
X142010750Y-74490000D01*
X141852000Y-74648750D01*
X141852000Y-75473000D01*
X141872000Y-75473000D01*
X141872000Y-75727000D01*
X141852000Y-75727000D01*
X141852000Y-76551250D01*
X142010750Y-76710000D01*
X142175000Y-76713072D01*
X142299482Y-76700812D01*
X142419180Y-76664502D01*
X142529494Y-76605537D01*
X142573649Y-76569300D01*
X142719717Y-76647375D01*
X142881623Y-76696488D01*
X143050000Y-76713072D01*
X143500000Y-76713072D01*
X143668377Y-76696488D01*
X143830283Y-76647375D01*
X143836928Y-76643823D01*
X143836928Y-77100000D01*
X143849188Y-77224482D01*
X143885498Y-77344180D01*
X143944463Y-77454494D01*
X144023815Y-77551185D01*
X144120506Y-77630537D01*
X144230820Y-77689502D01*
X144350518Y-77725812D01*
X144465000Y-77737087D01*
X144465001Y-80052702D01*
X144404774Y-80198102D01*
X144365000Y-80398061D01*
X144365000Y-80601939D01*
X144404774Y-80801898D01*
X144482795Y-80990256D01*
X144596063Y-81159774D01*
X144740226Y-81303937D01*
X144909744Y-81417205D01*
X145098102Y-81495226D01*
X145298061Y-81535000D01*
X145501939Y-81535000D01*
X145701898Y-81495226D01*
X145890256Y-81417205D01*
X146059774Y-81303937D01*
X146203937Y-81159774D01*
X146317205Y-80990256D01*
X146395226Y-80801898D01*
X146435000Y-80601939D01*
X146435000Y-80398061D01*
X146395226Y-80198102D01*
X146317205Y-80009744D01*
X146235000Y-79886715D01*
X146235000Y-78275000D01*
X150136928Y-78275000D01*
X150149188Y-78399482D01*
X150185498Y-78519180D01*
X150244463Y-78629494D01*
X150323815Y-78726185D01*
X150420506Y-78805537D01*
X150530820Y-78864502D01*
X150650518Y-78900812D01*
X150775000Y-78913072D01*
X151364250Y-78910000D01*
X151523000Y-78751250D01*
X151523000Y-77927000D01*
X151777000Y-77927000D01*
X151777000Y-78751250D01*
X151935750Y-78910000D01*
X152525000Y-78913072D01*
X152649482Y-78900812D01*
X152769180Y-78864502D01*
X152879494Y-78805537D01*
X152976185Y-78726185D01*
X153055537Y-78629494D01*
X153114502Y-78519180D01*
X153150812Y-78399482D01*
X153163072Y-78275000D01*
X153160000Y-78085750D01*
X153001250Y-77927000D01*
X151777000Y-77927000D01*
X151523000Y-77927000D01*
X150298750Y-77927000D01*
X150140000Y-78085750D01*
X150136928Y-78275000D01*
X146235000Y-78275000D01*
X146235000Y-77737087D01*
X146349482Y-77725812D01*
X146469180Y-77689502D01*
X146579494Y-77630537D01*
X146676185Y-77551185D01*
X146755537Y-77454494D01*
X146814502Y-77344180D01*
X146820320Y-77325000D01*
X150136928Y-77325000D01*
X150140000Y-77514250D01*
X150298750Y-77673000D01*
X151523000Y-77673000D01*
X151523000Y-76848750D01*
X151777000Y-76848750D01*
X151777000Y-77673000D01*
X153001250Y-77673000D01*
X153160000Y-77514250D01*
X153163072Y-77325000D01*
X153150812Y-77200518D01*
X153114502Y-77080820D01*
X153055537Y-76970506D01*
X152976185Y-76873815D01*
X152879494Y-76794463D01*
X152769180Y-76735498D01*
X152649482Y-76699188D01*
X152525000Y-76686928D01*
X151935750Y-76690000D01*
X151777000Y-76848750D01*
X151523000Y-76848750D01*
X151364250Y-76690000D01*
X150775000Y-76686928D01*
X150650518Y-76699188D01*
X150530820Y-76735498D01*
X150420506Y-76794463D01*
X150323815Y-76873815D01*
X150244463Y-76970506D01*
X150185498Y-77080820D01*
X150149188Y-77200518D01*
X150136928Y-77325000D01*
X146820320Y-77325000D01*
X146850812Y-77224482D01*
X146863072Y-77100000D01*
X146863072Y-76385000D01*
X150290015Y-76385000D01*
X150323815Y-76426185D01*
X150420506Y-76505537D01*
X150530820Y-76564502D01*
X150650518Y-76600812D01*
X150775000Y-76613072D01*
X152525000Y-76613072D01*
X152649482Y-76600812D01*
X152769180Y-76564502D01*
X152879494Y-76505537D01*
X152976185Y-76426185D01*
X153009985Y-76385000D01*
X154233422Y-76385000D01*
X154615001Y-76766580D01*
X154615000Y-82756531D01*
X154610719Y-82800000D01*
X154615000Y-82843469D01*
X154615000Y-82843476D01*
X154627805Y-82973489D01*
X154678411Y-83140312D01*
X154760589Y-83294058D01*
X154871183Y-83428817D01*
X154904956Y-83456534D01*
X156388421Y-84940000D01*
X155375870Y-84940000D01*
X155290256Y-84882795D01*
X155101898Y-84804774D01*
X154901939Y-84765000D01*
X154698061Y-84765000D01*
X154498102Y-84804774D01*
X154309744Y-84882795D01*
X154140226Y-84996063D01*
X154136022Y-85000267D01*
X154136022Y-84401840D01*
X154123762Y-84277358D01*
X154087452Y-84157660D01*
X154028487Y-84047346D01*
X153991100Y-84001790D01*
X154028487Y-83956234D01*
X154087452Y-83845920D01*
X154123762Y-83726222D01*
X154136022Y-83601740D01*
X154132950Y-83288050D01*
X153974200Y-83129300D01*
X152125080Y-83129300D01*
X152125080Y-83149300D01*
X151871080Y-83149300D01*
X151871080Y-83129300D01*
X150021960Y-83129300D01*
X149863210Y-83288050D01*
X149860138Y-83601740D01*
X149872398Y-83726222D01*
X149908708Y-83845920D01*
X149967673Y-83956234D01*
X150005060Y-84001790D01*
X149967673Y-84047346D01*
X149908708Y-84157660D01*
X149872398Y-84277358D01*
X149860138Y-84401840D01*
X149860138Y-85600720D01*
X149872398Y-85725202D01*
X149908708Y-85844900D01*
X149967673Y-85955214D01*
X150005060Y-86000770D01*
X149967673Y-86046326D01*
X149908708Y-86156640D01*
X149872398Y-86276338D01*
X149860138Y-86400820D01*
X149860138Y-87599700D01*
X149872398Y-87724182D01*
X149908708Y-87843880D01*
X149967673Y-87954194D01*
X150006102Y-88001020D01*
X149967673Y-88047846D01*
X149908708Y-88158160D01*
X149872398Y-88277858D01*
X149860138Y-88402340D01*
X149860138Y-89601220D01*
X149872398Y-89725702D01*
X149908708Y-89845400D01*
X149967673Y-89955714D01*
X150004017Y-90000000D01*
X149967673Y-90044286D01*
X149908708Y-90154600D01*
X149872398Y-90274298D01*
X149860138Y-90398780D01*
X149860138Y-91597660D01*
X149872398Y-91722142D01*
X149908708Y-91841840D01*
X149967673Y-91952154D01*
X150006102Y-91998980D01*
X149967673Y-92045806D01*
X149908708Y-92156120D01*
X149872398Y-92275818D01*
X149860138Y-92400300D01*
X149860138Y-93599180D01*
X149872398Y-93723662D01*
X149908708Y-93843360D01*
X149967673Y-93953674D01*
X150005060Y-93999230D01*
X149967673Y-94044786D01*
X149908708Y-94155100D01*
X149872398Y-94274798D01*
X149860138Y-94399280D01*
X149860138Y-95598160D01*
X149872398Y-95722642D01*
X149908708Y-95842340D01*
X149967673Y-95952654D01*
X150005060Y-95998210D01*
X149967673Y-96043766D01*
X149908708Y-96154080D01*
X149872398Y-96273778D01*
X149860138Y-96398260D01*
X149863210Y-96711950D01*
X150021960Y-96870700D01*
X151871080Y-96870700D01*
X151871080Y-96850700D01*
X152125080Y-96850700D01*
X152125080Y-96870700D01*
X153974200Y-96870700D01*
X154132950Y-96711950D01*
X154136022Y-96398260D01*
X154123762Y-96273778D01*
X154087452Y-96154080D01*
X154028487Y-96043766D01*
X153991100Y-95998210D01*
X154028487Y-95952654D01*
X154065334Y-95883720D01*
X155132142Y-95883720D01*
X156018480Y-96770059D01*
X156046193Y-96803827D01*
X156079961Y-96831540D01*
X156079963Y-96831542D01*
X156127677Y-96870700D01*
X156180951Y-96914421D01*
X156334697Y-96996599D01*
X156501520Y-97047205D01*
X156631533Y-97060010D01*
X156631543Y-97060010D01*
X156675009Y-97064291D01*
X156718475Y-97060010D01*
X157108432Y-97060010D01*
X157743470Y-97695049D01*
X157771183Y-97728817D01*
X157804951Y-97756530D01*
X157804953Y-97756532D01*
X157861026Y-97802550D01*
X157905941Y-97839411D01*
X158059687Y-97921589D01*
X158226510Y-97972195D01*
X158356523Y-97985000D01*
X158356533Y-97985000D01*
X158399999Y-97989281D01*
X158443465Y-97985000D01*
X169575785Y-97985000D01*
X169619254Y-97989281D01*
X169662723Y-97985000D01*
X169662731Y-97985000D01*
X169792744Y-97972195D01*
X169959567Y-97921589D01*
X170113313Y-97839411D01*
X170248071Y-97728817D01*
X170275788Y-97695044D01*
X175645044Y-92325789D01*
X175701898Y-92314480D01*
X175890256Y-92236459D01*
X176059774Y-92123191D01*
X176203937Y-91979028D01*
X176317205Y-91809510D01*
X176395226Y-91621152D01*
X176435000Y-91421193D01*
X176435000Y-91217315D01*
X176395226Y-91017356D01*
X176317205Y-90828998D01*
X176203937Y-90659480D01*
X176059774Y-90515317D01*
X175890256Y-90402049D01*
X175701898Y-90324028D01*
X175501939Y-90284254D01*
X175298061Y-90284254D01*
X175098102Y-90324028D01*
X174909744Y-90402049D01*
X174740226Y-90515317D01*
X174596063Y-90659480D01*
X174482795Y-90828998D01*
X174404774Y-91017356D01*
X174393465Y-91074210D01*
X172307561Y-93160114D01*
X172295226Y-93098102D01*
X172217205Y-92909744D01*
X172185000Y-92861546D01*
X172185000Y-90989799D01*
X172198102Y-90995226D01*
X172398061Y-91035000D01*
X172601939Y-91035000D01*
X172801898Y-90995226D01*
X172990256Y-90917205D01*
X173159774Y-90803937D01*
X173303937Y-90659774D01*
X173417205Y-90490256D01*
X173495226Y-90301898D01*
X173535000Y-90101939D01*
X173535000Y-89898061D01*
X173495226Y-89698102D01*
X173417205Y-89509744D01*
X173385000Y-89461546D01*
X173385000Y-87848377D01*
X173498102Y-87895226D01*
X173698061Y-87935000D01*
X173901939Y-87935000D01*
X174101898Y-87895226D01*
X174290256Y-87817205D01*
X174338454Y-87785000D01*
X180633422Y-87785000D01*
X180743466Y-87895044D01*
X180771183Y-87928817D01*
X180905941Y-88039411D01*
X181059687Y-88121589D01*
X181226510Y-88172195D01*
X181356523Y-88185000D01*
X181356533Y-88185000D01*
X181399999Y-88189281D01*
X181443465Y-88185000D01*
X185856531Y-88185000D01*
X185900000Y-88189281D01*
X185943469Y-88185000D01*
X185943477Y-88185000D01*
X186073490Y-88172195D01*
X186240313Y-88121589D01*
X186394059Y-88039411D01*
X186528817Y-87928817D01*
X186556534Y-87895044D01*
X187427001Y-87024578D01*
X187427001Y-101703634D01*
X187246329Y-101433239D01*
X186936761Y-101123671D01*
X186572749Y-100880446D01*
X186168279Y-100712909D01*
X185738897Y-100627500D01*
X185301103Y-100627500D01*
X184871721Y-100712909D01*
X184467251Y-100880446D01*
X184103239Y-101123671D01*
X183793671Y-101433239D01*
X183550446Y-101797251D01*
X183382909Y-102201721D01*
X183297500Y-102631103D01*
X183297500Y-103068897D01*
X183382909Y-103498279D01*
X183550446Y-103902749D01*
X183793671Y-104266761D01*
X184103239Y-104576329D01*
X184467251Y-104819554D01*
X184871721Y-104987091D01*
X185301103Y-105072500D01*
X185738897Y-105072500D01*
X186168279Y-104987091D01*
X186572749Y-104819554D01*
X186936761Y-104576329D01*
X187246329Y-104266761D01*
X187427001Y-103996366D01*
X187427001Y-109830000D01*
X168027579Y-109830000D01*
X168387449Y-109470130D01*
X168421217Y-109442417D01*
X168486980Y-109362286D01*
X168531811Y-109307659D01*
X168600548Y-109179059D01*
X168613989Y-109153913D01*
X168664595Y-108987090D01*
X168677400Y-108857077D01*
X168677400Y-108857069D01*
X168681681Y-108813600D01*
X168677400Y-108770131D01*
X168677400Y-107772394D01*
X168679800Y-107772394D01*
X168679800Y-108087606D01*
X168741294Y-108396761D01*
X168861921Y-108687979D01*
X169037043Y-108950068D01*
X169259932Y-109172957D01*
X169522021Y-109348079D01*
X169813239Y-109468706D01*
X170122394Y-109530200D01*
X170437606Y-109530200D01*
X170746761Y-109468706D01*
X171037979Y-109348079D01*
X171300068Y-109172957D01*
X171522957Y-108950068D01*
X171550000Y-108909595D01*
X171577043Y-108950068D01*
X171799932Y-109172957D01*
X172062021Y-109348079D01*
X172353239Y-109468706D01*
X172662394Y-109530200D01*
X172977606Y-109530200D01*
X173286761Y-109468706D01*
X173577979Y-109348079D01*
X173840068Y-109172957D01*
X174062957Y-108950068D01*
X174090000Y-108909595D01*
X174117043Y-108950068D01*
X174339932Y-109172957D01*
X174602021Y-109348079D01*
X174893239Y-109468706D01*
X175202394Y-109530200D01*
X175517606Y-109530200D01*
X175826761Y-109468706D01*
X176117979Y-109348079D01*
X176380068Y-109172957D01*
X176602957Y-108950068D01*
X176630000Y-108909595D01*
X176657043Y-108950068D01*
X176879932Y-109172957D01*
X177142021Y-109348079D01*
X177433239Y-109468706D01*
X177742394Y-109530200D01*
X178057606Y-109530200D01*
X178366761Y-109468706D01*
X178657979Y-109348079D01*
X178920068Y-109172957D01*
X179142957Y-108950068D01*
X179170000Y-108909595D01*
X179197043Y-108950068D01*
X179419932Y-109172957D01*
X179682021Y-109348079D01*
X179973239Y-109468706D01*
X180282394Y-109530200D01*
X180597606Y-109530200D01*
X180906761Y-109468706D01*
X181197979Y-109348079D01*
X181460068Y-109172957D01*
X181682957Y-108950068D01*
X181710000Y-108909595D01*
X181737043Y-108950068D01*
X181959932Y-109172957D01*
X182222021Y-109348079D01*
X182513239Y-109468706D01*
X182822394Y-109530200D01*
X183137606Y-109530200D01*
X183446761Y-109468706D01*
X183737979Y-109348079D01*
X184000068Y-109172957D01*
X184222957Y-108950068D01*
X184398079Y-108687979D01*
X184518706Y-108396761D01*
X184580200Y-108087606D01*
X184580200Y-107772394D01*
X184518706Y-107463239D01*
X184398079Y-107172021D01*
X184222957Y-106909932D01*
X184000068Y-106687043D01*
X183737979Y-106511921D01*
X183446761Y-106391294D01*
X183137606Y-106329800D01*
X182822394Y-106329800D01*
X182513239Y-106391294D01*
X182222021Y-106511921D01*
X181959932Y-106687043D01*
X181737043Y-106909932D01*
X181710000Y-106950405D01*
X181682957Y-106909932D01*
X181460068Y-106687043D01*
X181197979Y-106511921D01*
X180906761Y-106391294D01*
X180597606Y-106329800D01*
X180282394Y-106329800D01*
X179973239Y-106391294D01*
X179682021Y-106511921D01*
X179419932Y-106687043D01*
X179197043Y-106909932D01*
X179170000Y-106950405D01*
X179142957Y-106909932D01*
X178920068Y-106687043D01*
X178657979Y-106511921D01*
X178366761Y-106391294D01*
X178057606Y-106329800D01*
X177742394Y-106329800D01*
X177433239Y-106391294D01*
X177142021Y-106511921D01*
X176879932Y-106687043D01*
X176657043Y-106909932D01*
X176630000Y-106950405D01*
X176602957Y-106909932D01*
X176380068Y-106687043D01*
X176117979Y-106511921D01*
X175826761Y-106391294D01*
X175517606Y-106329800D01*
X175202394Y-106329800D01*
X174893239Y-106391294D01*
X174602021Y-106511921D01*
X174339932Y-106687043D01*
X174117043Y-106909932D01*
X174090000Y-106950405D01*
X174062957Y-106909932D01*
X173840068Y-106687043D01*
X173577979Y-106511921D01*
X173286761Y-106391294D01*
X172977606Y-106329800D01*
X172662394Y-106329800D01*
X172353239Y-106391294D01*
X172062021Y-106511921D01*
X171799932Y-106687043D01*
X171577043Y-106909932D01*
X171550000Y-106950405D01*
X171522957Y-106909932D01*
X171300068Y-106687043D01*
X171037979Y-106511921D01*
X170746761Y-106391294D01*
X170437606Y-106329800D01*
X170122394Y-106329800D01*
X169813239Y-106391294D01*
X169522021Y-106511921D01*
X169259932Y-106687043D01*
X169037043Y-106909932D01*
X168861921Y-107172021D01*
X168741294Y-107463239D01*
X168679800Y-107772394D01*
X168677400Y-107772394D01*
X168677400Y-106259178D01*
X179436449Y-95500130D01*
X179470217Y-95472417D01*
X179500433Y-95435600D01*
X179580811Y-95337659D01*
X179662989Y-95183914D01*
X179713595Y-95017090D01*
X179719070Y-94961500D01*
X179726400Y-94887077D01*
X179726400Y-94887069D01*
X179730681Y-94843600D01*
X179726400Y-94800131D01*
X179726400Y-90225854D01*
X179758605Y-90177656D01*
X179836626Y-89989298D01*
X179876400Y-89789339D01*
X179876400Y-89585461D01*
X179836626Y-89385502D01*
X179758605Y-89197144D01*
X179645337Y-89027626D01*
X179501174Y-88883463D01*
X179331656Y-88770195D01*
X179143298Y-88692174D01*
X178943339Y-88652400D01*
X178739461Y-88652400D01*
X178539502Y-88692174D01*
X178351144Y-88770195D01*
X178181626Y-88883463D01*
X178037463Y-89027626D01*
X177924195Y-89197144D01*
X177846174Y-89385502D01*
X177806400Y-89585461D01*
X177806400Y-89789339D01*
X177846174Y-89989298D01*
X177924195Y-90177656D01*
X177956400Y-90225854D01*
X177956401Y-94477020D01*
X167197356Y-105236066D01*
X167163583Y-105263783D01*
X167052989Y-105398542D01*
X166970811Y-105552288D01*
X166920205Y-105719111D01*
X166907400Y-105849124D01*
X166907400Y-105849131D01*
X166903119Y-105892600D01*
X166907400Y-105936069D01*
X166907401Y-108447020D01*
X166536822Y-108817600D01*
X166531469Y-108817600D01*
X166618079Y-108687979D01*
X166738706Y-108396761D01*
X166800200Y-108087606D01*
X166800200Y-107772394D01*
X166738706Y-107463239D01*
X166618079Y-107172021D01*
X166442957Y-106909932D01*
X166220068Y-106687043D01*
X165957979Y-106511921D01*
X165666761Y-106391294D01*
X165357606Y-106329800D01*
X165042394Y-106329800D01*
X164733239Y-106391294D01*
X164442021Y-106511921D01*
X164179932Y-106687043D01*
X163957043Y-106909932D01*
X163873408Y-107035101D01*
X163770594Y-106999011D01*
X162839605Y-107930000D01*
X162853748Y-107944143D01*
X162674143Y-108123748D01*
X162660000Y-108109605D01*
X162645858Y-108123748D01*
X162466253Y-107944143D01*
X162480395Y-107930000D01*
X161549406Y-106999011D01*
X161390000Y-107054965D01*
X161230594Y-106999011D01*
X160299605Y-107930000D01*
X160313748Y-107944143D01*
X160134143Y-108123748D01*
X160120000Y-108109605D01*
X160105858Y-108123748D01*
X159926253Y-107944143D01*
X159940395Y-107930000D01*
X159009406Y-106999011D01*
X158906592Y-107035101D01*
X158822957Y-106909932D01*
X158732431Y-106819406D01*
X159189011Y-106819406D01*
X160120000Y-107750395D01*
X161050989Y-106819406D01*
X161729011Y-106819406D01*
X162660000Y-107750395D01*
X163590989Y-106819406D01*
X163499428Y-106558562D01*
X163215744Y-106421149D01*
X162910704Y-106341721D01*
X162596029Y-106323330D01*
X162283812Y-106366682D01*
X161986052Y-106470112D01*
X161820572Y-106558562D01*
X161729011Y-106819406D01*
X161050989Y-106819406D01*
X160959428Y-106558562D01*
X160675744Y-106421149D01*
X160370704Y-106341721D01*
X160056029Y-106323330D01*
X159743812Y-106366682D01*
X159446052Y-106470112D01*
X159280572Y-106558562D01*
X159189011Y-106819406D01*
X158732431Y-106819406D01*
X158600068Y-106687043D01*
X158337979Y-106511921D01*
X158046761Y-106391294D01*
X157737606Y-106329800D01*
X157422394Y-106329800D01*
X157113239Y-106391294D01*
X156822021Y-106511921D01*
X156559932Y-106687043D01*
X156337043Y-106909932D01*
X156310000Y-106950405D01*
X156282957Y-106909932D01*
X156060068Y-106687043D01*
X155797979Y-106511921D01*
X155506761Y-106391294D01*
X155197606Y-106329800D01*
X154882394Y-106329800D01*
X154573239Y-106391294D01*
X154282021Y-106511921D01*
X154019932Y-106687043D01*
X153797043Y-106909932D01*
X153770000Y-106950405D01*
X153742957Y-106909932D01*
X153520068Y-106687043D01*
X153385000Y-106596794D01*
X153385000Y-106032178D01*
X153985779Y-105431400D01*
X157881346Y-105431400D01*
X157929544Y-105463605D01*
X158117902Y-105541626D01*
X158317861Y-105581400D01*
X158521739Y-105581400D01*
X158721698Y-105541626D01*
X158910056Y-105463605D01*
X159079574Y-105350337D01*
X159223737Y-105206174D01*
X159337005Y-105036656D01*
X159415026Y-104848298D01*
X159454800Y-104648339D01*
X159454800Y-104444461D01*
X159415026Y-104244502D01*
X159337005Y-104056144D01*
X159223737Y-103886626D01*
X159079574Y-103742463D01*
X158910056Y-103629195D01*
X158721698Y-103551174D01*
X158521739Y-103511400D01*
X158317861Y-103511400D01*
X158117902Y-103551174D01*
X157929544Y-103629195D01*
X157881346Y-103661400D01*
X153662669Y-103661400D01*
X153619200Y-103657119D01*
X153575731Y-103661400D01*
X153575723Y-103661400D01*
X153445710Y-103674205D01*
X153278887Y-103724811D01*
X153125141Y-103806989D01*
X153024153Y-103889868D01*
X153024151Y-103889870D01*
X152990383Y-103917583D01*
X152962670Y-103951351D01*
X151904956Y-105009066D01*
X151871183Y-105036783D01*
X151760589Y-105171542D01*
X151678411Y-105325288D01*
X151627805Y-105492111D01*
X151615000Y-105622124D01*
X151615000Y-105622131D01*
X151610719Y-105665600D01*
X151615000Y-105709069D01*
X151615000Y-106596793D01*
X151479932Y-106687043D01*
X151257043Y-106909932D01*
X151230000Y-106950405D01*
X151202957Y-106909932D01*
X150980068Y-106687043D01*
X150717979Y-106511921D01*
X150426761Y-106391294D01*
X150117606Y-106329800D01*
X149802394Y-106329800D01*
X149493239Y-106391294D01*
X149202021Y-106511921D01*
X148939932Y-106687043D01*
X148717043Y-106909932D01*
X148690000Y-106950405D01*
X148662957Y-106909932D01*
X148440068Y-106687043D01*
X148177979Y-106511921D01*
X147886761Y-106391294D01*
X147577606Y-106329800D01*
X147262394Y-106329800D01*
X146953239Y-106391294D01*
X146662021Y-106511921D01*
X146399932Y-106687043D01*
X146177043Y-106909932D01*
X146001921Y-107172021D01*
X145881294Y-107463239D01*
X145819800Y-107772394D01*
X145819800Y-108087606D01*
X145881294Y-108396761D01*
X146001921Y-108687979D01*
X146177043Y-108950068D01*
X146399932Y-109172957D01*
X146662021Y-109348079D01*
X146953239Y-109468706D01*
X147262394Y-109530200D01*
X147577606Y-109530200D01*
X147886761Y-109468706D01*
X148177979Y-109348079D01*
X148440068Y-109172957D01*
X148662957Y-108950068D01*
X148690000Y-108909595D01*
X148717043Y-108950068D01*
X148939932Y-109172957D01*
X149202021Y-109348079D01*
X149493239Y-109468706D01*
X149802394Y-109530200D01*
X150117606Y-109530200D01*
X150426761Y-109468706D01*
X150717979Y-109348079D01*
X150980068Y-109172957D01*
X151202957Y-108950068D01*
X151230000Y-108909595D01*
X151257043Y-108950068D01*
X151479932Y-109172957D01*
X151742021Y-109348079D01*
X152033239Y-109468706D01*
X152342394Y-109530200D01*
X152657606Y-109530200D01*
X152966761Y-109468706D01*
X153257979Y-109348079D01*
X153520068Y-109172957D01*
X153742957Y-108950068D01*
X153770000Y-108909595D01*
X153797043Y-108950068D01*
X154019932Y-109172957D01*
X154282021Y-109348079D01*
X154573239Y-109468706D01*
X154882394Y-109530200D01*
X155197606Y-109530200D01*
X155506761Y-109468706D01*
X155797979Y-109348079D01*
X156060068Y-109172957D01*
X156282957Y-108950068D01*
X156310000Y-108909595D01*
X156337043Y-108950068D01*
X156559932Y-109172957D01*
X156822021Y-109348079D01*
X157111342Y-109467920D01*
X157473421Y-109830000D01*
X134606844Y-109830000D01*
X134866761Y-109656329D01*
X135176329Y-109346761D01*
X135419554Y-108982749D01*
X135587091Y-108578279D01*
X135672500Y-108148897D01*
X135672500Y-107711103D01*
X135587091Y-107281721D01*
X135419554Y-106877251D01*
X135176329Y-106513239D01*
X134866761Y-106203671D01*
X134502749Y-105960446D01*
X134098279Y-105792909D01*
X133668897Y-105707500D01*
X133231103Y-105707500D01*
X132801721Y-105792909D01*
X132397251Y-105960446D01*
X132033239Y-106203671D01*
X131851000Y-106385910D01*
X131851000Y-98203418D01*
X131854193Y-98171000D01*
X131841450Y-98041617D01*
X131803710Y-97917207D01*
X131742425Y-97802550D01*
X131659948Y-97702052D01*
X131559450Y-97619575D01*
X131444793Y-97558290D01*
X131320383Y-97520550D01*
X131223419Y-97511000D01*
X131191000Y-97507807D01*
X131158581Y-97511000D01*
X120167000Y-97511000D01*
X120167000Y-91475000D01*
X131636928Y-91475000D01*
X131649188Y-91599482D01*
X131685498Y-91719180D01*
X131744463Y-91829494D01*
X131823815Y-91926185D01*
X131920506Y-92005537D01*
X132030820Y-92064502D01*
X132150518Y-92100812D01*
X132275000Y-92113072D01*
X132439250Y-92110000D01*
X132598000Y-91951250D01*
X132598000Y-91127000D01*
X131798750Y-91127000D01*
X131640000Y-91285750D01*
X131636928Y-91475000D01*
X120167000Y-91475000D01*
X120167000Y-90525000D01*
X131636928Y-90525000D01*
X131640000Y-90714250D01*
X131798750Y-90873000D01*
X132598000Y-90873000D01*
X132598000Y-90048750D01*
X132852000Y-90048750D01*
X132852000Y-90873000D01*
X132872000Y-90873000D01*
X132872000Y-91127000D01*
X132852000Y-91127000D01*
X132852000Y-91951250D01*
X133010750Y-92110000D01*
X133115001Y-92111950D01*
X133115000Y-92461545D01*
X133082795Y-92509744D01*
X133004774Y-92698102D01*
X132965000Y-92898061D01*
X132965000Y-93101939D01*
X133004774Y-93301898D01*
X133082795Y-93490256D01*
X133196063Y-93659774D01*
X133340226Y-93803937D01*
X133509744Y-93917205D01*
X133698102Y-93995226D01*
X133898061Y-94035000D01*
X134101939Y-94035000D01*
X134301898Y-93995226D01*
X134490256Y-93917205D01*
X134659774Y-93803937D01*
X134803937Y-93659774D01*
X134863978Y-93569916D01*
X134863978Y-93599180D01*
X134876238Y-93723662D01*
X134912548Y-93843360D01*
X134971513Y-93953674D01*
X135008900Y-93999230D01*
X134971513Y-94044786D01*
X134912548Y-94155100D01*
X134876238Y-94274798D01*
X134863978Y-94399280D01*
X134863978Y-95598160D01*
X134876238Y-95722642D01*
X134912548Y-95842340D01*
X134971513Y-95952654D01*
X135008900Y-95998210D01*
X134971513Y-96043766D01*
X134912548Y-96154080D01*
X134876238Y-96273778D01*
X134863978Y-96398260D01*
X134863978Y-97597140D01*
X134876238Y-97721622D01*
X134912548Y-97841320D01*
X134971513Y-97951634D01*
X135050865Y-98048325D01*
X135147556Y-98127677D01*
X135257870Y-98186642D01*
X135377568Y-98222952D01*
X135502050Y-98235212D01*
X138501790Y-98235212D01*
X138626272Y-98222952D01*
X138745970Y-98186642D01*
X138856284Y-98127677D01*
X138952975Y-98048325D01*
X139032327Y-97951634D01*
X139091292Y-97841320D01*
X139127602Y-97721622D01*
X139139862Y-97597140D01*
X149860138Y-97597140D01*
X149872398Y-97721622D01*
X149908708Y-97841320D01*
X149967673Y-97951634D01*
X150047025Y-98048325D01*
X150143716Y-98127677D01*
X150254030Y-98186642D01*
X150373728Y-98222952D01*
X150498210Y-98235212D01*
X151712330Y-98232140D01*
X151871080Y-98073390D01*
X151871080Y-97124700D01*
X152125080Y-97124700D01*
X152125080Y-98073390D01*
X152283830Y-98232140D01*
X153497950Y-98235212D01*
X153622432Y-98222952D01*
X153742130Y-98186642D01*
X153852444Y-98127677D01*
X153949135Y-98048325D01*
X154028487Y-97951634D01*
X154087452Y-97841320D01*
X154123762Y-97721622D01*
X154136022Y-97597140D01*
X154132950Y-97283450D01*
X153974200Y-97124700D01*
X152125080Y-97124700D01*
X151871080Y-97124700D01*
X150021960Y-97124700D01*
X149863210Y-97283450D01*
X149860138Y-97597140D01*
X139139862Y-97597140D01*
X139139862Y-96398260D01*
X139127602Y-96273778D01*
X139091292Y-96154080D01*
X139032327Y-96043766D01*
X138994940Y-95998210D01*
X139032327Y-95952654D01*
X139091292Y-95842340D01*
X139127602Y-95722642D01*
X139139862Y-95598160D01*
X139139862Y-94399280D01*
X139127602Y-94274798D01*
X139091292Y-94155100D01*
X139032327Y-94044786D01*
X138994940Y-93999230D01*
X139032327Y-93953674D01*
X139091292Y-93843360D01*
X139127602Y-93723662D01*
X139139862Y-93599180D01*
X139139862Y-92400300D01*
X139127602Y-92275818D01*
X139091292Y-92156120D01*
X139032327Y-92045806D01*
X138993898Y-91998980D01*
X139032327Y-91952154D01*
X139091292Y-91841840D01*
X139127602Y-91722142D01*
X139139862Y-91597660D01*
X139139862Y-90398780D01*
X139127602Y-90274298D01*
X139091292Y-90154600D01*
X139032327Y-90044286D01*
X138995983Y-90000000D01*
X139032327Y-89955714D01*
X139091292Y-89845400D01*
X139127602Y-89725702D01*
X139139862Y-89601220D01*
X139139862Y-88402340D01*
X139127602Y-88277858D01*
X139091292Y-88158160D01*
X139032327Y-88047846D01*
X138993898Y-88001020D01*
X139032327Y-87954194D01*
X139091292Y-87843880D01*
X139127602Y-87724182D01*
X139139862Y-87599700D01*
X139139862Y-86400820D01*
X139127602Y-86276338D01*
X139091292Y-86156640D01*
X139032327Y-86046326D01*
X138994940Y-86000770D01*
X139032327Y-85955214D01*
X139091292Y-85844900D01*
X139127602Y-85725202D01*
X139139862Y-85600720D01*
X139136790Y-85287030D01*
X138978040Y-85128280D01*
X137128920Y-85128280D01*
X137128920Y-85148280D01*
X136874920Y-85148280D01*
X136874920Y-85128280D01*
X135025800Y-85128280D01*
X134867050Y-85287030D01*
X134863978Y-85600720D01*
X134876238Y-85725202D01*
X134912548Y-85844900D01*
X134971513Y-85955214D01*
X135008900Y-86000770D01*
X134971513Y-86046326D01*
X134912548Y-86156640D01*
X134876238Y-86276338D01*
X134863978Y-86400820D01*
X134863978Y-87599700D01*
X134876238Y-87724182D01*
X134912548Y-87843880D01*
X134971513Y-87954194D01*
X135009942Y-88001020D01*
X134971513Y-88047846D01*
X134912548Y-88158160D01*
X134876238Y-88277858D01*
X134863978Y-88402340D01*
X134863978Y-89601220D01*
X134876238Y-89725702D01*
X134912548Y-89845400D01*
X134971513Y-89955714D01*
X135007857Y-90000000D01*
X134980564Y-90033258D01*
X134979497Y-90032382D01*
X134830283Y-89952625D01*
X134668377Y-89903512D01*
X134500000Y-89886928D01*
X134050000Y-89886928D01*
X133881623Y-89903512D01*
X133719717Y-89952625D01*
X133573649Y-90030700D01*
X133529494Y-89994463D01*
X133419180Y-89935498D01*
X133299482Y-89899188D01*
X133175000Y-89886928D01*
X133010750Y-89890000D01*
X132852000Y-90048750D01*
X132598000Y-90048750D01*
X132439250Y-89890000D01*
X132275000Y-89886928D01*
X132150518Y-89899188D01*
X132030820Y-89935498D01*
X131920506Y-89994463D01*
X131823815Y-90073815D01*
X131744463Y-90170506D01*
X131685498Y-90280820D01*
X131649188Y-90400518D01*
X131636928Y-90525000D01*
X120167000Y-90525000D01*
X120167000Y-89336415D01*
X121109190Y-89336415D01*
X121238116Y-89628945D01*
X121574586Y-89797296D01*
X121937435Y-89896771D01*
X122312718Y-89923545D01*
X122686015Y-89876591D01*
X123042978Y-89757713D01*
X123283884Y-89628945D01*
X123412810Y-89336415D01*
X126208190Y-89336415D01*
X126337116Y-89628945D01*
X126673586Y-89797296D01*
X127036435Y-89896771D01*
X127411718Y-89923545D01*
X127785015Y-89876591D01*
X128141978Y-89757713D01*
X128382884Y-89628945D01*
X128511810Y-89336415D01*
X127360000Y-88184605D01*
X126208190Y-89336415D01*
X123412810Y-89336415D01*
X122261000Y-88184605D01*
X121109190Y-89336415D01*
X120167000Y-89336415D01*
X120167000Y-88056718D01*
X120342455Y-88056718D01*
X120389409Y-88430015D01*
X120508287Y-88786978D01*
X120637055Y-89027884D01*
X120929585Y-89156810D01*
X122081395Y-88005000D01*
X120929585Y-86853190D01*
X120637055Y-86982116D01*
X120468704Y-87318586D01*
X120369229Y-87681435D01*
X120342455Y-88056718D01*
X120167000Y-88056718D01*
X120167000Y-84236415D01*
X121109190Y-84236415D01*
X121238116Y-84528945D01*
X121574586Y-84697296D01*
X121937435Y-84796771D01*
X122312718Y-84823545D01*
X122686015Y-84776591D01*
X123042978Y-84657713D01*
X123081380Y-84637186D01*
X122973400Y-84897873D01*
X122900000Y-85266881D01*
X122900000Y-85643119D01*
X122973400Y-86012127D01*
X123084996Y-86281542D01*
X122947414Y-86212704D01*
X122584565Y-86113229D01*
X122209282Y-86086455D01*
X121835985Y-86133409D01*
X121479022Y-86252287D01*
X121238116Y-86381055D01*
X121109190Y-86673585D01*
X122261000Y-87825395D01*
X122275143Y-87811253D01*
X122454748Y-87990858D01*
X122440605Y-88005000D01*
X123592415Y-89156810D01*
X123884945Y-89027884D01*
X124053296Y-88691414D01*
X124152771Y-88328565D01*
X124179545Y-87953282D01*
X124132591Y-87579985D01*
X124013713Y-87223022D01*
X123992784Y-87183867D01*
X124252873Y-87291600D01*
X124621881Y-87365000D01*
X124998119Y-87365000D01*
X125367127Y-87291600D01*
X125637174Y-87179743D01*
X125567704Y-87318586D01*
X125468229Y-87681435D01*
X125441455Y-88056718D01*
X125488409Y-88430015D01*
X125607287Y-88786978D01*
X125736055Y-89027884D01*
X126028585Y-89156810D01*
X127180395Y-88005000D01*
X127539605Y-88005000D01*
X128691415Y-89156810D01*
X128983945Y-89027884D01*
X129152296Y-88691414D01*
X129251771Y-88328565D01*
X129278545Y-87953282D01*
X129231591Y-87579985D01*
X129112713Y-87223022D01*
X128983945Y-86982116D01*
X128691415Y-86853190D01*
X127539605Y-88005000D01*
X127180395Y-88005000D01*
X127166253Y-87990858D01*
X127345858Y-87811253D01*
X127360000Y-87825395D01*
X128511810Y-86673585D01*
X128384623Y-86385000D01*
X130697342Y-86385000D01*
X130776773Y-86503877D01*
X130996123Y-86723227D01*
X131254052Y-86895570D01*
X131540648Y-87014282D01*
X131844896Y-87074800D01*
X132155104Y-87074800D01*
X132459352Y-87014282D01*
X132745948Y-86895570D01*
X133003877Y-86723227D01*
X133223227Y-86503877D01*
X133395570Y-86245948D01*
X133514282Y-85959352D01*
X133574800Y-85655104D01*
X133574800Y-85344896D01*
X133514282Y-85040648D01*
X133395570Y-84754052D01*
X133316245Y-84635334D01*
X134064279Y-83887300D01*
X134934666Y-83887300D01*
X134971513Y-83956234D01*
X135008900Y-84001790D01*
X134971513Y-84047346D01*
X134912548Y-84157660D01*
X134876238Y-84277358D01*
X134863978Y-84401840D01*
X134867050Y-84715530D01*
X135025800Y-84874280D01*
X136874920Y-84874280D01*
X136874920Y-84854280D01*
X137128920Y-84854280D01*
X137128920Y-84874280D01*
X138978040Y-84874280D01*
X139136790Y-84715530D01*
X139139862Y-84401840D01*
X139127602Y-84277358D01*
X139091292Y-84157660D01*
X139032327Y-84047346D01*
X138994940Y-84001790D01*
X139032327Y-83956234D01*
X139091292Y-83845920D01*
X139127602Y-83726222D01*
X139139862Y-83601740D01*
X139139862Y-82402860D01*
X149860138Y-82402860D01*
X149863210Y-82716550D01*
X150021960Y-82875300D01*
X151871080Y-82875300D01*
X151871080Y-81926610D01*
X152125080Y-81926610D01*
X152125080Y-82875300D01*
X153974200Y-82875300D01*
X154132950Y-82716550D01*
X154136022Y-82402860D01*
X154123762Y-82278378D01*
X154087452Y-82158680D01*
X154028487Y-82048366D01*
X153949135Y-81951675D01*
X153852444Y-81872323D01*
X153742130Y-81813358D01*
X153622432Y-81777048D01*
X153497950Y-81764788D01*
X152283830Y-81767860D01*
X152125080Y-81926610D01*
X151871080Y-81926610D01*
X151712330Y-81767860D01*
X150498210Y-81764788D01*
X150373728Y-81777048D01*
X150254030Y-81813358D01*
X150143716Y-81872323D01*
X150047025Y-81951675D01*
X149967673Y-82048366D01*
X149908708Y-82158680D01*
X149872398Y-82278378D01*
X149860138Y-82402860D01*
X139139862Y-82402860D01*
X139127602Y-82278378D01*
X139091292Y-82158680D01*
X139032327Y-82048366D01*
X138952975Y-81951675D01*
X138856284Y-81872323D01*
X138745970Y-81813358D01*
X138626272Y-81777048D01*
X138501790Y-81764788D01*
X135502050Y-81764788D01*
X135377568Y-81777048D01*
X135257870Y-81813358D01*
X135147556Y-81872323D01*
X135050865Y-81951675D01*
X134971513Y-82048366D01*
X134934666Y-82117300D01*
X133741165Y-82117300D01*
X133697699Y-82113019D01*
X133654233Y-82117300D01*
X133654223Y-82117300D01*
X133524210Y-82130105D01*
X133357387Y-82180711D01*
X133203641Y-82262889D01*
X133203639Y-82262890D01*
X133203640Y-82262890D01*
X133102653Y-82345768D01*
X133102651Y-82345770D01*
X133068883Y-82373483D01*
X133041170Y-82407251D01*
X131407589Y-84040833D01*
X131254052Y-84104430D01*
X130996123Y-84276773D01*
X130776773Y-84496123D01*
X130697342Y-84615000D01*
X128221888Y-84615000D01*
X128382884Y-84528945D01*
X128511810Y-84236415D01*
X127360000Y-83084605D01*
X127345858Y-83098748D01*
X127166253Y-82919143D01*
X127180395Y-82905000D01*
X127539605Y-82905000D01*
X128691415Y-84056810D01*
X128983945Y-83927884D01*
X129152296Y-83591414D01*
X129251771Y-83228565D01*
X129278545Y-82853282D01*
X129231591Y-82479985D01*
X129112713Y-82123022D01*
X128983945Y-81882116D01*
X128691415Y-81753190D01*
X127539605Y-82905000D01*
X127180395Y-82905000D01*
X126028585Y-81753190D01*
X125736055Y-81882116D01*
X125567704Y-82218586D01*
X125468229Y-82581435D01*
X125441455Y-82956718D01*
X125488409Y-83330015D01*
X125607287Y-83686978D01*
X125628500Y-83726665D01*
X125367127Y-83618400D01*
X124998119Y-83545000D01*
X124621881Y-83545000D01*
X124252873Y-83618400D01*
X123984088Y-83729735D01*
X124053296Y-83591414D01*
X124152771Y-83228565D01*
X124179545Y-82853282D01*
X124132591Y-82479985D01*
X124013713Y-82123022D01*
X123884945Y-81882116D01*
X123592415Y-81753190D01*
X122440605Y-82905000D01*
X122454748Y-82919143D01*
X122275143Y-83098748D01*
X122261000Y-83084605D01*
X121109190Y-84236415D01*
X120167000Y-84236415D01*
X120167000Y-82956718D01*
X120342455Y-82956718D01*
X120389409Y-83330015D01*
X120508287Y-83686978D01*
X120637055Y-83927884D01*
X120929585Y-84056810D01*
X122081395Y-82905000D01*
X120929585Y-81753190D01*
X120637055Y-81882116D01*
X120468704Y-82218586D01*
X120369229Y-82581435D01*
X120342455Y-82956718D01*
X120167000Y-82956718D01*
X120167000Y-81573585D01*
X121109190Y-81573585D01*
X122261000Y-82725395D01*
X123412810Y-81573585D01*
X126208190Y-81573585D01*
X127360000Y-82725395D01*
X128511810Y-81573585D01*
X128382884Y-81281055D01*
X128046414Y-81112704D01*
X127683565Y-81013229D01*
X127308282Y-80986455D01*
X126934985Y-81033409D01*
X126578022Y-81152287D01*
X126337116Y-81281055D01*
X126208190Y-81573585D01*
X123412810Y-81573585D01*
X123283884Y-81281055D01*
X122947414Y-81112704D01*
X122584565Y-81013229D01*
X122209282Y-80986455D01*
X121835985Y-81033409D01*
X121479022Y-81152287D01*
X121238116Y-81281055D01*
X121109190Y-81573585D01*
X120167000Y-81573585D01*
X120167000Y-79019000D01*
X129253581Y-79019000D01*
X129286000Y-79022193D01*
X129318419Y-79019000D01*
X129415383Y-79009450D01*
X129539793Y-78971710D01*
X129654450Y-78910425D01*
X129754948Y-78827948D01*
X129837425Y-78727450D01*
X129898710Y-78612793D01*
X129936450Y-78488383D01*
X129949193Y-78359000D01*
X129946000Y-78326581D01*
X129946000Y-76075000D01*
X140636928Y-76075000D01*
X140649188Y-76199482D01*
X140685498Y-76319180D01*
X140744463Y-76429494D01*
X140823815Y-76526185D01*
X140920506Y-76605537D01*
X141030820Y-76664502D01*
X141150518Y-76700812D01*
X141275000Y-76713072D01*
X141439250Y-76710000D01*
X141598000Y-76551250D01*
X141598000Y-75727000D01*
X140798750Y-75727000D01*
X140640000Y-75885750D01*
X140636928Y-76075000D01*
X129946000Y-76075000D01*
X129946000Y-75125000D01*
X140636928Y-75125000D01*
X140640000Y-75314250D01*
X140798750Y-75473000D01*
X141598000Y-75473000D01*
X141598000Y-74648750D01*
X141439250Y-74490000D01*
X141275000Y-74486928D01*
X141150518Y-74499188D01*
X141030820Y-74535498D01*
X140920506Y-74594463D01*
X140823815Y-74673815D01*
X140744463Y-74770506D01*
X140685498Y-74880820D01*
X140649188Y-75000518D01*
X140636928Y-75125000D01*
X129946000Y-75125000D01*
X129946000Y-67304896D01*
X149925200Y-67304896D01*
X149925200Y-67615104D01*
X149985718Y-67919352D01*
X150104430Y-68205948D01*
X150276773Y-68463877D01*
X150496123Y-68683227D01*
X150566124Y-68730000D01*
X150496123Y-68776773D01*
X150276773Y-68996123D01*
X150104430Y-69254052D01*
X149985718Y-69540648D01*
X149925200Y-69844896D01*
X149925200Y-70155104D01*
X149985718Y-70459352D01*
X150104430Y-70745948D01*
X150276773Y-71003877D01*
X150496123Y-71223227D01*
X150754052Y-71395570D01*
X150765001Y-71400105D01*
X150765000Y-72087913D01*
X150650518Y-72099188D01*
X150530820Y-72135498D01*
X150420506Y-72194463D01*
X150323815Y-72273815D01*
X150244463Y-72370506D01*
X150185498Y-72480820D01*
X150149188Y-72600518D01*
X150136928Y-72725000D01*
X150136928Y-73675000D01*
X150149188Y-73799482D01*
X150185498Y-73919180D01*
X150244463Y-74029494D01*
X150323815Y-74126185D01*
X150420506Y-74205537D01*
X150530820Y-74264502D01*
X150650518Y-74300812D01*
X150775000Y-74313072D01*
X152525000Y-74313072D01*
X152649482Y-74300812D01*
X152769180Y-74264502D01*
X152879494Y-74205537D01*
X152973101Y-74128716D01*
X153020503Y-74167618D01*
X153169717Y-74247375D01*
X153331623Y-74296488D01*
X153500000Y-74313072D01*
X153950000Y-74313072D01*
X154118377Y-74296488D01*
X154280283Y-74247375D01*
X154426351Y-74169300D01*
X154470506Y-74205537D01*
X154580820Y-74264502D01*
X154700518Y-74300812D01*
X154825000Y-74313072D01*
X154989250Y-74310000D01*
X155148000Y-74151250D01*
X155148000Y-73327000D01*
X155402000Y-73327000D01*
X155402000Y-74151250D01*
X155560750Y-74310000D01*
X155725000Y-74313072D01*
X155849482Y-74300812D01*
X155969180Y-74264502D01*
X156079494Y-74205537D01*
X156176185Y-74126185D01*
X156255537Y-74029494D01*
X156314502Y-73919180D01*
X156350812Y-73799482D01*
X156363072Y-73675000D01*
X156360000Y-73485750D01*
X156201250Y-73327000D01*
X155402000Y-73327000D01*
X155148000Y-73327000D01*
X155128000Y-73327000D01*
X155128000Y-73073000D01*
X155148000Y-73073000D01*
X155148000Y-72248750D01*
X155402000Y-72248750D01*
X155402000Y-73073000D01*
X156201250Y-73073000D01*
X156360000Y-72914250D01*
X156363072Y-72725000D01*
X156350812Y-72600518D01*
X156314502Y-72480820D01*
X156255537Y-72370506D01*
X156176185Y-72273815D01*
X156079494Y-72194463D01*
X155969180Y-72135498D01*
X155849482Y-72099188D01*
X155725000Y-72086928D01*
X155560750Y-72090000D01*
X155402000Y-72248750D01*
X155148000Y-72248750D01*
X154989250Y-72090000D01*
X154825000Y-72086928D01*
X154700518Y-72099188D01*
X154580820Y-72135498D01*
X154470506Y-72194463D01*
X154426351Y-72230700D01*
X154280283Y-72152625D01*
X154118377Y-72103512D01*
X153950000Y-72086928D01*
X153500000Y-72086928D01*
X153331623Y-72103512D01*
X153169717Y-72152625D01*
X153020503Y-72232382D01*
X152973101Y-72271284D01*
X152879494Y-72194463D01*
X152769180Y-72135498D01*
X152649482Y-72099188D01*
X152535000Y-72087913D01*
X152535000Y-71192104D01*
X152723227Y-71003877D01*
X152895570Y-70745948D01*
X153014282Y-70459352D01*
X153074800Y-70155104D01*
X153074800Y-70092476D01*
X163777129Y-70092476D01*
X163865623Y-70350723D01*
X164144976Y-70485597D01*
X164445275Y-70563381D01*
X164754977Y-70581084D01*
X165062184Y-70538027D01*
X165355086Y-70435865D01*
X165514377Y-70350723D01*
X165602871Y-70092476D01*
X164690000Y-69179605D01*
X163777129Y-70092476D01*
X153074800Y-70092476D01*
X153074800Y-69844896D01*
X153014282Y-69540648D01*
X152895570Y-69254052D01*
X152769234Y-69064977D01*
X163108916Y-69064977D01*
X163151973Y-69372184D01*
X163254135Y-69665086D01*
X163339277Y-69824377D01*
X163597524Y-69912871D01*
X164510395Y-69000000D01*
X163597524Y-68087129D01*
X163339277Y-68175623D01*
X163204403Y-68454976D01*
X163126619Y-68755275D01*
X163108916Y-69064977D01*
X152769234Y-69064977D01*
X152723227Y-68996123D01*
X152503877Y-68776773D01*
X152433876Y-68730000D01*
X152503877Y-68683227D01*
X152723227Y-68463877D01*
X152895570Y-68205948D01*
X153014282Y-67919352D01*
X153016634Y-67907524D01*
X163777129Y-67907524D01*
X164690000Y-68820395D01*
X165602871Y-67907524D01*
X165514377Y-67649277D01*
X165235024Y-67514403D01*
X164934725Y-67436619D01*
X164625023Y-67418916D01*
X164317816Y-67461973D01*
X164024914Y-67564135D01*
X163865623Y-67649277D01*
X163777129Y-67907524D01*
X153016634Y-67907524D01*
X153074800Y-67615104D01*
X153074800Y-67304896D01*
X153014282Y-67000648D01*
X152895570Y-66714052D01*
X152723227Y-66456123D01*
X152503877Y-66236773D01*
X152245948Y-66064430D01*
X151959352Y-65945718D01*
X151655104Y-65885200D01*
X151344896Y-65885200D01*
X151040648Y-65945718D01*
X150754052Y-66064430D01*
X150496123Y-66236773D01*
X150276773Y-66456123D01*
X150104430Y-66714052D01*
X149985718Y-67000648D01*
X149925200Y-67304896D01*
X129946000Y-67304896D01*
X129946000Y-66453418D01*
X129949193Y-66421000D01*
X129936450Y-66291617D01*
X129898710Y-66167207D01*
X129837425Y-66052550D01*
X129754948Y-65952052D01*
X129654450Y-65869575D01*
X129539793Y-65808290D01*
X129415383Y-65770550D01*
X129318419Y-65761000D01*
X129286000Y-65757807D01*
X129253581Y-65761000D01*
X120167000Y-65761000D01*
X120167000Y-57810000D01*
X133503292Y-57810000D01*
X133303239Y-57943671D01*
G37*
%TD.AperFunction*%
D20*
X160125230Y-93318000D02*
X161073920Y-93318000D01*
X161073920Y-93298000D01*
X161327920Y-93298000D01*
X161327920Y-93318000D01*
X161347920Y-93318000D01*
X161347920Y-93572000D01*
X161327920Y-93572000D01*
X161327920Y-94220970D01*
X161486670Y-94379720D01*
X161800360Y-94382792D01*
X161924842Y-94370532D01*
X162044540Y-94334222D01*
X162154854Y-94275257D01*
X162251545Y-94195905D01*
X162327334Y-94103556D01*
X162371023Y-94139411D01*
X162524768Y-94221589D01*
X162691592Y-94272195D01*
X162821605Y-94285000D01*
X162821613Y-94285000D01*
X162865082Y-94289281D01*
X162908551Y-94285000D01*
X164661546Y-94285000D01*
X164709744Y-94317205D01*
X164898102Y-94395226D01*
X165098061Y-94435000D01*
X165301939Y-94435000D01*
X165501898Y-94395226D01*
X165690256Y-94317205D01*
X165803808Y-94241332D01*
X165845146Y-94275257D01*
X165955460Y-94334222D01*
X166075158Y-94370532D01*
X166199640Y-94382792D01*
X166496493Y-94382792D01*
X166535021Y-94414411D01*
X166582895Y-94440000D01*
X160366579Y-94440000D01*
X160113072Y-94186494D01*
X160113072Y-94150548D01*
X160150295Y-94195905D01*
X160246986Y-94275257D01*
X160357300Y-94334222D01*
X160476998Y-94370532D01*
X160601480Y-94382792D01*
X160915170Y-94379720D01*
X161073920Y-94220970D01*
X161073920Y-93572000D01*
X160125230Y-93572000D01*
X159994823Y-93702407D01*
X159971831Y-93659392D01*
X159867606Y-93532394D01*
X159828134Y-93500000D01*
X159867606Y-93467606D01*
X159971831Y-93340608D01*
X160033139Y-93225909D01*
X160125230Y-93318000D01*
%TA.AperFunction,Conductor*%
D21*
G36*
X160125230Y-93318000D02*
G01*
X161073920Y-93318000D01*
X161073920Y-93298000D01*
X161327920Y-93298000D01*
X161327920Y-93318000D01*
X161347920Y-93318000D01*
X161347920Y-93572000D01*
X161327920Y-93572000D01*
X161327920Y-94220970D01*
X161486670Y-94379720D01*
X161800360Y-94382792D01*
X161924842Y-94370532D01*
X162044540Y-94334222D01*
X162154854Y-94275257D01*
X162251545Y-94195905D01*
X162327334Y-94103556D01*
X162371023Y-94139411D01*
X162524768Y-94221589D01*
X162691592Y-94272195D01*
X162821605Y-94285000D01*
X162821613Y-94285000D01*
X162865082Y-94289281D01*
X162908551Y-94285000D01*
X164661546Y-94285000D01*
X164709744Y-94317205D01*
X164898102Y-94395226D01*
X165098061Y-94435000D01*
X165301939Y-94435000D01*
X165501898Y-94395226D01*
X165690256Y-94317205D01*
X165803808Y-94241332D01*
X165845146Y-94275257D01*
X165955460Y-94334222D01*
X166075158Y-94370532D01*
X166199640Y-94382792D01*
X166496493Y-94382792D01*
X166535021Y-94414411D01*
X166582895Y-94440000D01*
X160366579Y-94440000D01*
X160113072Y-94186494D01*
X160113072Y-94150548D01*
X160150295Y-94195905D01*
X160246986Y-94275257D01*
X160357300Y-94334222D01*
X160476998Y-94370532D01*
X160601480Y-94382792D01*
X160915170Y-94379720D01*
X161073920Y-94220970D01*
X161073920Y-93572000D01*
X160125230Y-93572000D01*
X159994823Y-93702407D01*
X159971831Y-93659392D01*
X159867606Y-93532394D01*
X159828134Y-93500000D01*
X159867606Y-93467606D01*
X159971831Y-93340608D01*
X160033139Y-93225909D01*
X160125230Y-93318000D01*
G37*
%TD.AperFunction*%
D20*
X184416743Y-83600868D02*
X184639632Y-83823757D01*
X184764078Y-83906909D01*
X184728711Y-84007666D01*
X185659700Y-84938655D01*
X185673843Y-84924513D01*
X185853448Y-85104118D01*
X185839305Y-85118260D01*
X185853448Y-85132403D01*
X185673843Y-85312008D01*
X185659700Y-85297865D01*
X184728711Y-86228854D01*
X184794052Y-86415000D01*
X184059276Y-86415000D01*
X184139768Y-86361217D01*
X184362657Y-86138328D01*
X184446292Y-86013159D01*
X184549106Y-86049249D01*
X185480095Y-85118260D01*
X184549106Y-84187271D01*
X184446292Y-84223361D01*
X184362657Y-84098192D01*
X184139768Y-83875303D01*
X184101196Y-83849530D01*
X184139768Y-83823757D01*
X184362657Y-83600868D01*
X184389700Y-83560395D01*
X184416743Y-83600868D01*
%TA.AperFunction,Conductor*%
D21*
G36*
X184416743Y-83600868D02*
G01*
X184639632Y-83823757D01*
X184764078Y-83906909D01*
X184728711Y-84007666D01*
X185659700Y-84938655D01*
X185673843Y-84924513D01*
X185853448Y-85104118D01*
X185839305Y-85118260D01*
X185853448Y-85132403D01*
X185673843Y-85312008D01*
X185659700Y-85297865D01*
X184728711Y-86228854D01*
X184794052Y-86415000D01*
X184059276Y-86415000D01*
X184139768Y-86361217D01*
X184362657Y-86138328D01*
X184446292Y-86013159D01*
X184549106Y-86049249D01*
X185480095Y-85118260D01*
X184549106Y-84187271D01*
X184446292Y-84223361D01*
X184362657Y-84098192D01*
X184139768Y-83875303D01*
X184101196Y-83849530D01*
X184139768Y-83823757D01*
X184362657Y-83600868D01*
X184389700Y-83560395D01*
X184416743Y-83600868D01*
G37*
%TD.AperFunction*%
%TD*%
M02*
