%TF.GenerationSoftware,KiCad,Pcbnew,(5.1.9)-1*%
%TF.CreationDate,2021-01-06T17:38:29+00:00*%
%TF.ProjectId,RFMduino,52464d64-7569-46e6-9f2e-6b696361645f,rev?*%
%TF.SameCoordinates,Original*%
%TF.FileFunction,Paste,Top*%
%TF.FilePolarity,Positive*%
%FSLAX46Y46*%
G04 Gerber Fmt 4.6, Leading zero omitted, Abs format (unit mm)*
G04 Created by KiCad (PCBNEW (5.1.9)-1) date 2021-01-06 17:38:29*
%MOMM*%
%LPD*%
G01*
G04 APERTURE LIST*
%ADD10R,0.900000X0.800000*%
%ADD11R,1.750000X0.950000*%
%ADD12R,1.750000X3.200000*%
%ADD13R,1.198880X0.599440*%
%ADD14R,2.999740X1.198880*%
G04 APERTURE END LIST*
%TO.C,C1*%
G36*
G01*
X153275000Y-73450000D02*
X153275000Y-72950000D01*
G75*
G02*
X153500000Y-72725000I225000J0D01*
G01*
X153950000Y-72725000D01*
G75*
G02*
X154175000Y-72950000I0J-225000D01*
G01*
X154175000Y-73450000D01*
G75*
G02*
X153950000Y-73675000I-225000J0D01*
G01*
X153500000Y-73675000D01*
G75*
G02*
X153275000Y-73450000I0J225000D01*
G01*
G37*
G36*
G01*
X154825000Y-73450000D02*
X154825000Y-72950000D01*
G75*
G02*
X155050000Y-72725000I225000J0D01*
G01*
X155500000Y-72725000D01*
G75*
G02*
X155725000Y-72950000I0J-225000D01*
G01*
X155725000Y-73450000D01*
G75*
G02*
X155500000Y-73675000I-225000J0D01*
G01*
X155050000Y-73675000D01*
G75*
G02*
X154825000Y-73450000I0J225000D01*
G01*
G37*
%TD*%
%TO.C,C2*%
G36*
G01*
X142175000Y-75350000D02*
X142175000Y-75850000D01*
G75*
G02*
X141950000Y-76075000I-225000J0D01*
G01*
X141500000Y-76075000D01*
G75*
G02*
X141275000Y-75850000I0J225000D01*
G01*
X141275000Y-75350000D01*
G75*
G02*
X141500000Y-75125000I225000J0D01*
G01*
X141950000Y-75125000D01*
G75*
G02*
X142175000Y-75350000I0J-225000D01*
G01*
G37*
G36*
G01*
X143725000Y-75350000D02*
X143725000Y-75850000D01*
G75*
G02*
X143500000Y-76075000I-225000J0D01*
G01*
X143050000Y-76075000D01*
G75*
G02*
X142825000Y-75850000I0J225000D01*
G01*
X142825000Y-75350000D01*
G75*
G02*
X143050000Y-75125000I225000J0D01*
G01*
X143500000Y-75125000D01*
G75*
G02*
X143725000Y-75350000I0J-225000D01*
G01*
G37*
%TD*%
%TO.C,C3*%
G36*
G01*
X159850000Y-83475000D02*
X159350000Y-83475000D01*
G75*
G02*
X159125000Y-83250000I0J225000D01*
G01*
X159125000Y-82800000D01*
G75*
G02*
X159350000Y-82575000I225000J0D01*
G01*
X159850000Y-82575000D01*
G75*
G02*
X160075000Y-82800000I0J-225000D01*
G01*
X160075000Y-83250000D01*
G75*
G02*
X159850000Y-83475000I-225000J0D01*
G01*
G37*
G36*
G01*
X159850000Y-85025000D02*
X159350000Y-85025000D01*
G75*
G02*
X159125000Y-84800000I0J225000D01*
G01*
X159125000Y-84350000D01*
G75*
G02*
X159350000Y-84125000I225000J0D01*
G01*
X159850000Y-84125000D01*
G75*
G02*
X160075000Y-84350000I0J-225000D01*
G01*
X160075000Y-84800000D01*
G75*
G02*
X159850000Y-85025000I-225000J0D01*
G01*
G37*
%TD*%
%TO.C,C4*%
G36*
G01*
X134725000Y-90750000D02*
X134725000Y-91250000D01*
G75*
G02*
X134500000Y-91475000I-225000J0D01*
G01*
X134050000Y-91475000D01*
G75*
G02*
X133825000Y-91250000I0J225000D01*
G01*
X133825000Y-90750000D01*
G75*
G02*
X134050000Y-90525000I225000J0D01*
G01*
X134500000Y-90525000D01*
G75*
G02*
X134725000Y-90750000I0J-225000D01*
G01*
G37*
G36*
G01*
X133175000Y-90750000D02*
X133175000Y-91250000D01*
G75*
G02*
X132950000Y-91475000I-225000J0D01*
G01*
X132500000Y-91475000D01*
G75*
G02*
X132275000Y-91250000I0J225000D01*
G01*
X132275000Y-90750000D01*
G75*
G02*
X132500000Y-90525000I225000J0D01*
G01*
X132950000Y-90525000D01*
G75*
G02*
X133175000Y-90750000I0J-225000D01*
G01*
G37*
%TD*%
D10*
%TO.C,Q1*%
X177500000Y-79050000D03*
X177500000Y-80950000D03*
X179500000Y-80000000D03*
%TD*%
%TO.C,R1*%
G36*
G01*
X158725000Y-93925000D02*
X159275000Y-93925000D01*
G75*
G02*
X159475000Y-94125000I0J-200000D01*
G01*
X159475000Y-94525000D01*
G75*
G02*
X159275000Y-94725000I-200000J0D01*
G01*
X158725000Y-94725000D01*
G75*
G02*
X158525000Y-94525000I0J200000D01*
G01*
X158525000Y-94125000D01*
G75*
G02*
X158725000Y-93925000I200000J0D01*
G01*
G37*
G36*
G01*
X158725000Y-92275000D02*
X159275000Y-92275000D01*
G75*
G02*
X159475000Y-92475000I0J-200000D01*
G01*
X159475000Y-92875000D01*
G75*
G02*
X159275000Y-93075000I-200000J0D01*
G01*
X158725000Y-93075000D01*
G75*
G02*
X158525000Y-92875000I0J200000D01*
G01*
X158525000Y-92475000D01*
G75*
G02*
X158725000Y-92275000I200000J0D01*
G01*
G37*
%TD*%
%TO.C,R2*%
G36*
G01*
X169725000Y-93275000D02*
X170275000Y-93275000D01*
G75*
G02*
X170475000Y-93475000I0J-200000D01*
G01*
X170475000Y-93875000D01*
G75*
G02*
X170275000Y-94075000I-200000J0D01*
G01*
X169725000Y-94075000D01*
G75*
G02*
X169525000Y-93875000I0J200000D01*
G01*
X169525000Y-93475000D01*
G75*
G02*
X169725000Y-93275000I200000J0D01*
G01*
G37*
G36*
G01*
X169725000Y-94925000D02*
X170275000Y-94925000D01*
G75*
G02*
X170475000Y-95125000I0J-200000D01*
G01*
X170475000Y-95525000D01*
G75*
G02*
X170275000Y-95725000I-200000J0D01*
G01*
X169725000Y-95725000D01*
G75*
G02*
X169525000Y-95525000I0J200000D01*
G01*
X169525000Y-95125000D01*
G75*
G02*
X169725000Y-94925000I200000J0D01*
G01*
G37*
%TD*%
%TO.C,R3*%
G36*
G01*
X179225000Y-74275000D02*
X179775000Y-74275000D01*
G75*
G02*
X179975000Y-74475000I0J-200000D01*
G01*
X179975000Y-74875000D01*
G75*
G02*
X179775000Y-75075000I-200000J0D01*
G01*
X179225000Y-75075000D01*
G75*
G02*
X179025000Y-74875000I0J200000D01*
G01*
X179025000Y-74475000D01*
G75*
G02*
X179225000Y-74275000I200000J0D01*
G01*
G37*
G36*
G01*
X179225000Y-75925000D02*
X179775000Y-75925000D01*
G75*
G02*
X179975000Y-76125000I0J-200000D01*
G01*
X179975000Y-76525000D01*
G75*
G02*
X179775000Y-76725000I-200000J0D01*
G01*
X179225000Y-76725000D01*
G75*
G02*
X179025000Y-76525000I0J200000D01*
G01*
X179025000Y-76125000D01*
G75*
G02*
X179225000Y-75925000I200000J0D01*
G01*
G37*
%TD*%
%TO.C,R4*%
G36*
G01*
X175225000Y-80100000D02*
X175775000Y-80100000D01*
G75*
G02*
X175975000Y-80300000I0J-200000D01*
G01*
X175975000Y-80700000D01*
G75*
G02*
X175775000Y-80900000I-200000J0D01*
G01*
X175225000Y-80900000D01*
G75*
G02*
X175025000Y-80700000I0J200000D01*
G01*
X175025000Y-80300000D01*
G75*
G02*
X175225000Y-80100000I200000J0D01*
G01*
G37*
G36*
G01*
X175225000Y-78450000D02*
X175775000Y-78450000D01*
G75*
G02*
X175975000Y-78650000I0J-200000D01*
G01*
X175975000Y-79050000D01*
G75*
G02*
X175775000Y-79250000I-200000J0D01*
G01*
X175225000Y-79250000D01*
G75*
G02*
X175025000Y-79050000I0J200000D01*
G01*
X175025000Y-78650000D01*
G75*
G02*
X175225000Y-78450000I200000J0D01*
G01*
G37*
%TD*%
D11*
%TO.C,U1*%
X151650000Y-77800000D03*
X151650000Y-75500000D03*
X151650000Y-73200000D03*
D12*
X145350000Y-75500000D03*
%TD*%
D13*
%TO.C,U2*%
X161200920Y-84555000D03*
X161200920Y-85825000D03*
X161200920Y-87095000D03*
X161200920Y-88365000D03*
X161200920Y-89635000D03*
X161200920Y-90905000D03*
X161200920Y-92175000D03*
X161200920Y-93445000D03*
X166799080Y-93445000D03*
X166799080Y-92175000D03*
X166799080Y-90905000D03*
X166799080Y-89635000D03*
X166799080Y-88365000D03*
X166799080Y-87095000D03*
X166799080Y-85825000D03*
X166799080Y-84555000D03*
%TD*%
D14*
%TO.C,U3*%
X151998080Y-96997700D03*
X151998080Y-94998720D03*
X151998080Y-92999740D03*
X151998080Y-90998220D03*
X151998080Y-89001780D03*
X151998080Y-87000260D03*
X151998080Y-85001280D03*
X151998080Y-83002300D03*
X137001920Y-83002300D03*
X137001920Y-85001280D03*
X137001920Y-87000260D03*
X137001920Y-89001780D03*
X137001920Y-90998220D03*
X137001920Y-92999740D03*
X137001920Y-94998720D03*
X137001920Y-96997700D03*
%TD*%
M02*
