%TF.GenerationSoftware,KiCad,Pcbnew,(5.1.9)-1*%
%TF.CreationDate,2021-01-06T17:39:48+00:00*%
%TF.ProjectId,RFMduino,52464d64-7569-46e6-9f2e-6b696361645f,rev?*%
%TF.SameCoordinates,Original*%
%TF.FileFunction,Legend,Top*%
%TF.FilePolarity,Positive*%
%FSLAX46Y46*%
G04 Gerber Fmt 4.6, Leading zero omitted, Abs format (unit mm)*
G04 Created by KiCad (PCBNEW (5.1.9)-1) date 2021-01-06 17:39:48*
%MOMM*%
%LPD*%
G01*
G04 APERTURE LIST*
%ADD10C,0.150000*%
%ADD11C,0.120000*%
%ADD12C,0.203200*%
%ADD13C,0.100000*%
%ADD14C,0.200000*%
%ADD15C,0.254000*%
%ADD16C,0.127000*%
G04 APERTURE END LIST*
D10*
X133700047Y-102878380D02*
X133366714Y-102402190D01*
X133128619Y-102878380D02*
X133128619Y-101878380D01*
X133509571Y-101878380D01*
X133604809Y-101926000D01*
X133652428Y-101973619D01*
X133700047Y-102068857D01*
X133700047Y-102211714D01*
X133652428Y-102306952D01*
X133604809Y-102354571D01*
X133509571Y-102402190D01*
X133128619Y-102402190D01*
X134461952Y-102354571D02*
X134128619Y-102354571D01*
X134128619Y-102878380D02*
X134128619Y-101878380D01*
X134604809Y-101878380D01*
X134985761Y-102878380D02*
X134985761Y-101878380D01*
X135319095Y-102592666D01*
X135652428Y-101878380D01*
X135652428Y-102878380D01*
X137319095Y-102878380D02*
X137319095Y-102354571D01*
X137271476Y-102259333D01*
X137176238Y-102211714D01*
X136985761Y-102211714D01*
X136890523Y-102259333D01*
X137319095Y-102830761D02*
X137223857Y-102878380D01*
X136985761Y-102878380D01*
X136890523Y-102830761D01*
X136842904Y-102735523D01*
X136842904Y-102640285D01*
X136890523Y-102545047D01*
X136985761Y-102497428D01*
X137223857Y-102497428D01*
X137319095Y-102449809D01*
X137795285Y-102878380D02*
X137795285Y-102211714D01*
X137795285Y-102402190D02*
X137842904Y-102306952D01*
X137890523Y-102259333D01*
X137985761Y-102211714D01*
X138081000Y-102211714D01*
X138842904Y-102878380D02*
X138842904Y-101878380D01*
X138842904Y-102830761D02*
X138747666Y-102878380D01*
X138557190Y-102878380D01*
X138461952Y-102830761D01*
X138414333Y-102783142D01*
X138366714Y-102687904D01*
X138366714Y-102402190D01*
X138414333Y-102306952D01*
X138461952Y-102259333D01*
X138557190Y-102211714D01*
X138747666Y-102211714D01*
X138842904Y-102259333D01*
X139747666Y-102211714D02*
X139747666Y-102878380D01*
X139319095Y-102211714D02*
X139319095Y-102735523D01*
X139366714Y-102830761D01*
X139461952Y-102878380D01*
X139604809Y-102878380D01*
X139700047Y-102830761D01*
X139747666Y-102783142D01*
X140223857Y-102878380D02*
X140223857Y-102211714D01*
X140223857Y-101878380D02*
X140176238Y-101926000D01*
X140223857Y-101973619D01*
X140271476Y-101926000D01*
X140223857Y-101878380D01*
X140223857Y-101973619D01*
X140700047Y-102211714D02*
X140700047Y-102878380D01*
X140700047Y-102306952D02*
X140747666Y-102259333D01*
X140842904Y-102211714D01*
X140985761Y-102211714D01*
X141081000Y-102259333D01*
X141128619Y-102354571D01*
X141128619Y-102878380D01*
X141747666Y-102878380D02*
X141652428Y-102830761D01*
X141604809Y-102783142D01*
X141557190Y-102687904D01*
X141557190Y-102402190D01*
X141604809Y-102306952D01*
X141652428Y-102259333D01*
X141747666Y-102211714D01*
X141890523Y-102211714D01*
X141985761Y-102259333D01*
X142033380Y-102306952D01*
X142081000Y-102402190D01*
X142081000Y-102687904D01*
X142033380Y-102783142D01*
X141985761Y-102830761D01*
X141890523Y-102878380D01*
X141747666Y-102878380D01*
X143271476Y-102878380D02*
X143271476Y-101878380D01*
X143271476Y-102259333D02*
X143366714Y-102211714D01*
X143557190Y-102211714D01*
X143652428Y-102259333D01*
X143700047Y-102306952D01*
X143747666Y-102402190D01*
X143747666Y-102687904D01*
X143700047Y-102783142D01*
X143652428Y-102830761D01*
X143557190Y-102878380D01*
X143366714Y-102878380D01*
X143271476Y-102830761D01*
X144319095Y-102878380D02*
X144223857Y-102830761D01*
X144176238Y-102783142D01*
X144128619Y-102687904D01*
X144128619Y-102402190D01*
X144176238Y-102306952D01*
X144223857Y-102259333D01*
X144319095Y-102211714D01*
X144461952Y-102211714D01*
X144557190Y-102259333D01*
X144604809Y-102306952D01*
X144652428Y-102402190D01*
X144652428Y-102687904D01*
X144604809Y-102783142D01*
X144557190Y-102830761D01*
X144461952Y-102878380D01*
X144319095Y-102878380D01*
X145509571Y-102878380D02*
X145509571Y-102354571D01*
X145461952Y-102259333D01*
X145366714Y-102211714D01*
X145176238Y-102211714D01*
X145081000Y-102259333D01*
X145509571Y-102830761D02*
X145414333Y-102878380D01*
X145176238Y-102878380D01*
X145081000Y-102830761D01*
X145033380Y-102735523D01*
X145033380Y-102640285D01*
X145081000Y-102545047D01*
X145176238Y-102497428D01*
X145414333Y-102497428D01*
X145509571Y-102449809D01*
X145985761Y-102878380D02*
X145985761Y-102211714D01*
X145985761Y-102402190D02*
X146033380Y-102306952D01*
X146081000Y-102259333D01*
X146176238Y-102211714D01*
X146271476Y-102211714D01*
X147033380Y-102878380D02*
X147033380Y-101878380D01*
X147033380Y-102830761D02*
X146938142Y-102878380D01*
X146747666Y-102878380D01*
X146652428Y-102830761D01*
X146604809Y-102783142D01*
X146557190Y-102687904D01*
X146557190Y-102402190D01*
X146604809Y-102306952D01*
X146652428Y-102259333D01*
X146747666Y-102211714D01*
X146938142Y-102211714D01*
X147033380Y-102259333D01*
X131628619Y-104528380D02*
X131628619Y-103528380D01*
X131628619Y-103909333D02*
X131723857Y-103861714D01*
X131914333Y-103861714D01*
X132009571Y-103909333D01*
X132057190Y-103956952D01*
X132104809Y-104052190D01*
X132104809Y-104337904D01*
X132057190Y-104433142D01*
X132009571Y-104480761D01*
X131914333Y-104528380D01*
X131723857Y-104528380D01*
X131628619Y-104480761D01*
X132438142Y-103861714D02*
X132676238Y-104528380D01*
X132914333Y-103861714D02*
X132676238Y-104528380D01*
X132581000Y-104766476D01*
X132533380Y-104814095D01*
X132438142Y-104861714D01*
X134057190Y-104528380D02*
X134057190Y-103528380D01*
X134390523Y-104242666D01*
X134723857Y-103528380D01*
X134723857Y-104528380D01*
X135628619Y-104528380D02*
X135628619Y-104004571D01*
X135581000Y-103909333D01*
X135485761Y-103861714D01*
X135295285Y-103861714D01*
X135200047Y-103909333D01*
X135628619Y-104480761D02*
X135533380Y-104528380D01*
X135295285Y-104528380D01*
X135200047Y-104480761D01*
X135152428Y-104385523D01*
X135152428Y-104290285D01*
X135200047Y-104195047D01*
X135295285Y-104147428D01*
X135533380Y-104147428D01*
X135628619Y-104099809D01*
X136533380Y-104480761D02*
X136438142Y-104528380D01*
X136247666Y-104528380D01*
X136152428Y-104480761D01*
X136104809Y-104433142D01*
X136057190Y-104337904D01*
X136057190Y-104052190D01*
X136104809Y-103956952D01*
X136152428Y-103909333D01*
X136247666Y-103861714D01*
X136438142Y-103861714D01*
X136533380Y-103909333D01*
X136961952Y-104528380D02*
X136961952Y-103861714D01*
X136961952Y-103528380D02*
X136914333Y-103576000D01*
X136961952Y-103623619D01*
X137009571Y-103576000D01*
X136961952Y-103528380D01*
X136961952Y-103623619D01*
X137819095Y-104480761D02*
X137723857Y-104528380D01*
X137533380Y-104528380D01*
X137438142Y-104480761D01*
X137390523Y-104385523D01*
X137390523Y-104004571D01*
X137438142Y-103909333D01*
X137533380Y-103861714D01*
X137723857Y-103861714D01*
X137819095Y-103909333D01*
X137866714Y-104004571D01*
X137866714Y-104099809D01*
X137390523Y-104195047D01*
X138295285Y-103861714D02*
X138295285Y-104718857D01*
X138247666Y-104814095D01*
X138152428Y-104861714D01*
X138104809Y-104861714D01*
X138295285Y-103528380D02*
X138247666Y-103576000D01*
X138295285Y-103623619D01*
X138342904Y-103576000D01*
X138295285Y-103528380D01*
X138295285Y-103623619D01*
X140009571Y-104528380D02*
X139533380Y-104528380D01*
X139533380Y-103528380D01*
X140723857Y-104480761D02*
X140628619Y-104528380D01*
X140438142Y-104528380D01*
X140342904Y-104480761D01*
X140295285Y-104385523D01*
X140295285Y-104004571D01*
X140342904Y-103909333D01*
X140438142Y-103861714D01*
X140628619Y-103861714D01*
X140723857Y-103909333D01*
X140771476Y-104004571D01*
X140771476Y-104099809D01*
X140295285Y-104195047D01*
X141104809Y-103861714D02*
X141295285Y-104528380D01*
X141485761Y-104052190D01*
X141676238Y-104528380D01*
X141866714Y-103861714D01*
X142676238Y-104528380D02*
X142676238Y-104004571D01*
X142628619Y-103909333D01*
X142533380Y-103861714D01*
X142342904Y-103861714D01*
X142247666Y-103909333D01*
X142676238Y-104480761D02*
X142581000Y-104528380D01*
X142342904Y-104528380D01*
X142247666Y-104480761D01*
X142200047Y-104385523D01*
X142200047Y-104290285D01*
X142247666Y-104195047D01*
X142342904Y-104147428D01*
X142581000Y-104147428D01*
X142676238Y-104099809D01*
X143152428Y-103861714D02*
X143152428Y-104528380D01*
X143152428Y-103956952D02*
X143200047Y-103909333D01*
X143295285Y-103861714D01*
X143438142Y-103861714D01*
X143533380Y-103909333D01*
X143581000Y-104004571D01*
X143581000Y-104528380D01*
X144485761Y-104528380D02*
X144485761Y-103528380D01*
X144485761Y-104480761D02*
X144390523Y-104528380D01*
X144200047Y-104528380D01*
X144104809Y-104480761D01*
X144057190Y-104433142D01*
X144009571Y-104337904D01*
X144009571Y-104052190D01*
X144057190Y-103956952D01*
X144104809Y-103909333D01*
X144200047Y-103861714D01*
X144390523Y-103861714D01*
X144485761Y-103909333D01*
X145104809Y-104528380D02*
X145009571Y-104480761D01*
X144961952Y-104433142D01*
X144914333Y-104337904D01*
X144914333Y-104052190D01*
X144961952Y-103956952D01*
X145009571Y-103909333D01*
X145104809Y-103861714D01*
X145247666Y-103861714D01*
X145342904Y-103909333D01*
X145390523Y-103956952D01*
X145438142Y-104052190D01*
X145438142Y-104337904D01*
X145390523Y-104433142D01*
X145342904Y-104480761D01*
X145247666Y-104528380D01*
X145104809Y-104528380D01*
X145771476Y-103861714D02*
X145961952Y-104528380D01*
X146152428Y-104052190D01*
X146342904Y-104528380D01*
X146533380Y-103861714D01*
X146866714Y-104480761D02*
X146961952Y-104528380D01*
X147152428Y-104528380D01*
X147247666Y-104480761D01*
X147295285Y-104385523D01*
X147295285Y-104337904D01*
X147247666Y-104242666D01*
X147152428Y-104195047D01*
X147009571Y-104195047D01*
X146914333Y-104147428D01*
X146866714Y-104052190D01*
X146866714Y-104004571D01*
X146914333Y-103909333D01*
X147009571Y-103861714D01*
X147152428Y-103861714D01*
X147247666Y-103909333D01*
X147723857Y-104528380D02*
X147723857Y-103528380D01*
X147819095Y-104147428D02*
X148104809Y-104528380D01*
X148104809Y-103861714D02*
X147723857Y-104242666D01*
X148533380Y-104528380D02*
X148533380Y-103861714D01*
X148533380Y-103528380D02*
X148485761Y-103576000D01*
X148533380Y-103623619D01*
X148581000Y-103576000D01*
X148533380Y-103528380D01*
X148533380Y-103623619D01*
D11*
%TO.C,C1*%
X154359420Y-72690000D02*
X154640580Y-72690000D01*
X154359420Y-73710000D02*
X154640580Y-73710000D01*
%TO.C,C2*%
X142640580Y-75090000D02*
X142359420Y-75090000D01*
X142640580Y-76110000D02*
X142359420Y-76110000D01*
%TO.C,C3*%
X160110000Y-83940580D02*
X160110000Y-83659420D01*
X159090000Y-83940580D02*
X159090000Y-83659420D01*
%TO.C,C4*%
X133640580Y-91510000D02*
X133359420Y-91510000D01*
X133640580Y-90490000D02*
X133359420Y-90490000D01*
D12*
%TO.C,J1*%
X150230000Y-70635000D02*
X150230000Y-69365000D01*
X150230000Y-69365000D02*
X150865000Y-68730000D01*
X152135000Y-68730000D02*
X152770000Y-69365000D01*
X150865000Y-68730000D02*
X150230000Y-68095000D01*
X150230000Y-68095000D02*
X150230000Y-66825000D01*
X150230000Y-66825000D02*
X150865000Y-66190000D01*
X152135000Y-66190000D02*
X152770000Y-66825000D01*
X152770000Y-66825000D02*
X152770000Y-68095000D01*
X152770000Y-68095000D02*
X152135000Y-68730000D01*
X150865000Y-71270000D02*
X152135000Y-71270000D01*
X150230000Y-70635000D02*
X150865000Y-71270000D01*
X152135000Y-71270000D02*
X152770000Y-70635000D01*
X152770000Y-69365000D02*
X152770000Y-70635000D01*
X150865000Y-66190000D02*
X152135000Y-66190000D01*
%TO.C,J2*%
X165325000Y-70270000D02*
X164055000Y-70270000D01*
X164055000Y-70270000D02*
X163420000Y-69635000D01*
X163420000Y-68365000D02*
X164055000Y-67730000D01*
X168500000Y-69635000D02*
X167865000Y-70270000D01*
X167865000Y-70270000D02*
X166595000Y-70270000D01*
X166595000Y-70270000D02*
X165960000Y-69635000D01*
X165960000Y-68365000D02*
X166595000Y-67730000D01*
X166595000Y-67730000D02*
X167865000Y-67730000D01*
X167865000Y-67730000D02*
X168500000Y-68365000D01*
X165325000Y-70270000D02*
X165960000Y-69635000D01*
X165960000Y-68365000D02*
X165325000Y-67730000D01*
X164055000Y-67730000D02*
X165325000Y-67730000D01*
X172945000Y-70270000D02*
X171675000Y-70270000D01*
X171675000Y-70270000D02*
X171040000Y-69635000D01*
X171040000Y-68365000D02*
X171675000Y-67730000D01*
X171040000Y-69635000D02*
X170405000Y-70270000D01*
X170405000Y-70270000D02*
X169135000Y-70270000D01*
X169135000Y-70270000D02*
X168500000Y-69635000D01*
X168500000Y-68365000D02*
X169135000Y-67730000D01*
X169135000Y-67730000D02*
X170405000Y-67730000D01*
X170405000Y-67730000D02*
X171040000Y-68365000D01*
X173580000Y-69635000D02*
X173580000Y-68365000D01*
X172945000Y-70270000D02*
X173580000Y-69635000D01*
X173580000Y-68365000D02*
X172945000Y-67730000D01*
X171675000Y-67730000D02*
X172945000Y-67730000D01*
X163420000Y-69635000D02*
X163420000Y-68365000D01*
%TO.C,J3*%
X133270000Y-84865000D02*
X132635000Y-84230000D01*
X132635000Y-84230000D02*
X131365000Y-84230000D01*
X131365000Y-84230000D02*
X130730000Y-84865000D01*
X130730000Y-84865000D02*
X130730000Y-86135000D01*
X130730000Y-86135000D02*
X131365000Y-86770000D01*
X131365000Y-86770000D02*
X132635000Y-86770000D01*
X132635000Y-86770000D02*
X133270000Y-86135000D01*
X133270000Y-86135000D02*
X133270000Y-84865000D01*
D13*
%TO.C,J4*%
X124060000Y-88605000D02*
X125560000Y-88605000D01*
X127960000Y-84705000D02*
X127960000Y-86205000D01*
X124060000Y-82305000D02*
X125560000Y-82305000D01*
X121660000Y-86205000D02*
X121660000Y-84705000D01*
D11*
%TO.C,Q1*%
X179260000Y-81580000D02*
X179260000Y-80650000D01*
X179260000Y-78420000D02*
X179260000Y-79350000D01*
X179260000Y-78420000D02*
X177100000Y-78420000D01*
X179260000Y-81580000D02*
X177800000Y-81580000D01*
%TO.C,R1*%
X158477500Y-93262742D02*
X158477500Y-93737258D01*
X159522500Y-93262742D02*
X159522500Y-93737258D01*
%TO.C,R2*%
X170522500Y-94262742D02*
X170522500Y-94737258D01*
X169477500Y-94262742D02*
X169477500Y-94737258D01*
%TO.C,R3*%
X180022500Y-75262742D02*
X180022500Y-75737258D01*
X178977500Y-75262742D02*
X178977500Y-75737258D01*
%TO.C,R4*%
X174977500Y-79437742D02*
X174977500Y-79912258D01*
X176022500Y-79437742D02*
X176022500Y-79912258D01*
D14*
%TO.C,U1*%
X152525000Y-78625000D02*
X150775000Y-78625000D01*
X150250000Y-72250000D02*
X150250000Y-78750000D01*
X146750000Y-72250000D02*
X150250000Y-72250000D01*
X146750000Y-78750000D02*
X146750000Y-72250000D01*
X150250000Y-78750000D02*
X146750000Y-78750000D01*
D15*
%TO.C,U2*%
X161841000Y-83412000D02*
G75*
G03*
X161841000Y-83412000I-254000J0D01*
G01*
X161714000Y-83412000D02*
G75*
G03*
X161714000Y-83412000I-127000J0D01*
G01*
D12*
X165945640Y-93876800D02*
X165945640Y-84123200D01*
X162054360Y-84123200D02*
X162054360Y-93975860D01*
X162435360Y-94257800D02*
X165564640Y-94257800D01*
X165450340Y-83742200D02*
X164609600Y-83742200D01*
X162336300Y-83742200D02*
X163339600Y-83742200D01*
X162054360Y-93973320D02*
G75*
G03*
X162435360Y-94257800I332740J48260D01*
G01*
X165945640Y-84123200D02*
G75*
G03*
X165463040Y-83742200I-431800J-50800D01*
G01*
X165564640Y-94257800D02*
G75*
G03*
X165945640Y-93876800I0J381000D01*
G01*
X162336300Y-83744740D02*
G75*
G03*
X162054360Y-84123200I48260J-330200D01*
G01*
X163339600Y-83793000D02*
G75*
G03*
X164609600Y-83793000I635000J0D01*
G01*
%TO.C,U3*%
X152625460Y-98125460D02*
X136374540Y-98125460D01*
X136374540Y-81874540D02*
X152625460Y-81874540D01*
X152625460Y-81874540D02*
X152625460Y-82141240D01*
X136374540Y-82141240D02*
X136374540Y-81874540D01*
X152625460Y-95824220D02*
X152625460Y-96154420D01*
X136374540Y-98125460D02*
X136374540Y-97858760D01*
X152625460Y-97858760D02*
X152625460Y-98125460D01*
X152625460Y-93825240D02*
X152625460Y-94155440D01*
X152625460Y-91823720D02*
X152625460Y-92153920D01*
X152625460Y-89827280D02*
X152625460Y-90154940D01*
X152625460Y-87828300D02*
X152625460Y-88158500D01*
X152625460Y-85826780D02*
X152625460Y-86156980D01*
X152625460Y-83827800D02*
X152625460Y-84158000D01*
X136374540Y-84175780D02*
X136374540Y-83845580D01*
X136374540Y-86174760D02*
X136374540Y-85844560D01*
X136374540Y-88176280D02*
X136374540Y-87846080D01*
X136374540Y-90172720D02*
X136374540Y-89845060D01*
X136374540Y-92171700D02*
X136374540Y-91841500D01*
X136374540Y-94173220D02*
X136374540Y-93843020D01*
X136374540Y-96172200D02*
X136374540Y-95842000D01*
D13*
X154096120Y-98389620D02*
G75*
G03*
X154096120Y-98389620I-508000J0D01*
G01*
%TO.C,*%
D10*
%TO.C,C1*%
X154333333Y-72127142D02*
X154285714Y-72174761D01*
X154142857Y-72222380D01*
X154047619Y-72222380D01*
X153904761Y-72174761D01*
X153809523Y-72079523D01*
X153761904Y-71984285D01*
X153714285Y-71793809D01*
X153714285Y-71650952D01*
X153761904Y-71460476D01*
X153809523Y-71365238D01*
X153904761Y-71270000D01*
X154047619Y-71222380D01*
X154142857Y-71222380D01*
X154285714Y-71270000D01*
X154333333Y-71317619D01*
X155285714Y-72222380D02*
X154714285Y-72222380D01*
X155000000Y-72222380D02*
X155000000Y-71222380D01*
X154904761Y-71365238D01*
X154809523Y-71460476D01*
X154714285Y-71508095D01*
%TO.C,C2*%
X141833333Y-77457142D02*
X141785714Y-77504761D01*
X141642857Y-77552380D01*
X141547619Y-77552380D01*
X141404761Y-77504761D01*
X141309523Y-77409523D01*
X141261904Y-77314285D01*
X141214285Y-77123809D01*
X141214285Y-76980952D01*
X141261904Y-76790476D01*
X141309523Y-76695238D01*
X141404761Y-76600000D01*
X141547619Y-76552380D01*
X141642857Y-76552380D01*
X141785714Y-76600000D01*
X141833333Y-76647619D01*
X142214285Y-76647619D02*
X142261904Y-76600000D01*
X142357142Y-76552380D01*
X142595238Y-76552380D01*
X142690476Y-76600000D01*
X142738095Y-76647619D01*
X142785714Y-76742857D01*
X142785714Y-76838095D01*
X142738095Y-76980952D01*
X142166666Y-77552380D01*
X142785714Y-77552380D01*
%TO.C,C3*%
X158527142Y-83966666D02*
X158574761Y-84014285D01*
X158622380Y-84157142D01*
X158622380Y-84252380D01*
X158574761Y-84395238D01*
X158479523Y-84490476D01*
X158384285Y-84538095D01*
X158193809Y-84585714D01*
X158050952Y-84585714D01*
X157860476Y-84538095D01*
X157765238Y-84490476D01*
X157670000Y-84395238D01*
X157622380Y-84252380D01*
X157622380Y-84157142D01*
X157670000Y-84014285D01*
X157717619Y-83966666D01*
X157622380Y-83633333D02*
X157622380Y-83014285D01*
X158003333Y-83347619D01*
X158003333Y-83204761D01*
X158050952Y-83109523D01*
X158098571Y-83061904D01*
X158193809Y-83014285D01*
X158431904Y-83014285D01*
X158527142Y-83061904D01*
X158574761Y-83109523D01*
X158622380Y-83204761D01*
X158622380Y-83490476D01*
X158574761Y-83585714D01*
X158527142Y-83633333D01*
%TO.C,C4*%
X133333333Y-92787142D02*
X133285714Y-92834761D01*
X133142857Y-92882380D01*
X133047619Y-92882380D01*
X132904761Y-92834761D01*
X132809523Y-92739523D01*
X132761904Y-92644285D01*
X132714285Y-92453809D01*
X132714285Y-92310952D01*
X132761904Y-92120476D01*
X132809523Y-92025238D01*
X132904761Y-91930000D01*
X133047619Y-91882380D01*
X133142857Y-91882380D01*
X133285714Y-91930000D01*
X133333333Y-91977619D01*
X134190476Y-92215714D02*
X134190476Y-92882380D01*
X133952380Y-91834761D02*
X133714285Y-92549047D01*
X134333333Y-92549047D01*
%TO.C,J1*%
D16*
X149261171Y-70203200D02*
X149696600Y-70203200D01*
X149783685Y-70232228D01*
X149841742Y-70290285D01*
X149870771Y-70377371D01*
X149870771Y-70435428D01*
X149870771Y-69593600D02*
X149870771Y-69941942D01*
X149870771Y-69767771D02*
X149261171Y-69767771D01*
X149348257Y-69825828D01*
X149406314Y-69883885D01*
X149435342Y-69941942D01*
X153622714Y-73556000D02*
X153651742Y-73585028D01*
X153680771Y-73672114D01*
X153680771Y-73730171D01*
X153651742Y-73817257D01*
X153593685Y-73875314D01*
X153535628Y-73904342D01*
X153419514Y-73933371D01*
X153332428Y-73933371D01*
X153216314Y-73904342D01*
X153158257Y-73875314D01*
X153100200Y-73817257D01*
X153071171Y-73730171D01*
X153071171Y-73672114D01*
X153100200Y-73585028D01*
X153129228Y-73556000D01*
X153680771Y-73207657D02*
X153651742Y-73265714D01*
X153622714Y-73294742D01*
X153564657Y-73323771D01*
X153390485Y-73323771D01*
X153332428Y-73294742D01*
X153303400Y-73265714D01*
X153274371Y-73207657D01*
X153274371Y-73120571D01*
X153303400Y-73062514D01*
X153332428Y-73033485D01*
X153390485Y-73004457D01*
X153564657Y-73004457D01*
X153622714Y-73033485D01*
X153651742Y-73062514D01*
X153680771Y-73120571D01*
X153680771Y-73207657D01*
X153274371Y-72743200D02*
X153680771Y-72743200D01*
X153332428Y-72743200D02*
X153303400Y-72714171D01*
X153274371Y-72656114D01*
X153274371Y-72569028D01*
X153303400Y-72510971D01*
X153361457Y-72481942D01*
X153680771Y-72481942D01*
X153274371Y-72191657D02*
X153680771Y-72191657D01*
X153332428Y-72191657D02*
X153303400Y-72162628D01*
X153274371Y-72104571D01*
X153274371Y-72017485D01*
X153303400Y-71959428D01*
X153361457Y-71930400D01*
X153680771Y-71930400D01*
X153738828Y-71785257D02*
X153738828Y-71320800D01*
X153071171Y-71059542D02*
X153071171Y-71001485D01*
X153100200Y-70943428D01*
X153129228Y-70914400D01*
X153187285Y-70885371D01*
X153303400Y-70856342D01*
X153448542Y-70856342D01*
X153564657Y-70885371D01*
X153622714Y-70914400D01*
X153651742Y-70943428D01*
X153680771Y-71001485D01*
X153680771Y-71059542D01*
X153651742Y-71117600D01*
X153622714Y-71146628D01*
X153564657Y-71175657D01*
X153448542Y-71204685D01*
X153303400Y-71204685D01*
X153187285Y-71175657D01*
X153129228Y-71146628D01*
X153100200Y-71117600D01*
X153071171Y-71059542D01*
X153680771Y-70275771D02*
X153680771Y-70624114D01*
X153680771Y-70449942D02*
X153071171Y-70449942D01*
X153158257Y-70508000D01*
X153216314Y-70566057D01*
X153245342Y-70624114D01*
X153680771Y-70072571D02*
X153274371Y-69753257D01*
X153274371Y-70072571D02*
X153680771Y-69753257D01*
X153071171Y-69404914D02*
X153071171Y-69346857D01*
X153100200Y-69288800D01*
X153129228Y-69259771D01*
X153187285Y-69230742D01*
X153303400Y-69201714D01*
X153448542Y-69201714D01*
X153564657Y-69230742D01*
X153622714Y-69259771D01*
X153651742Y-69288800D01*
X153680771Y-69346857D01*
X153680771Y-69404914D01*
X153651742Y-69462971D01*
X153622714Y-69492000D01*
X153564657Y-69521028D01*
X153448542Y-69550057D01*
X153303400Y-69550057D01*
X153187285Y-69521028D01*
X153129228Y-69492000D01*
X153100200Y-69462971D01*
X153071171Y-69404914D01*
X153129228Y-68969485D02*
X153100200Y-68940457D01*
X153071171Y-68882400D01*
X153071171Y-68737257D01*
X153100200Y-68679200D01*
X153129228Y-68650171D01*
X153187285Y-68621142D01*
X153245342Y-68621142D01*
X153332428Y-68650171D01*
X153680771Y-68998514D01*
X153680771Y-68621142D01*
X153738828Y-68505028D02*
X153738828Y-68040571D01*
X153680771Y-67895428D02*
X153071171Y-67895428D01*
X153506600Y-67692228D01*
X153071171Y-67489028D01*
X153680771Y-67489028D01*
X153680771Y-66937485D02*
X153361457Y-66937485D01*
X153303400Y-66966514D01*
X153274371Y-67024571D01*
X153274371Y-67140685D01*
X153303400Y-67198742D01*
X153651742Y-66937485D02*
X153680771Y-66995542D01*
X153680771Y-67140685D01*
X153651742Y-67198742D01*
X153593685Y-67227771D01*
X153535628Y-67227771D01*
X153477571Y-67198742D01*
X153448542Y-67140685D01*
X153448542Y-66995542D01*
X153419514Y-66937485D01*
X153680771Y-66560114D02*
X153651742Y-66618171D01*
X153593685Y-66647200D01*
X153071171Y-66647200D01*
X153651742Y-66095657D02*
X153680771Y-66153714D01*
X153680771Y-66269828D01*
X153651742Y-66327885D01*
X153593685Y-66356914D01*
X153361457Y-66356914D01*
X153303400Y-66327885D01*
X153274371Y-66269828D01*
X153274371Y-66153714D01*
X153303400Y-66095657D01*
X153361457Y-66066628D01*
X153419514Y-66066628D01*
X153477571Y-66356914D01*
%TO.C,J2*%
X172106800Y-70571171D02*
X172106800Y-71006600D01*
X172077771Y-71093685D01*
X172019714Y-71151742D01*
X171932628Y-71180771D01*
X171874571Y-71180771D01*
X172368057Y-70629228D02*
X172397085Y-70600200D01*
X172455142Y-70571171D01*
X172600285Y-70571171D01*
X172658342Y-70600200D01*
X172687371Y-70629228D01*
X172716400Y-70687285D01*
X172716400Y-70745342D01*
X172687371Y-70832428D01*
X172339028Y-71180771D01*
X172716400Y-71180771D01*
X168173428Y-67312714D02*
X168144400Y-67341742D01*
X168057314Y-67370771D01*
X167999257Y-67370771D01*
X167912171Y-67341742D01*
X167854114Y-67283685D01*
X167825085Y-67225628D01*
X167796057Y-67109514D01*
X167796057Y-67022428D01*
X167825085Y-66906314D01*
X167854114Y-66848257D01*
X167912171Y-66790200D01*
X167999257Y-66761171D01*
X168057314Y-66761171D01*
X168144400Y-66790200D01*
X168173428Y-66819228D01*
X168521771Y-67370771D02*
X168463714Y-67341742D01*
X168434685Y-67312714D01*
X168405657Y-67254657D01*
X168405657Y-67080485D01*
X168434685Y-67022428D01*
X168463714Y-66993400D01*
X168521771Y-66964371D01*
X168608857Y-66964371D01*
X168666914Y-66993400D01*
X168695942Y-67022428D01*
X168724971Y-67080485D01*
X168724971Y-67254657D01*
X168695942Y-67312714D01*
X168666914Y-67341742D01*
X168608857Y-67370771D01*
X168521771Y-67370771D01*
X168986228Y-66964371D02*
X168986228Y-67370771D01*
X168986228Y-67022428D02*
X169015257Y-66993400D01*
X169073314Y-66964371D01*
X169160400Y-66964371D01*
X169218457Y-66993400D01*
X169247485Y-67051457D01*
X169247485Y-67370771D01*
X169537771Y-66964371D02*
X169537771Y-67370771D01*
X169537771Y-67022428D02*
X169566800Y-66993400D01*
X169624857Y-66964371D01*
X169711942Y-66964371D01*
X169770000Y-66993400D01*
X169799028Y-67051457D01*
X169799028Y-67370771D01*
X169944171Y-67428828D02*
X170408628Y-67428828D01*
X170669885Y-66761171D02*
X170727942Y-66761171D01*
X170786000Y-66790200D01*
X170815028Y-66819228D01*
X170844057Y-66877285D01*
X170873085Y-66993400D01*
X170873085Y-67138542D01*
X170844057Y-67254657D01*
X170815028Y-67312714D01*
X170786000Y-67341742D01*
X170727942Y-67370771D01*
X170669885Y-67370771D01*
X170611828Y-67341742D01*
X170582800Y-67312714D01*
X170553771Y-67254657D01*
X170524742Y-67138542D01*
X170524742Y-66993400D01*
X170553771Y-66877285D01*
X170582800Y-66819228D01*
X170611828Y-66790200D01*
X170669885Y-66761171D01*
X171453657Y-67370771D02*
X171105314Y-67370771D01*
X171279485Y-67370771D02*
X171279485Y-66761171D01*
X171221428Y-66848257D01*
X171163371Y-66906314D01*
X171105314Y-66935342D01*
X171656857Y-67370771D02*
X171976171Y-66964371D01*
X171656857Y-66964371D02*
X171976171Y-67370771D01*
X172324514Y-66761171D02*
X172382571Y-66761171D01*
X172440628Y-66790200D01*
X172469657Y-66819228D01*
X172498685Y-66877285D01*
X172527714Y-66993400D01*
X172527714Y-67138542D01*
X172498685Y-67254657D01*
X172469657Y-67312714D01*
X172440628Y-67341742D01*
X172382571Y-67370771D01*
X172324514Y-67370771D01*
X172266457Y-67341742D01*
X172237428Y-67312714D01*
X172208400Y-67254657D01*
X172179371Y-67138542D01*
X172179371Y-66993400D01*
X172208400Y-66877285D01*
X172237428Y-66819228D01*
X172266457Y-66790200D01*
X172324514Y-66761171D01*
X173050228Y-66964371D02*
X173050228Y-67370771D01*
X172905085Y-66732142D02*
X172759942Y-67167571D01*
X173137314Y-67167571D01*
X173224400Y-67428828D02*
X173688857Y-67428828D01*
X174037200Y-67051457D02*
X173834000Y-67051457D01*
X173834000Y-67370771D02*
X173834000Y-66761171D01*
X174124285Y-66761171D01*
X174588742Y-67341742D02*
X174530685Y-67370771D01*
X174414571Y-67370771D01*
X174356514Y-67341742D01*
X174327485Y-67283685D01*
X174327485Y-67051457D01*
X174356514Y-66993400D01*
X174414571Y-66964371D01*
X174530685Y-66964371D01*
X174588742Y-66993400D01*
X174617771Y-67051457D01*
X174617771Y-67109514D01*
X174327485Y-67167571D01*
X174879028Y-67370771D02*
X174879028Y-66964371D01*
X174879028Y-67022428D02*
X174908057Y-66993400D01*
X174966114Y-66964371D01*
X175053200Y-66964371D01*
X175111257Y-66993400D01*
X175140285Y-67051457D01*
X175140285Y-67370771D01*
X175140285Y-67051457D02*
X175169314Y-66993400D01*
X175227371Y-66964371D01*
X175314457Y-66964371D01*
X175372514Y-66993400D01*
X175401542Y-67051457D01*
X175401542Y-67370771D01*
X175953085Y-67370771D02*
X175953085Y-67051457D01*
X175924057Y-66993400D01*
X175866000Y-66964371D01*
X175749885Y-66964371D01*
X175691828Y-66993400D01*
X175953085Y-67341742D02*
X175895028Y-67370771D01*
X175749885Y-67370771D01*
X175691828Y-67341742D01*
X175662800Y-67283685D01*
X175662800Y-67225628D01*
X175691828Y-67167571D01*
X175749885Y-67138542D01*
X175895028Y-67138542D01*
X175953085Y-67109514D01*
X176330457Y-67370771D02*
X176272400Y-67341742D01*
X176243371Y-67283685D01*
X176243371Y-66761171D01*
X176794914Y-67341742D02*
X176736857Y-67370771D01*
X176620742Y-67370771D01*
X176562685Y-67341742D01*
X176533657Y-67283685D01*
X176533657Y-67051457D01*
X176562685Y-66993400D01*
X176620742Y-66964371D01*
X176736857Y-66964371D01*
X176794914Y-66993400D01*
X176823942Y-67051457D01*
X176823942Y-67109514D01*
X176533657Y-67167571D01*
%TO.C,J3*%
X131796800Y-83388171D02*
X131796800Y-83823600D01*
X131767771Y-83910685D01*
X131709714Y-83968742D01*
X131622628Y-83997771D01*
X131564571Y-83997771D01*
X132029028Y-83388171D02*
X132406400Y-83388171D01*
X132203200Y-83620400D01*
X132290285Y-83620400D01*
X132348342Y-83649428D01*
X132377371Y-83678457D01*
X132406400Y-83736514D01*
X132406400Y-83881657D01*
X132377371Y-83939714D01*
X132348342Y-83968742D01*
X132290285Y-83997771D01*
X132116114Y-83997771D01*
X132058057Y-83968742D01*
X132029028Y-83939714D01*
X130417942Y-87622714D02*
X130388914Y-87651742D01*
X130301828Y-87680771D01*
X130243771Y-87680771D01*
X130156685Y-87651742D01*
X130098628Y-87593685D01*
X130069600Y-87535628D01*
X130040571Y-87419514D01*
X130040571Y-87332428D01*
X130069600Y-87216314D01*
X130098628Y-87158257D01*
X130156685Y-87100200D01*
X130243771Y-87071171D01*
X130301828Y-87071171D01*
X130388914Y-87100200D01*
X130417942Y-87129228D01*
X130795314Y-87071171D02*
X130911428Y-87071171D01*
X130969485Y-87100200D01*
X131027542Y-87158257D01*
X131056571Y-87274371D01*
X131056571Y-87477571D01*
X131027542Y-87593685D01*
X130969485Y-87651742D01*
X130911428Y-87680771D01*
X130795314Y-87680771D01*
X130737257Y-87651742D01*
X130679200Y-87593685D01*
X130650171Y-87477571D01*
X130650171Y-87274371D01*
X130679200Y-87158257D01*
X130737257Y-87100200D01*
X130795314Y-87071171D01*
X131317828Y-87680771D02*
X131317828Y-87071171D01*
X131666171Y-87680771D01*
X131666171Y-87071171D01*
X131956457Y-87680771D02*
X131956457Y-87071171D01*
X132304800Y-87680771D01*
X132304800Y-87071171D01*
X132449942Y-87738828D02*
X132914400Y-87738828D01*
X133175657Y-87071171D02*
X133233714Y-87071171D01*
X133291771Y-87100200D01*
X133320800Y-87129228D01*
X133349828Y-87187285D01*
X133378857Y-87303400D01*
X133378857Y-87448542D01*
X133349828Y-87564657D01*
X133320800Y-87622714D01*
X133291771Y-87651742D01*
X133233714Y-87680771D01*
X133175657Y-87680771D01*
X133117600Y-87651742D01*
X133088571Y-87622714D01*
X133059542Y-87564657D01*
X133030514Y-87448542D01*
X133030514Y-87303400D01*
X133059542Y-87187285D01*
X133088571Y-87129228D01*
X133117600Y-87100200D01*
X133175657Y-87071171D01*
X133959428Y-87680771D02*
X133611085Y-87680771D01*
X133785257Y-87680771D02*
X133785257Y-87071171D01*
X133727200Y-87158257D01*
X133669142Y-87216314D01*
X133611085Y-87245342D01*
%TO.C,J4*%
D15*
X124424666Y-84759523D02*
X124424666Y-85666666D01*
X124364190Y-85848095D01*
X124243238Y-85969047D01*
X124061809Y-86029523D01*
X123940857Y-86029523D01*
X125573714Y-85182857D02*
X125573714Y-86029523D01*
X125271333Y-84699047D02*
X124968952Y-85606190D01*
X125755142Y-85606190D01*
%TO.C,Q1*%
D10*
X178404761Y-78047619D02*
X178309523Y-78000000D01*
X178214285Y-77904761D01*
X178071428Y-77761904D01*
X177976190Y-77714285D01*
X177880952Y-77714285D01*
X177928571Y-77952380D02*
X177833333Y-77904761D01*
X177738095Y-77809523D01*
X177690476Y-77619047D01*
X177690476Y-77285714D01*
X177738095Y-77095238D01*
X177833333Y-77000000D01*
X177928571Y-76952380D01*
X178119047Y-76952380D01*
X178214285Y-77000000D01*
X178309523Y-77095238D01*
X178357142Y-77285714D01*
X178357142Y-77619047D01*
X178309523Y-77809523D01*
X178214285Y-77904761D01*
X178119047Y-77952380D01*
X177928571Y-77952380D01*
X179309523Y-77952380D02*
X178738095Y-77952380D01*
X179023809Y-77952380D02*
X179023809Y-76952380D01*
X178928571Y-77095238D01*
X178833333Y-77190476D01*
X178738095Y-77238095D01*
%TO.C,R1*%
X159452380Y-91166666D02*
X158976190Y-91500000D01*
X159452380Y-91738095D02*
X158452380Y-91738095D01*
X158452380Y-91357142D01*
X158500000Y-91261904D01*
X158547619Y-91214285D01*
X158642857Y-91166666D01*
X158785714Y-91166666D01*
X158880952Y-91214285D01*
X158928571Y-91261904D01*
X158976190Y-91357142D01*
X158976190Y-91738095D01*
X159452380Y-90214285D02*
X159452380Y-90785714D01*
X159452380Y-90500000D02*
X158452380Y-90500000D01*
X158595238Y-90595238D01*
X158690476Y-90690476D01*
X158738095Y-90785714D01*
%TO.C,R2*%
X171882380Y-94666666D02*
X171406190Y-95000000D01*
X171882380Y-95238095D02*
X170882380Y-95238095D01*
X170882380Y-94857142D01*
X170930000Y-94761904D01*
X170977619Y-94714285D01*
X171072857Y-94666666D01*
X171215714Y-94666666D01*
X171310952Y-94714285D01*
X171358571Y-94761904D01*
X171406190Y-94857142D01*
X171406190Y-95238095D01*
X170977619Y-94285714D02*
X170930000Y-94238095D01*
X170882380Y-94142857D01*
X170882380Y-93904761D01*
X170930000Y-93809523D01*
X170977619Y-93761904D01*
X171072857Y-93714285D01*
X171168095Y-93714285D01*
X171310952Y-93761904D01*
X171882380Y-94333333D01*
X171882380Y-93714285D01*
%TO.C,R3*%
X181382380Y-75666666D02*
X180906190Y-76000000D01*
X181382380Y-76238095D02*
X180382380Y-76238095D01*
X180382380Y-75857142D01*
X180430000Y-75761904D01*
X180477619Y-75714285D01*
X180572857Y-75666666D01*
X180715714Y-75666666D01*
X180810952Y-75714285D01*
X180858571Y-75761904D01*
X180906190Y-75857142D01*
X180906190Y-76238095D01*
X180382380Y-75333333D02*
X180382380Y-74714285D01*
X180763333Y-75047619D01*
X180763333Y-74904761D01*
X180810952Y-74809523D01*
X180858571Y-74761904D01*
X180953809Y-74714285D01*
X181191904Y-74714285D01*
X181287142Y-74761904D01*
X181334761Y-74809523D01*
X181382380Y-74904761D01*
X181382380Y-75190476D01*
X181334761Y-75285714D01*
X181287142Y-75333333D01*
%TO.C,R4*%
X175952380Y-77166666D02*
X175476190Y-77500000D01*
X175952380Y-77738095D02*
X174952380Y-77738095D01*
X174952380Y-77357142D01*
X175000000Y-77261904D01*
X175047619Y-77214285D01*
X175142857Y-77166666D01*
X175285714Y-77166666D01*
X175380952Y-77214285D01*
X175428571Y-77261904D01*
X175476190Y-77357142D01*
X175476190Y-77738095D01*
X175285714Y-76309523D02*
X175952380Y-76309523D01*
X174904761Y-76547619D02*
X175619047Y-76785714D01*
X175619047Y-76166666D01*
%TO.C,U1*%
D15*
X147728323Y-76620019D02*
X148756419Y-76620019D01*
X148877371Y-76559542D01*
X148937847Y-76499066D01*
X148998323Y-76378114D01*
X148998323Y-76136209D01*
X148937847Y-76015257D01*
X148877371Y-75954780D01*
X148756419Y-75894304D01*
X147728323Y-75894304D01*
X148998323Y-74624304D02*
X148998323Y-75350019D01*
X148998323Y-74987161D02*
X147728323Y-74987161D01*
X147909752Y-75108114D01*
X148030704Y-75229066D01*
X148091180Y-75350019D01*
%TO.C,U2*%
D16*
X163535542Y-82697171D02*
X163535542Y-83190657D01*
X163564571Y-83248714D01*
X163593600Y-83277742D01*
X163651657Y-83306771D01*
X163767771Y-83306771D01*
X163825828Y-83277742D01*
X163854857Y-83248714D01*
X163883885Y-83190657D01*
X163883885Y-82697171D01*
X164145142Y-82755228D02*
X164174171Y-82726200D01*
X164232228Y-82697171D01*
X164377371Y-82697171D01*
X164435428Y-82726200D01*
X164464457Y-82755228D01*
X164493485Y-82813285D01*
X164493485Y-82871342D01*
X164464457Y-82958428D01*
X164116114Y-83306771D01*
X164493485Y-83306771D01*
X160429485Y-95244771D02*
X160429485Y-94635171D01*
X160429485Y-94925457D02*
X160777828Y-94925457D01*
X160777828Y-95244771D02*
X160777828Y-94635171D01*
X161068114Y-94925457D02*
X161271314Y-94925457D01*
X161358400Y-95244771D02*
X161068114Y-95244771D01*
X161068114Y-94635171D01*
X161358400Y-94635171D01*
X161561600Y-94635171D02*
X161968000Y-95244771D01*
X161968000Y-94635171D02*
X161561600Y-95244771D01*
X162055085Y-95302828D02*
X162519542Y-95302828D01*
X163013028Y-95186714D02*
X162984000Y-95215742D01*
X162896914Y-95244771D01*
X162838857Y-95244771D01*
X162751771Y-95215742D01*
X162693714Y-95157685D01*
X162664685Y-95099628D01*
X162635657Y-94983514D01*
X162635657Y-94896428D01*
X162664685Y-94780314D01*
X162693714Y-94722257D01*
X162751771Y-94664200D01*
X162838857Y-94635171D01*
X162896914Y-94635171D01*
X162984000Y-94664200D01*
X163013028Y-94693228D01*
X163390400Y-94635171D02*
X163506514Y-94635171D01*
X163564571Y-94664200D01*
X163622628Y-94722257D01*
X163651657Y-94838371D01*
X163651657Y-95041571D01*
X163622628Y-95157685D01*
X163564571Y-95215742D01*
X163506514Y-95244771D01*
X163390400Y-95244771D01*
X163332342Y-95215742D01*
X163274285Y-95157685D01*
X163245257Y-95041571D01*
X163245257Y-94838371D01*
X163274285Y-94722257D01*
X163332342Y-94664200D01*
X163390400Y-94635171D01*
X163912914Y-95244771D02*
X163912914Y-94635171D01*
X164261257Y-95244771D01*
X164261257Y-94635171D01*
X164464457Y-94635171D02*
X164667657Y-95244771D01*
X164870857Y-94635171D01*
X165074057Y-94925457D02*
X165277257Y-94925457D01*
X165364342Y-95244771D02*
X165074057Y-95244771D01*
X165074057Y-94635171D01*
X165364342Y-94635171D01*
X165973942Y-95244771D02*
X165770742Y-94954485D01*
X165625600Y-95244771D02*
X165625600Y-94635171D01*
X165857828Y-94635171D01*
X165915885Y-94664200D01*
X165944914Y-94693228D01*
X165973942Y-94751285D01*
X165973942Y-94838371D01*
X165944914Y-94896428D01*
X165915885Y-94925457D01*
X165857828Y-94954485D01*
X165625600Y-94954485D01*
X166148114Y-94635171D02*
X166496457Y-94635171D01*
X166322285Y-95244771D02*
X166322285Y-94635171D01*
X166699657Y-94925457D02*
X166902857Y-94925457D01*
X166989942Y-95244771D02*
X166699657Y-95244771D01*
X166699657Y-94635171D01*
X166989942Y-94635171D01*
X167599542Y-95244771D02*
X167396342Y-94954485D01*
X167251200Y-95244771D02*
X167251200Y-94635171D01*
X167483428Y-94635171D01*
X167541485Y-94664200D01*
X167570514Y-94693228D01*
X167599542Y-94751285D01*
X167599542Y-94838371D01*
X167570514Y-94896428D01*
X167541485Y-94925457D01*
X167483428Y-94954485D01*
X167251200Y-94954485D01*
%TO.C,U3*%
X144035542Y-97032171D02*
X144035542Y-97525657D01*
X144064571Y-97583714D01*
X144093600Y-97612742D01*
X144151657Y-97641771D01*
X144267771Y-97641771D01*
X144325828Y-97612742D01*
X144354857Y-97583714D01*
X144383885Y-97525657D01*
X144383885Y-97032171D01*
X144616114Y-97032171D02*
X144993485Y-97032171D01*
X144790285Y-97264400D01*
X144877371Y-97264400D01*
X144935428Y-97293428D01*
X144964457Y-97322457D01*
X144993485Y-97380514D01*
X144993485Y-97525657D01*
X144964457Y-97583714D01*
X144935428Y-97612742D01*
X144877371Y-97641771D01*
X144703200Y-97641771D01*
X144645142Y-97612742D01*
X144616114Y-97583714D01*
X141277828Y-82909771D02*
X141074628Y-82619485D01*
X140929485Y-82909771D02*
X140929485Y-82300171D01*
X141161714Y-82300171D01*
X141219771Y-82329200D01*
X141248800Y-82358228D01*
X141277828Y-82416285D01*
X141277828Y-82503371D01*
X141248800Y-82561428D01*
X141219771Y-82590457D01*
X141161714Y-82619485D01*
X140929485Y-82619485D01*
X141742285Y-82590457D02*
X141539085Y-82590457D01*
X141539085Y-82909771D02*
X141539085Y-82300171D01*
X141829371Y-82300171D01*
X142061600Y-82909771D02*
X142061600Y-82300171D01*
X142264800Y-82735600D01*
X142468000Y-82300171D01*
X142468000Y-82909771D01*
X143019542Y-82300171D02*
X142903428Y-82300171D01*
X142845371Y-82329200D01*
X142816342Y-82358228D01*
X142758285Y-82445314D01*
X142729257Y-82561428D01*
X142729257Y-82793657D01*
X142758285Y-82851714D01*
X142787314Y-82880742D01*
X142845371Y-82909771D01*
X142961485Y-82909771D01*
X143019542Y-82880742D01*
X143048571Y-82851714D01*
X143077600Y-82793657D01*
X143077600Y-82648514D01*
X143048571Y-82590457D01*
X143019542Y-82561428D01*
X142961485Y-82532400D01*
X142845371Y-82532400D01*
X142787314Y-82561428D01*
X142758285Y-82590457D01*
X142729257Y-82648514D01*
X143367885Y-82909771D02*
X143484000Y-82909771D01*
X143542057Y-82880742D01*
X143571085Y-82851714D01*
X143629142Y-82764628D01*
X143658171Y-82648514D01*
X143658171Y-82416285D01*
X143629142Y-82358228D01*
X143600114Y-82329200D01*
X143542057Y-82300171D01*
X143425942Y-82300171D01*
X143367885Y-82329200D01*
X143338857Y-82358228D01*
X143309828Y-82416285D01*
X143309828Y-82561428D01*
X143338857Y-82619485D01*
X143367885Y-82648514D01*
X143425942Y-82677542D01*
X143542057Y-82677542D01*
X143600114Y-82648514D01*
X143629142Y-82619485D01*
X143658171Y-82561428D01*
X143919428Y-82909771D02*
X143919428Y-82300171D01*
X143919428Y-82590457D02*
X144267771Y-82590457D01*
X144267771Y-82909771D02*
X144267771Y-82300171D01*
X144906400Y-82851714D02*
X144877371Y-82880742D01*
X144790285Y-82909771D01*
X144732228Y-82909771D01*
X144645142Y-82880742D01*
X144587085Y-82822685D01*
X144558057Y-82764628D01*
X144529028Y-82648514D01*
X144529028Y-82561428D01*
X144558057Y-82445314D01*
X144587085Y-82387257D01*
X144645142Y-82329200D01*
X144732228Y-82300171D01*
X144790285Y-82300171D01*
X144877371Y-82329200D01*
X144906400Y-82358228D01*
X145109600Y-82300171D02*
X145254742Y-82909771D01*
X145370857Y-82474342D01*
X145486971Y-82909771D01*
X145632114Y-82300171D01*
X145864342Y-82677542D02*
X146328800Y-82677542D01*
X146648114Y-82909771D02*
X146764228Y-82909771D01*
X146822285Y-82880742D01*
X146851314Y-82851714D01*
X146909371Y-82764628D01*
X146938400Y-82648514D01*
X146938400Y-82416285D01*
X146909371Y-82358228D01*
X146880342Y-82329200D01*
X146822285Y-82300171D01*
X146706171Y-82300171D01*
X146648114Y-82329200D01*
X146619085Y-82358228D01*
X146590057Y-82416285D01*
X146590057Y-82561428D01*
X146619085Y-82619485D01*
X146648114Y-82648514D01*
X146706171Y-82677542D01*
X146822285Y-82677542D01*
X146880342Y-82648514D01*
X146909371Y-82619485D01*
X146938400Y-82561428D01*
X147518971Y-82909771D02*
X147170628Y-82909771D01*
X147344800Y-82909771D02*
X147344800Y-82300171D01*
X147286742Y-82387257D01*
X147228685Y-82445314D01*
X147170628Y-82474342D01*
X148070514Y-82300171D02*
X147780228Y-82300171D01*
X147751200Y-82590457D01*
X147780228Y-82561428D01*
X147838285Y-82532400D01*
X147983428Y-82532400D01*
X148041485Y-82561428D01*
X148070514Y-82590457D01*
X148099542Y-82648514D01*
X148099542Y-82793657D01*
X148070514Y-82851714D01*
X148041485Y-82880742D01*
X147983428Y-82909771D01*
X147838285Y-82909771D01*
X147780228Y-82880742D01*
X147751200Y-82851714D01*
%TO.C,B1*%
X121773257Y-58356457D02*
X121860342Y-58385485D01*
X121889371Y-58414514D01*
X121918400Y-58472571D01*
X121918400Y-58559657D01*
X121889371Y-58617714D01*
X121860342Y-58646742D01*
X121802285Y-58675771D01*
X121570057Y-58675771D01*
X121570057Y-58066171D01*
X121773257Y-58066171D01*
X121831314Y-58095200D01*
X121860342Y-58124228D01*
X121889371Y-58182285D01*
X121889371Y-58240342D01*
X121860342Y-58298400D01*
X121831314Y-58327428D01*
X121773257Y-58356457D01*
X121570057Y-58356457D01*
X122498971Y-58675771D02*
X122150628Y-58675771D01*
X122324800Y-58675771D02*
X122324800Y-58066171D01*
X122266742Y-58153257D01*
X122208685Y-58211314D01*
X122150628Y-58240342D01*
X120076685Y-109321600D02*
X120366971Y-109321600D01*
X120018628Y-109495771D02*
X120221828Y-108886171D01*
X120425028Y-109495771D01*
X120976571Y-109495771D02*
X120773371Y-109205485D01*
X120628228Y-109495771D02*
X120628228Y-108886171D01*
X120860457Y-108886171D01*
X120918514Y-108915200D01*
X120947542Y-108944228D01*
X120976571Y-109002285D01*
X120976571Y-109089371D01*
X120947542Y-109147428D01*
X120918514Y-109176457D01*
X120860457Y-109205485D01*
X120628228Y-109205485D01*
X121237828Y-109495771D02*
X121237828Y-108886171D01*
X121382971Y-108886171D01*
X121470057Y-108915200D01*
X121528114Y-108973257D01*
X121557142Y-109031314D01*
X121586171Y-109147428D01*
X121586171Y-109234514D01*
X121557142Y-109350628D01*
X121528114Y-109408685D01*
X121470057Y-109466742D01*
X121382971Y-109495771D01*
X121237828Y-109495771D01*
X121847428Y-108886171D02*
X121847428Y-109379657D01*
X121876457Y-109437714D01*
X121905485Y-109466742D01*
X121963542Y-109495771D01*
X122079657Y-109495771D01*
X122137714Y-109466742D01*
X122166742Y-109437714D01*
X122195771Y-109379657D01*
X122195771Y-108886171D01*
X122486057Y-109495771D02*
X122486057Y-108886171D01*
X122776342Y-109495771D02*
X122776342Y-108886171D01*
X123124685Y-109495771D01*
X123124685Y-108886171D01*
X123531085Y-108886171D02*
X123647200Y-108886171D01*
X123705257Y-108915200D01*
X123763314Y-108973257D01*
X123792342Y-109089371D01*
X123792342Y-109292571D01*
X123763314Y-109408685D01*
X123705257Y-109466742D01*
X123647200Y-109495771D01*
X123531085Y-109495771D01*
X123473028Y-109466742D01*
X123414971Y-109408685D01*
X123385942Y-109292571D01*
X123385942Y-109089371D01*
X123414971Y-108973257D01*
X123473028Y-108915200D01*
X123531085Y-108886171D01*
X123908457Y-109553828D02*
X124372914Y-109553828D01*
X124518057Y-108886171D02*
X124518057Y-109379657D01*
X124547085Y-109437714D01*
X124576114Y-109466742D01*
X124634171Y-109495771D01*
X124750285Y-109495771D01*
X124808342Y-109466742D01*
X124837371Y-109437714D01*
X124866400Y-109379657D01*
X124866400Y-108886171D01*
X125156685Y-109495771D02*
X125156685Y-108886171D01*
X125505028Y-109495771D01*
X125505028Y-108886171D01*
X125911428Y-108886171D02*
X126027542Y-108886171D01*
X126085600Y-108915200D01*
X126143657Y-108973257D01*
X126172685Y-109089371D01*
X126172685Y-109292571D01*
X126143657Y-109408685D01*
X126085600Y-109466742D01*
X126027542Y-109495771D01*
X125911428Y-109495771D01*
X125853371Y-109466742D01*
X125795314Y-109408685D01*
X125766285Y-109292571D01*
X125766285Y-109089371D01*
X125795314Y-108973257D01*
X125853371Y-108915200D01*
X125911428Y-108886171D01*
X126288800Y-109553828D02*
X126753257Y-109553828D01*
X127246742Y-109495771D02*
X127043542Y-109205485D01*
X126898400Y-109495771D02*
X126898400Y-108886171D01*
X127130628Y-108886171D01*
X127188685Y-108915200D01*
X127217714Y-108944228D01*
X127246742Y-109002285D01*
X127246742Y-109089371D01*
X127217714Y-109147428D01*
X127188685Y-109176457D01*
X127130628Y-109205485D01*
X126898400Y-109205485D01*
X127449942Y-108886171D02*
X127827314Y-108886171D01*
X127624114Y-109118400D01*
X127711200Y-109118400D01*
X127769257Y-109147428D01*
X127798285Y-109176457D01*
X127827314Y-109234514D01*
X127827314Y-109379657D01*
X127798285Y-109437714D01*
X127769257Y-109466742D01*
X127711200Y-109495771D01*
X127537028Y-109495771D01*
X127478971Y-109466742D01*
X127449942Y-109437714D01*
%TD*%
M02*
