%TF.GenerationSoftware,KiCad,Pcbnew,5.1.6+dfsg1-1*%
%TF.CreationDate,2021-02-21T15:05:16+01:00*%
%TF.ProjectId,RFMduino,52464d64-7569-46e6-9f2e-6b696361645f,rev?*%
%TF.SameCoordinates,Original*%
%TF.FileFunction,Legend,Top*%
%TF.FilePolarity,Positive*%
%FSLAX46Y46*%
G04 Gerber Fmt 4.6, Leading zero omitted, Abs format (unit mm)*
G04 Created by KiCad (PCBNEW 5.1.6+dfsg1-1) date 2021-02-21 15:05:16*
%MOMM*%
%LPD*%
G01*
G04 APERTURE LIST*
%ADD10C,0.150000*%
%ADD11C,0.120000*%
%ADD12C,0.203200*%
%ADD13C,0.100000*%
%ADD14C,0.200000*%
%ADD15C,0.254000*%
%ADD16C,0.127000*%
G04 APERTURE END LIST*
D10*
X133700047Y-102878380D02*
X133366714Y-102402190D01*
X133128619Y-102878380D02*
X133128619Y-101878380D01*
X133509571Y-101878380D01*
X133604809Y-101926000D01*
X133652428Y-101973619D01*
X133700047Y-102068857D01*
X133700047Y-102211714D01*
X133652428Y-102306952D01*
X133604809Y-102354571D01*
X133509571Y-102402190D01*
X133128619Y-102402190D01*
X134461952Y-102354571D02*
X134128619Y-102354571D01*
X134128619Y-102878380D02*
X134128619Y-101878380D01*
X134604809Y-101878380D01*
X134985761Y-102878380D02*
X134985761Y-101878380D01*
X135319095Y-102592666D01*
X135652428Y-101878380D01*
X135652428Y-102878380D01*
X137319095Y-102878380D02*
X137319095Y-102354571D01*
X137271476Y-102259333D01*
X137176238Y-102211714D01*
X136985761Y-102211714D01*
X136890523Y-102259333D01*
X137319095Y-102830761D02*
X137223857Y-102878380D01*
X136985761Y-102878380D01*
X136890523Y-102830761D01*
X136842904Y-102735523D01*
X136842904Y-102640285D01*
X136890523Y-102545047D01*
X136985761Y-102497428D01*
X137223857Y-102497428D01*
X137319095Y-102449809D01*
X137795285Y-102878380D02*
X137795285Y-102211714D01*
X137795285Y-102402190D02*
X137842904Y-102306952D01*
X137890523Y-102259333D01*
X137985761Y-102211714D01*
X138081000Y-102211714D01*
X138842904Y-102878380D02*
X138842904Y-101878380D01*
X138842904Y-102830761D02*
X138747666Y-102878380D01*
X138557190Y-102878380D01*
X138461952Y-102830761D01*
X138414333Y-102783142D01*
X138366714Y-102687904D01*
X138366714Y-102402190D01*
X138414333Y-102306952D01*
X138461952Y-102259333D01*
X138557190Y-102211714D01*
X138747666Y-102211714D01*
X138842904Y-102259333D01*
X139747666Y-102211714D02*
X139747666Y-102878380D01*
X139319095Y-102211714D02*
X139319095Y-102735523D01*
X139366714Y-102830761D01*
X139461952Y-102878380D01*
X139604809Y-102878380D01*
X139700047Y-102830761D01*
X139747666Y-102783142D01*
X140223857Y-102878380D02*
X140223857Y-102211714D01*
X140223857Y-101878380D02*
X140176238Y-101926000D01*
X140223857Y-101973619D01*
X140271476Y-101926000D01*
X140223857Y-101878380D01*
X140223857Y-101973619D01*
X140700047Y-102211714D02*
X140700047Y-102878380D01*
X140700047Y-102306952D02*
X140747666Y-102259333D01*
X140842904Y-102211714D01*
X140985761Y-102211714D01*
X141081000Y-102259333D01*
X141128619Y-102354571D01*
X141128619Y-102878380D01*
X141747666Y-102878380D02*
X141652428Y-102830761D01*
X141604809Y-102783142D01*
X141557190Y-102687904D01*
X141557190Y-102402190D01*
X141604809Y-102306952D01*
X141652428Y-102259333D01*
X141747666Y-102211714D01*
X141890523Y-102211714D01*
X141985761Y-102259333D01*
X142033380Y-102306952D01*
X142081000Y-102402190D01*
X142081000Y-102687904D01*
X142033380Y-102783142D01*
X141985761Y-102830761D01*
X141890523Y-102878380D01*
X141747666Y-102878380D01*
X143271476Y-102878380D02*
X143271476Y-101878380D01*
X143271476Y-102259333D02*
X143366714Y-102211714D01*
X143557190Y-102211714D01*
X143652428Y-102259333D01*
X143700047Y-102306952D01*
X143747666Y-102402190D01*
X143747666Y-102687904D01*
X143700047Y-102783142D01*
X143652428Y-102830761D01*
X143557190Y-102878380D01*
X143366714Y-102878380D01*
X143271476Y-102830761D01*
X144319095Y-102878380D02*
X144223857Y-102830761D01*
X144176238Y-102783142D01*
X144128619Y-102687904D01*
X144128619Y-102402190D01*
X144176238Y-102306952D01*
X144223857Y-102259333D01*
X144319095Y-102211714D01*
X144461952Y-102211714D01*
X144557190Y-102259333D01*
X144604809Y-102306952D01*
X144652428Y-102402190D01*
X144652428Y-102687904D01*
X144604809Y-102783142D01*
X144557190Y-102830761D01*
X144461952Y-102878380D01*
X144319095Y-102878380D01*
X145509571Y-102878380D02*
X145509571Y-102354571D01*
X145461952Y-102259333D01*
X145366714Y-102211714D01*
X145176238Y-102211714D01*
X145081000Y-102259333D01*
X145509571Y-102830761D02*
X145414333Y-102878380D01*
X145176238Y-102878380D01*
X145081000Y-102830761D01*
X145033380Y-102735523D01*
X145033380Y-102640285D01*
X145081000Y-102545047D01*
X145176238Y-102497428D01*
X145414333Y-102497428D01*
X145509571Y-102449809D01*
X145985761Y-102878380D02*
X145985761Y-102211714D01*
X145985761Y-102402190D02*
X146033380Y-102306952D01*
X146081000Y-102259333D01*
X146176238Y-102211714D01*
X146271476Y-102211714D01*
X147033380Y-102878380D02*
X147033380Y-101878380D01*
X147033380Y-102830761D02*
X146938142Y-102878380D01*
X146747666Y-102878380D01*
X146652428Y-102830761D01*
X146604809Y-102783142D01*
X146557190Y-102687904D01*
X146557190Y-102402190D01*
X146604809Y-102306952D01*
X146652428Y-102259333D01*
X146747666Y-102211714D01*
X146938142Y-102211714D01*
X147033380Y-102259333D01*
X131628619Y-104528380D02*
X131628619Y-103528380D01*
X131628619Y-103909333D02*
X131723857Y-103861714D01*
X131914333Y-103861714D01*
X132009571Y-103909333D01*
X132057190Y-103956952D01*
X132104809Y-104052190D01*
X132104809Y-104337904D01*
X132057190Y-104433142D01*
X132009571Y-104480761D01*
X131914333Y-104528380D01*
X131723857Y-104528380D01*
X131628619Y-104480761D01*
X132438142Y-103861714D02*
X132676238Y-104528380D01*
X132914333Y-103861714D02*
X132676238Y-104528380D01*
X132581000Y-104766476D01*
X132533380Y-104814095D01*
X132438142Y-104861714D01*
X134057190Y-104528380D02*
X134057190Y-103528380D01*
X134390523Y-104242666D01*
X134723857Y-103528380D01*
X134723857Y-104528380D01*
X135628619Y-104528380D02*
X135628619Y-104004571D01*
X135581000Y-103909333D01*
X135485761Y-103861714D01*
X135295285Y-103861714D01*
X135200047Y-103909333D01*
X135628619Y-104480761D02*
X135533380Y-104528380D01*
X135295285Y-104528380D01*
X135200047Y-104480761D01*
X135152428Y-104385523D01*
X135152428Y-104290285D01*
X135200047Y-104195047D01*
X135295285Y-104147428D01*
X135533380Y-104147428D01*
X135628619Y-104099809D01*
X136533380Y-104480761D02*
X136438142Y-104528380D01*
X136247666Y-104528380D01*
X136152428Y-104480761D01*
X136104809Y-104433142D01*
X136057190Y-104337904D01*
X136057190Y-104052190D01*
X136104809Y-103956952D01*
X136152428Y-103909333D01*
X136247666Y-103861714D01*
X136438142Y-103861714D01*
X136533380Y-103909333D01*
X136961952Y-104528380D02*
X136961952Y-103861714D01*
X136961952Y-103528380D02*
X136914333Y-103576000D01*
X136961952Y-103623619D01*
X137009571Y-103576000D01*
X136961952Y-103528380D01*
X136961952Y-103623619D01*
X137819095Y-104480761D02*
X137723857Y-104528380D01*
X137533380Y-104528380D01*
X137438142Y-104480761D01*
X137390523Y-104385523D01*
X137390523Y-104004571D01*
X137438142Y-103909333D01*
X137533380Y-103861714D01*
X137723857Y-103861714D01*
X137819095Y-103909333D01*
X137866714Y-104004571D01*
X137866714Y-104099809D01*
X137390523Y-104195047D01*
X138295285Y-103861714D02*
X138295285Y-104718857D01*
X138247666Y-104814095D01*
X138152428Y-104861714D01*
X138104809Y-104861714D01*
X138295285Y-103528380D02*
X138247666Y-103576000D01*
X138295285Y-103623619D01*
X138342904Y-103576000D01*
X138295285Y-103528380D01*
X138295285Y-103623619D01*
X140009571Y-104528380D02*
X139533380Y-104528380D01*
X139533380Y-103528380D01*
X140723857Y-104480761D02*
X140628619Y-104528380D01*
X140438142Y-104528380D01*
X140342904Y-104480761D01*
X140295285Y-104385523D01*
X140295285Y-104004571D01*
X140342904Y-103909333D01*
X140438142Y-103861714D01*
X140628619Y-103861714D01*
X140723857Y-103909333D01*
X140771476Y-104004571D01*
X140771476Y-104099809D01*
X140295285Y-104195047D01*
X141104809Y-103861714D02*
X141295285Y-104528380D01*
X141485761Y-104052190D01*
X141676238Y-104528380D01*
X141866714Y-103861714D01*
X142676238Y-104528380D02*
X142676238Y-104004571D01*
X142628619Y-103909333D01*
X142533380Y-103861714D01*
X142342904Y-103861714D01*
X142247666Y-103909333D01*
X142676238Y-104480761D02*
X142581000Y-104528380D01*
X142342904Y-104528380D01*
X142247666Y-104480761D01*
X142200047Y-104385523D01*
X142200047Y-104290285D01*
X142247666Y-104195047D01*
X142342904Y-104147428D01*
X142581000Y-104147428D01*
X142676238Y-104099809D01*
X143152428Y-103861714D02*
X143152428Y-104528380D01*
X143152428Y-103956952D02*
X143200047Y-103909333D01*
X143295285Y-103861714D01*
X143438142Y-103861714D01*
X143533380Y-103909333D01*
X143581000Y-104004571D01*
X143581000Y-104528380D01*
X144485761Y-104528380D02*
X144485761Y-103528380D01*
X144485761Y-104480761D02*
X144390523Y-104528380D01*
X144200047Y-104528380D01*
X144104809Y-104480761D01*
X144057190Y-104433142D01*
X144009571Y-104337904D01*
X144009571Y-104052190D01*
X144057190Y-103956952D01*
X144104809Y-103909333D01*
X144200047Y-103861714D01*
X144390523Y-103861714D01*
X144485761Y-103909333D01*
X145104809Y-104528380D02*
X145009571Y-104480761D01*
X144961952Y-104433142D01*
X144914333Y-104337904D01*
X144914333Y-104052190D01*
X144961952Y-103956952D01*
X145009571Y-103909333D01*
X145104809Y-103861714D01*
X145247666Y-103861714D01*
X145342904Y-103909333D01*
X145390523Y-103956952D01*
X145438142Y-104052190D01*
X145438142Y-104337904D01*
X145390523Y-104433142D01*
X145342904Y-104480761D01*
X145247666Y-104528380D01*
X145104809Y-104528380D01*
X145771476Y-103861714D02*
X145961952Y-104528380D01*
X146152428Y-104052190D01*
X146342904Y-104528380D01*
X146533380Y-103861714D01*
X146866714Y-104480761D02*
X146961952Y-104528380D01*
X147152428Y-104528380D01*
X147247666Y-104480761D01*
X147295285Y-104385523D01*
X147295285Y-104337904D01*
X147247666Y-104242666D01*
X147152428Y-104195047D01*
X147009571Y-104195047D01*
X146914333Y-104147428D01*
X146866714Y-104052190D01*
X146866714Y-104004571D01*
X146914333Y-103909333D01*
X147009571Y-103861714D01*
X147152428Y-103861714D01*
X147247666Y-103909333D01*
X147723857Y-104528380D02*
X147723857Y-103528380D01*
X147819095Y-104147428D02*
X148104809Y-104528380D01*
X148104809Y-103861714D02*
X147723857Y-104242666D01*
X148533380Y-104528380D02*
X148533380Y-103861714D01*
X148533380Y-103528380D02*
X148485761Y-103576000D01*
X148533380Y-103623619D01*
X148581000Y-103576000D01*
X148533380Y-103528380D01*
X148533380Y-103623619D01*
D11*
%TO.C,R6*%
X140777279Y-78488000D02*
X140451721Y-78488000D01*
X140777279Y-77468000D02*
X140451721Y-77468000D01*
%TO.C,R5*%
X136209721Y-77468000D02*
X136535279Y-77468000D01*
X136209721Y-78488000D02*
X136535279Y-78488000D01*
%TO.C,R1*%
X174182300Y-86148142D02*
X174182300Y-86622658D01*
X173137300Y-86148142D02*
X173137300Y-86622658D01*
%TO.C,C1*%
X143204020Y-66981800D02*
X143485180Y-66981800D01*
X143204020Y-65961800D02*
X143485180Y-65961800D01*
%TO.C,C2*%
X144728620Y-75791600D02*
X145009780Y-75791600D01*
X144728620Y-76811600D02*
X145009780Y-76811600D01*
%TO.C,C3*%
X170686000Y-72301980D02*
X170686000Y-72020820D01*
X171706000Y-72301980D02*
X171706000Y-72020820D01*
%TO.C,C4*%
X168552400Y-85901620D02*
X168552400Y-86182780D01*
X169572400Y-85901620D02*
X169572400Y-86182780D01*
D12*
%TO.C,J1*%
X140614400Y-72923400D02*
X139344400Y-72923400D01*
X138709400Y-69748400D02*
X138709400Y-68478400D01*
X139344400Y-67843400D02*
X138709400Y-68478400D01*
X141249400Y-68478400D02*
X140614400Y-67843400D01*
X140614400Y-67843400D02*
X139344400Y-67843400D01*
X138709400Y-71018400D02*
X139344400Y-70383400D01*
X138709400Y-72288400D02*
X138709400Y-71018400D01*
X139344400Y-72923400D02*
X138709400Y-72288400D01*
X141249400Y-72288400D02*
X140614400Y-72923400D01*
X141249400Y-71018400D02*
X141249400Y-72288400D01*
X140614400Y-70383400D02*
X141249400Y-71018400D01*
X139344400Y-70383400D02*
X138709400Y-69748400D01*
X141249400Y-69748400D02*
X140614400Y-70383400D01*
X141249400Y-68478400D02*
X141249400Y-69748400D01*
%TO.C,J2*%
X131035000Y-81954000D02*
X131035000Y-80684000D01*
X139290000Y-80049000D02*
X140560000Y-80049000D01*
X141195000Y-80684000D02*
X140560000Y-80049000D01*
X140560000Y-82589000D02*
X141195000Y-81954000D01*
X141195000Y-81954000D02*
X141195000Y-80684000D01*
X138020000Y-80049000D02*
X138655000Y-80684000D01*
X136750000Y-80049000D02*
X138020000Y-80049000D01*
X136115000Y-80684000D02*
X136750000Y-80049000D01*
X136750000Y-82589000D02*
X136115000Y-81954000D01*
X138020000Y-82589000D02*
X136750000Y-82589000D01*
X138655000Y-81954000D02*
X138020000Y-82589000D01*
X138655000Y-80684000D02*
X139290000Y-80049000D01*
X139290000Y-82589000D02*
X138655000Y-81954000D01*
X140560000Y-82589000D02*
X139290000Y-82589000D01*
X131670000Y-80049000D02*
X132940000Y-80049000D01*
X133575000Y-80684000D02*
X132940000Y-80049000D01*
X132940000Y-82589000D02*
X133575000Y-81954000D01*
X135480000Y-80049000D02*
X136115000Y-80684000D01*
X134210000Y-80049000D02*
X135480000Y-80049000D01*
X133575000Y-80684000D02*
X134210000Y-80049000D01*
X134210000Y-82589000D02*
X133575000Y-81954000D01*
X135480000Y-82589000D02*
X134210000Y-82589000D01*
X136115000Y-81954000D02*
X135480000Y-82589000D01*
X131035000Y-80684000D02*
X131670000Y-80049000D01*
X131670000Y-82589000D02*
X131035000Y-81954000D01*
X132940000Y-82589000D02*
X131670000Y-82589000D01*
%TO.C,J3*%
X177469800Y-93141800D02*
X177469800Y-91871800D01*
X176834800Y-93776800D02*
X177469800Y-93141800D01*
X175564800Y-93776800D02*
X176834800Y-93776800D01*
X174929800Y-93141800D02*
X175564800Y-93776800D01*
X174929800Y-91871800D02*
X174929800Y-93141800D01*
X175564800Y-91236800D02*
X174929800Y-91871800D01*
X176834800Y-91236800D02*
X175564800Y-91236800D01*
X177469800Y-91871800D02*
X176834800Y-91236800D01*
D13*
%TO.C,J4*%
X179920600Y-93460000D02*
X179920600Y-91960000D01*
X182320600Y-89560000D02*
X183820600Y-89560000D01*
X186220600Y-91960000D02*
X186220600Y-93460000D01*
X182320600Y-95860000D02*
X183820600Y-95860000D01*
D11*
%TO.C,R2*%
X176058300Y-86148142D02*
X176058300Y-86622658D01*
X177103300Y-86148142D02*
X177103300Y-86622658D01*
D14*
%TO.C,U1*%
X149171200Y-74635400D02*
X145671200Y-74635400D01*
X145671200Y-74635400D02*
X145671200Y-68135400D01*
X145671200Y-68135400D02*
X149171200Y-68135400D01*
X149171200Y-68135400D02*
X149171200Y-74635400D01*
X151446200Y-74510400D02*
X149696200Y-74510400D01*
D12*
%TO.C,U2*%
X173748700Y-73380600D02*
X174752000Y-73380600D01*
X176862740Y-73380600D02*
X176022000Y-73380600D01*
X173847760Y-83896200D02*
X176977040Y-83896200D01*
X173466760Y-73761600D02*
X173466760Y-83614260D01*
X177358040Y-83515200D02*
X177358040Y-73761600D01*
D15*
X173126400Y-73050400D02*
G75*
G03*
X173126400Y-73050400I-127000J0D01*
G01*
X173253400Y-73050400D02*
G75*
G03*
X173253400Y-73050400I-254000J0D01*
G01*
D12*
X173466760Y-83611720D02*
G75*
G03*
X173847760Y-83896200I332740J48260D01*
G01*
X177358040Y-73761600D02*
G75*
G03*
X176875440Y-73380600I-431800J-50800D01*
G01*
X176977040Y-83896200D02*
G75*
G03*
X177358040Y-83515200I0J381000D01*
G01*
X173748700Y-73383140D02*
G75*
G03*
X173466760Y-73761600I48260J-330200D01*
G01*
X174752000Y-73431400D02*
G75*
G03*
X176022000Y-73431400I635000J0D01*
G01*
D13*
%TO.C,U3*%
X150119080Y-77132180D02*
G75*
G03*
X150119080Y-77132180I-508000J0D01*
G01*
D12*
X166824660Y-79349600D02*
X166824660Y-79679800D01*
X166824660Y-81348580D02*
X166824660Y-81678780D01*
X166824660Y-83350100D02*
X166824660Y-83680300D01*
X166824660Y-85349080D02*
X166824660Y-85676740D01*
X166824660Y-87345520D02*
X166824660Y-87675720D01*
X166824660Y-89347040D02*
X166824660Y-89677240D01*
X166824660Y-91346020D02*
X166824660Y-91676220D01*
X150573740Y-91694000D02*
X150573740Y-91363800D01*
X150573740Y-89695020D02*
X150573740Y-89364820D01*
X150573740Y-87693500D02*
X150573740Y-87363300D01*
X150573740Y-85694520D02*
X150573740Y-85366860D01*
X150573740Y-83698080D02*
X150573740Y-83367880D01*
X150573740Y-81696560D02*
X150573740Y-81366360D01*
X150573740Y-77663040D02*
X150573740Y-77396340D01*
X166824660Y-77396340D02*
X166824660Y-77663040D01*
X150573740Y-79697580D02*
X150573740Y-79367380D01*
X166824660Y-93380560D02*
X166824660Y-93647260D01*
X150573740Y-93647260D02*
X150573740Y-93380560D01*
X166824660Y-93647260D02*
X150573740Y-93647260D01*
X150573740Y-77396340D02*
X166824660Y-77396340D01*
%TO.C,R6*%
D10*
X140447833Y-79860380D02*
X140114500Y-79384190D01*
X139876404Y-79860380D02*
X139876404Y-78860380D01*
X140257357Y-78860380D01*
X140352595Y-78908000D01*
X140400214Y-78955619D01*
X140447833Y-79050857D01*
X140447833Y-79193714D01*
X140400214Y-79288952D01*
X140352595Y-79336571D01*
X140257357Y-79384190D01*
X139876404Y-79384190D01*
X141304976Y-78860380D02*
X141114500Y-78860380D01*
X141019261Y-78908000D01*
X140971642Y-78955619D01*
X140876404Y-79098476D01*
X140828785Y-79288952D01*
X140828785Y-79669904D01*
X140876404Y-79765142D01*
X140924023Y-79812761D01*
X141019261Y-79860380D01*
X141209738Y-79860380D01*
X141304976Y-79812761D01*
X141352595Y-79765142D01*
X141400214Y-79669904D01*
X141400214Y-79431809D01*
X141352595Y-79336571D01*
X141304976Y-79288952D01*
X141209738Y-79241333D01*
X141019261Y-79241333D01*
X140924023Y-79288952D01*
X140876404Y-79336571D01*
X140828785Y-79431809D01*
%TO.C,R5*%
X136205833Y-77000380D02*
X135872500Y-76524190D01*
X135634404Y-77000380D02*
X135634404Y-76000380D01*
X136015357Y-76000380D01*
X136110595Y-76048000D01*
X136158214Y-76095619D01*
X136205833Y-76190857D01*
X136205833Y-76333714D01*
X136158214Y-76428952D01*
X136110595Y-76476571D01*
X136015357Y-76524190D01*
X135634404Y-76524190D01*
X137110595Y-76000380D02*
X136634404Y-76000380D01*
X136586785Y-76476571D01*
X136634404Y-76428952D01*
X136729642Y-76381333D01*
X136967738Y-76381333D01*
X137062976Y-76428952D01*
X137110595Y-76476571D01*
X137158214Y-76571809D01*
X137158214Y-76809904D01*
X137110595Y-76905142D01*
X137062976Y-76952761D01*
X136967738Y-77000380D01*
X136729642Y-77000380D01*
X136634404Y-76952761D01*
X136586785Y-76905142D01*
%TO.C,R1*%
X172816780Y-86425066D02*
X172340590Y-86758400D01*
X172816780Y-86996495D02*
X171816780Y-86996495D01*
X171816780Y-86615542D01*
X171864400Y-86520304D01*
X171912019Y-86472685D01*
X172007257Y-86425066D01*
X172150114Y-86425066D01*
X172245352Y-86472685D01*
X172292971Y-86520304D01*
X172340590Y-86615542D01*
X172340590Y-86996495D01*
X172816780Y-85472685D02*
X172816780Y-86044114D01*
X172816780Y-85758400D02*
X171816780Y-85758400D01*
X171959638Y-85853638D01*
X172054876Y-85948876D01*
X172102495Y-86044114D01*
%TO.C,*%
%TO.C,C1*%
X143177933Y-65398942D02*
X143130314Y-65446561D01*
X142987457Y-65494180D01*
X142892219Y-65494180D01*
X142749361Y-65446561D01*
X142654123Y-65351323D01*
X142606504Y-65256085D01*
X142558885Y-65065609D01*
X142558885Y-64922752D01*
X142606504Y-64732276D01*
X142654123Y-64637038D01*
X142749361Y-64541800D01*
X142892219Y-64494180D01*
X142987457Y-64494180D01*
X143130314Y-64541800D01*
X143177933Y-64589419D01*
X144130314Y-65494180D02*
X143558885Y-65494180D01*
X143844600Y-65494180D02*
X143844600Y-64494180D01*
X143749361Y-64637038D01*
X143654123Y-64732276D01*
X143558885Y-64779895D01*
%TO.C,C2*%
X145202533Y-75158742D02*
X145154914Y-75206361D01*
X145012057Y-75253980D01*
X144916819Y-75253980D01*
X144773961Y-75206361D01*
X144678723Y-75111123D01*
X144631104Y-75015885D01*
X144583485Y-74825409D01*
X144583485Y-74682552D01*
X144631104Y-74492076D01*
X144678723Y-74396838D01*
X144773961Y-74301600D01*
X144916819Y-74253980D01*
X145012057Y-74253980D01*
X145154914Y-74301600D01*
X145202533Y-74349219D01*
X145583485Y-74349219D02*
X145631104Y-74301600D01*
X145726342Y-74253980D01*
X145964438Y-74253980D01*
X146059676Y-74301600D01*
X146107295Y-74349219D01*
X146154914Y-74444457D01*
X146154914Y-74539695D01*
X146107295Y-74682552D01*
X145535866Y-75253980D01*
X146154914Y-75253980D01*
%TO.C,C3*%
X170123142Y-72328066D02*
X170170761Y-72375685D01*
X170218380Y-72518542D01*
X170218380Y-72613780D01*
X170170761Y-72756638D01*
X170075523Y-72851876D01*
X169980285Y-72899495D01*
X169789809Y-72947114D01*
X169646952Y-72947114D01*
X169456476Y-72899495D01*
X169361238Y-72851876D01*
X169266000Y-72756638D01*
X169218380Y-72613780D01*
X169218380Y-72518542D01*
X169266000Y-72375685D01*
X169313619Y-72328066D01*
X169218380Y-71994733D02*
X169218380Y-71375685D01*
X169599333Y-71709019D01*
X169599333Y-71566161D01*
X169646952Y-71470923D01*
X169694571Y-71423304D01*
X169789809Y-71375685D01*
X170027904Y-71375685D01*
X170123142Y-71423304D01*
X170170761Y-71470923D01*
X170218380Y-71566161D01*
X170218380Y-71851876D01*
X170170761Y-71947114D01*
X170123142Y-71994733D01*
%TO.C,C4*%
X170849542Y-86208866D02*
X170897161Y-86256485D01*
X170944780Y-86399342D01*
X170944780Y-86494580D01*
X170897161Y-86637438D01*
X170801923Y-86732676D01*
X170706685Y-86780295D01*
X170516209Y-86827914D01*
X170373352Y-86827914D01*
X170182876Y-86780295D01*
X170087638Y-86732676D01*
X169992400Y-86637438D01*
X169944780Y-86494580D01*
X169944780Y-86399342D01*
X169992400Y-86256485D01*
X170040019Y-86208866D01*
X170278114Y-85351723D02*
X170944780Y-85351723D01*
X169897161Y-85589819D02*
X170611447Y-85827914D01*
X170611447Y-85208866D01*
%TO.C,J1*%
D16*
X141550571Y-69316600D02*
X141986000Y-69316600D01*
X142073085Y-69345628D01*
X142131142Y-69403685D01*
X142160171Y-69490771D01*
X142160171Y-69548828D01*
X142160171Y-68707000D02*
X142160171Y-69055342D01*
X142160171Y-68881171D02*
X141550571Y-68881171D01*
X141637657Y-68939228D01*
X141695714Y-68997285D01*
X141724742Y-69055342D01*
X138292114Y-72669400D02*
X138321142Y-72698428D01*
X138350171Y-72785514D01*
X138350171Y-72843571D01*
X138321142Y-72930657D01*
X138263085Y-72988714D01*
X138205028Y-73017742D01*
X138088914Y-73046771D01*
X138001828Y-73046771D01*
X137885714Y-73017742D01*
X137827657Y-72988714D01*
X137769600Y-72930657D01*
X137740571Y-72843571D01*
X137740571Y-72785514D01*
X137769600Y-72698428D01*
X137798628Y-72669400D01*
X138350171Y-72321057D02*
X138321142Y-72379114D01*
X138292114Y-72408142D01*
X138234057Y-72437171D01*
X138059885Y-72437171D01*
X138001828Y-72408142D01*
X137972800Y-72379114D01*
X137943771Y-72321057D01*
X137943771Y-72233971D01*
X137972800Y-72175914D01*
X138001828Y-72146885D01*
X138059885Y-72117857D01*
X138234057Y-72117857D01*
X138292114Y-72146885D01*
X138321142Y-72175914D01*
X138350171Y-72233971D01*
X138350171Y-72321057D01*
X137943771Y-71856600D02*
X138350171Y-71856600D01*
X138001828Y-71856600D02*
X137972800Y-71827571D01*
X137943771Y-71769514D01*
X137943771Y-71682428D01*
X137972800Y-71624371D01*
X138030857Y-71595342D01*
X138350171Y-71595342D01*
X137943771Y-71305057D02*
X138350171Y-71305057D01*
X138001828Y-71305057D02*
X137972800Y-71276028D01*
X137943771Y-71217971D01*
X137943771Y-71130885D01*
X137972800Y-71072828D01*
X138030857Y-71043800D01*
X138350171Y-71043800D01*
X138408228Y-70898657D02*
X138408228Y-70434200D01*
X137740571Y-70172942D02*
X137740571Y-70114885D01*
X137769600Y-70056828D01*
X137798628Y-70027800D01*
X137856685Y-69998771D01*
X137972800Y-69969742D01*
X138117942Y-69969742D01*
X138234057Y-69998771D01*
X138292114Y-70027800D01*
X138321142Y-70056828D01*
X138350171Y-70114885D01*
X138350171Y-70172942D01*
X138321142Y-70231000D01*
X138292114Y-70260028D01*
X138234057Y-70289057D01*
X138117942Y-70318085D01*
X137972800Y-70318085D01*
X137856685Y-70289057D01*
X137798628Y-70260028D01*
X137769600Y-70231000D01*
X137740571Y-70172942D01*
X138350171Y-69389171D02*
X138350171Y-69737514D01*
X138350171Y-69563342D02*
X137740571Y-69563342D01*
X137827657Y-69621400D01*
X137885714Y-69679457D01*
X137914742Y-69737514D01*
X138350171Y-69185971D02*
X137943771Y-68866657D01*
X137943771Y-69185971D02*
X138350171Y-68866657D01*
X137740571Y-68518314D02*
X137740571Y-68460257D01*
X137769600Y-68402200D01*
X137798628Y-68373171D01*
X137856685Y-68344142D01*
X137972800Y-68315114D01*
X138117942Y-68315114D01*
X138234057Y-68344142D01*
X138292114Y-68373171D01*
X138321142Y-68402200D01*
X138350171Y-68460257D01*
X138350171Y-68518314D01*
X138321142Y-68576371D01*
X138292114Y-68605400D01*
X138234057Y-68634428D01*
X138117942Y-68663457D01*
X137972800Y-68663457D01*
X137856685Y-68634428D01*
X137798628Y-68605400D01*
X137769600Y-68576371D01*
X137740571Y-68518314D01*
X137798628Y-68082885D02*
X137769600Y-68053857D01*
X137740571Y-67995800D01*
X137740571Y-67850657D01*
X137769600Y-67792600D01*
X137798628Y-67763571D01*
X137856685Y-67734542D01*
X137914742Y-67734542D01*
X138001828Y-67763571D01*
X138350171Y-68111914D01*
X138350171Y-67734542D01*
X138408228Y-67618428D02*
X138408228Y-67153971D01*
X138350171Y-67008828D02*
X137740571Y-67008828D01*
X138176000Y-66805628D01*
X137740571Y-66602428D01*
X138350171Y-66602428D01*
X138350171Y-66050885D02*
X138030857Y-66050885D01*
X137972800Y-66079914D01*
X137943771Y-66137971D01*
X137943771Y-66254085D01*
X137972800Y-66312142D01*
X138321142Y-66050885D02*
X138350171Y-66108942D01*
X138350171Y-66254085D01*
X138321142Y-66312142D01*
X138263085Y-66341171D01*
X138205028Y-66341171D01*
X138146971Y-66312142D01*
X138117942Y-66254085D01*
X138117942Y-66108942D01*
X138088914Y-66050885D01*
X138350171Y-65673514D02*
X138321142Y-65731571D01*
X138263085Y-65760600D01*
X137740571Y-65760600D01*
X138321142Y-65209057D02*
X138350171Y-65267114D01*
X138350171Y-65383228D01*
X138321142Y-65441285D01*
X138263085Y-65470314D01*
X138030857Y-65470314D01*
X137972800Y-65441285D01*
X137943771Y-65383228D01*
X137943771Y-65267114D01*
X137972800Y-65209057D01*
X138030857Y-65180028D01*
X138088914Y-65180028D01*
X138146971Y-65470314D01*
%TO.C,J2*%
X139721800Y-82890171D02*
X139721800Y-83325600D01*
X139692771Y-83412685D01*
X139634714Y-83470742D01*
X139547628Y-83499771D01*
X139489571Y-83499771D01*
X139983057Y-82948228D02*
X140012085Y-82919200D01*
X140070142Y-82890171D01*
X140215285Y-82890171D01*
X140273342Y-82919200D01*
X140302371Y-82948228D01*
X140331400Y-83006285D01*
X140331400Y-83064342D01*
X140302371Y-83151428D01*
X139954028Y-83499771D01*
X140331400Y-83499771D01*
X135788428Y-79631714D02*
X135759400Y-79660742D01*
X135672314Y-79689771D01*
X135614257Y-79689771D01*
X135527171Y-79660742D01*
X135469114Y-79602685D01*
X135440085Y-79544628D01*
X135411057Y-79428514D01*
X135411057Y-79341428D01*
X135440085Y-79225314D01*
X135469114Y-79167257D01*
X135527171Y-79109200D01*
X135614257Y-79080171D01*
X135672314Y-79080171D01*
X135759400Y-79109200D01*
X135788428Y-79138228D01*
X136136771Y-79689771D02*
X136078714Y-79660742D01*
X136049685Y-79631714D01*
X136020657Y-79573657D01*
X136020657Y-79399485D01*
X136049685Y-79341428D01*
X136078714Y-79312400D01*
X136136771Y-79283371D01*
X136223857Y-79283371D01*
X136281914Y-79312400D01*
X136310942Y-79341428D01*
X136339971Y-79399485D01*
X136339971Y-79573657D01*
X136310942Y-79631714D01*
X136281914Y-79660742D01*
X136223857Y-79689771D01*
X136136771Y-79689771D01*
X136601228Y-79283371D02*
X136601228Y-79689771D01*
X136601228Y-79341428D02*
X136630257Y-79312400D01*
X136688314Y-79283371D01*
X136775400Y-79283371D01*
X136833457Y-79312400D01*
X136862485Y-79370457D01*
X136862485Y-79689771D01*
X137152771Y-79283371D02*
X137152771Y-79689771D01*
X137152771Y-79341428D02*
X137181800Y-79312400D01*
X137239857Y-79283371D01*
X137326942Y-79283371D01*
X137385000Y-79312400D01*
X137414028Y-79370457D01*
X137414028Y-79689771D01*
X137559171Y-79747828D02*
X138023628Y-79747828D01*
X138284885Y-79080171D02*
X138342942Y-79080171D01*
X138401000Y-79109200D01*
X138430028Y-79138228D01*
X138459057Y-79196285D01*
X138488085Y-79312400D01*
X138488085Y-79457542D01*
X138459057Y-79573657D01*
X138430028Y-79631714D01*
X138401000Y-79660742D01*
X138342942Y-79689771D01*
X138284885Y-79689771D01*
X138226828Y-79660742D01*
X138197800Y-79631714D01*
X138168771Y-79573657D01*
X138139742Y-79457542D01*
X138139742Y-79312400D01*
X138168771Y-79196285D01*
X138197800Y-79138228D01*
X138226828Y-79109200D01*
X138284885Y-79080171D01*
X139068657Y-79689771D02*
X138720314Y-79689771D01*
X138894485Y-79689771D02*
X138894485Y-79080171D01*
X138836428Y-79167257D01*
X138778371Y-79225314D01*
X138720314Y-79254342D01*
X139271857Y-79689771D02*
X139591171Y-79283371D01*
X139271857Y-79283371D02*
X139591171Y-79689771D01*
X139939514Y-79080171D02*
X139997571Y-79080171D01*
X140055628Y-79109200D01*
X140084657Y-79138228D01*
X140113685Y-79196285D01*
X140142714Y-79312400D01*
X140142714Y-79457542D01*
X140113685Y-79573657D01*
X140084657Y-79631714D01*
X140055628Y-79660742D01*
X139997571Y-79689771D01*
X139939514Y-79689771D01*
X139881457Y-79660742D01*
X139852428Y-79631714D01*
X139823400Y-79573657D01*
X139794371Y-79457542D01*
X139794371Y-79312400D01*
X139823400Y-79196285D01*
X139852428Y-79138228D01*
X139881457Y-79109200D01*
X139939514Y-79080171D01*
X140665228Y-79283371D02*
X140665228Y-79689771D01*
X140520085Y-79051142D02*
X140374942Y-79486571D01*
X140752314Y-79486571D01*
X140839400Y-79747828D02*
X141303857Y-79747828D01*
X141652200Y-79370457D02*
X141449000Y-79370457D01*
X141449000Y-79689771D02*
X141449000Y-79080171D01*
X141739285Y-79080171D01*
X142203742Y-79660742D02*
X142145685Y-79689771D01*
X142029571Y-79689771D01*
X141971514Y-79660742D01*
X141942485Y-79602685D01*
X141942485Y-79370457D01*
X141971514Y-79312400D01*
X142029571Y-79283371D01*
X142145685Y-79283371D01*
X142203742Y-79312400D01*
X142232771Y-79370457D01*
X142232771Y-79428514D01*
X141942485Y-79486571D01*
X142494028Y-79689771D02*
X142494028Y-79283371D01*
X142494028Y-79341428D02*
X142523057Y-79312400D01*
X142581114Y-79283371D01*
X142668200Y-79283371D01*
X142726257Y-79312400D01*
X142755285Y-79370457D01*
X142755285Y-79689771D01*
X142755285Y-79370457D02*
X142784314Y-79312400D01*
X142842371Y-79283371D01*
X142929457Y-79283371D01*
X142987514Y-79312400D01*
X143016542Y-79370457D01*
X143016542Y-79689771D01*
X143568085Y-79689771D02*
X143568085Y-79370457D01*
X143539057Y-79312400D01*
X143481000Y-79283371D01*
X143364885Y-79283371D01*
X143306828Y-79312400D01*
X143568085Y-79660742D02*
X143510028Y-79689771D01*
X143364885Y-79689771D01*
X143306828Y-79660742D01*
X143277800Y-79602685D01*
X143277800Y-79544628D01*
X143306828Y-79486571D01*
X143364885Y-79457542D01*
X143510028Y-79457542D01*
X143568085Y-79428514D01*
X143945457Y-79689771D02*
X143887400Y-79660742D01*
X143858371Y-79602685D01*
X143858371Y-79080171D01*
X144409914Y-79660742D02*
X144351857Y-79689771D01*
X144235742Y-79689771D01*
X144177685Y-79660742D01*
X144148657Y-79602685D01*
X144148657Y-79370457D01*
X144177685Y-79312400D01*
X144235742Y-79283371D01*
X144351857Y-79283371D01*
X144409914Y-79312400D01*
X144438942Y-79370457D01*
X144438942Y-79428514D01*
X144148657Y-79486571D01*
%TO.C,J3*%
X175996600Y-90394971D02*
X175996600Y-90830400D01*
X175967571Y-90917485D01*
X175909514Y-90975542D01*
X175822428Y-91004571D01*
X175764371Y-91004571D01*
X176228828Y-90394971D02*
X176606200Y-90394971D01*
X176403000Y-90627200D01*
X176490085Y-90627200D01*
X176548142Y-90656228D01*
X176577171Y-90685257D01*
X176606200Y-90743314D01*
X176606200Y-90888457D01*
X176577171Y-90946514D01*
X176548142Y-90975542D01*
X176490085Y-91004571D01*
X176315914Y-91004571D01*
X176257857Y-90975542D01*
X176228828Y-90946514D01*
X174617742Y-94629514D02*
X174588714Y-94658542D01*
X174501628Y-94687571D01*
X174443571Y-94687571D01*
X174356485Y-94658542D01*
X174298428Y-94600485D01*
X174269400Y-94542428D01*
X174240371Y-94426314D01*
X174240371Y-94339228D01*
X174269400Y-94223114D01*
X174298428Y-94165057D01*
X174356485Y-94107000D01*
X174443571Y-94077971D01*
X174501628Y-94077971D01*
X174588714Y-94107000D01*
X174617742Y-94136028D01*
X174995114Y-94077971D02*
X175111228Y-94077971D01*
X175169285Y-94107000D01*
X175227342Y-94165057D01*
X175256371Y-94281171D01*
X175256371Y-94484371D01*
X175227342Y-94600485D01*
X175169285Y-94658542D01*
X175111228Y-94687571D01*
X174995114Y-94687571D01*
X174937057Y-94658542D01*
X174879000Y-94600485D01*
X174849971Y-94484371D01*
X174849971Y-94281171D01*
X174879000Y-94165057D01*
X174937057Y-94107000D01*
X174995114Y-94077971D01*
X175517628Y-94687571D02*
X175517628Y-94077971D01*
X175865971Y-94687571D01*
X175865971Y-94077971D01*
X176156257Y-94687571D02*
X176156257Y-94077971D01*
X176504600Y-94687571D01*
X176504600Y-94077971D01*
X176649742Y-94745628D02*
X177114200Y-94745628D01*
X177375457Y-94077971D02*
X177433514Y-94077971D01*
X177491571Y-94107000D01*
X177520600Y-94136028D01*
X177549628Y-94194085D01*
X177578657Y-94310200D01*
X177578657Y-94455342D01*
X177549628Y-94571457D01*
X177520600Y-94629514D01*
X177491571Y-94658542D01*
X177433514Y-94687571D01*
X177375457Y-94687571D01*
X177317400Y-94658542D01*
X177288371Y-94629514D01*
X177259342Y-94571457D01*
X177230314Y-94455342D01*
X177230314Y-94310200D01*
X177259342Y-94194085D01*
X177288371Y-94136028D01*
X177317400Y-94107000D01*
X177375457Y-94077971D01*
X178159228Y-94687571D02*
X177810885Y-94687571D01*
X177985057Y-94687571D02*
X177985057Y-94077971D01*
X177927000Y-94165057D01*
X177868942Y-94223114D01*
X177810885Y-94252142D01*
%TO.C,J4*%
D15*
X253805266Y-112334523D02*
X253805266Y-113241666D01*
X253744790Y-113423095D01*
X253623838Y-113544047D01*
X253442409Y-113604523D01*
X253321457Y-113604523D01*
X254954314Y-112757857D02*
X254954314Y-113604523D01*
X254651933Y-112274047D02*
X254349552Y-113181190D01*
X255135742Y-113181190D01*
%TO.C,R2*%
D10*
X178463180Y-86552066D02*
X177986990Y-86885400D01*
X178463180Y-87123495D02*
X177463180Y-87123495D01*
X177463180Y-86742542D01*
X177510800Y-86647304D01*
X177558419Y-86599685D01*
X177653657Y-86552066D01*
X177796514Y-86552066D01*
X177891752Y-86599685D01*
X177939371Y-86647304D01*
X177986990Y-86742542D01*
X177986990Y-87123495D01*
X177558419Y-86171114D02*
X177510800Y-86123495D01*
X177463180Y-86028257D01*
X177463180Y-85790161D01*
X177510800Y-85694923D01*
X177558419Y-85647304D01*
X177653657Y-85599685D01*
X177748895Y-85599685D01*
X177891752Y-85647304D01*
X178463180Y-86218733D01*
X178463180Y-85599685D01*
%TO.C,U1*%
D15*
X146903523Y-72073619D02*
X147931619Y-72073619D01*
X148052571Y-72013142D01*
X148113047Y-71952666D01*
X148173523Y-71831714D01*
X148173523Y-71589809D01*
X148113047Y-71468857D01*
X148052571Y-71408380D01*
X147931619Y-71347904D01*
X146903523Y-71347904D01*
X148173523Y-70077904D02*
X148173523Y-70803619D01*
X148173523Y-70440761D02*
X146903523Y-70440761D01*
X147084952Y-70561714D01*
X147205904Y-70682666D01*
X147266380Y-70803619D01*
%TO.C,U2*%
D16*
X174947942Y-72335571D02*
X174947942Y-72829057D01*
X174976971Y-72887114D01*
X175006000Y-72916142D01*
X175064057Y-72945171D01*
X175180171Y-72945171D01*
X175238228Y-72916142D01*
X175267257Y-72887114D01*
X175296285Y-72829057D01*
X175296285Y-72335571D01*
X175557542Y-72393628D02*
X175586571Y-72364600D01*
X175644628Y-72335571D01*
X175789771Y-72335571D01*
X175847828Y-72364600D01*
X175876857Y-72393628D01*
X175905885Y-72451685D01*
X175905885Y-72509742D01*
X175876857Y-72596828D01*
X175528514Y-72945171D01*
X175905885Y-72945171D01*
X171841885Y-84883171D02*
X171841885Y-84273571D01*
X171841885Y-84563857D02*
X172190228Y-84563857D01*
X172190228Y-84883171D02*
X172190228Y-84273571D01*
X172480514Y-84563857D02*
X172683714Y-84563857D01*
X172770800Y-84883171D02*
X172480514Y-84883171D01*
X172480514Y-84273571D01*
X172770800Y-84273571D01*
X172974000Y-84273571D02*
X173380400Y-84883171D01*
X173380400Y-84273571D02*
X172974000Y-84883171D01*
X173467485Y-84941228D02*
X173931942Y-84941228D01*
X174425428Y-84825114D02*
X174396400Y-84854142D01*
X174309314Y-84883171D01*
X174251257Y-84883171D01*
X174164171Y-84854142D01*
X174106114Y-84796085D01*
X174077085Y-84738028D01*
X174048057Y-84621914D01*
X174048057Y-84534828D01*
X174077085Y-84418714D01*
X174106114Y-84360657D01*
X174164171Y-84302600D01*
X174251257Y-84273571D01*
X174309314Y-84273571D01*
X174396400Y-84302600D01*
X174425428Y-84331628D01*
X174802800Y-84273571D02*
X174918914Y-84273571D01*
X174976971Y-84302600D01*
X175035028Y-84360657D01*
X175064057Y-84476771D01*
X175064057Y-84679971D01*
X175035028Y-84796085D01*
X174976971Y-84854142D01*
X174918914Y-84883171D01*
X174802800Y-84883171D01*
X174744742Y-84854142D01*
X174686685Y-84796085D01*
X174657657Y-84679971D01*
X174657657Y-84476771D01*
X174686685Y-84360657D01*
X174744742Y-84302600D01*
X174802800Y-84273571D01*
X175325314Y-84883171D02*
X175325314Y-84273571D01*
X175673657Y-84883171D01*
X175673657Y-84273571D01*
X175876857Y-84273571D02*
X176080057Y-84883171D01*
X176283257Y-84273571D01*
X176486457Y-84563857D02*
X176689657Y-84563857D01*
X176776742Y-84883171D02*
X176486457Y-84883171D01*
X176486457Y-84273571D01*
X176776742Y-84273571D01*
X177386342Y-84883171D02*
X177183142Y-84592885D01*
X177038000Y-84883171D02*
X177038000Y-84273571D01*
X177270228Y-84273571D01*
X177328285Y-84302600D01*
X177357314Y-84331628D01*
X177386342Y-84389685D01*
X177386342Y-84476771D01*
X177357314Y-84534828D01*
X177328285Y-84563857D01*
X177270228Y-84592885D01*
X177038000Y-84592885D01*
X177560514Y-84273571D02*
X177908857Y-84273571D01*
X177734685Y-84883171D02*
X177734685Y-84273571D01*
X178112057Y-84563857D02*
X178315257Y-84563857D01*
X178402342Y-84883171D02*
X178112057Y-84883171D01*
X178112057Y-84273571D01*
X178402342Y-84273571D01*
X179011942Y-84883171D02*
X178808742Y-84592885D01*
X178663600Y-84883171D02*
X178663600Y-84273571D01*
X178895828Y-84273571D01*
X178953885Y-84302600D01*
X178982914Y-84331628D01*
X179011942Y-84389685D01*
X179011942Y-84476771D01*
X178982914Y-84534828D01*
X178953885Y-84563857D01*
X178895828Y-84592885D01*
X178663600Y-84592885D01*
%TO.C,U3*%
X158234742Y-77821971D02*
X158234742Y-78315457D01*
X158263771Y-78373514D01*
X158292800Y-78402542D01*
X158350857Y-78431571D01*
X158466971Y-78431571D01*
X158525028Y-78402542D01*
X158554057Y-78373514D01*
X158583085Y-78315457D01*
X158583085Y-77821971D01*
X158815314Y-77821971D02*
X159192685Y-77821971D01*
X158989485Y-78054200D01*
X159076571Y-78054200D01*
X159134628Y-78083228D01*
X159163657Y-78112257D01*
X159192685Y-78170314D01*
X159192685Y-78315457D01*
X159163657Y-78373514D01*
X159134628Y-78402542D01*
X159076571Y-78431571D01*
X158902400Y-78431571D01*
X158844342Y-78402542D01*
X158815314Y-78373514D01*
X155477028Y-93163571D02*
X155273828Y-92873285D01*
X155128685Y-93163571D02*
X155128685Y-92553971D01*
X155360914Y-92553971D01*
X155418971Y-92583000D01*
X155448000Y-92612028D01*
X155477028Y-92670085D01*
X155477028Y-92757171D01*
X155448000Y-92815228D01*
X155418971Y-92844257D01*
X155360914Y-92873285D01*
X155128685Y-92873285D01*
X155941485Y-92844257D02*
X155738285Y-92844257D01*
X155738285Y-93163571D02*
X155738285Y-92553971D01*
X156028571Y-92553971D01*
X156260800Y-93163571D02*
X156260800Y-92553971D01*
X156464000Y-92989400D01*
X156667200Y-92553971D01*
X156667200Y-93163571D01*
X157218742Y-92553971D02*
X157102628Y-92553971D01*
X157044571Y-92583000D01*
X157015542Y-92612028D01*
X156957485Y-92699114D01*
X156928457Y-92815228D01*
X156928457Y-93047457D01*
X156957485Y-93105514D01*
X156986514Y-93134542D01*
X157044571Y-93163571D01*
X157160685Y-93163571D01*
X157218742Y-93134542D01*
X157247771Y-93105514D01*
X157276800Y-93047457D01*
X157276800Y-92902314D01*
X157247771Y-92844257D01*
X157218742Y-92815228D01*
X157160685Y-92786200D01*
X157044571Y-92786200D01*
X156986514Y-92815228D01*
X156957485Y-92844257D01*
X156928457Y-92902314D01*
X157567085Y-93163571D02*
X157683200Y-93163571D01*
X157741257Y-93134542D01*
X157770285Y-93105514D01*
X157828342Y-93018428D01*
X157857371Y-92902314D01*
X157857371Y-92670085D01*
X157828342Y-92612028D01*
X157799314Y-92583000D01*
X157741257Y-92553971D01*
X157625142Y-92553971D01*
X157567085Y-92583000D01*
X157538057Y-92612028D01*
X157509028Y-92670085D01*
X157509028Y-92815228D01*
X157538057Y-92873285D01*
X157567085Y-92902314D01*
X157625142Y-92931342D01*
X157741257Y-92931342D01*
X157799314Y-92902314D01*
X157828342Y-92873285D01*
X157857371Y-92815228D01*
X158118628Y-93163571D02*
X158118628Y-92553971D01*
X158118628Y-92844257D02*
X158466971Y-92844257D01*
X158466971Y-93163571D02*
X158466971Y-92553971D01*
X159105600Y-93105514D02*
X159076571Y-93134542D01*
X158989485Y-93163571D01*
X158931428Y-93163571D01*
X158844342Y-93134542D01*
X158786285Y-93076485D01*
X158757257Y-93018428D01*
X158728228Y-92902314D01*
X158728228Y-92815228D01*
X158757257Y-92699114D01*
X158786285Y-92641057D01*
X158844342Y-92583000D01*
X158931428Y-92553971D01*
X158989485Y-92553971D01*
X159076571Y-92583000D01*
X159105600Y-92612028D01*
X159308800Y-92553971D02*
X159453942Y-93163571D01*
X159570057Y-92728142D01*
X159686171Y-93163571D01*
X159831314Y-92553971D01*
X160063542Y-92931342D02*
X160528000Y-92931342D01*
X160847314Y-93163571D02*
X160963428Y-93163571D01*
X161021485Y-93134542D01*
X161050514Y-93105514D01*
X161108571Y-93018428D01*
X161137600Y-92902314D01*
X161137600Y-92670085D01*
X161108571Y-92612028D01*
X161079542Y-92583000D01*
X161021485Y-92553971D01*
X160905371Y-92553971D01*
X160847314Y-92583000D01*
X160818285Y-92612028D01*
X160789257Y-92670085D01*
X160789257Y-92815228D01*
X160818285Y-92873285D01*
X160847314Y-92902314D01*
X160905371Y-92931342D01*
X161021485Y-92931342D01*
X161079542Y-92902314D01*
X161108571Y-92873285D01*
X161137600Y-92815228D01*
X161718171Y-93163571D02*
X161369828Y-93163571D01*
X161544000Y-93163571D02*
X161544000Y-92553971D01*
X161485942Y-92641057D01*
X161427885Y-92699114D01*
X161369828Y-92728142D01*
X162269714Y-92553971D02*
X161979428Y-92553971D01*
X161950400Y-92844257D01*
X161979428Y-92815228D01*
X162037485Y-92786200D01*
X162182628Y-92786200D01*
X162240685Y-92815228D01*
X162269714Y-92844257D01*
X162298742Y-92902314D01*
X162298742Y-93047457D01*
X162269714Y-93105514D01*
X162240685Y-93134542D01*
X162182628Y-93163571D01*
X162037485Y-93163571D01*
X161979428Y-93134542D01*
X161950400Y-93105514D01*
%TO.C,B1*%
X121773257Y-58356457D02*
X121860342Y-58385485D01*
X121889371Y-58414514D01*
X121918400Y-58472571D01*
X121918400Y-58559657D01*
X121889371Y-58617714D01*
X121860342Y-58646742D01*
X121802285Y-58675771D01*
X121570057Y-58675771D01*
X121570057Y-58066171D01*
X121773257Y-58066171D01*
X121831314Y-58095200D01*
X121860342Y-58124228D01*
X121889371Y-58182285D01*
X121889371Y-58240342D01*
X121860342Y-58298400D01*
X121831314Y-58327428D01*
X121773257Y-58356457D01*
X121570057Y-58356457D01*
X122498971Y-58675771D02*
X122150628Y-58675771D01*
X122324800Y-58675771D02*
X122324800Y-58066171D01*
X122266742Y-58153257D01*
X122208685Y-58211314D01*
X122150628Y-58240342D01*
X120076685Y-109321600D02*
X120366971Y-109321600D01*
X120018628Y-109495771D02*
X120221828Y-108886171D01*
X120425028Y-109495771D01*
X120976571Y-109495771D02*
X120773371Y-109205485D01*
X120628228Y-109495771D02*
X120628228Y-108886171D01*
X120860457Y-108886171D01*
X120918514Y-108915200D01*
X120947542Y-108944228D01*
X120976571Y-109002285D01*
X120976571Y-109089371D01*
X120947542Y-109147428D01*
X120918514Y-109176457D01*
X120860457Y-109205485D01*
X120628228Y-109205485D01*
X121237828Y-109495771D02*
X121237828Y-108886171D01*
X121382971Y-108886171D01*
X121470057Y-108915200D01*
X121528114Y-108973257D01*
X121557142Y-109031314D01*
X121586171Y-109147428D01*
X121586171Y-109234514D01*
X121557142Y-109350628D01*
X121528114Y-109408685D01*
X121470057Y-109466742D01*
X121382971Y-109495771D01*
X121237828Y-109495771D01*
X121847428Y-108886171D02*
X121847428Y-109379657D01*
X121876457Y-109437714D01*
X121905485Y-109466742D01*
X121963542Y-109495771D01*
X122079657Y-109495771D01*
X122137714Y-109466742D01*
X122166742Y-109437714D01*
X122195771Y-109379657D01*
X122195771Y-108886171D01*
X122486057Y-109495771D02*
X122486057Y-108886171D01*
X122776342Y-109495771D02*
X122776342Y-108886171D01*
X123124685Y-109495771D01*
X123124685Y-108886171D01*
X123531085Y-108886171D02*
X123647200Y-108886171D01*
X123705257Y-108915200D01*
X123763314Y-108973257D01*
X123792342Y-109089371D01*
X123792342Y-109292571D01*
X123763314Y-109408685D01*
X123705257Y-109466742D01*
X123647200Y-109495771D01*
X123531085Y-109495771D01*
X123473028Y-109466742D01*
X123414971Y-109408685D01*
X123385942Y-109292571D01*
X123385942Y-109089371D01*
X123414971Y-108973257D01*
X123473028Y-108915200D01*
X123531085Y-108886171D01*
X123908457Y-109553828D02*
X124372914Y-109553828D01*
X124518057Y-108886171D02*
X124518057Y-109379657D01*
X124547085Y-109437714D01*
X124576114Y-109466742D01*
X124634171Y-109495771D01*
X124750285Y-109495771D01*
X124808342Y-109466742D01*
X124837371Y-109437714D01*
X124866400Y-109379657D01*
X124866400Y-108886171D01*
X125156685Y-109495771D02*
X125156685Y-108886171D01*
X125505028Y-109495771D01*
X125505028Y-108886171D01*
X125911428Y-108886171D02*
X126027542Y-108886171D01*
X126085600Y-108915200D01*
X126143657Y-108973257D01*
X126172685Y-109089371D01*
X126172685Y-109292571D01*
X126143657Y-109408685D01*
X126085600Y-109466742D01*
X126027542Y-109495771D01*
X125911428Y-109495771D01*
X125853371Y-109466742D01*
X125795314Y-109408685D01*
X125766285Y-109292571D01*
X125766285Y-109089371D01*
X125795314Y-108973257D01*
X125853371Y-108915200D01*
X125911428Y-108886171D01*
X126288800Y-109553828D02*
X126753257Y-109553828D01*
X127246742Y-109495771D02*
X127043542Y-109205485D01*
X126898400Y-109495771D02*
X126898400Y-108886171D01*
X127130628Y-108886171D01*
X127188685Y-108915200D01*
X127217714Y-108944228D01*
X127246742Y-109002285D01*
X127246742Y-109089371D01*
X127217714Y-109147428D01*
X127188685Y-109176457D01*
X127130628Y-109205485D01*
X126898400Y-109205485D01*
X127449942Y-108886171D02*
X127827314Y-108886171D01*
X127624114Y-109118400D01*
X127711200Y-109118400D01*
X127769257Y-109147428D01*
X127798285Y-109176457D01*
X127827314Y-109234514D01*
X127827314Y-109379657D01*
X127798285Y-109437714D01*
X127769257Y-109466742D01*
X127711200Y-109495771D01*
X127537028Y-109495771D01*
X127478971Y-109466742D01*
X127449942Y-109437714D01*
%TD*%
M02*
