%TF.GenerationSoftware,KiCad,Pcbnew,5.1.6+dfsg1-1*%
%TF.CreationDate,2021-02-21T15:05:16+01:00*%
%TF.ProjectId,RFMduino,52464d64-7569-46e6-9f2e-6b696361645f,rev?*%
%TF.SameCoordinates,Original*%
%TF.FileFunction,Copper,L1,Top*%
%TF.FilePolarity,Positive*%
%FSLAX46Y46*%
G04 Gerber Fmt 4.6, Leading zero omitted, Abs format (unit mm)*
G04 Created by KiCad (PCBNEW 5.1.6+dfsg1-1) date 2021-02-21 15:05:16*
%MOMM*%
%LPD*%
G01*
G04 APERTURE LIST*
%TA.AperFunction,ComponentPad*%
%ADD10C,1.879600*%
%TD*%
%TA.AperFunction,ComponentPad*%
%ADD11C,2.550000*%
%TD*%
%TA.AperFunction,SMDPad,CuDef*%
%ADD12R,1.750000X0.950000*%
%TD*%
%TA.AperFunction,SMDPad,CuDef*%
%ADD13R,1.750000X3.200000*%
%TD*%
%TA.AperFunction,SMDPad,CuDef*%
%ADD14R,1.198880X0.599440*%
%TD*%
%TA.AperFunction,SMDPad,CuDef*%
%ADD15R,2.999740X1.198880*%
%TD*%
%TA.AperFunction,ComponentPad*%
%ADD16C,1.930400*%
%TD*%
%TA.AperFunction,ViaPad*%
%ADD17C,0.800000*%
%TD*%
%TA.AperFunction,Conductor*%
%ADD18C,0.500000*%
%TD*%
%TA.AperFunction,Conductor*%
%ADD19C,0.250000*%
%TD*%
%TA.AperFunction,Conductor*%
%ADD20C,0.254000*%
%TD*%
G04 APERTURE END LIST*
%TO.P,R6,2*%
%TO.N,/SDA*%
%TA.AperFunction,SMDPad,CuDef*%
G36*
G01*
X140264500Y-77721750D02*
X140264500Y-78234250D01*
G75*
G02*
X140045750Y-78453000I-218750J0D01*
G01*
X139608250Y-78453000D01*
G75*
G02*
X139389500Y-78234250I0J218750D01*
G01*
X139389500Y-77721750D01*
G75*
G02*
X139608250Y-77503000I218750J0D01*
G01*
X140045750Y-77503000D01*
G75*
G02*
X140264500Y-77721750I0J-218750D01*
G01*
G37*
%TD.AperFunction*%
%TO.P,R6,1*%
%TO.N,5V*%
%TA.AperFunction,SMDPad,CuDef*%
G36*
G01*
X141839500Y-77721750D02*
X141839500Y-78234250D01*
G75*
G02*
X141620750Y-78453000I-218750J0D01*
G01*
X141183250Y-78453000D01*
G75*
G02*
X140964500Y-78234250I0J218750D01*
G01*
X140964500Y-77721750D01*
G75*
G02*
X141183250Y-77503000I218750J0D01*
G01*
X141620750Y-77503000D01*
G75*
G02*
X141839500Y-77721750I0J-218750D01*
G01*
G37*
%TD.AperFunction*%
%TD*%
%TO.P,R5,2*%
%TO.N,/SCL*%
%TA.AperFunction,SMDPad,CuDef*%
G36*
G01*
X136722500Y-78234250D02*
X136722500Y-77721750D01*
G75*
G02*
X136941250Y-77503000I218750J0D01*
G01*
X137378750Y-77503000D01*
G75*
G02*
X137597500Y-77721750I0J-218750D01*
G01*
X137597500Y-78234250D01*
G75*
G02*
X137378750Y-78453000I-218750J0D01*
G01*
X136941250Y-78453000D01*
G75*
G02*
X136722500Y-78234250I0J218750D01*
G01*
G37*
%TD.AperFunction*%
%TO.P,R5,1*%
%TO.N,5V*%
%TA.AperFunction,SMDPad,CuDef*%
G36*
G01*
X135147500Y-78234250D02*
X135147500Y-77721750D01*
G75*
G02*
X135366250Y-77503000I218750J0D01*
G01*
X135803750Y-77503000D01*
G75*
G02*
X136022500Y-77721750I0J-218750D01*
G01*
X136022500Y-78234250D01*
G75*
G02*
X135803750Y-78453000I-218750J0D01*
G01*
X135366250Y-78453000D01*
G75*
G02*
X135147500Y-78234250I0J218750D01*
G01*
G37*
%TD.AperFunction*%
%TD*%
%TO.P,R1,2*%
%TO.N,5V*%
%TA.AperFunction,SMDPad,CuDef*%
G36*
G01*
X173384800Y-86810400D02*
X173934800Y-86810400D01*
G75*
G02*
X174134800Y-87010400I0J-200000D01*
G01*
X174134800Y-87410400D01*
G75*
G02*
X173934800Y-87610400I-200000J0D01*
G01*
X173384800Y-87610400D01*
G75*
G02*
X173184800Y-87410400I0J200000D01*
G01*
X173184800Y-87010400D01*
G75*
G02*
X173384800Y-86810400I200000J0D01*
G01*
G37*
%TD.AperFunction*%
%TO.P,R1,1*%
%TO.N,/RST_5V*%
%TA.AperFunction,SMDPad,CuDef*%
G36*
G01*
X173384800Y-85160400D02*
X173934800Y-85160400D01*
G75*
G02*
X174134800Y-85360400I0J-200000D01*
G01*
X174134800Y-85760400D01*
G75*
G02*
X173934800Y-85960400I-200000J0D01*
G01*
X173384800Y-85960400D01*
G75*
G02*
X173184800Y-85760400I0J200000D01*
G01*
X173184800Y-85360400D01*
G75*
G02*
X173384800Y-85160400I200000J0D01*
G01*
G37*
%TD.AperFunction*%
%TD*%
%TO.P,C1,1*%
%TO.N,Net-(C1-Pad1)*%
%TA.AperFunction,SMDPad,CuDef*%
G36*
G01*
X142119600Y-66721800D02*
X142119600Y-66221800D01*
G75*
G02*
X142344600Y-65996800I225000J0D01*
G01*
X142794600Y-65996800D01*
G75*
G02*
X143019600Y-66221800I0J-225000D01*
G01*
X143019600Y-66721800D01*
G75*
G02*
X142794600Y-66946800I-225000J0D01*
G01*
X142344600Y-66946800D01*
G75*
G02*
X142119600Y-66721800I0J225000D01*
G01*
G37*
%TD.AperFunction*%
%TO.P,C1,2*%
%TO.N,Earth*%
%TA.AperFunction,SMDPad,CuDef*%
G36*
G01*
X143669600Y-66721800D02*
X143669600Y-66221800D01*
G75*
G02*
X143894600Y-65996800I225000J0D01*
G01*
X144344600Y-65996800D01*
G75*
G02*
X144569600Y-66221800I0J-225000D01*
G01*
X144569600Y-66721800D01*
G75*
G02*
X144344600Y-66946800I-225000J0D01*
G01*
X143894600Y-66946800D01*
G75*
G02*
X143669600Y-66721800I0J225000D01*
G01*
G37*
%TD.AperFunction*%
%TD*%
%TO.P,C2,2*%
%TO.N,Earth*%
%TA.AperFunction,SMDPad,CuDef*%
G36*
G01*
X145194200Y-76551600D02*
X145194200Y-76051600D01*
G75*
G02*
X145419200Y-75826600I225000J0D01*
G01*
X145869200Y-75826600D01*
G75*
G02*
X146094200Y-76051600I0J-225000D01*
G01*
X146094200Y-76551600D01*
G75*
G02*
X145869200Y-76776600I-225000J0D01*
G01*
X145419200Y-76776600D01*
G75*
G02*
X145194200Y-76551600I0J225000D01*
G01*
G37*
%TD.AperFunction*%
%TO.P,C2,1*%
%TO.N,+3V3*%
%TA.AperFunction,SMDPad,CuDef*%
G36*
G01*
X143644200Y-76551600D02*
X143644200Y-76051600D01*
G75*
G02*
X143869200Y-75826600I225000J0D01*
G01*
X144319200Y-75826600D01*
G75*
G02*
X144544200Y-76051600I0J-225000D01*
G01*
X144544200Y-76551600D01*
G75*
G02*
X144319200Y-76776600I-225000J0D01*
G01*
X143869200Y-76776600D01*
G75*
G02*
X143644200Y-76551600I0J225000D01*
G01*
G37*
%TD.AperFunction*%
%TD*%
%TO.P,C3,2*%
%TO.N,Earth*%
%TA.AperFunction,SMDPad,CuDef*%
G36*
G01*
X171446000Y-71836400D02*
X170946000Y-71836400D01*
G75*
G02*
X170721000Y-71611400I0J225000D01*
G01*
X170721000Y-71161400D01*
G75*
G02*
X170946000Y-70936400I225000J0D01*
G01*
X171446000Y-70936400D01*
G75*
G02*
X171671000Y-71161400I0J-225000D01*
G01*
X171671000Y-71611400D01*
G75*
G02*
X171446000Y-71836400I-225000J0D01*
G01*
G37*
%TD.AperFunction*%
%TO.P,C3,1*%
%TO.N,+3V3*%
%TA.AperFunction,SMDPad,CuDef*%
G36*
G01*
X171446000Y-73386400D02*
X170946000Y-73386400D01*
G75*
G02*
X170721000Y-73161400I0J225000D01*
G01*
X170721000Y-72711400D01*
G75*
G02*
X170946000Y-72486400I225000J0D01*
G01*
X171446000Y-72486400D01*
G75*
G02*
X171671000Y-72711400I0J-225000D01*
G01*
X171671000Y-73161400D01*
G75*
G02*
X171446000Y-73386400I-225000J0D01*
G01*
G37*
%TD.AperFunction*%
%TD*%
%TO.P,C4,1*%
%TO.N,+3V3*%
%TA.AperFunction,SMDPad,CuDef*%
G36*
G01*
X168812400Y-84817200D02*
X169312400Y-84817200D01*
G75*
G02*
X169537400Y-85042200I0J-225000D01*
G01*
X169537400Y-85492200D01*
G75*
G02*
X169312400Y-85717200I-225000J0D01*
G01*
X168812400Y-85717200D01*
G75*
G02*
X168587400Y-85492200I0J225000D01*
G01*
X168587400Y-85042200D01*
G75*
G02*
X168812400Y-84817200I225000J0D01*
G01*
G37*
%TD.AperFunction*%
%TO.P,C4,2*%
%TO.N,Earth*%
%TA.AperFunction,SMDPad,CuDef*%
G36*
G01*
X168812400Y-86367200D02*
X169312400Y-86367200D01*
G75*
G02*
X169537400Y-86592200I0J-225000D01*
G01*
X169537400Y-87042200D01*
G75*
G02*
X169312400Y-87267200I-225000J0D01*
G01*
X168812400Y-87267200D01*
G75*
G02*
X168587400Y-87042200I0J225000D01*
G01*
X168587400Y-86592200D01*
G75*
G02*
X168812400Y-86367200I225000J0D01*
G01*
G37*
%TD.AperFunction*%
%TD*%
D10*
%TO.P,J1,1*%
%TO.N,Net-(C1-Pad1)*%
X139979400Y-69113400D03*
%TO.P,J1,2*%
%TO.N,VCC*%
X139979400Y-71653400D03*
%TD*%
%TO.P,J2,1*%
%TO.N,/SDA*%
X139925000Y-81319000D03*
%TO.P,J2,2*%
%TO.N,/SCL*%
X137385000Y-81319000D03*
%TO.P,J2,3*%
%TO.N,5V*%
X134845000Y-81319000D03*
%TO.P,J2,4*%
%TO.N,Earth*%
X132305000Y-81319000D03*
%TD*%
%TO.P,J3,1*%
%TO.N,/ANT*%
X176199800Y-92506800D03*
%TD*%
D11*
%TO.P,J4,1*%
%TO.N,/ANT*%
X183070600Y-92710000D03*
%TO.P,J4,2*%
%TO.N,Earth*%
X180521600Y-95260000D03*
%TO.P,J4,3*%
X185620600Y-95260000D03*
%TO.P,J4,4*%
X185620600Y-90160000D03*
%TO.P,J4,5*%
X180521600Y-90160000D03*
%TD*%
%TO.P,R2,1*%
%TO.N,/CS_5V*%
%TA.AperFunction,SMDPad,CuDef*%
G36*
G01*
X176305800Y-85160400D02*
X176855800Y-85160400D01*
G75*
G02*
X177055800Y-85360400I0J-200000D01*
G01*
X177055800Y-85760400D01*
G75*
G02*
X176855800Y-85960400I-200000J0D01*
G01*
X176305800Y-85960400D01*
G75*
G02*
X176105800Y-85760400I0J200000D01*
G01*
X176105800Y-85360400D01*
G75*
G02*
X176305800Y-85160400I200000J0D01*
G01*
G37*
%TD.AperFunction*%
%TO.P,R2,2*%
%TO.N,5V*%
%TA.AperFunction,SMDPad,CuDef*%
G36*
G01*
X176305800Y-86810400D02*
X176855800Y-86810400D01*
G75*
G02*
X177055800Y-87010400I0J-200000D01*
G01*
X177055800Y-87410400D01*
G75*
G02*
X176855800Y-87610400I-200000J0D01*
G01*
X176305800Y-87610400D01*
G75*
G02*
X176105800Y-87410400I0J200000D01*
G01*
X176105800Y-87010400D01*
G75*
G02*
X176305800Y-86810400I200000J0D01*
G01*
G37*
%TD.AperFunction*%
%TD*%
D12*
%TO.P,U1,1*%
%TO.N,Earth*%
X150571200Y-73685400D03*
%TO.P,U1,2*%
%TO.N,+3V3*%
X150571200Y-71385400D03*
%TO.P,U1,3*%
%TO.N,Net-(C1-Pad1)*%
X150571200Y-69085400D03*
D13*
%TO.P,U1,2*%
%TO.N,+3V3*%
X144271200Y-71385400D03*
%TD*%
D14*
%TO.P,U2,1*%
%TO.N,+3V3*%
X172613320Y-74193400D03*
%TO.P,U2,2*%
%TO.N,/MOSI_3V3*%
X172613320Y-75463400D03*
%TO.P,U2,3*%
%TO.N,/MOSI_5V*%
X172613320Y-76733400D03*
%TO.P,U2,4*%
%TO.N,/SCK_3V3*%
X172613320Y-78003400D03*
%TO.P,U2,5*%
%TO.N,/SCK_5V*%
X172613320Y-79273400D03*
%TO.P,U2,6*%
%TO.N,/RST_3V3*%
X172613320Y-80543400D03*
%TO.P,U2,7*%
%TO.N,/RST_5V*%
X172613320Y-81813400D03*
%TO.P,U2,8*%
%TO.N,Earth*%
X172613320Y-83083400D03*
%TO.P,U2,9*%
%TO.N,/CS_5V*%
X178211480Y-83083400D03*
%TO.P,U2,10*%
%TO.N,/CS_3V3*%
X178211480Y-81813400D03*
%TO.P,U2,11*%
%TO.N,Net-(U2-Pad11)*%
X178211480Y-80543400D03*
%TO.P,U2,12*%
%TO.N,Net-(U2-Pad12)*%
X178211480Y-79273400D03*
%TO.P,U2,13*%
%TO.N,N/C*%
X178211480Y-78003400D03*
%TO.P,U2,14*%
%TO.N,Net-(U2-Pad14)*%
X178211480Y-76733400D03*
%TO.P,U2,15*%
%TO.N,Net-(U2-Pad15)*%
X178211480Y-75463400D03*
%TO.P,U2,16*%
%TO.N,N/C*%
X178211480Y-74193400D03*
%TD*%
D15*
%TO.P,U3,1*%
%TO.N,Earth*%
X151201120Y-78524100D03*
%TO.P,U3,2*%
%TO.N,/MISO_3V3*%
X151201120Y-80523080D03*
%TO.P,U3,3*%
%TO.N,/MOSI_3V3*%
X151201120Y-82522060D03*
%TO.P,U3,4*%
%TO.N,/SCK_3V3*%
X151201120Y-84523580D03*
%TO.P,U3,5*%
%TO.N,/CS_3V3*%
X151201120Y-86520020D03*
%TO.P,U3,6*%
%TO.N,/RST_3V3*%
X151201120Y-88521540D03*
%TO.P,U3,7*%
%TO.N,Net-(U3-Pad7)*%
X151201120Y-90520520D03*
%TO.P,U3,8*%
%TO.N,Earth*%
X151201120Y-92519500D03*
%TO.P,U3,9*%
%TO.N,/ANT*%
X166197280Y-92519500D03*
%TO.P,U3,10*%
%TO.N,Earth*%
X166197280Y-90520520D03*
%TO.P,U3,11*%
%TO.N,Net-(U3-Pad11)*%
X166197280Y-88521540D03*
%TO.P,U3,12*%
%TO.N,Net-(U3-Pad12)*%
X166197280Y-86520020D03*
%TO.P,U3,13*%
%TO.N,+3V3*%
X166197280Y-84523580D03*
%TO.P,U3,14*%
%TO.N,Net-(U3-Pad14)*%
X166197280Y-82522060D03*
%TO.P,U3,15*%
%TO.N,Net-(U3-Pad15)*%
X166197280Y-80523080D03*
%TO.P,U3,16*%
%TO.N,Net-(U3-Pad16)*%
X166197280Y-78524100D03*
%TD*%
D16*
%TO.P,B1,3.3V*%
%TO.N,Net-(B1-Pad3.3V)*%
X155040000Y-107930000D03*
%TO.P,B1,5V*%
%TO.N,5V*%
X157580000Y-107930000D03*
%TO.P,B1,A0*%
%TO.N,Net-(B1-PadA0)*%
X170280000Y-107930000D03*
%TO.P,B1,A1*%
%TO.N,Net-(B1-PadA1)*%
X172820000Y-107930000D03*
%TO.P,B1,A2*%
%TO.N,Net-(B1-PadA2)*%
X175360000Y-107930000D03*
%TO.P,B1,A3*%
%TO.N,Net-(B1-PadA3)*%
X177900000Y-107930000D03*
%TO.P,B1,A4*%
%TO.N,Net-(B1-PadA4)*%
X180440000Y-107930000D03*
%TO.P,B1,A5*%
%TO.N,Net-(B1-PadA5)*%
X182980000Y-107930000D03*
%TO.P,B1,AREF*%
%TO.N,Net-(B1-PadAREF)*%
X143356000Y-59670000D03*
%TO.P,B1,D0*%
%TO.N,Net-(B1-PadD0)*%
X182980000Y-59670000D03*
%TO.P,B1,D1*%
%TO.N,Net-(B1-PadD1)*%
X180440000Y-59670000D03*
%TO.P,B1,D2*%
%TO.N,Net-(B1-PadD2)*%
X177900000Y-59670000D03*
%TO.P,B1,D3*%
%TO.N,/RST_5V*%
X175360000Y-59670000D03*
%TO.P,B1,D4*%
%TO.N,/CS_5V*%
X172820000Y-59670000D03*
%TO.P,B1,D5*%
%TO.N,Net-(B1-PadD5)*%
X170280000Y-59670000D03*
%TO.P,B1,D6*%
%TO.N,Net-(B1-PadD6)*%
X167740000Y-59670000D03*
%TO.P,B1,D7*%
%TO.N,Net-(B1-PadD7)*%
X165200000Y-59670000D03*
%TO.P,B1,D8*%
%TO.N,Net-(B1-PadD8)*%
X161136000Y-59670000D03*
%TO.P,B1,D9*%
%TO.N,Net-(B1-PadD9)*%
X158596000Y-59670000D03*
%TO.P,B1,D10*%
%TO.N,Net-(B1-PadD10)*%
X156056000Y-59670000D03*
%TO.P,B1,D11*%
%TO.N,Net-(B1-PadD11)*%
X153516000Y-59670000D03*
%TO.P,B1,D12*%
%TO.N,Net-(B1-PadD12)*%
X150976000Y-59670000D03*
%TO.P,B1,D13*%
%TO.N,Net-(B1-PadD13)*%
X148436000Y-59670000D03*
%TO.P,B1,GND@*%
%TO.N,Earth*%
X160120000Y-107930000D03*
X162660000Y-107930000D03*
X145896000Y-59670000D03*
X185659700Y-85118260D03*
%TO.P,B1,IORE*%
%TO.N,Net-(B1-PadIORE)*%
X149960000Y-107930000D03*
%TO.P,B1,MISO*%
%TO.N,/MISO_5V*%
X183119700Y-80040800D03*
%TO.P,B1,MOSI*%
%TO.N,/MOSI_5V*%
X185659700Y-82580800D03*
%TO.P,B1,NC*%
%TO.N,N/C*%
X147420000Y-107930000D03*
%TO.P,B1,RESE*%
%TO.N,Net-(B1-PadRESE)*%
X152500000Y-107930000D03*
X183119700Y-85118260D03*
%TO.P,B1,SCK*%
%TO.N,/SCK_5V*%
X183119700Y-82580800D03*
%TO.P,B1,SCL*%
%TO.N,/SCL*%
X138276000Y-59670000D03*
%TO.P,B1,SDA*%
%TO.N,/SDA*%
X140816000Y-59670000D03*
%TO.P,B1,VCC*%
%TO.N,VCC*%
X185659700Y-80040800D03*
%TO.P,B1,VIN*%
%TO.N,Net-(B1-PadVIN)*%
X165200000Y-107930000D03*
%TD*%
D17*
%TO.N,5V*%
X181483000Y-76352400D03*
X175107600Y-87604600D03*
%TO.N,Net-(B1-PadRESE)*%
X178485800Y-89128600D03*
X178350902Y-97764600D03*
%TO.N,/RST_5V*%
X174777400Y-85394800D03*
X174015400Y-81889600D03*
X175437800Y-61772800D03*
X175234600Y-64770000D03*
%TO.N,Earth*%
X152654000Y-71843000D03*
X152425400Y-74295000D03*
%TO.N,/MOSI_5V*%
X174523400Y-76733400D03*
X180949600Y-79222600D03*
%TO.N,/SCK_5V*%
X174498000Y-79248000D03*
%TO.N,VCC*%
X183184800Y-77038200D03*
X178562000Y-70993000D03*
%TO.N,+3V3*%
X162407600Y-82753200D03*
X153466800Y-72923400D03*
%TO.N,/MISO_3V3*%
X156210000Y-75184000D03*
%TO.N,/RST_3V3*%
X170484800Y-88722200D03*
X164084000Y-88722200D03*
%TO.N,/CS_3V3*%
X172389800Y-87401400D03*
X163830000Y-87325200D03*
%TD*%
D18*
%TO.N,5V*%
X175119800Y-87210400D02*
X176580800Y-87210400D01*
X175107600Y-87222600D02*
X175119800Y-87210400D01*
X175107600Y-87604600D02*
X175107600Y-87222600D01*
X175095400Y-87210400D02*
X175107600Y-87222600D01*
X173659800Y-87210400D02*
X175095400Y-87210400D01*
X135585000Y-80579000D02*
X134845000Y-81319000D01*
X135585000Y-77978000D02*
X135585000Y-80579000D01*
X144018000Y-81153000D02*
X144018000Y-80594000D01*
X144018000Y-80594000D02*
X141402000Y-77978000D01*
X141859000Y-83312000D02*
X144018000Y-81153000D01*
X136838000Y-83312000D02*
X141859000Y-83312000D01*
X134845000Y-81319000D02*
X136838000Y-83312000D01*
%TO.N,Net-(B1-PadRESE)*%
X152500000Y-107930000D02*
X152500000Y-108837400D01*
X153007801Y-109345201D02*
X166879799Y-109345201D01*
X152500000Y-108837400D02*
X153007801Y-109345201D01*
X166879799Y-109235703D02*
X178350902Y-97764600D01*
X166879799Y-109345201D02*
X166879799Y-109235703D01*
X179109360Y-89128600D02*
X178485800Y-89128600D01*
X183119700Y-85118260D02*
X179109360Y-89128600D01*
%TO.N,/RST_5V*%
X174611800Y-85560400D02*
X174777400Y-85394800D01*
X173659800Y-85560400D02*
X174611800Y-85560400D01*
X172689520Y-81889600D02*
X172613320Y-81813400D01*
X174015400Y-81889600D02*
X172689520Y-81889600D01*
X175360000Y-61695000D02*
X175437800Y-61772800D01*
X175360000Y-59670000D02*
X175360000Y-61695000D01*
X175634599Y-80270401D02*
X174015400Y-81889600D01*
X175634599Y-65169999D02*
X175634599Y-80270401D01*
X175234600Y-64770000D02*
X175634599Y-65169999D01*
%TO.N,/CS_5V*%
X178211480Y-83929720D02*
X176580800Y-85560400D01*
X178211480Y-83083400D02*
X178211480Y-83929720D01*
X178211480Y-83083400D02*
X176885600Y-83083400D01*
X172820000Y-59670000D02*
X172820000Y-61441000D01*
X172820000Y-61441000D02*
X174701200Y-63322200D01*
X174701200Y-63322200D02*
X175768000Y-63322200D01*
X175768000Y-63322200D02*
X176352200Y-63906400D01*
X176352200Y-82323560D02*
X177112040Y-83083400D01*
X177112040Y-83083400D02*
X178211480Y-83083400D01*
X176352200Y-63906400D02*
X176352200Y-82323560D01*
%TO.N,Earth*%
X144119600Y-66471800D02*
X144094200Y-66471800D01*
X145896000Y-64670000D02*
X145896000Y-59670000D01*
X144094200Y-66471800D02*
X145896000Y-64670000D01*
X148260400Y-73685400D02*
X145644200Y-76301600D01*
X150571200Y-73685400D02*
X148260400Y-73685400D01*
X147866700Y-78524100D02*
X145644200Y-76301600D01*
X167107612Y-90520520D02*
X166197280Y-90520520D01*
X169062400Y-88565732D02*
X167107612Y-90520520D01*
X169062400Y-86817200D02*
X169062400Y-88565732D01*
X166557800Y-90160000D02*
X166197280Y-90520520D01*
X180521600Y-90160000D02*
X185620600Y-90160000D01*
X185620600Y-90160000D02*
X185620600Y-95260000D01*
X185620600Y-95260000D02*
X180521600Y-95260000D01*
X180521600Y-95260000D02*
X164805200Y-95260000D01*
X164247409Y-94702209D02*
X164196609Y-94702209D01*
X164805200Y-95260000D02*
X164247409Y-94702209D01*
X164197410Y-90520520D02*
X166197280Y-90520520D01*
X164196609Y-90521321D02*
X164197410Y-90520520D01*
X164196609Y-94702209D02*
X164196609Y-90521321D01*
X151201120Y-92519500D02*
X162198430Y-92519500D01*
X185620600Y-85157360D02*
X185659700Y-85118260D01*
X185620600Y-90160000D02*
X185620600Y-85157360D01*
X162660000Y-92057930D02*
X163490465Y-91227465D01*
X162660000Y-107930000D02*
X162660000Y-92057930D01*
X163490465Y-91227465D02*
X164196609Y-90521321D01*
X162198430Y-92519500D02*
X163490465Y-91227465D01*
X162660000Y-107930000D02*
X160120000Y-107930000D01*
X148348700Y-78524100D02*
X148348700Y-79641700D01*
X151201120Y-78524100D02*
X148348700Y-78524100D01*
X148348700Y-78524100D02*
X147866700Y-78524100D01*
X148348700Y-79641700D02*
X143510000Y-84480400D01*
X135466400Y-84480400D02*
X132305000Y-81319000D01*
X143510000Y-84480400D02*
X135466400Y-84480400D01*
X143510000Y-86828250D02*
X143510000Y-84480400D01*
X149201250Y-92519500D02*
X143510000Y-86828250D01*
X151201120Y-92519500D02*
X149201250Y-92519500D01*
X171196000Y-71386400D02*
X157086000Y-71386400D01*
X150369600Y-64670000D02*
X145896000Y-64670000D01*
X157086000Y-71386400D02*
X150369600Y-64670000D01*
X171383800Y-84312920D02*
X172613320Y-83083400D01*
X171383800Y-90160000D02*
X171383800Y-84312920D01*
X180521600Y-90160000D02*
X171383800Y-90160000D01*
X171383800Y-90160000D02*
X166557800Y-90160000D01*
X153110600Y-71386400D02*
X152654000Y-71843000D01*
X157086000Y-71386400D02*
X153110600Y-71386400D01*
X151180800Y-74295000D02*
X150571200Y-73685400D01*
X152425400Y-74295000D02*
X151180800Y-74295000D01*
%TO.N,/MOSI_5V*%
X172613320Y-76733400D02*
X172613320Y-76763880D01*
X172613320Y-76733400D02*
X174523400Y-76733400D01*
X180949600Y-79222600D02*
X181914800Y-78257400D01*
X186639200Y-78257400D02*
X187426600Y-79044800D01*
X181914800Y-78257400D02*
X186639200Y-78257400D01*
X187426600Y-80813900D02*
X185659700Y-82580800D01*
X187426600Y-79044800D02*
X187426600Y-80813900D01*
%TO.N,/SCK_5V*%
X174472600Y-79273400D02*
X174498000Y-79248000D01*
X172613320Y-79273400D02*
X174472600Y-79273400D01*
D19*
%TO.N,/SCL*%
X137385000Y-81319000D02*
X137385000Y-76120200D01*
D18*
X137385000Y-76296976D02*
X137262112Y-76174088D01*
X137385000Y-81319000D02*
X137385000Y-76296976D01*
X135037590Y-62908410D02*
X138276000Y-59670000D01*
X135037590Y-73949567D02*
X135037590Y-62908410D01*
X137385000Y-76296976D02*
X135037590Y-73949567D01*
%TO.N,/SDA*%
X140816000Y-61647400D02*
X135737600Y-66725800D01*
X140816000Y-59670000D02*
X140816000Y-61647400D01*
X139925000Y-77847014D02*
X139925000Y-81319000D01*
X135737600Y-73659614D02*
X139925000Y-77847014D01*
X135737600Y-66725800D02*
X135737600Y-73659614D01*
%TO.N,VCC*%
X183184800Y-77038200D02*
X183184800Y-75463400D01*
X178714400Y-70993000D02*
X178562000Y-70993000D01*
X183184800Y-75463400D02*
X178714400Y-70993000D01*
%TO.N,Net-(C1-Pad1)*%
X139979400Y-69062000D02*
X142569600Y-66471800D01*
X139979400Y-69113400D02*
X139979400Y-69062000D01*
X142689990Y-66471800D02*
X142569600Y-66471800D01*
X145303590Y-69085400D02*
X142689990Y-66471800D01*
X150571200Y-69085400D02*
X145303590Y-69085400D01*
%TO.N,+3V3*%
X150571200Y-71385400D02*
X144271200Y-71385400D01*
X144094200Y-71562400D02*
X144271200Y-71385400D01*
X144094200Y-76301600D02*
X144094200Y-71562400D01*
X169062400Y-85267200D02*
X169062400Y-85090000D01*
X168495980Y-84523580D02*
X166197280Y-84523580D01*
X169062400Y-85090000D02*
X168495980Y-84523580D01*
X164177980Y-84523580D02*
X162407600Y-82753200D01*
X166197280Y-84523580D02*
X164177980Y-84523580D01*
X152109200Y-72923400D02*
X150571200Y-71385400D01*
X153466800Y-72923400D02*
X152109200Y-72923400D01*
X171183000Y-72923400D02*
X171196000Y-72936400D01*
X153466800Y-72923400D02*
X171183000Y-72923400D01*
X172453000Y-74193400D02*
X171196000Y-72936400D01*
X172613320Y-74193400D02*
X172453000Y-74193400D01*
%TO.N,/ANT*%
X176403000Y-92710000D02*
X176199800Y-92506800D01*
X183070600Y-92710000D02*
X176403000Y-92710000D01*
X176187100Y-92519500D02*
X176199800Y-92506800D01*
X166197280Y-92519500D02*
X176187100Y-92519500D01*
%TO.N,/MISO_3V3*%
X156210000Y-77514070D02*
X156210000Y-75184000D01*
X153200990Y-80523080D02*
X156210000Y-77514070D01*
X151201120Y-80523080D02*
X153200990Y-80523080D01*
%TO.N,/MOSI_3V3*%
X151201120Y-82522060D02*
X153291540Y-82522060D01*
X160350200Y-75463400D02*
X172613320Y-75463400D01*
X153291540Y-82522060D02*
X160350200Y-75463400D01*
%TO.N,/SCK_3V3*%
X151201120Y-84523580D02*
X153144220Y-84523580D01*
X153144220Y-84523580D02*
X161010600Y-76657200D01*
X161010600Y-76657200D02*
X168910000Y-76657200D01*
X170256200Y-78003400D02*
X172613320Y-78003400D01*
X168910000Y-76657200D02*
X170256200Y-78003400D01*
X172613320Y-78003400D02*
X172872400Y-78003400D01*
%TO.N,/RST_3V3*%
X151201120Y-88521540D02*
X153200990Y-88521540D01*
X171513880Y-80543400D02*
X172613320Y-80543400D01*
X170484800Y-81572480D02*
X170484800Y-88722200D01*
X171513880Y-80543400D02*
X170484800Y-81572480D01*
X151401780Y-88722200D02*
X151201120Y-88521540D01*
X164084000Y-88722200D02*
X151401780Y-88722200D01*
%TO.N,/CS_3V3*%
X179260921Y-86804079D02*
X177266600Y-88798400D01*
X179260921Y-82423679D02*
X179260921Y-86804079D01*
X178650642Y-81813400D02*
X179260921Y-82423679D01*
X178211480Y-81813400D02*
X178650642Y-81813400D01*
X177266600Y-88798400D02*
X173126400Y-88798400D01*
X163024820Y-86520020D02*
X151201120Y-86520020D01*
X163830000Y-87325200D02*
X163024820Y-86520020D01*
X173126400Y-88138000D02*
X172389800Y-87401400D01*
X173126400Y-88798400D02*
X173126400Y-88138000D01*
%TD*%
D20*
%TO.N,Earth*%
G36*
X133303239Y-57943671D02*
G01*
X132993671Y-58253239D01*
X132750446Y-58617251D01*
X132582909Y-59021721D01*
X132497500Y-59451103D01*
X132497500Y-59888897D01*
X132582909Y-60318279D01*
X132750446Y-60722749D01*
X132993671Y-61086761D01*
X133303239Y-61396329D01*
X133667251Y-61639554D01*
X134071721Y-61807091D01*
X134501103Y-61892500D01*
X134801922Y-61892500D01*
X134442541Y-62251881D01*
X134408774Y-62279593D01*
X134381061Y-62313361D01*
X134381058Y-62313364D01*
X134298180Y-62414351D01*
X134216002Y-62568097D01*
X134165395Y-62734920D01*
X134148309Y-62908410D01*
X134152591Y-62951889D01*
X134152590Y-73906098D01*
X134148309Y-73949567D01*
X134152590Y-73993033D01*
X134152590Y-73993043D01*
X134165395Y-74123056D01*
X134216001Y-74289879D01*
X134298179Y-74443625D01*
X134408773Y-74578384D01*
X134442546Y-74606101D01*
X136500001Y-76663556D01*
X136500001Y-76990741D01*
X136465225Y-77009329D01*
X136372500Y-77085426D01*
X136279775Y-77009329D01*
X136131642Y-76930150D01*
X135970908Y-76881392D01*
X135803750Y-76864928D01*
X135366250Y-76864928D01*
X135199092Y-76881392D01*
X135038358Y-76930150D01*
X134890225Y-77009329D01*
X134760385Y-77115885D01*
X134653829Y-77245725D01*
X134574650Y-77393858D01*
X134525892Y-77554592D01*
X134509428Y-77721750D01*
X134509428Y-78234250D01*
X134525892Y-78401408D01*
X134574650Y-78562142D01*
X134653829Y-78710275D01*
X134700000Y-78766535D01*
X134700001Y-79744200D01*
X134689896Y-79744200D01*
X134385648Y-79804718D01*
X134099052Y-79923430D01*
X133841123Y-80095773D01*
X133621773Y-80315123D01*
X133530505Y-80451714D01*
X133397476Y-80406129D01*
X132484605Y-81319000D01*
X133397476Y-82231871D01*
X133530505Y-82186286D01*
X133621773Y-82322877D01*
X133841123Y-82542227D01*
X134099052Y-82714570D01*
X134385648Y-82833282D01*
X134689896Y-82893800D01*
X135000104Y-82893800D01*
X135140329Y-82865908D01*
X136181470Y-83907049D01*
X136209183Y-83940817D01*
X136242951Y-83968530D01*
X136242953Y-83968532D01*
X136343941Y-84051411D01*
X136497686Y-84133589D01*
X136647807Y-84179128D01*
X136664510Y-84184195D01*
X136794523Y-84197000D01*
X136794531Y-84197000D01*
X136838000Y-84201281D01*
X136881469Y-84197000D01*
X141815531Y-84197000D01*
X141859000Y-84201281D01*
X141902469Y-84197000D01*
X141902477Y-84197000D01*
X142032490Y-84184195D01*
X142199313Y-84133589D01*
X142353059Y-84051411D01*
X142487817Y-83940817D01*
X142515534Y-83907044D01*
X144613050Y-81809529D01*
X144646817Y-81781817D01*
X144676237Y-81745970D01*
X144747355Y-81659312D01*
X144757411Y-81647059D01*
X144839589Y-81493313D01*
X144890195Y-81326490D01*
X144903000Y-81196477D01*
X144903000Y-81196467D01*
X144907281Y-81153001D01*
X144903000Y-81109534D01*
X144903000Y-80637469D01*
X144907281Y-80594000D01*
X144903000Y-80550531D01*
X144903000Y-80550523D01*
X144890195Y-80420510D01*
X144885645Y-80405510D01*
X144839589Y-80253686D01*
X144757411Y-80099941D01*
X144674532Y-79998953D01*
X144674530Y-79998951D01*
X144646817Y-79965183D01*
X144613049Y-79937470D01*
X142600239Y-77924660D01*
X149063178Y-77924660D01*
X149066250Y-78238350D01*
X149225000Y-78397100D01*
X151074120Y-78397100D01*
X151074120Y-77448410D01*
X151328120Y-77448410D01*
X151328120Y-78397100D01*
X153177240Y-78397100D01*
X153335990Y-78238350D01*
X153339062Y-77924660D01*
X153326802Y-77800178D01*
X153290492Y-77680480D01*
X153231527Y-77570166D01*
X153152175Y-77473475D01*
X153055484Y-77394123D01*
X152945170Y-77335158D01*
X152825472Y-77298848D01*
X152700990Y-77286588D01*
X151486870Y-77289660D01*
X151328120Y-77448410D01*
X151074120Y-77448410D01*
X150915370Y-77289660D01*
X149701250Y-77286588D01*
X149576768Y-77298848D01*
X149457070Y-77335158D01*
X149346756Y-77394123D01*
X149250065Y-77473475D01*
X149170713Y-77570166D01*
X149111748Y-77680480D01*
X149075438Y-77800178D01*
X149063178Y-77924660D01*
X142600239Y-77924660D01*
X142477572Y-77801994D01*
X142477572Y-77721750D01*
X142461108Y-77554592D01*
X142412350Y-77393858D01*
X142333171Y-77245725D01*
X142226615Y-77115885D01*
X142096775Y-77009329D01*
X141948642Y-76930150D01*
X141787908Y-76881392D01*
X141620750Y-76864928D01*
X141183250Y-76864928D01*
X141016092Y-76881392D01*
X140855358Y-76930150D01*
X140707225Y-77009329D01*
X140614500Y-77085426D01*
X140521775Y-77009329D01*
X140373642Y-76930150D01*
X140212908Y-76881392D01*
X140210744Y-76881179D01*
X136622600Y-73293036D01*
X136622600Y-67092378D01*
X141411049Y-62303930D01*
X141444817Y-62276217D01*
X141555411Y-62141459D01*
X141637589Y-61987713D01*
X141688195Y-61820890D01*
X141701000Y-61690877D01*
X141701000Y-61690867D01*
X141705281Y-61647401D01*
X141701000Y-61603935D01*
X141701000Y-61003206D01*
X141836068Y-60912957D01*
X142058957Y-60690068D01*
X142086000Y-60649595D01*
X142113043Y-60690068D01*
X142335932Y-60912957D01*
X142598021Y-61088079D01*
X142889239Y-61208706D01*
X143198394Y-61270200D01*
X143513606Y-61270200D01*
X143822761Y-61208706D01*
X144113979Y-61088079D01*
X144376068Y-60912957D01*
X144508431Y-60780594D01*
X144965011Y-60780594D01*
X145056572Y-61041438D01*
X145340256Y-61178851D01*
X145645296Y-61258279D01*
X145959971Y-61276670D01*
X146272188Y-61233318D01*
X146569948Y-61129888D01*
X146735428Y-61041438D01*
X146826989Y-60780594D01*
X145896000Y-59849605D01*
X144965011Y-60780594D01*
X144508431Y-60780594D01*
X144598957Y-60690068D01*
X144682592Y-60564899D01*
X144785406Y-60600989D01*
X145716395Y-59670000D01*
X146075605Y-59670000D01*
X147006594Y-60600989D01*
X147109408Y-60564899D01*
X147193043Y-60690068D01*
X147415932Y-60912957D01*
X147678021Y-61088079D01*
X147969239Y-61208706D01*
X148278394Y-61270200D01*
X148593606Y-61270200D01*
X148902761Y-61208706D01*
X149193979Y-61088079D01*
X149456068Y-60912957D01*
X149678957Y-60690068D01*
X149706000Y-60649595D01*
X149733043Y-60690068D01*
X149955932Y-60912957D01*
X150218021Y-61088079D01*
X150509239Y-61208706D01*
X150818394Y-61270200D01*
X151133606Y-61270200D01*
X151442761Y-61208706D01*
X151733979Y-61088079D01*
X151996068Y-60912957D01*
X152218957Y-60690068D01*
X152246000Y-60649595D01*
X152273043Y-60690068D01*
X152495932Y-60912957D01*
X152758021Y-61088079D01*
X153049239Y-61208706D01*
X153358394Y-61270200D01*
X153673606Y-61270200D01*
X153982761Y-61208706D01*
X154273979Y-61088079D01*
X154536068Y-60912957D01*
X154758957Y-60690068D01*
X154786000Y-60649595D01*
X154813043Y-60690068D01*
X155035932Y-60912957D01*
X155298021Y-61088079D01*
X155589239Y-61208706D01*
X155898394Y-61270200D01*
X156213606Y-61270200D01*
X156522761Y-61208706D01*
X156813979Y-61088079D01*
X157076068Y-60912957D01*
X157298957Y-60690068D01*
X157326000Y-60649595D01*
X157353043Y-60690068D01*
X157575932Y-60912957D01*
X157838021Y-61088079D01*
X158129239Y-61208706D01*
X158438394Y-61270200D01*
X158753606Y-61270200D01*
X159062761Y-61208706D01*
X159353979Y-61088079D01*
X159616068Y-60912957D01*
X159838957Y-60690068D01*
X159866000Y-60649595D01*
X159893043Y-60690068D01*
X160115932Y-60912957D01*
X160378021Y-61088079D01*
X160669239Y-61208706D01*
X160978394Y-61270200D01*
X161293606Y-61270200D01*
X161602761Y-61208706D01*
X161893979Y-61088079D01*
X162156068Y-60912957D01*
X162378957Y-60690068D01*
X162554079Y-60427979D01*
X162674706Y-60136761D01*
X162736200Y-59827606D01*
X162736200Y-59512394D01*
X162674706Y-59203239D01*
X162554079Y-58912021D01*
X162378957Y-58649932D01*
X162156068Y-58427043D01*
X161893979Y-58251921D01*
X161602761Y-58131294D01*
X161293606Y-58069800D01*
X160978394Y-58069800D01*
X160669239Y-58131294D01*
X160378021Y-58251921D01*
X160115932Y-58427043D01*
X159893043Y-58649932D01*
X159866000Y-58690405D01*
X159838957Y-58649932D01*
X159616068Y-58427043D01*
X159353979Y-58251921D01*
X159062761Y-58131294D01*
X158753606Y-58069800D01*
X158438394Y-58069800D01*
X158129239Y-58131294D01*
X157838021Y-58251921D01*
X157575932Y-58427043D01*
X157353043Y-58649932D01*
X157326000Y-58690405D01*
X157298957Y-58649932D01*
X157076068Y-58427043D01*
X156813979Y-58251921D01*
X156522761Y-58131294D01*
X156213606Y-58069800D01*
X155898394Y-58069800D01*
X155589239Y-58131294D01*
X155298021Y-58251921D01*
X155035932Y-58427043D01*
X154813043Y-58649932D01*
X154786000Y-58690405D01*
X154758957Y-58649932D01*
X154536068Y-58427043D01*
X154273979Y-58251921D01*
X153982761Y-58131294D01*
X153673606Y-58069800D01*
X153358394Y-58069800D01*
X153049239Y-58131294D01*
X152758021Y-58251921D01*
X152495932Y-58427043D01*
X152273043Y-58649932D01*
X152246000Y-58690405D01*
X152218957Y-58649932D01*
X151996068Y-58427043D01*
X151733979Y-58251921D01*
X151442761Y-58131294D01*
X151133606Y-58069800D01*
X150818394Y-58069800D01*
X150509239Y-58131294D01*
X150218021Y-58251921D01*
X149955932Y-58427043D01*
X149733043Y-58649932D01*
X149706000Y-58690405D01*
X149678957Y-58649932D01*
X149456068Y-58427043D01*
X149193979Y-58251921D01*
X148902761Y-58131294D01*
X148593606Y-58069800D01*
X148278394Y-58069800D01*
X147969239Y-58131294D01*
X147678021Y-58251921D01*
X147415932Y-58427043D01*
X147193043Y-58649932D01*
X147109408Y-58775101D01*
X147006594Y-58739011D01*
X146075605Y-59670000D01*
X145716395Y-59670000D01*
X144785406Y-58739011D01*
X144682592Y-58775101D01*
X144598957Y-58649932D01*
X144508431Y-58559406D01*
X144965011Y-58559406D01*
X145896000Y-59490395D01*
X146826989Y-58559406D01*
X146735428Y-58298562D01*
X146451744Y-58161149D01*
X146146704Y-58081721D01*
X145832029Y-58063330D01*
X145519812Y-58106682D01*
X145222052Y-58210112D01*
X145056572Y-58298562D01*
X144965011Y-58559406D01*
X144508431Y-58559406D01*
X144376068Y-58427043D01*
X144113979Y-58251921D01*
X143822761Y-58131294D01*
X143513606Y-58069800D01*
X143198394Y-58069800D01*
X142889239Y-58131294D01*
X142598021Y-58251921D01*
X142335932Y-58427043D01*
X142113043Y-58649932D01*
X142086000Y-58690405D01*
X142058957Y-58649932D01*
X141836068Y-58427043D01*
X141573979Y-58251921D01*
X141282761Y-58131294D01*
X140973606Y-58069800D01*
X140658394Y-58069800D01*
X140349239Y-58131294D01*
X140058021Y-58251921D01*
X139795932Y-58427043D01*
X139573043Y-58649932D01*
X139546000Y-58690405D01*
X139518957Y-58649932D01*
X139296068Y-58427043D01*
X139033979Y-58251921D01*
X138742761Y-58131294D01*
X138433606Y-58069800D01*
X138118394Y-58069800D01*
X137809239Y-58131294D01*
X137518021Y-58251921D01*
X137255932Y-58427043D01*
X137033043Y-58649932D01*
X136857921Y-58912021D01*
X136834786Y-58967873D01*
X136689554Y-58617251D01*
X136446329Y-58253239D01*
X136136761Y-57943671D01*
X135936708Y-57810000D01*
X187427000Y-57810000D01*
X187427000Y-73763633D01*
X187246329Y-73493239D01*
X186936761Y-73183671D01*
X186572749Y-72940446D01*
X186168279Y-72772909D01*
X185738897Y-72687500D01*
X185301103Y-72687500D01*
X184871721Y-72772909D01*
X184467251Y-72940446D01*
X184103239Y-73183671D01*
X183793671Y-73493239D01*
X183550446Y-73857251D01*
X183382909Y-74261721D01*
X183358320Y-74385341D01*
X179481668Y-70508690D01*
X179479205Y-70502744D01*
X179365937Y-70333226D01*
X179221774Y-70189063D01*
X179052256Y-70075795D01*
X178863898Y-69997774D01*
X178663939Y-69958000D01*
X178460061Y-69958000D01*
X178260102Y-69997774D01*
X178071744Y-70075795D01*
X177902226Y-70189063D01*
X177758063Y-70333226D01*
X177644795Y-70502744D01*
X177566774Y-70691102D01*
X177527000Y-70891061D01*
X177527000Y-71094939D01*
X177566774Y-71294898D01*
X177644795Y-71483256D01*
X177758063Y-71652774D01*
X177902226Y-71796937D01*
X178071744Y-71910205D01*
X178260102Y-71988226D01*
X178460061Y-72028000D01*
X178497822Y-72028000D01*
X181856763Y-75386942D01*
X181784898Y-75357174D01*
X181584939Y-75317400D01*
X181381061Y-75317400D01*
X181181102Y-75357174D01*
X180992744Y-75435195D01*
X180823226Y-75548463D01*
X180679063Y-75692626D01*
X180565795Y-75862144D01*
X180487774Y-76050502D01*
X180448000Y-76250461D01*
X180448000Y-76454339D01*
X180487774Y-76654298D01*
X180565795Y-76842656D01*
X180679063Y-77012174D01*
X180823226Y-77156337D01*
X180992744Y-77269605D01*
X181181102Y-77347626D01*
X181381061Y-77387400D01*
X181584939Y-77387400D01*
X181784898Y-77347626D01*
X181973256Y-77269605D01*
X182142774Y-77156337D01*
X182151322Y-77147789D01*
X182189574Y-77340098D01*
X182202954Y-77372400D01*
X181958269Y-77372400D01*
X181914800Y-77368119D01*
X181871331Y-77372400D01*
X181871323Y-77372400D01*
X181756106Y-77383748D01*
X181741309Y-77385205D01*
X181703710Y-77396611D01*
X181574487Y-77435811D01*
X181428073Y-77514070D01*
X181420741Y-77517989D01*
X181319753Y-77600868D01*
X181319751Y-77600870D01*
X181285983Y-77628583D01*
X181258270Y-77662351D01*
X180704557Y-78216065D01*
X180647702Y-78227374D01*
X180459344Y-78305395D01*
X180289826Y-78418663D01*
X180145663Y-78562826D01*
X180032395Y-78732344D01*
X179954374Y-78920702D01*
X179914600Y-79120661D01*
X179914600Y-79324539D01*
X179954374Y-79524498D01*
X180032395Y-79712856D01*
X180145663Y-79882374D01*
X180289826Y-80026537D01*
X180459344Y-80139805D01*
X180647702Y-80217826D01*
X180847661Y-80257600D01*
X181051539Y-80257600D01*
X181251498Y-80217826D01*
X181439856Y-80139805D01*
X181519500Y-80086589D01*
X181519500Y-80198406D01*
X181580994Y-80507561D01*
X181701621Y-80798779D01*
X181876743Y-81060868D01*
X182099632Y-81283757D01*
X182140105Y-81310800D01*
X182099632Y-81337843D01*
X181876743Y-81560732D01*
X181701621Y-81822821D01*
X181580994Y-82114039D01*
X181519500Y-82423194D01*
X181519500Y-82738406D01*
X181580994Y-83047561D01*
X181701621Y-83338779D01*
X181876743Y-83600868D01*
X182099632Y-83823757D01*
X182138204Y-83849530D01*
X182099632Y-83875303D01*
X181876743Y-84098192D01*
X181701621Y-84360281D01*
X181580994Y-84651499D01*
X181519500Y-84960654D01*
X181519500Y-85275866D01*
X181551191Y-85435190D01*
X180146695Y-86839686D01*
X180150202Y-86804079D01*
X180145921Y-86760610D01*
X180145921Y-82467148D01*
X180150202Y-82423679D01*
X180145921Y-82380210D01*
X180145921Y-82380202D01*
X180133116Y-82250189D01*
X180082510Y-82083366D01*
X180000332Y-81929620D01*
X179967487Y-81889599D01*
X179917453Y-81828632D01*
X179917451Y-81828630D01*
X179889738Y-81794862D01*
X179855971Y-81767150D01*
X179418755Y-81329934D01*
X179400422Y-81269500D01*
X179351727Y-81178400D01*
X179400422Y-81087300D01*
X179436732Y-80967602D01*
X179448992Y-80843120D01*
X179448992Y-80243680D01*
X179436732Y-80119198D01*
X179400422Y-79999500D01*
X179351727Y-79908400D01*
X179400422Y-79817300D01*
X179436732Y-79697602D01*
X179448992Y-79573120D01*
X179448992Y-78973680D01*
X179436732Y-78849198D01*
X179400422Y-78729500D01*
X179351727Y-78638400D01*
X179400422Y-78547300D01*
X179436732Y-78427602D01*
X179448992Y-78303120D01*
X179448992Y-77703680D01*
X179436732Y-77579198D01*
X179400422Y-77459500D01*
X179351727Y-77368400D01*
X179400422Y-77277300D01*
X179436732Y-77157602D01*
X179448992Y-77033120D01*
X179448992Y-76433680D01*
X179436732Y-76309198D01*
X179400422Y-76189500D01*
X179351727Y-76098400D01*
X179400422Y-76007300D01*
X179436732Y-75887602D01*
X179448992Y-75763120D01*
X179448992Y-75163680D01*
X179436732Y-75039198D01*
X179400422Y-74919500D01*
X179351727Y-74828400D01*
X179400422Y-74737300D01*
X179436732Y-74617602D01*
X179448992Y-74493120D01*
X179448992Y-73893680D01*
X179436732Y-73769198D01*
X179400422Y-73649500D01*
X179341457Y-73539186D01*
X179262105Y-73442495D01*
X179165414Y-73363143D01*
X179055100Y-73304178D01*
X178935402Y-73267868D01*
X178810920Y-73255608D01*
X177612040Y-73255608D01*
X177487558Y-73267868D01*
X177367860Y-73304178D01*
X177257546Y-73363143D01*
X177237200Y-73379840D01*
X177237200Y-63949869D01*
X177241481Y-63906400D01*
X177237200Y-63862931D01*
X177237200Y-63862923D01*
X177224395Y-63732910D01*
X177198583Y-63647820D01*
X177173789Y-63566086D01*
X177091611Y-63412341D01*
X177083509Y-63402469D01*
X176981017Y-63277583D01*
X176947245Y-63249867D01*
X176424534Y-62727156D01*
X176396817Y-62693383D01*
X176262059Y-62582789D01*
X176150924Y-62523387D01*
X176241737Y-62432574D01*
X176355005Y-62263056D01*
X176433026Y-62074698D01*
X176472800Y-61874739D01*
X176472800Y-61670861D01*
X176433026Y-61470902D01*
X176355005Y-61282544D01*
X176245000Y-61117909D01*
X176245000Y-61003206D01*
X176380068Y-60912957D01*
X176602957Y-60690068D01*
X176630000Y-60649595D01*
X176657043Y-60690068D01*
X176879932Y-60912957D01*
X177142021Y-61088079D01*
X177433239Y-61208706D01*
X177742394Y-61270200D01*
X178057606Y-61270200D01*
X178366761Y-61208706D01*
X178657979Y-61088079D01*
X178920068Y-60912957D01*
X179142957Y-60690068D01*
X179170000Y-60649595D01*
X179197043Y-60690068D01*
X179419932Y-60912957D01*
X179682021Y-61088079D01*
X179973239Y-61208706D01*
X180282394Y-61270200D01*
X180597606Y-61270200D01*
X180906761Y-61208706D01*
X181197979Y-61088079D01*
X181460068Y-60912957D01*
X181682957Y-60690068D01*
X181710000Y-60649595D01*
X181737043Y-60690068D01*
X181959932Y-60912957D01*
X182222021Y-61088079D01*
X182513239Y-61208706D01*
X182822394Y-61270200D01*
X183137606Y-61270200D01*
X183446761Y-61208706D01*
X183737979Y-61088079D01*
X184000068Y-60912957D01*
X184222957Y-60690068D01*
X184398079Y-60427979D01*
X184518706Y-60136761D01*
X184580200Y-59827606D01*
X184580200Y-59512394D01*
X184518706Y-59203239D01*
X184398079Y-58912021D01*
X184222957Y-58649932D01*
X184000068Y-58427043D01*
X183737979Y-58251921D01*
X183446761Y-58131294D01*
X183137606Y-58069800D01*
X182822394Y-58069800D01*
X182513239Y-58131294D01*
X182222021Y-58251921D01*
X181959932Y-58427043D01*
X181737043Y-58649932D01*
X181710000Y-58690405D01*
X181682957Y-58649932D01*
X181460068Y-58427043D01*
X181197979Y-58251921D01*
X180906761Y-58131294D01*
X180597606Y-58069800D01*
X180282394Y-58069800D01*
X179973239Y-58131294D01*
X179682021Y-58251921D01*
X179419932Y-58427043D01*
X179197043Y-58649932D01*
X179170000Y-58690405D01*
X179142957Y-58649932D01*
X178920068Y-58427043D01*
X178657979Y-58251921D01*
X178366761Y-58131294D01*
X178057606Y-58069800D01*
X177742394Y-58069800D01*
X177433239Y-58131294D01*
X177142021Y-58251921D01*
X176879932Y-58427043D01*
X176657043Y-58649932D01*
X176630000Y-58690405D01*
X176602957Y-58649932D01*
X176380068Y-58427043D01*
X176117979Y-58251921D01*
X175826761Y-58131294D01*
X175517606Y-58069800D01*
X175202394Y-58069800D01*
X174893239Y-58131294D01*
X174602021Y-58251921D01*
X174339932Y-58427043D01*
X174117043Y-58649932D01*
X174090000Y-58690405D01*
X174062957Y-58649932D01*
X173840068Y-58427043D01*
X173577979Y-58251921D01*
X173286761Y-58131294D01*
X172977606Y-58069800D01*
X172662394Y-58069800D01*
X172353239Y-58131294D01*
X172062021Y-58251921D01*
X171799932Y-58427043D01*
X171577043Y-58649932D01*
X171550000Y-58690405D01*
X171522957Y-58649932D01*
X171300068Y-58427043D01*
X171037979Y-58251921D01*
X170746761Y-58131294D01*
X170437606Y-58069800D01*
X170122394Y-58069800D01*
X169813239Y-58131294D01*
X169522021Y-58251921D01*
X169259932Y-58427043D01*
X169037043Y-58649932D01*
X169010000Y-58690405D01*
X168982957Y-58649932D01*
X168760068Y-58427043D01*
X168497979Y-58251921D01*
X168206761Y-58131294D01*
X167897606Y-58069800D01*
X167582394Y-58069800D01*
X167273239Y-58131294D01*
X166982021Y-58251921D01*
X166719932Y-58427043D01*
X166497043Y-58649932D01*
X166470000Y-58690405D01*
X166442957Y-58649932D01*
X166220068Y-58427043D01*
X165957979Y-58251921D01*
X165666761Y-58131294D01*
X165357606Y-58069800D01*
X165042394Y-58069800D01*
X164733239Y-58131294D01*
X164442021Y-58251921D01*
X164179932Y-58427043D01*
X163957043Y-58649932D01*
X163781921Y-58912021D01*
X163661294Y-59203239D01*
X163599800Y-59512394D01*
X163599800Y-59827606D01*
X163661294Y-60136761D01*
X163781921Y-60427979D01*
X163957043Y-60690068D01*
X164179932Y-60912957D01*
X164442021Y-61088079D01*
X164733239Y-61208706D01*
X165042394Y-61270200D01*
X165357606Y-61270200D01*
X165666761Y-61208706D01*
X165957979Y-61088079D01*
X166220068Y-60912957D01*
X166442957Y-60690068D01*
X166470000Y-60649595D01*
X166497043Y-60690068D01*
X166719932Y-60912957D01*
X166982021Y-61088079D01*
X167273239Y-61208706D01*
X167582394Y-61270200D01*
X167897606Y-61270200D01*
X168206761Y-61208706D01*
X168497979Y-61088079D01*
X168760068Y-60912957D01*
X168982957Y-60690068D01*
X169010000Y-60649595D01*
X169037043Y-60690068D01*
X169259932Y-60912957D01*
X169522021Y-61088079D01*
X169813239Y-61208706D01*
X170122394Y-61270200D01*
X170437606Y-61270200D01*
X170746761Y-61208706D01*
X171037979Y-61088079D01*
X171300068Y-60912957D01*
X171522957Y-60690068D01*
X171550000Y-60649595D01*
X171577043Y-60690068D01*
X171799932Y-60912957D01*
X171935001Y-61003207D01*
X171935001Y-61397521D01*
X171930719Y-61441000D01*
X171947805Y-61614490D01*
X171998412Y-61781313D01*
X172080590Y-61935059D01*
X172163468Y-62036046D01*
X172163471Y-62036049D01*
X172191184Y-62069817D01*
X172224951Y-62097529D01*
X174044670Y-63917249D01*
X174072383Y-63951017D01*
X174106151Y-63978730D01*
X174106153Y-63978732D01*
X174207141Y-64061611D01*
X174360886Y-64143789D01*
X174400257Y-64155732D01*
X174317395Y-64279744D01*
X174239374Y-64468102D01*
X174199600Y-64668061D01*
X174199600Y-64871939D01*
X174239374Y-65071898D01*
X174317395Y-65260256D01*
X174430663Y-65429774D01*
X174574826Y-65573937D01*
X174744344Y-65687205D01*
X174749599Y-65689382D01*
X174749600Y-75723117D01*
X174625339Y-75698400D01*
X174421461Y-75698400D01*
X174221502Y-75738174D01*
X174033144Y-75816195D01*
X173984946Y-75848400D01*
X173842433Y-75848400D01*
X173850832Y-75763120D01*
X173850832Y-75163680D01*
X173838572Y-75039198D01*
X173802262Y-74919500D01*
X173753567Y-74828400D01*
X173802262Y-74737300D01*
X173838572Y-74617602D01*
X173850832Y-74493120D01*
X173850832Y-73893680D01*
X173838572Y-73769198D01*
X173802262Y-73649500D01*
X173743297Y-73539186D01*
X173663945Y-73442495D01*
X173567254Y-73363143D01*
X173456940Y-73304178D01*
X173337242Y-73267868D01*
X173212760Y-73255608D01*
X172766787Y-73255608D01*
X172309072Y-72797894D01*
X172309072Y-72711400D01*
X172292488Y-72543023D01*
X172243375Y-72381117D01*
X172165300Y-72235049D01*
X172201537Y-72190894D01*
X172260502Y-72080580D01*
X172296812Y-71960882D01*
X172309072Y-71836400D01*
X172306000Y-71672150D01*
X172147250Y-71513400D01*
X171323000Y-71513400D01*
X171323000Y-71533400D01*
X171069000Y-71533400D01*
X171069000Y-71513400D01*
X170244750Y-71513400D01*
X170086000Y-71672150D01*
X170082928Y-71836400D01*
X170095188Y-71960882D01*
X170118703Y-72038400D01*
X154005254Y-72038400D01*
X153957056Y-72006195D01*
X153768698Y-71928174D01*
X153568739Y-71888400D01*
X153364861Y-71888400D01*
X153164902Y-71928174D01*
X152976544Y-72006195D01*
X152928346Y-72038400D01*
X152475779Y-72038400D01*
X152084272Y-71646893D01*
X152084272Y-70936400D01*
X170082928Y-70936400D01*
X170086000Y-71100650D01*
X170244750Y-71259400D01*
X171069000Y-71259400D01*
X171069000Y-70460150D01*
X171323000Y-70460150D01*
X171323000Y-71259400D01*
X172147250Y-71259400D01*
X172306000Y-71100650D01*
X172309072Y-70936400D01*
X172296812Y-70811918D01*
X172260502Y-70692220D01*
X172201537Y-70581906D01*
X172122185Y-70485215D01*
X172025494Y-70405863D01*
X171915180Y-70346898D01*
X171795482Y-70310588D01*
X171671000Y-70298328D01*
X171481750Y-70301400D01*
X171323000Y-70460150D01*
X171069000Y-70460150D01*
X170910250Y-70301400D01*
X170721000Y-70298328D01*
X170596518Y-70310588D01*
X170476820Y-70346898D01*
X170366506Y-70405863D01*
X170269815Y-70485215D01*
X170190463Y-70581906D01*
X170131498Y-70692220D01*
X170095188Y-70811918D01*
X170082928Y-70936400D01*
X152084272Y-70936400D01*
X152084272Y-70910400D01*
X152072012Y-70785918D01*
X152035702Y-70666220D01*
X151976737Y-70555906D01*
X151897385Y-70459215D01*
X151800694Y-70379863D01*
X151690380Y-70320898D01*
X151570682Y-70284588D01*
X151446200Y-70272328D01*
X149696200Y-70272328D01*
X149571718Y-70284588D01*
X149452020Y-70320898D01*
X149341706Y-70379863D01*
X149245015Y-70459215D01*
X149211215Y-70500400D01*
X145784272Y-70500400D01*
X145784272Y-69970400D01*
X149211215Y-69970400D01*
X149245015Y-70011585D01*
X149341706Y-70090937D01*
X149452020Y-70149902D01*
X149571718Y-70186212D01*
X149696200Y-70198472D01*
X151446200Y-70198472D01*
X151570682Y-70186212D01*
X151690380Y-70149902D01*
X151800694Y-70090937D01*
X151897385Y-70011585D01*
X151976737Y-69914894D01*
X152035702Y-69804580D01*
X152072012Y-69684882D01*
X152084272Y-69560400D01*
X152084272Y-68610400D01*
X152072012Y-68485918D01*
X152035702Y-68366220D01*
X151976737Y-68255906D01*
X151897385Y-68159215D01*
X151800694Y-68079863D01*
X151690380Y-68020898D01*
X151570682Y-67984588D01*
X151446200Y-67972328D01*
X149696200Y-67972328D01*
X149571718Y-67984588D01*
X149452020Y-68020898D01*
X149341706Y-68079863D01*
X149245015Y-68159215D01*
X149211215Y-68200400D01*
X145670169Y-68200400D01*
X144936733Y-67466964D01*
X145020785Y-67397985D01*
X145100137Y-67301294D01*
X145159102Y-67190980D01*
X145195412Y-67071282D01*
X145207672Y-66946800D01*
X145204600Y-66757550D01*
X145045850Y-66598800D01*
X144246600Y-66598800D01*
X144246600Y-66618800D01*
X144088568Y-66618800D01*
X143972600Y-66502832D01*
X143972600Y-66344800D01*
X143992600Y-66344800D01*
X143992600Y-65520550D01*
X144246600Y-65520550D01*
X144246600Y-66344800D01*
X145045850Y-66344800D01*
X145204600Y-66186050D01*
X145207672Y-65996800D01*
X145195412Y-65872318D01*
X145159102Y-65752620D01*
X145100137Y-65642306D01*
X145020785Y-65545615D01*
X144924094Y-65466263D01*
X144813780Y-65407298D01*
X144694082Y-65370988D01*
X144569600Y-65358728D01*
X144405350Y-65361800D01*
X144246600Y-65520550D01*
X143992600Y-65520550D01*
X143833850Y-65361800D01*
X143669600Y-65358728D01*
X143545118Y-65370988D01*
X143425420Y-65407298D01*
X143315106Y-65466263D01*
X143270951Y-65502500D01*
X143124883Y-65424425D01*
X142962977Y-65375312D01*
X142794600Y-65358728D01*
X142344600Y-65358728D01*
X142176223Y-65375312D01*
X142014317Y-65424425D01*
X141865103Y-65504182D01*
X141734316Y-65611516D01*
X141626982Y-65742303D01*
X141547225Y-65891517D01*
X141498112Y-66053423D01*
X141481528Y-66221800D01*
X141481528Y-66308293D01*
X140231857Y-67557965D01*
X140134504Y-67538600D01*
X139824296Y-67538600D01*
X139520048Y-67599118D01*
X139233452Y-67717830D01*
X138975523Y-67890173D01*
X138756173Y-68109523D01*
X138583830Y-68367452D01*
X138465118Y-68654048D01*
X138404600Y-68958296D01*
X138404600Y-69268504D01*
X138465118Y-69572752D01*
X138583830Y-69859348D01*
X138756173Y-70117277D01*
X138975523Y-70336627D01*
X139045524Y-70383400D01*
X138975523Y-70430173D01*
X138756173Y-70649523D01*
X138583830Y-70907452D01*
X138465118Y-71194048D01*
X138404600Y-71498296D01*
X138404600Y-71808504D01*
X138465118Y-72112752D01*
X138583830Y-72399348D01*
X138756173Y-72657277D01*
X138975523Y-72876627D01*
X139233452Y-73048970D01*
X139520048Y-73167682D01*
X139824296Y-73228200D01*
X140134504Y-73228200D01*
X140438752Y-73167682D01*
X140725348Y-73048970D01*
X140983277Y-72876627D01*
X141202627Y-72657277D01*
X141374970Y-72399348D01*
X141493682Y-72112752D01*
X141554200Y-71808504D01*
X141554200Y-71498296D01*
X141493682Y-71194048D01*
X141374970Y-70907452D01*
X141202627Y-70649523D01*
X140983277Y-70430173D01*
X140913276Y-70383400D01*
X140983277Y-70336627D01*
X141202627Y-70117277D01*
X141374970Y-69859348D01*
X141493682Y-69572752D01*
X141554200Y-69268504D01*
X141554200Y-68958296D01*
X141517780Y-68775198D01*
X142629795Y-67663183D01*
X144113939Y-69147328D01*
X143396200Y-69147328D01*
X143271718Y-69159588D01*
X143152020Y-69195898D01*
X143041706Y-69254863D01*
X142945015Y-69334215D01*
X142865663Y-69430906D01*
X142806698Y-69541220D01*
X142770388Y-69660918D01*
X142758128Y-69785400D01*
X142758128Y-72985400D01*
X142770388Y-73109882D01*
X142806698Y-73229580D01*
X142865663Y-73339894D01*
X142945015Y-73436585D01*
X143041706Y-73515937D01*
X143152020Y-73574902D01*
X143209201Y-73592248D01*
X143209200Y-75501895D01*
X143151582Y-75572103D01*
X143071825Y-75721317D01*
X143022712Y-75883223D01*
X143006128Y-76051600D01*
X143006128Y-76551600D01*
X143022712Y-76719977D01*
X143071825Y-76881883D01*
X143151582Y-77031097D01*
X143258916Y-77161884D01*
X143389703Y-77269218D01*
X143538917Y-77348975D01*
X143700823Y-77398088D01*
X143869200Y-77414672D01*
X144319200Y-77414672D01*
X144487577Y-77398088D01*
X144649483Y-77348975D01*
X144795551Y-77270900D01*
X144839706Y-77307137D01*
X144950020Y-77366102D01*
X145069718Y-77402412D01*
X145194200Y-77414672D01*
X145358450Y-77411600D01*
X145517200Y-77252850D01*
X145517200Y-76428600D01*
X145771200Y-76428600D01*
X145771200Y-77252850D01*
X145929950Y-77411600D01*
X146094200Y-77414672D01*
X146218682Y-77402412D01*
X146338380Y-77366102D01*
X146448694Y-77307137D01*
X146545385Y-77227785D01*
X146624737Y-77131094D01*
X146683702Y-77020780D01*
X146720012Y-76901082D01*
X146732272Y-76776600D01*
X146729200Y-76587350D01*
X146570450Y-76428600D01*
X145771200Y-76428600D01*
X145517200Y-76428600D01*
X145497200Y-76428600D01*
X145497200Y-76174600D01*
X145517200Y-76174600D01*
X145517200Y-75350350D01*
X145771200Y-75350350D01*
X145771200Y-76174600D01*
X146570450Y-76174600D01*
X146729200Y-76015850D01*
X146732272Y-75826600D01*
X146720012Y-75702118D01*
X146683702Y-75582420D01*
X146624737Y-75472106D01*
X146545385Y-75375415D01*
X146448694Y-75296063D01*
X146338380Y-75237098D01*
X146218682Y-75200788D01*
X146094200Y-75188528D01*
X145929950Y-75191600D01*
X145771200Y-75350350D01*
X145517200Y-75350350D01*
X145358450Y-75191600D01*
X145194200Y-75188528D01*
X145069718Y-75200788D01*
X144979200Y-75228246D01*
X144979200Y-74160400D01*
X149058128Y-74160400D01*
X149070388Y-74284882D01*
X149106698Y-74404580D01*
X149165663Y-74514894D01*
X149245015Y-74611585D01*
X149341706Y-74690937D01*
X149452020Y-74749902D01*
X149571718Y-74786212D01*
X149696200Y-74798472D01*
X150285450Y-74795400D01*
X150444200Y-74636650D01*
X150444200Y-73812400D01*
X149219950Y-73812400D01*
X149061200Y-73971150D01*
X149058128Y-74160400D01*
X144979200Y-74160400D01*
X144979200Y-73623472D01*
X145146200Y-73623472D01*
X145270682Y-73611212D01*
X145390380Y-73574902D01*
X145500694Y-73515937D01*
X145597385Y-73436585D01*
X145676737Y-73339894D01*
X145735702Y-73229580D01*
X145772012Y-73109882D01*
X145784272Y-72985400D01*
X145784272Y-72270400D01*
X149211215Y-72270400D01*
X149245015Y-72311585D01*
X149341706Y-72390937D01*
X149452020Y-72449902D01*
X149571718Y-72486212D01*
X149696200Y-72498472D01*
X150432694Y-72498472D01*
X150509622Y-72575400D01*
X150444198Y-72575400D01*
X150444198Y-72734148D01*
X150285450Y-72575400D01*
X149696200Y-72572328D01*
X149571718Y-72584588D01*
X149452020Y-72620898D01*
X149341706Y-72679863D01*
X149245015Y-72759215D01*
X149165663Y-72855906D01*
X149106698Y-72966220D01*
X149070388Y-73085918D01*
X149058128Y-73210400D01*
X149061200Y-73399650D01*
X149219950Y-73558400D01*
X150444200Y-73558400D01*
X150444200Y-73538400D01*
X150698200Y-73538400D01*
X150698200Y-73558400D01*
X150718200Y-73558400D01*
X150718200Y-73812400D01*
X150698200Y-73812400D01*
X150698200Y-74636650D01*
X150856950Y-74795400D01*
X151446200Y-74798472D01*
X151570682Y-74786212D01*
X151690380Y-74749902D01*
X151800694Y-74690937D01*
X151897385Y-74611585D01*
X151976737Y-74514894D01*
X152035702Y-74404580D01*
X152072012Y-74284882D01*
X152084272Y-74160400D01*
X152081200Y-73971150D01*
X151922452Y-73812402D01*
X152081200Y-73812402D01*
X152081200Y-73809923D01*
X152109199Y-73812681D01*
X152152665Y-73808400D01*
X152928346Y-73808400D01*
X152976544Y-73840605D01*
X153164902Y-73918626D01*
X153364861Y-73958400D01*
X153568739Y-73958400D01*
X153768698Y-73918626D01*
X153957056Y-73840605D01*
X154005254Y-73808400D01*
X170380455Y-73808400D01*
X170466503Y-73879018D01*
X170615717Y-73958775D01*
X170777623Y-74007888D01*
X170946000Y-74024472D01*
X171032494Y-74024472D01*
X171375808Y-74367787D01*
X171375808Y-74493120D01*
X171384207Y-74578400D01*
X160393669Y-74578400D01*
X160350200Y-74574119D01*
X160306731Y-74578400D01*
X160306723Y-74578400D01*
X160176710Y-74591205D01*
X160009887Y-74641811D01*
X159924485Y-74687459D01*
X159856141Y-74723989D01*
X159755153Y-74806868D01*
X159755151Y-74806870D01*
X159721383Y-74834583D01*
X159693670Y-74868351D01*
X157095000Y-77467021D01*
X157095000Y-75722454D01*
X157127205Y-75674256D01*
X157205226Y-75485898D01*
X157245000Y-75285939D01*
X157245000Y-75082061D01*
X157205226Y-74882102D01*
X157127205Y-74693744D01*
X157013937Y-74524226D01*
X156869774Y-74380063D01*
X156700256Y-74266795D01*
X156511898Y-74188774D01*
X156311939Y-74149000D01*
X156108061Y-74149000D01*
X155908102Y-74188774D01*
X155719744Y-74266795D01*
X155550226Y-74380063D01*
X155406063Y-74524226D01*
X155292795Y-74693744D01*
X155214774Y-74882102D01*
X155175000Y-75082061D01*
X155175000Y-75285939D01*
X155214774Y-75485898D01*
X155292795Y-75674256D01*
X155325001Y-75722455D01*
X155325000Y-77147491D01*
X153337982Y-79134510D01*
X153339062Y-79123540D01*
X153335990Y-78809850D01*
X153177240Y-78651100D01*
X151328120Y-78651100D01*
X151328120Y-78671100D01*
X151074120Y-78671100D01*
X151074120Y-78651100D01*
X149225000Y-78651100D01*
X149066250Y-78809850D01*
X149063178Y-79123540D01*
X149075438Y-79248022D01*
X149111748Y-79367720D01*
X149170713Y-79478034D01*
X149208100Y-79523590D01*
X149170713Y-79569146D01*
X149111748Y-79679460D01*
X149075438Y-79799158D01*
X149063178Y-79923640D01*
X149063178Y-81122520D01*
X149075438Y-81247002D01*
X149111748Y-81366700D01*
X149170713Y-81477014D01*
X149208100Y-81522570D01*
X149170713Y-81568126D01*
X149111748Y-81678440D01*
X149075438Y-81798138D01*
X149063178Y-81922620D01*
X149063178Y-83121500D01*
X149075438Y-83245982D01*
X149111748Y-83365680D01*
X149170713Y-83475994D01*
X149209142Y-83522820D01*
X149170713Y-83569646D01*
X149111748Y-83679960D01*
X149075438Y-83799658D01*
X149063178Y-83924140D01*
X149063178Y-85123020D01*
X149075438Y-85247502D01*
X149111748Y-85367200D01*
X149170713Y-85477514D01*
X149207057Y-85521800D01*
X149170713Y-85566086D01*
X149111748Y-85676400D01*
X149075438Y-85796098D01*
X149063178Y-85920580D01*
X149063178Y-87119460D01*
X149075438Y-87243942D01*
X149111748Y-87363640D01*
X149170713Y-87473954D01*
X149209142Y-87520780D01*
X149170713Y-87567606D01*
X149111748Y-87677920D01*
X149075438Y-87797618D01*
X149063178Y-87922100D01*
X149063178Y-89120980D01*
X149075438Y-89245462D01*
X149111748Y-89365160D01*
X149170713Y-89475474D01*
X149208100Y-89521030D01*
X149170713Y-89566586D01*
X149111748Y-89676900D01*
X149075438Y-89796598D01*
X149063178Y-89921080D01*
X149063178Y-91119960D01*
X149075438Y-91244442D01*
X149111748Y-91364140D01*
X149170713Y-91474454D01*
X149208100Y-91520010D01*
X149170713Y-91565566D01*
X149111748Y-91675880D01*
X149075438Y-91795578D01*
X149063178Y-91920060D01*
X149066250Y-92233750D01*
X149225000Y-92392500D01*
X151074120Y-92392500D01*
X151074120Y-92372500D01*
X151328120Y-92372500D01*
X151328120Y-92392500D01*
X153177240Y-92392500D01*
X153335990Y-92233750D01*
X153339062Y-91920060D01*
X153326802Y-91795578D01*
X153290492Y-91675880D01*
X153231527Y-91565566D01*
X153194140Y-91520010D01*
X153231527Y-91474454D01*
X153290492Y-91364140D01*
X153326802Y-91244442D01*
X153339062Y-91119960D01*
X164059338Y-91119960D01*
X164071598Y-91244442D01*
X164107908Y-91364140D01*
X164166873Y-91474454D01*
X164204260Y-91520010D01*
X164166873Y-91565566D01*
X164107908Y-91675880D01*
X164071598Y-91795578D01*
X164059338Y-91920060D01*
X164059338Y-93118940D01*
X164071598Y-93243422D01*
X164107908Y-93363120D01*
X164166873Y-93473434D01*
X164246225Y-93570125D01*
X164342916Y-93649477D01*
X164453230Y-93708442D01*
X164572928Y-93744752D01*
X164697410Y-93757012D01*
X167697150Y-93757012D01*
X167821632Y-93744752D01*
X167941330Y-93708442D01*
X168051644Y-93649477D01*
X168148335Y-93570125D01*
X168227687Y-93473434D01*
X168264534Y-93404500D01*
X174905628Y-93404500D01*
X174976573Y-93510677D01*
X175195923Y-93730027D01*
X175453852Y-93902370D01*
X175740448Y-94021082D01*
X176044696Y-94081600D01*
X176354904Y-94081600D01*
X176659152Y-94021082D01*
X176945748Y-93902370D01*
X177203677Y-93730027D01*
X177338704Y-93595000D01*
X179575524Y-93595000D01*
X179498716Y-93636055D01*
X179369790Y-93928585D01*
X180521600Y-95080395D01*
X180535743Y-95066253D01*
X180715348Y-95245858D01*
X180701205Y-95260000D01*
X181853015Y-96411810D01*
X182145545Y-96282884D01*
X182313896Y-95946414D01*
X182413371Y-95583565D01*
X182440145Y-95208282D01*
X182393191Y-94834985D01*
X182274313Y-94478022D01*
X182253384Y-94438867D01*
X182513473Y-94546600D01*
X182882481Y-94620000D01*
X183258719Y-94620000D01*
X183627727Y-94546600D01*
X183897774Y-94434743D01*
X183828304Y-94573586D01*
X183728829Y-94936435D01*
X183702055Y-95311718D01*
X183749009Y-95685015D01*
X183867887Y-96041978D01*
X183996655Y-96282884D01*
X184289185Y-96411810D01*
X185440995Y-95260000D01*
X185426853Y-95245858D01*
X185606458Y-95066253D01*
X185620600Y-95080395D01*
X186772410Y-93928585D01*
X186643484Y-93636055D01*
X186307014Y-93467704D01*
X185944165Y-93368229D01*
X185568882Y-93341455D01*
X185195585Y-93388409D01*
X184838622Y-93507287D01*
X184798935Y-93528500D01*
X184907200Y-93267127D01*
X184980600Y-92898119D01*
X184980600Y-92521881D01*
X184907200Y-92152873D01*
X184795343Y-91882826D01*
X184934186Y-91952296D01*
X185297035Y-92051771D01*
X185672318Y-92078545D01*
X186045615Y-92031591D01*
X186402578Y-91912713D01*
X186643484Y-91783945D01*
X186772410Y-91491415D01*
X185620600Y-90339605D01*
X185606458Y-90353748D01*
X185426853Y-90174143D01*
X185440995Y-90160000D01*
X184289185Y-89008190D01*
X183996655Y-89137116D01*
X183828304Y-89473586D01*
X183728829Y-89836435D01*
X183702055Y-90211718D01*
X183749009Y-90585015D01*
X183867887Y-90941978D01*
X183889100Y-90981665D01*
X183627727Y-90873400D01*
X183258719Y-90800000D01*
X182882481Y-90800000D01*
X182513473Y-90873400D01*
X182244688Y-90984735D01*
X182313896Y-90846414D01*
X182413371Y-90483565D01*
X182440145Y-90108282D01*
X182393191Y-89734985D01*
X182274313Y-89378022D01*
X182145545Y-89137116D01*
X181853015Y-89008190D01*
X180701205Y-90160000D01*
X180715348Y-90174143D01*
X180535743Y-90353748D01*
X180521600Y-90339605D01*
X179369790Y-91491415D01*
X179498716Y-91783945D01*
X179580769Y-91825000D01*
X177621941Y-91825000D01*
X177595370Y-91760852D01*
X177423027Y-91502923D01*
X177203677Y-91283573D01*
X176945748Y-91111230D01*
X176659152Y-90992518D01*
X176354904Y-90932000D01*
X176044696Y-90932000D01*
X175740448Y-90992518D01*
X175453852Y-91111230D01*
X175195923Y-91283573D01*
X174976573Y-91502923D01*
X174888656Y-91634500D01*
X168264534Y-91634500D01*
X168227687Y-91565566D01*
X168190300Y-91520010D01*
X168227687Y-91474454D01*
X168286652Y-91364140D01*
X168322962Y-91244442D01*
X168335222Y-91119960D01*
X168332150Y-90806270D01*
X168173400Y-90647520D01*
X166324280Y-90647520D01*
X166324280Y-90667520D01*
X166070280Y-90667520D01*
X166070280Y-90647520D01*
X164221160Y-90647520D01*
X164062410Y-90806270D01*
X164059338Y-91119960D01*
X153339062Y-91119960D01*
X153339062Y-89921080D01*
X153326802Y-89796598D01*
X153290492Y-89676900D01*
X153253236Y-89607200D01*
X163545546Y-89607200D01*
X163593744Y-89639405D01*
X163782102Y-89717426D01*
X163982061Y-89757200D01*
X164083549Y-89757200D01*
X164071598Y-89796598D01*
X164059338Y-89921080D01*
X164062410Y-90234770D01*
X164221160Y-90393520D01*
X166070280Y-90393520D01*
X166070280Y-90373520D01*
X166324280Y-90373520D01*
X166324280Y-90393520D01*
X168173400Y-90393520D01*
X168332150Y-90234770D01*
X168335222Y-89921080D01*
X168322962Y-89796598D01*
X168286652Y-89676900D01*
X168227687Y-89566586D01*
X168190300Y-89521030D01*
X168227687Y-89475474D01*
X168286652Y-89365160D01*
X168322962Y-89245462D01*
X168335222Y-89120980D01*
X168335222Y-87922100D01*
X168327979Y-87848555D01*
X168343220Y-87856702D01*
X168462918Y-87893012D01*
X168587400Y-87905272D01*
X168776650Y-87902200D01*
X168935400Y-87743450D01*
X168935400Y-86944200D01*
X168915400Y-86944200D01*
X168915400Y-86690200D01*
X168935400Y-86690200D01*
X168935400Y-86670200D01*
X169189400Y-86670200D01*
X169189400Y-86690200D01*
X169209400Y-86690200D01*
X169209400Y-86944200D01*
X169189400Y-86944200D01*
X169189400Y-87743450D01*
X169348150Y-87902200D01*
X169537400Y-87905272D01*
X169599801Y-87899126D01*
X169599801Y-88183744D01*
X169567595Y-88231944D01*
X169489574Y-88420302D01*
X169449800Y-88620261D01*
X169449800Y-88824139D01*
X169489574Y-89024098D01*
X169567595Y-89212456D01*
X169680863Y-89381974D01*
X169825026Y-89526137D01*
X169994544Y-89639405D01*
X170182902Y-89717426D01*
X170382861Y-89757200D01*
X170586739Y-89757200D01*
X170786698Y-89717426D01*
X170975056Y-89639405D01*
X171144574Y-89526137D01*
X171288737Y-89381974D01*
X171402005Y-89212456D01*
X171480026Y-89024098D01*
X171519800Y-88824139D01*
X171519800Y-88620261D01*
X171480026Y-88420302D01*
X171402005Y-88231944D01*
X171369800Y-88183746D01*
X171369800Y-87578750D01*
X171394574Y-87703298D01*
X171472595Y-87891656D01*
X171585863Y-88061174D01*
X171730026Y-88205337D01*
X171899544Y-88318605D01*
X172087902Y-88396626D01*
X172144756Y-88407935D01*
X172241400Y-88504579D01*
X172241400Y-88754923D01*
X172237118Y-88798400D01*
X172254205Y-88971890D01*
X172304811Y-89138713D01*
X172386989Y-89292459D01*
X172457792Y-89378732D01*
X172497583Y-89427217D01*
X172632341Y-89537811D01*
X172786087Y-89619989D01*
X172952910Y-89670595D01*
X173126400Y-89687682D01*
X173169876Y-89683400D01*
X177223131Y-89683400D01*
X177266600Y-89687681D01*
X177310069Y-89683400D01*
X177310077Y-89683400D01*
X177440090Y-89670595D01*
X177575682Y-89629463D01*
X177681863Y-89788374D01*
X177826026Y-89932537D01*
X177995544Y-90045805D01*
X178183902Y-90123826D01*
X178383861Y-90163600D01*
X178587739Y-90163600D01*
X178606758Y-90159817D01*
X178603055Y-90211718D01*
X178650009Y-90585015D01*
X178768887Y-90941978D01*
X178897655Y-91182884D01*
X179190185Y-91311810D01*
X180341995Y-90160000D01*
X180327853Y-90145858D01*
X180507458Y-89966253D01*
X180521600Y-89980395D01*
X181673410Y-88828585D01*
X184468790Y-88828585D01*
X185620600Y-89980395D01*
X186772410Y-88828585D01*
X186643484Y-88536055D01*
X186307014Y-88367704D01*
X185944165Y-88268229D01*
X185568882Y-88241455D01*
X185195585Y-88288409D01*
X184838622Y-88407287D01*
X184597716Y-88536055D01*
X184468790Y-88828585D01*
X181673410Y-88828585D01*
X181544484Y-88536055D01*
X181208014Y-88367704D01*
X181140377Y-88349161D01*
X182802770Y-86686769D01*
X182962094Y-86718460D01*
X183277306Y-86718460D01*
X183586461Y-86656966D01*
X183877679Y-86536339D01*
X184139768Y-86361217D01*
X184272131Y-86228854D01*
X184728711Y-86228854D01*
X184820272Y-86489698D01*
X185103956Y-86627111D01*
X185408996Y-86706539D01*
X185723671Y-86724930D01*
X186035888Y-86681578D01*
X186333648Y-86578148D01*
X186499128Y-86489698D01*
X186590689Y-86228854D01*
X185659700Y-85297865D01*
X184728711Y-86228854D01*
X184272131Y-86228854D01*
X184362657Y-86138328D01*
X184446292Y-86013159D01*
X184549106Y-86049249D01*
X185480095Y-85118260D01*
X185839305Y-85118260D01*
X186770294Y-86049249D01*
X187031138Y-85957688D01*
X187168551Y-85674004D01*
X187247979Y-85368964D01*
X187266370Y-85054289D01*
X187223018Y-84742072D01*
X187119588Y-84444312D01*
X187031138Y-84278832D01*
X186770294Y-84187271D01*
X185839305Y-85118260D01*
X185480095Y-85118260D01*
X184549106Y-84187271D01*
X184446292Y-84223361D01*
X184362657Y-84098192D01*
X184139768Y-83875303D01*
X184101196Y-83849530D01*
X184139768Y-83823757D01*
X184362657Y-83600868D01*
X184389700Y-83560395D01*
X184416743Y-83600868D01*
X184639632Y-83823757D01*
X184764078Y-83906909D01*
X184728711Y-84007666D01*
X185659700Y-84938655D01*
X186590689Y-84007666D01*
X186555322Y-83906909D01*
X186679768Y-83823757D01*
X186902657Y-83600868D01*
X187077779Y-83338779D01*
X187198406Y-83047561D01*
X187259900Y-82738406D01*
X187259900Y-82423194D01*
X187228209Y-82263870D01*
X187427000Y-82065078D01*
X187427001Y-89539233D01*
X187373313Y-89378022D01*
X187244545Y-89137116D01*
X186952015Y-89008190D01*
X185800205Y-90160000D01*
X186952015Y-91311810D01*
X187244545Y-91182884D01*
X187412896Y-90846414D01*
X187427001Y-90794965D01*
X187427001Y-94639234D01*
X187373313Y-94478022D01*
X187244545Y-94237116D01*
X186952015Y-94108190D01*
X185800205Y-95260000D01*
X186952015Y-96411810D01*
X187244545Y-96282884D01*
X187412896Y-95946414D01*
X187427001Y-95894965D01*
X187427001Y-101703634D01*
X187246329Y-101433239D01*
X186936761Y-101123671D01*
X186572749Y-100880446D01*
X186168279Y-100712909D01*
X185738897Y-100627500D01*
X185301103Y-100627500D01*
X184871721Y-100712909D01*
X184467251Y-100880446D01*
X184103239Y-101123671D01*
X183793671Y-101433239D01*
X183550446Y-101797251D01*
X183382909Y-102201721D01*
X183297500Y-102631103D01*
X183297500Y-103068897D01*
X183382909Y-103498279D01*
X183550446Y-103902749D01*
X183793671Y-104266761D01*
X184103239Y-104576329D01*
X184467251Y-104819554D01*
X184871721Y-104987091D01*
X185301103Y-105072500D01*
X185738897Y-105072500D01*
X186168279Y-104987091D01*
X186572749Y-104819554D01*
X186936761Y-104576329D01*
X187246329Y-104266761D01*
X187427001Y-103996366D01*
X187427001Y-109830000D01*
X167624160Y-109830000D01*
X167701388Y-109685514D01*
X167710019Y-109657061D01*
X168808374Y-108558706D01*
X168861921Y-108687979D01*
X169037043Y-108950068D01*
X169259932Y-109172957D01*
X169522021Y-109348079D01*
X169813239Y-109468706D01*
X170122394Y-109530200D01*
X170437606Y-109530200D01*
X170746761Y-109468706D01*
X171037979Y-109348079D01*
X171300068Y-109172957D01*
X171522957Y-108950068D01*
X171550000Y-108909595D01*
X171577043Y-108950068D01*
X171799932Y-109172957D01*
X172062021Y-109348079D01*
X172353239Y-109468706D01*
X172662394Y-109530200D01*
X172977606Y-109530200D01*
X173286761Y-109468706D01*
X173577979Y-109348079D01*
X173840068Y-109172957D01*
X174062957Y-108950068D01*
X174090000Y-108909595D01*
X174117043Y-108950068D01*
X174339932Y-109172957D01*
X174602021Y-109348079D01*
X174893239Y-109468706D01*
X175202394Y-109530200D01*
X175517606Y-109530200D01*
X175826761Y-109468706D01*
X176117979Y-109348079D01*
X176380068Y-109172957D01*
X176602957Y-108950068D01*
X176630000Y-108909595D01*
X176657043Y-108950068D01*
X176879932Y-109172957D01*
X177142021Y-109348079D01*
X177433239Y-109468706D01*
X177742394Y-109530200D01*
X178057606Y-109530200D01*
X178366761Y-109468706D01*
X178657979Y-109348079D01*
X178920068Y-109172957D01*
X179142957Y-108950068D01*
X179170000Y-108909595D01*
X179197043Y-108950068D01*
X179419932Y-109172957D01*
X179682021Y-109348079D01*
X179973239Y-109468706D01*
X180282394Y-109530200D01*
X180597606Y-109530200D01*
X180906761Y-109468706D01*
X181197979Y-109348079D01*
X181460068Y-109172957D01*
X181682957Y-108950068D01*
X181710000Y-108909595D01*
X181737043Y-108950068D01*
X181959932Y-109172957D01*
X182222021Y-109348079D01*
X182513239Y-109468706D01*
X182822394Y-109530200D01*
X183137606Y-109530200D01*
X183446761Y-109468706D01*
X183737979Y-109348079D01*
X184000068Y-109172957D01*
X184222957Y-108950068D01*
X184398079Y-108687979D01*
X184518706Y-108396761D01*
X184580200Y-108087606D01*
X184580200Y-107772394D01*
X184518706Y-107463239D01*
X184398079Y-107172021D01*
X184222957Y-106909932D01*
X184000068Y-106687043D01*
X183737979Y-106511921D01*
X183446761Y-106391294D01*
X183137606Y-106329800D01*
X182822394Y-106329800D01*
X182513239Y-106391294D01*
X182222021Y-106511921D01*
X181959932Y-106687043D01*
X181737043Y-106909932D01*
X181710000Y-106950405D01*
X181682957Y-106909932D01*
X181460068Y-106687043D01*
X181197979Y-106511921D01*
X180906761Y-106391294D01*
X180597606Y-106329800D01*
X180282394Y-106329800D01*
X179973239Y-106391294D01*
X179682021Y-106511921D01*
X179419932Y-106687043D01*
X179197043Y-106909932D01*
X179170000Y-106950405D01*
X179142957Y-106909932D01*
X178920068Y-106687043D01*
X178657979Y-106511921D01*
X178366761Y-106391294D01*
X178057606Y-106329800D01*
X177742394Y-106329800D01*
X177433239Y-106391294D01*
X177142021Y-106511921D01*
X176879932Y-106687043D01*
X176657043Y-106909932D01*
X176630000Y-106950405D01*
X176602957Y-106909932D01*
X176380068Y-106687043D01*
X176117979Y-106511921D01*
X175826761Y-106391294D01*
X175517606Y-106329800D01*
X175202394Y-106329800D01*
X174893239Y-106391294D01*
X174602021Y-106511921D01*
X174339932Y-106687043D01*
X174117043Y-106909932D01*
X174090000Y-106950405D01*
X174062957Y-106909932D01*
X173840068Y-106687043D01*
X173577979Y-106511921D01*
X173286761Y-106391294D01*
X172977606Y-106329800D01*
X172662394Y-106329800D01*
X172353239Y-106391294D01*
X172062021Y-106511921D01*
X171799932Y-106687043D01*
X171577043Y-106909932D01*
X171550000Y-106950405D01*
X171522957Y-106909932D01*
X171300068Y-106687043D01*
X171037979Y-106511921D01*
X170908706Y-106458374D01*
X178595946Y-98771135D01*
X178652800Y-98759826D01*
X178841158Y-98681805D01*
X179010676Y-98568537D01*
X179154839Y-98424374D01*
X179268107Y-98254856D01*
X179346128Y-98066498D01*
X179385902Y-97866539D01*
X179385902Y-97662661D01*
X179346128Y-97462702D01*
X179268107Y-97274344D01*
X179154839Y-97104826D01*
X179010676Y-96960663D01*
X178841158Y-96847395D01*
X178652800Y-96769374D01*
X178452841Y-96729600D01*
X178248963Y-96729600D01*
X178049004Y-96769374D01*
X177860646Y-96847395D01*
X177691128Y-96960663D01*
X177546965Y-97104826D01*
X177433697Y-97274344D01*
X177355676Y-97462702D01*
X177344367Y-97519556D01*
X166800200Y-108063724D01*
X166800200Y-107772394D01*
X166738706Y-107463239D01*
X166618079Y-107172021D01*
X166442957Y-106909932D01*
X166220068Y-106687043D01*
X165957979Y-106511921D01*
X165666761Y-106391294D01*
X165357606Y-106329800D01*
X165042394Y-106329800D01*
X164733239Y-106391294D01*
X164442021Y-106511921D01*
X164179932Y-106687043D01*
X163957043Y-106909932D01*
X163873408Y-107035101D01*
X163770594Y-106999011D01*
X162839605Y-107930000D01*
X162853748Y-107944143D01*
X162674143Y-108123748D01*
X162660000Y-108109605D01*
X162645858Y-108123748D01*
X162466253Y-107944143D01*
X162480395Y-107930000D01*
X161549406Y-106999011D01*
X161390000Y-107054965D01*
X161230594Y-106999011D01*
X160299605Y-107930000D01*
X160313748Y-107944143D01*
X160134143Y-108123748D01*
X160120000Y-108109605D01*
X160105858Y-108123748D01*
X159926253Y-107944143D01*
X159940395Y-107930000D01*
X159009406Y-106999011D01*
X158906592Y-107035101D01*
X158822957Y-106909932D01*
X158732431Y-106819406D01*
X159189011Y-106819406D01*
X160120000Y-107750395D01*
X161050989Y-106819406D01*
X161729011Y-106819406D01*
X162660000Y-107750395D01*
X163590989Y-106819406D01*
X163499428Y-106558562D01*
X163215744Y-106421149D01*
X162910704Y-106341721D01*
X162596029Y-106323330D01*
X162283812Y-106366682D01*
X161986052Y-106470112D01*
X161820572Y-106558562D01*
X161729011Y-106819406D01*
X161050989Y-106819406D01*
X160959428Y-106558562D01*
X160675744Y-106421149D01*
X160370704Y-106341721D01*
X160056029Y-106323330D01*
X159743812Y-106366682D01*
X159446052Y-106470112D01*
X159280572Y-106558562D01*
X159189011Y-106819406D01*
X158732431Y-106819406D01*
X158600068Y-106687043D01*
X158337979Y-106511921D01*
X158046761Y-106391294D01*
X157737606Y-106329800D01*
X157422394Y-106329800D01*
X157113239Y-106391294D01*
X156822021Y-106511921D01*
X156559932Y-106687043D01*
X156337043Y-106909932D01*
X156310000Y-106950405D01*
X156282957Y-106909932D01*
X156060068Y-106687043D01*
X155797979Y-106511921D01*
X155506761Y-106391294D01*
X155197606Y-106329800D01*
X154882394Y-106329800D01*
X154573239Y-106391294D01*
X154282021Y-106511921D01*
X154019932Y-106687043D01*
X153797043Y-106909932D01*
X153770000Y-106950405D01*
X153742957Y-106909932D01*
X153520068Y-106687043D01*
X153257979Y-106511921D01*
X152966761Y-106391294D01*
X152657606Y-106329800D01*
X152342394Y-106329800D01*
X152033239Y-106391294D01*
X151742021Y-106511921D01*
X151479932Y-106687043D01*
X151257043Y-106909932D01*
X151230000Y-106950405D01*
X151202957Y-106909932D01*
X150980068Y-106687043D01*
X150717979Y-106511921D01*
X150426761Y-106391294D01*
X150117606Y-106329800D01*
X149802394Y-106329800D01*
X149493239Y-106391294D01*
X149202021Y-106511921D01*
X148939932Y-106687043D01*
X148717043Y-106909932D01*
X148690000Y-106950405D01*
X148662957Y-106909932D01*
X148440068Y-106687043D01*
X148177979Y-106511921D01*
X147886761Y-106391294D01*
X147577606Y-106329800D01*
X147262394Y-106329800D01*
X146953239Y-106391294D01*
X146662021Y-106511921D01*
X146399932Y-106687043D01*
X146177043Y-106909932D01*
X146001921Y-107172021D01*
X145881294Y-107463239D01*
X145819800Y-107772394D01*
X145819800Y-108087606D01*
X145881294Y-108396761D01*
X146001921Y-108687979D01*
X146177043Y-108950068D01*
X146399932Y-109172957D01*
X146662021Y-109348079D01*
X146953239Y-109468706D01*
X147262394Y-109530200D01*
X147577606Y-109530200D01*
X147886761Y-109468706D01*
X148177979Y-109348079D01*
X148440068Y-109172957D01*
X148662957Y-108950068D01*
X148690000Y-108909595D01*
X148717043Y-108950068D01*
X148939932Y-109172957D01*
X149202021Y-109348079D01*
X149493239Y-109468706D01*
X149802394Y-109530200D01*
X150117606Y-109530200D01*
X150426761Y-109468706D01*
X150717979Y-109348079D01*
X150980068Y-109172957D01*
X151202957Y-108950068D01*
X151230000Y-108909595D01*
X151257043Y-108950068D01*
X151479932Y-109172957D01*
X151742021Y-109348079D01*
X151790817Y-109368291D01*
X151843468Y-109432446D01*
X151843471Y-109432449D01*
X151871184Y-109466217D01*
X151904952Y-109493930D01*
X152241022Y-109830000D01*
X135890000Y-109830000D01*
X135890000Y-105537000D01*
X135887560Y-105512224D01*
X135880333Y-105488399D01*
X135868597Y-105466443D01*
X135852803Y-105447197D01*
X135833557Y-105431403D01*
X135811601Y-105419667D01*
X135787776Y-105412440D01*
X135763000Y-105410000D01*
X131851000Y-105410000D01*
X131851000Y-98203418D01*
X131854193Y-98171000D01*
X131841450Y-98041617D01*
X131826000Y-97990686D01*
X131826000Y-97790000D01*
X131823560Y-97765224D01*
X131816333Y-97741399D01*
X131804597Y-97719443D01*
X131788803Y-97700197D01*
X131769557Y-97684403D01*
X131747601Y-97672667D01*
X131723776Y-97665440D01*
X131699000Y-97663000D01*
X131612363Y-97663000D01*
X131559450Y-97619575D01*
X131444793Y-97558290D01*
X131320383Y-97520550D01*
X131223419Y-97511000D01*
X131191000Y-97507807D01*
X131158581Y-97511000D01*
X123698000Y-97511000D01*
X123698000Y-96591415D01*
X179369790Y-96591415D01*
X179498716Y-96883945D01*
X179835186Y-97052296D01*
X180198035Y-97151771D01*
X180573318Y-97178545D01*
X180946615Y-97131591D01*
X181303578Y-97012713D01*
X181544484Y-96883945D01*
X181673410Y-96591415D01*
X184468790Y-96591415D01*
X184597716Y-96883945D01*
X184934186Y-97052296D01*
X185297035Y-97151771D01*
X185672318Y-97178545D01*
X186045615Y-97131591D01*
X186402578Y-97012713D01*
X186643484Y-96883945D01*
X186772410Y-96591415D01*
X185620600Y-95439605D01*
X184468790Y-96591415D01*
X181673410Y-96591415D01*
X180521600Y-95439605D01*
X179369790Y-96591415D01*
X123698000Y-96591415D01*
X123698000Y-95311718D01*
X178603055Y-95311718D01*
X178650009Y-95685015D01*
X178768887Y-96041978D01*
X178897655Y-96282884D01*
X179190185Y-96411810D01*
X180341995Y-95260000D01*
X179190185Y-94108190D01*
X178897655Y-94237116D01*
X178729304Y-94573586D01*
X178629829Y-94936435D01*
X178603055Y-95311718D01*
X123698000Y-95311718D01*
X123698000Y-93118940D01*
X149063178Y-93118940D01*
X149075438Y-93243422D01*
X149111748Y-93363120D01*
X149170713Y-93473434D01*
X149250065Y-93570125D01*
X149346756Y-93649477D01*
X149457070Y-93708442D01*
X149576768Y-93744752D01*
X149701250Y-93757012D01*
X150915370Y-93753940D01*
X151074120Y-93595190D01*
X151074120Y-92646500D01*
X151328120Y-92646500D01*
X151328120Y-93595190D01*
X151486870Y-93753940D01*
X152700990Y-93757012D01*
X152825472Y-93744752D01*
X152945170Y-93708442D01*
X153055484Y-93649477D01*
X153152175Y-93570125D01*
X153231527Y-93473434D01*
X153290492Y-93363120D01*
X153326802Y-93243422D01*
X153339062Y-93118940D01*
X153335990Y-92805250D01*
X153177240Y-92646500D01*
X151328120Y-92646500D01*
X151074120Y-92646500D01*
X149225000Y-92646500D01*
X149066250Y-92805250D01*
X149063178Y-93118940D01*
X123698000Y-93118940D01*
X123698000Y-82411476D01*
X131392129Y-82411476D01*
X131480623Y-82669723D01*
X131759976Y-82804597D01*
X132060275Y-82882381D01*
X132369977Y-82900084D01*
X132677184Y-82857027D01*
X132970086Y-82754865D01*
X133129377Y-82669723D01*
X133217871Y-82411476D01*
X132305000Y-81498605D01*
X131392129Y-82411476D01*
X123698000Y-82411476D01*
X123698000Y-81383977D01*
X130723916Y-81383977D01*
X130766973Y-81691184D01*
X130869135Y-81984086D01*
X130954277Y-82143377D01*
X131212524Y-82231871D01*
X132125395Y-81319000D01*
X131212524Y-80406129D01*
X130954277Y-80494623D01*
X130819403Y-80773976D01*
X130741619Y-81074275D01*
X130723916Y-81383977D01*
X123698000Y-81383977D01*
X123698000Y-80226524D01*
X131392129Y-80226524D01*
X132305000Y-81139395D01*
X133217871Y-80226524D01*
X133129377Y-79968277D01*
X132850024Y-79833403D01*
X132549725Y-79755619D01*
X132240023Y-79737916D01*
X131932816Y-79780973D01*
X131639914Y-79883135D01*
X131480623Y-79968277D01*
X131392129Y-80226524D01*
X123698000Y-80226524D01*
X123698000Y-79248000D01*
X129794000Y-79248000D01*
X129818776Y-79245560D01*
X129842601Y-79238333D01*
X129864557Y-79226597D01*
X129883803Y-79210803D01*
X129899597Y-79191557D01*
X129911333Y-79169601D01*
X129918560Y-79145776D01*
X129921000Y-79121000D01*
X129921000Y-78539314D01*
X129936450Y-78488383D01*
X129949193Y-78359000D01*
X129946000Y-78326581D01*
X129946000Y-66453418D01*
X129949193Y-66421000D01*
X129936450Y-66291617D01*
X129921000Y-66240686D01*
X129921000Y-66167000D01*
X129918560Y-66142224D01*
X129911333Y-66118399D01*
X129899597Y-66096443D01*
X129883803Y-66077197D01*
X129864557Y-66061403D01*
X129842601Y-66049667D01*
X129832559Y-66046621D01*
X129754948Y-65952052D01*
X129654450Y-65869575D01*
X129539793Y-65808290D01*
X129415383Y-65770550D01*
X129318419Y-65761000D01*
X129286000Y-65757807D01*
X129253581Y-65761000D01*
X120167000Y-65761000D01*
X120167000Y-57810000D01*
X133503292Y-57810000D01*
X133303239Y-57943671D01*
G37*
X133303239Y-57943671D02*
X132993671Y-58253239D01*
X132750446Y-58617251D01*
X132582909Y-59021721D01*
X132497500Y-59451103D01*
X132497500Y-59888897D01*
X132582909Y-60318279D01*
X132750446Y-60722749D01*
X132993671Y-61086761D01*
X133303239Y-61396329D01*
X133667251Y-61639554D01*
X134071721Y-61807091D01*
X134501103Y-61892500D01*
X134801922Y-61892500D01*
X134442541Y-62251881D01*
X134408774Y-62279593D01*
X134381061Y-62313361D01*
X134381058Y-62313364D01*
X134298180Y-62414351D01*
X134216002Y-62568097D01*
X134165395Y-62734920D01*
X134148309Y-62908410D01*
X134152591Y-62951889D01*
X134152590Y-73906098D01*
X134148309Y-73949567D01*
X134152590Y-73993033D01*
X134152590Y-73993043D01*
X134165395Y-74123056D01*
X134216001Y-74289879D01*
X134298179Y-74443625D01*
X134408773Y-74578384D01*
X134442546Y-74606101D01*
X136500001Y-76663556D01*
X136500001Y-76990741D01*
X136465225Y-77009329D01*
X136372500Y-77085426D01*
X136279775Y-77009329D01*
X136131642Y-76930150D01*
X135970908Y-76881392D01*
X135803750Y-76864928D01*
X135366250Y-76864928D01*
X135199092Y-76881392D01*
X135038358Y-76930150D01*
X134890225Y-77009329D01*
X134760385Y-77115885D01*
X134653829Y-77245725D01*
X134574650Y-77393858D01*
X134525892Y-77554592D01*
X134509428Y-77721750D01*
X134509428Y-78234250D01*
X134525892Y-78401408D01*
X134574650Y-78562142D01*
X134653829Y-78710275D01*
X134700000Y-78766535D01*
X134700001Y-79744200D01*
X134689896Y-79744200D01*
X134385648Y-79804718D01*
X134099052Y-79923430D01*
X133841123Y-80095773D01*
X133621773Y-80315123D01*
X133530505Y-80451714D01*
X133397476Y-80406129D01*
X132484605Y-81319000D01*
X133397476Y-82231871D01*
X133530505Y-82186286D01*
X133621773Y-82322877D01*
X133841123Y-82542227D01*
X134099052Y-82714570D01*
X134385648Y-82833282D01*
X134689896Y-82893800D01*
X135000104Y-82893800D01*
X135140329Y-82865908D01*
X136181470Y-83907049D01*
X136209183Y-83940817D01*
X136242951Y-83968530D01*
X136242953Y-83968532D01*
X136343941Y-84051411D01*
X136497686Y-84133589D01*
X136647807Y-84179128D01*
X136664510Y-84184195D01*
X136794523Y-84197000D01*
X136794531Y-84197000D01*
X136838000Y-84201281D01*
X136881469Y-84197000D01*
X141815531Y-84197000D01*
X141859000Y-84201281D01*
X141902469Y-84197000D01*
X141902477Y-84197000D01*
X142032490Y-84184195D01*
X142199313Y-84133589D01*
X142353059Y-84051411D01*
X142487817Y-83940817D01*
X142515534Y-83907044D01*
X144613050Y-81809529D01*
X144646817Y-81781817D01*
X144676237Y-81745970D01*
X144747355Y-81659312D01*
X144757411Y-81647059D01*
X144839589Y-81493313D01*
X144890195Y-81326490D01*
X144903000Y-81196477D01*
X144903000Y-81196467D01*
X144907281Y-81153001D01*
X144903000Y-81109534D01*
X144903000Y-80637469D01*
X144907281Y-80594000D01*
X144903000Y-80550531D01*
X144903000Y-80550523D01*
X144890195Y-80420510D01*
X144885645Y-80405510D01*
X144839589Y-80253686D01*
X144757411Y-80099941D01*
X144674532Y-79998953D01*
X144674530Y-79998951D01*
X144646817Y-79965183D01*
X144613049Y-79937470D01*
X142600239Y-77924660D01*
X149063178Y-77924660D01*
X149066250Y-78238350D01*
X149225000Y-78397100D01*
X151074120Y-78397100D01*
X151074120Y-77448410D01*
X151328120Y-77448410D01*
X151328120Y-78397100D01*
X153177240Y-78397100D01*
X153335990Y-78238350D01*
X153339062Y-77924660D01*
X153326802Y-77800178D01*
X153290492Y-77680480D01*
X153231527Y-77570166D01*
X153152175Y-77473475D01*
X153055484Y-77394123D01*
X152945170Y-77335158D01*
X152825472Y-77298848D01*
X152700990Y-77286588D01*
X151486870Y-77289660D01*
X151328120Y-77448410D01*
X151074120Y-77448410D01*
X150915370Y-77289660D01*
X149701250Y-77286588D01*
X149576768Y-77298848D01*
X149457070Y-77335158D01*
X149346756Y-77394123D01*
X149250065Y-77473475D01*
X149170713Y-77570166D01*
X149111748Y-77680480D01*
X149075438Y-77800178D01*
X149063178Y-77924660D01*
X142600239Y-77924660D01*
X142477572Y-77801994D01*
X142477572Y-77721750D01*
X142461108Y-77554592D01*
X142412350Y-77393858D01*
X142333171Y-77245725D01*
X142226615Y-77115885D01*
X142096775Y-77009329D01*
X141948642Y-76930150D01*
X141787908Y-76881392D01*
X141620750Y-76864928D01*
X141183250Y-76864928D01*
X141016092Y-76881392D01*
X140855358Y-76930150D01*
X140707225Y-77009329D01*
X140614500Y-77085426D01*
X140521775Y-77009329D01*
X140373642Y-76930150D01*
X140212908Y-76881392D01*
X140210744Y-76881179D01*
X136622600Y-73293036D01*
X136622600Y-67092378D01*
X141411049Y-62303930D01*
X141444817Y-62276217D01*
X141555411Y-62141459D01*
X141637589Y-61987713D01*
X141688195Y-61820890D01*
X141701000Y-61690877D01*
X141701000Y-61690867D01*
X141705281Y-61647401D01*
X141701000Y-61603935D01*
X141701000Y-61003206D01*
X141836068Y-60912957D01*
X142058957Y-60690068D01*
X142086000Y-60649595D01*
X142113043Y-60690068D01*
X142335932Y-60912957D01*
X142598021Y-61088079D01*
X142889239Y-61208706D01*
X143198394Y-61270200D01*
X143513606Y-61270200D01*
X143822761Y-61208706D01*
X144113979Y-61088079D01*
X144376068Y-60912957D01*
X144508431Y-60780594D01*
X144965011Y-60780594D01*
X145056572Y-61041438D01*
X145340256Y-61178851D01*
X145645296Y-61258279D01*
X145959971Y-61276670D01*
X146272188Y-61233318D01*
X146569948Y-61129888D01*
X146735428Y-61041438D01*
X146826989Y-60780594D01*
X145896000Y-59849605D01*
X144965011Y-60780594D01*
X144508431Y-60780594D01*
X144598957Y-60690068D01*
X144682592Y-60564899D01*
X144785406Y-60600989D01*
X145716395Y-59670000D01*
X146075605Y-59670000D01*
X147006594Y-60600989D01*
X147109408Y-60564899D01*
X147193043Y-60690068D01*
X147415932Y-60912957D01*
X147678021Y-61088079D01*
X147969239Y-61208706D01*
X148278394Y-61270200D01*
X148593606Y-61270200D01*
X148902761Y-61208706D01*
X149193979Y-61088079D01*
X149456068Y-60912957D01*
X149678957Y-60690068D01*
X149706000Y-60649595D01*
X149733043Y-60690068D01*
X149955932Y-60912957D01*
X150218021Y-61088079D01*
X150509239Y-61208706D01*
X150818394Y-61270200D01*
X151133606Y-61270200D01*
X151442761Y-61208706D01*
X151733979Y-61088079D01*
X151996068Y-60912957D01*
X152218957Y-60690068D01*
X152246000Y-60649595D01*
X152273043Y-60690068D01*
X152495932Y-60912957D01*
X152758021Y-61088079D01*
X153049239Y-61208706D01*
X153358394Y-61270200D01*
X153673606Y-61270200D01*
X153982761Y-61208706D01*
X154273979Y-61088079D01*
X154536068Y-60912957D01*
X154758957Y-60690068D01*
X154786000Y-60649595D01*
X154813043Y-60690068D01*
X155035932Y-60912957D01*
X155298021Y-61088079D01*
X155589239Y-61208706D01*
X155898394Y-61270200D01*
X156213606Y-61270200D01*
X156522761Y-61208706D01*
X156813979Y-61088079D01*
X157076068Y-60912957D01*
X157298957Y-60690068D01*
X157326000Y-60649595D01*
X157353043Y-60690068D01*
X157575932Y-60912957D01*
X157838021Y-61088079D01*
X158129239Y-61208706D01*
X158438394Y-61270200D01*
X158753606Y-61270200D01*
X159062761Y-61208706D01*
X159353979Y-61088079D01*
X159616068Y-60912957D01*
X159838957Y-60690068D01*
X159866000Y-60649595D01*
X159893043Y-60690068D01*
X160115932Y-60912957D01*
X160378021Y-61088079D01*
X160669239Y-61208706D01*
X160978394Y-61270200D01*
X161293606Y-61270200D01*
X161602761Y-61208706D01*
X161893979Y-61088079D01*
X162156068Y-60912957D01*
X162378957Y-60690068D01*
X162554079Y-60427979D01*
X162674706Y-60136761D01*
X162736200Y-59827606D01*
X162736200Y-59512394D01*
X162674706Y-59203239D01*
X162554079Y-58912021D01*
X162378957Y-58649932D01*
X162156068Y-58427043D01*
X161893979Y-58251921D01*
X161602761Y-58131294D01*
X161293606Y-58069800D01*
X160978394Y-58069800D01*
X160669239Y-58131294D01*
X160378021Y-58251921D01*
X160115932Y-58427043D01*
X159893043Y-58649932D01*
X159866000Y-58690405D01*
X159838957Y-58649932D01*
X159616068Y-58427043D01*
X159353979Y-58251921D01*
X159062761Y-58131294D01*
X158753606Y-58069800D01*
X158438394Y-58069800D01*
X158129239Y-58131294D01*
X157838021Y-58251921D01*
X157575932Y-58427043D01*
X157353043Y-58649932D01*
X157326000Y-58690405D01*
X157298957Y-58649932D01*
X157076068Y-58427043D01*
X156813979Y-58251921D01*
X156522761Y-58131294D01*
X156213606Y-58069800D01*
X155898394Y-58069800D01*
X155589239Y-58131294D01*
X155298021Y-58251921D01*
X155035932Y-58427043D01*
X154813043Y-58649932D01*
X154786000Y-58690405D01*
X154758957Y-58649932D01*
X154536068Y-58427043D01*
X154273979Y-58251921D01*
X153982761Y-58131294D01*
X153673606Y-58069800D01*
X153358394Y-58069800D01*
X153049239Y-58131294D01*
X152758021Y-58251921D01*
X152495932Y-58427043D01*
X152273043Y-58649932D01*
X152246000Y-58690405D01*
X152218957Y-58649932D01*
X151996068Y-58427043D01*
X151733979Y-58251921D01*
X151442761Y-58131294D01*
X151133606Y-58069800D01*
X150818394Y-58069800D01*
X150509239Y-58131294D01*
X150218021Y-58251921D01*
X149955932Y-58427043D01*
X149733043Y-58649932D01*
X149706000Y-58690405D01*
X149678957Y-58649932D01*
X149456068Y-58427043D01*
X149193979Y-58251921D01*
X148902761Y-58131294D01*
X148593606Y-58069800D01*
X148278394Y-58069800D01*
X147969239Y-58131294D01*
X147678021Y-58251921D01*
X147415932Y-58427043D01*
X147193043Y-58649932D01*
X147109408Y-58775101D01*
X147006594Y-58739011D01*
X146075605Y-59670000D01*
X145716395Y-59670000D01*
X144785406Y-58739011D01*
X144682592Y-58775101D01*
X144598957Y-58649932D01*
X144508431Y-58559406D01*
X144965011Y-58559406D01*
X145896000Y-59490395D01*
X146826989Y-58559406D01*
X146735428Y-58298562D01*
X146451744Y-58161149D01*
X146146704Y-58081721D01*
X145832029Y-58063330D01*
X145519812Y-58106682D01*
X145222052Y-58210112D01*
X145056572Y-58298562D01*
X144965011Y-58559406D01*
X144508431Y-58559406D01*
X144376068Y-58427043D01*
X144113979Y-58251921D01*
X143822761Y-58131294D01*
X143513606Y-58069800D01*
X143198394Y-58069800D01*
X142889239Y-58131294D01*
X142598021Y-58251921D01*
X142335932Y-58427043D01*
X142113043Y-58649932D01*
X142086000Y-58690405D01*
X142058957Y-58649932D01*
X141836068Y-58427043D01*
X141573979Y-58251921D01*
X141282761Y-58131294D01*
X140973606Y-58069800D01*
X140658394Y-58069800D01*
X140349239Y-58131294D01*
X140058021Y-58251921D01*
X139795932Y-58427043D01*
X139573043Y-58649932D01*
X139546000Y-58690405D01*
X139518957Y-58649932D01*
X139296068Y-58427043D01*
X139033979Y-58251921D01*
X138742761Y-58131294D01*
X138433606Y-58069800D01*
X138118394Y-58069800D01*
X137809239Y-58131294D01*
X137518021Y-58251921D01*
X137255932Y-58427043D01*
X137033043Y-58649932D01*
X136857921Y-58912021D01*
X136834786Y-58967873D01*
X136689554Y-58617251D01*
X136446329Y-58253239D01*
X136136761Y-57943671D01*
X135936708Y-57810000D01*
X187427000Y-57810000D01*
X187427000Y-73763633D01*
X187246329Y-73493239D01*
X186936761Y-73183671D01*
X186572749Y-72940446D01*
X186168279Y-72772909D01*
X185738897Y-72687500D01*
X185301103Y-72687500D01*
X184871721Y-72772909D01*
X184467251Y-72940446D01*
X184103239Y-73183671D01*
X183793671Y-73493239D01*
X183550446Y-73857251D01*
X183382909Y-74261721D01*
X183358320Y-74385341D01*
X179481668Y-70508690D01*
X179479205Y-70502744D01*
X179365937Y-70333226D01*
X179221774Y-70189063D01*
X179052256Y-70075795D01*
X178863898Y-69997774D01*
X178663939Y-69958000D01*
X178460061Y-69958000D01*
X178260102Y-69997774D01*
X178071744Y-70075795D01*
X177902226Y-70189063D01*
X177758063Y-70333226D01*
X177644795Y-70502744D01*
X177566774Y-70691102D01*
X177527000Y-70891061D01*
X177527000Y-71094939D01*
X177566774Y-71294898D01*
X177644795Y-71483256D01*
X177758063Y-71652774D01*
X177902226Y-71796937D01*
X178071744Y-71910205D01*
X178260102Y-71988226D01*
X178460061Y-72028000D01*
X178497822Y-72028000D01*
X181856763Y-75386942D01*
X181784898Y-75357174D01*
X181584939Y-75317400D01*
X181381061Y-75317400D01*
X181181102Y-75357174D01*
X180992744Y-75435195D01*
X180823226Y-75548463D01*
X180679063Y-75692626D01*
X180565795Y-75862144D01*
X180487774Y-76050502D01*
X180448000Y-76250461D01*
X180448000Y-76454339D01*
X180487774Y-76654298D01*
X180565795Y-76842656D01*
X180679063Y-77012174D01*
X180823226Y-77156337D01*
X180992744Y-77269605D01*
X181181102Y-77347626D01*
X181381061Y-77387400D01*
X181584939Y-77387400D01*
X181784898Y-77347626D01*
X181973256Y-77269605D01*
X182142774Y-77156337D01*
X182151322Y-77147789D01*
X182189574Y-77340098D01*
X182202954Y-77372400D01*
X181958269Y-77372400D01*
X181914800Y-77368119D01*
X181871331Y-77372400D01*
X181871323Y-77372400D01*
X181756106Y-77383748D01*
X181741309Y-77385205D01*
X181703710Y-77396611D01*
X181574487Y-77435811D01*
X181428073Y-77514070D01*
X181420741Y-77517989D01*
X181319753Y-77600868D01*
X181319751Y-77600870D01*
X181285983Y-77628583D01*
X181258270Y-77662351D01*
X180704557Y-78216065D01*
X180647702Y-78227374D01*
X180459344Y-78305395D01*
X180289826Y-78418663D01*
X180145663Y-78562826D01*
X180032395Y-78732344D01*
X179954374Y-78920702D01*
X179914600Y-79120661D01*
X179914600Y-79324539D01*
X179954374Y-79524498D01*
X180032395Y-79712856D01*
X180145663Y-79882374D01*
X180289826Y-80026537D01*
X180459344Y-80139805D01*
X180647702Y-80217826D01*
X180847661Y-80257600D01*
X181051539Y-80257600D01*
X181251498Y-80217826D01*
X181439856Y-80139805D01*
X181519500Y-80086589D01*
X181519500Y-80198406D01*
X181580994Y-80507561D01*
X181701621Y-80798779D01*
X181876743Y-81060868D01*
X182099632Y-81283757D01*
X182140105Y-81310800D01*
X182099632Y-81337843D01*
X181876743Y-81560732D01*
X181701621Y-81822821D01*
X181580994Y-82114039D01*
X181519500Y-82423194D01*
X181519500Y-82738406D01*
X181580994Y-83047561D01*
X181701621Y-83338779D01*
X181876743Y-83600868D01*
X182099632Y-83823757D01*
X182138204Y-83849530D01*
X182099632Y-83875303D01*
X181876743Y-84098192D01*
X181701621Y-84360281D01*
X181580994Y-84651499D01*
X181519500Y-84960654D01*
X181519500Y-85275866D01*
X181551191Y-85435190D01*
X180146695Y-86839686D01*
X180150202Y-86804079D01*
X180145921Y-86760610D01*
X180145921Y-82467148D01*
X180150202Y-82423679D01*
X180145921Y-82380210D01*
X180145921Y-82380202D01*
X180133116Y-82250189D01*
X180082510Y-82083366D01*
X180000332Y-81929620D01*
X179967487Y-81889599D01*
X179917453Y-81828632D01*
X179917451Y-81828630D01*
X179889738Y-81794862D01*
X179855971Y-81767150D01*
X179418755Y-81329934D01*
X179400422Y-81269500D01*
X179351727Y-81178400D01*
X179400422Y-81087300D01*
X179436732Y-80967602D01*
X179448992Y-80843120D01*
X179448992Y-80243680D01*
X179436732Y-80119198D01*
X179400422Y-79999500D01*
X179351727Y-79908400D01*
X179400422Y-79817300D01*
X179436732Y-79697602D01*
X179448992Y-79573120D01*
X179448992Y-78973680D01*
X179436732Y-78849198D01*
X179400422Y-78729500D01*
X179351727Y-78638400D01*
X179400422Y-78547300D01*
X179436732Y-78427602D01*
X179448992Y-78303120D01*
X179448992Y-77703680D01*
X179436732Y-77579198D01*
X179400422Y-77459500D01*
X179351727Y-77368400D01*
X179400422Y-77277300D01*
X179436732Y-77157602D01*
X179448992Y-77033120D01*
X179448992Y-76433680D01*
X179436732Y-76309198D01*
X179400422Y-76189500D01*
X179351727Y-76098400D01*
X179400422Y-76007300D01*
X179436732Y-75887602D01*
X179448992Y-75763120D01*
X179448992Y-75163680D01*
X179436732Y-75039198D01*
X179400422Y-74919500D01*
X179351727Y-74828400D01*
X179400422Y-74737300D01*
X179436732Y-74617602D01*
X179448992Y-74493120D01*
X179448992Y-73893680D01*
X179436732Y-73769198D01*
X179400422Y-73649500D01*
X179341457Y-73539186D01*
X179262105Y-73442495D01*
X179165414Y-73363143D01*
X179055100Y-73304178D01*
X178935402Y-73267868D01*
X178810920Y-73255608D01*
X177612040Y-73255608D01*
X177487558Y-73267868D01*
X177367860Y-73304178D01*
X177257546Y-73363143D01*
X177237200Y-73379840D01*
X177237200Y-63949869D01*
X177241481Y-63906400D01*
X177237200Y-63862931D01*
X177237200Y-63862923D01*
X177224395Y-63732910D01*
X177198583Y-63647820D01*
X177173789Y-63566086D01*
X177091611Y-63412341D01*
X177083509Y-63402469D01*
X176981017Y-63277583D01*
X176947245Y-63249867D01*
X176424534Y-62727156D01*
X176396817Y-62693383D01*
X176262059Y-62582789D01*
X176150924Y-62523387D01*
X176241737Y-62432574D01*
X176355005Y-62263056D01*
X176433026Y-62074698D01*
X176472800Y-61874739D01*
X176472800Y-61670861D01*
X176433026Y-61470902D01*
X176355005Y-61282544D01*
X176245000Y-61117909D01*
X176245000Y-61003206D01*
X176380068Y-60912957D01*
X176602957Y-60690068D01*
X176630000Y-60649595D01*
X176657043Y-60690068D01*
X176879932Y-60912957D01*
X177142021Y-61088079D01*
X177433239Y-61208706D01*
X177742394Y-61270200D01*
X178057606Y-61270200D01*
X178366761Y-61208706D01*
X178657979Y-61088079D01*
X178920068Y-60912957D01*
X179142957Y-60690068D01*
X179170000Y-60649595D01*
X179197043Y-60690068D01*
X179419932Y-60912957D01*
X179682021Y-61088079D01*
X179973239Y-61208706D01*
X180282394Y-61270200D01*
X180597606Y-61270200D01*
X180906761Y-61208706D01*
X181197979Y-61088079D01*
X181460068Y-60912957D01*
X181682957Y-60690068D01*
X181710000Y-60649595D01*
X181737043Y-60690068D01*
X181959932Y-60912957D01*
X182222021Y-61088079D01*
X182513239Y-61208706D01*
X182822394Y-61270200D01*
X183137606Y-61270200D01*
X183446761Y-61208706D01*
X183737979Y-61088079D01*
X184000068Y-60912957D01*
X184222957Y-60690068D01*
X184398079Y-60427979D01*
X184518706Y-60136761D01*
X184580200Y-59827606D01*
X184580200Y-59512394D01*
X184518706Y-59203239D01*
X184398079Y-58912021D01*
X184222957Y-58649932D01*
X184000068Y-58427043D01*
X183737979Y-58251921D01*
X183446761Y-58131294D01*
X183137606Y-58069800D01*
X182822394Y-58069800D01*
X182513239Y-58131294D01*
X182222021Y-58251921D01*
X181959932Y-58427043D01*
X181737043Y-58649932D01*
X181710000Y-58690405D01*
X181682957Y-58649932D01*
X181460068Y-58427043D01*
X181197979Y-58251921D01*
X180906761Y-58131294D01*
X180597606Y-58069800D01*
X180282394Y-58069800D01*
X179973239Y-58131294D01*
X179682021Y-58251921D01*
X179419932Y-58427043D01*
X179197043Y-58649932D01*
X179170000Y-58690405D01*
X179142957Y-58649932D01*
X178920068Y-58427043D01*
X178657979Y-58251921D01*
X178366761Y-58131294D01*
X178057606Y-58069800D01*
X177742394Y-58069800D01*
X177433239Y-58131294D01*
X177142021Y-58251921D01*
X176879932Y-58427043D01*
X176657043Y-58649932D01*
X176630000Y-58690405D01*
X176602957Y-58649932D01*
X176380068Y-58427043D01*
X176117979Y-58251921D01*
X175826761Y-58131294D01*
X175517606Y-58069800D01*
X175202394Y-58069800D01*
X174893239Y-58131294D01*
X174602021Y-58251921D01*
X174339932Y-58427043D01*
X174117043Y-58649932D01*
X174090000Y-58690405D01*
X174062957Y-58649932D01*
X173840068Y-58427043D01*
X173577979Y-58251921D01*
X173286761Y-58131294D01*
X172977606Y-58069800D01*
X172662394Y-58069800D01*
X172353239Y-58131294D01*
X172062021Y-58251921D01*
X171799932Y-58427043D01*
X171577043Y-58649932D01*
X171550000Y-58690405D01*
X171522957Y-58649932D01*
X171300068Y-58427043D01*
X171037979Y-58251921D01*
X170746761Y-58131294D01*
X170437606Y-58069800D01*
X170122394Y-58069800D01*
X169813239Y-58131294D01*
X169522021Y-58251921D01*
X169259932Y-58427043D01*
X169037043Y-58649932D01*
X169010000Y-58690405D01*
X168982957Y-58649932D01*
X168760068Y-58427043D01*
X168497979Y-58251921D01*
X168206761Y-58131294D01*
X167897606Y-58069800D01*
X167582394Y-58069800D01*
X167273239Y-58131294D01*
X166982021Y-58251921D01*
X166719932Y-58427043D01*
X166497043Y-58649932D01*
X166470000Y-58690405D01*
X166442957Y-58649932D01*
X166220068Y-58427043D01*
X165957979Y-58251921D01*
X165666761Y-58131294D01*
X165357606Y-58069800D01*
X165042394Y-58069800D01*
X164733239Y-58131294D01*
X164442021Y-58251921D01*
X164179932Y-58427043D01*
X163957043Y-58649932D01*
X163781921Y-58912021D01*
X163661294Y-59203239D01*
X163599800Y-59512394D01*
X163599800Y-59827606D01*
X163661294Y-60136761D01*
X163781921Y-60427979D01*
X163957043Y-60690068D01*
X164179932Y-60912957D01*
X164442021Y-61088079D01*
X164733239Y-61208706D01*
X165042394Y-61270200D01*
X165357606Y-61270200D01*
X165666761Y-61208706D01*
X165957979Y-61088079D01*
X166220068Y-60912957D01*
X166442957Y-60690068D01*
X166470000Y-60649595D01*
X166497043Y-60690068D01*
X166719932Y-60912957D01*
X166982021Y-61088079D01*
X167273239Y-61208706D01*
X167582394Y-61270200D01*
X167897606Y-61270200D01*
X168206761Y-61208706D01*
X168497979Y-61088079D01*
X168760068Y-60912957D01*
X168982957Y-60690068D01*
X169010000Y-60649595D01*
X169037043Y-60690068D01*
X169259932Y-60912957D01*
X169522021Y-61088079D01*
X169813239Y-61208706D01*
X170122394Y-61270200D01*
X170437606Y-61270200D01*
X170746761Y-61208706D01*
X171037979Y-61088079D01*
X171300068Y-60912957D01*
X171522957Y-60690068D01*
X171550000Y-60649595D01*
X171577043Y-60690068D01*
X171799932Y-60912957D01*
X171935001Y-61003207D01*
X171935001Y-61397521D01*
X171930719Y-61441000D01*
X171947805Y-61614490D01*
X171998412Y-61781313D01*
X172080590Y-61935059D01*
X172163468Y-62036046D01*
X172163471Y-62036049D01*
X172191184Y-62069817D01*
X172224951Y-62097529D01*
X174044670Y-63917249D01*
X174072383Y-63951017D01*
X174106151Y-63978730D01*
X174106153Y-63978732D01*
X174207141Y-64061611D01*
X174360886Y-64143789D01*
X174400257Y-64155732D01*
X174317395Y-64279744D01*
X174239374Y-64468102D01*
X174199600Y-64668061D01*
X174199600Y-64871939D01*
X174239374Y-65071898D01*
X174317395Y-65260256D01*
X174430663Y-65429774D01*
X174574826Y-65573937D01*
X174744344Y-65687205D01*
X174749599Y-65689382D01*
X174749600Y-75723117D01*
X174625339Y-75698400D01*
X174421461Y-75698400D01*
X174221502Y-75738174D01*
X174033144Y-75816195D01*
X173984946Y-75848400D01*
X173842433Y-75848400D01*
X173850832Y-75763120D01*
X173850832Y-75163680D01*
X173838572Y-75039198D01*
X173802262Y-74919500D01*
X173753567Y-74828400D01*
X173802262Y-74737300D01*
X173838572Y-74617602D01*
X173850832Y-74493120D01*
X173850832Y-73893680D01*
X173838572Y-73769198D01*
X173802262Y-73649500D01*
X173743297Y-73539186D01*
X173663945Y-73442495D01*
X173567254Y-73363143D01*
X173456940Y-73304178D01*
X173337242Y-73267868D01*
X173212760Y-73255608D01*
X172766787Y-73255608D01*
X172309072Y-72797894D01*
X172309072Y-72711400D01*
X172292488Y-72543023D01*
X172243375Y-72381117D01*
X172165300Y-72235049D01*
X172201537Y-72190894D01*
X172260502Y-72080580D01*
X172296812Y-71960882D01*
X172309072Y-71836400D01*
X172306000Y-71672150D01*
X172147250Y-71513400D01*
X171323000Y-71513400D01*
X171323000Y-71533400D01*
X171069000Y-71533400D01*
X171069000Y-71513400D01*
X170244750Y-71513400D01*
X170086000Y-71672150D01*
X170082928Y-71836400D01*
X170095188Y-71960882D01*
X170118703Y-72038400D01*
X154005254Y-72038400D01*
X153957056Y-72006195D01*
X153768698Y-71928174D01*
X153568739Y-71888400D01*
X153364861Y-71888400D01*
X153164902Y-71928174D01*
X152976544Y-72006195D01*
X152928346Y-72038400D01*
X152475779Y-72038400D01*
X152084272Y-71646893D01*
X152084272Y-70936400D01*
X170082928Y-70936400D01*
X170086000Y-71100650D01*
X170244750Y-71259400D01*
X171069000Y-71259400D01*
X171069000Y-70460150D01*
X171323000Y-70460150D01*
X171323000Y-71259400D01*
X172147250Y-71259400D01*
X172306000Y-71100650D01*
X172309072Y-70936400D01*
X172296812Y-70811918D01*
X172260502Y-70692220D01*
X172201537Y-70581906D01*
X172122185Y-70485215D01*
X172025494Y-70405863D01*
X171915180Y-70346898D01*
X171795482Y-70310588D01*
X171671000Y-70298328D01*
X171481750Y-70301400D01*
X171323000Y-70460150D01*
X171069000Y-70460150D01*
X170910250Y-70301400D01*
X170721000Y-70298328D01*
X170596518Y-70310588D01*
X170476820Y-70346898D01*
X170366506Y-70405863D01*
X170269815Y-70485215D01*
X170190463Y-70581906D01*
X170131498Y-70692220D01*
X170095188Y-70811918D01*
X170082928Y-70936400D01*
X152084272Y-70936400D01*
X152084272Y-70910400D01*
X152072012Y-70785918D01*
X152035702Y-70666220D01*
X151976737Y-70555906D01*
X151897385Y-70459215D01*
X151800694Y-70379863D01*
X151690380Y-70320898D01*
X151570682Y-70284588D01*
X151446200Y-70272328D01*
X149696200Y-70272328D01*
X149571718Y-70284588D01*
X149452020Y-70320898D01*
X149341706Y-70379863D01*
X149245015Y-70459215D01*
X149211215Y-70500400D01*
X145784272Y-70500400D01*
X145784272Y-69970400D01*
X149211215Y-69970400D01*
X149245015Y-70011585D01*
X149341706Y-70090937D01*
X149452020Y-70149902D01*
X149571718Y-70186212D01*
X149696200Y-70198472D01*
X151446200Y-70198472D01*
X151570682Y-70186212D01*
X151690380Y-70149902D01*
X151800694Y-70090937D01*
X151897385Y-70011585D01*
X151976737Y-69914894D01*
X152035702Y-69804580D01*
X152072012Y-69684882D01*
X152084272Y-69560400D01*
X152084272Y-68610400D01*
X152072012Y-68485918D01*
X152035702Y-68366220D01*
X151976737Y-68255906D01*
X151897385Y-68159215D01*
X151800694Y-68079863D01*
X151690380Y-68020898D01*
X151570682Y-67984588D01*
X151446200Y-67972328D01*
X149696200Y-67972328D01*
X149571718Y-67984588D01*
X149452020Y-68020898D01*
X149341706Y-68079863D01*
X149245015Y-68159215D01*
X149211215Y-68200400D01*
X145670169Y-68200400D01*
X144936733Y-67466964D01*
X145020785Y-67397985D01*
X145100137Y-67301294D01*
X145159102Y-67190980D01*
X145195412Y-67071282D01*
X145207672Y-66946800D01*
X145204600Y-66757550D01*
X145045850Y-66598800D01*
X144246600Y-66598800D01*
X144246600Y-66618800D01*
X144088568Y-66618800D01*
X143972600Y-66502832D01*
X143972600Y-66344800D01*
X143992600Y-66344800D01*
X143992600Y-65520550D01*
X144246600Y-65520550D01*
X144246600Y-66344800D01*
X145045850Y-66344800D01*
X145204600Y-66186050D01*
X145207672Y-65996800D01*
X145195412Y-65872318D01*
X145159102Y-65752620D01*
X145100137Y-65642306D01*
X145020785Y-65545615D01*
X144924094Y-65466263D01*
X144813780Y-65407298D01*
X144694082Y-65370988D01*
X144569600Y-65358728D01*
X144405350Y-65361800D01*
X144246600Y-65520550D01*
X143992600Y-65520550D01*
X143833850Y-65361800D01*
X143669600Y-65358728D01*
X143545118Y-65370988D01*
X143425420Y-65407298D01*
X143315106Y-65466263D01*
X143270951Y-65502500D01*
X143124883Y-65424425D01*
X142962977Y-65375312D01*
X142794600Y-65358728D01*
X142344600Y-65358728D01*
X142176223Y-65375312D01*
X142014317Y-65424425D01*
X141865103Y-65504182D01*
X141734316Y-65611516D01*
X141626982Y-65742303D01*
X141547225Y-65891517D01*
X141498112Y-66053423D01*
X141481528Y-66221800D01*
X141481528Y-66308293D01*
X140231857Y-67557965D01*
X140134504Y-67538600D01*
X139824296Y-67538600D01*
X139520048Y-67599118D01*
X139233452Y-67717830D01*
X138975523Y-67890173D01*
X138756173Y-68109523D01*
X138583830Y-68367452D01*
X138465118Y-68654048D01*
X138404600Y-68958296D01*
X138404600Y-69268504D01*
X138465118Y-69572752D01*
X138583830Y-69859348D01*
X138756173Y-70117277D01*
X138975523Y-70336627D01*
X139045524Y-70383400D01*
X138975523Y-70430173D01*
X138756173Y-70649523D01*
X138583830Y-70907452D01*
X138465118Y-71194048D01*
X138404600Y-71498296D01*
X138404600Y-71808504D01*
X138465118Y-72112752D01*
X138583830Y-72399348D01*
X138756173Y-72657277D01*
X138975523Y-72876627D01*
X139233452Y-73048970D01*
X139520048Y-73167682D01*
X139824296Y-73228200D01*
X140134504Y-73228200D01*
X140438752Y-73167682D01*
X140725348Y-73048970D01*
X140983277Y-72876627D01*
X141202627Y-72657277D01*
X141374970Y-72399348D01*
X141493682Y-72112752D01*
X141554200Y-71808504D01*
X141554200Y-71498296D01*
X141493682Y-71194048D01*
X141374970Y-70907452D01*
X141202627Y-70649523D01*
X140983277Y-70430173D01*
X140913276Y-70383400D01*
X140983277Y-70336627D01*
X141202627Y-70117277D01*
X141374970Y-69859348D01*
X141493682Y-69572752D01*
X141554200Y-69268504D01*
X141554200Y-68958296D01*
X141517780Y-68775198D01*
X142629795Y-67663183D01*
X144113939Y-69147328D01*
X143396200Y-69147328D01*
X143271718Y-69159588D01*
X143152020Y-69195898D01*
X143041706Y-69254863D01*
X142945015Y-69334215D01*
X142865663Y-69430906D01*
X142806698Y-69541220D01*
X142770388Y-69660918D01*
X142758128Y-69785400D01*
X142758128Y-72985400D01*
X142770388Y-73109882D01*
X142806698Y-73229580D01*
X142865663Y-73339894D01*
X142945015Y-73436585D01*
X143041706Y-73515937D01*
X143152020Y-73574902D01*
X143209201Y-73592248D01*
X143209200Y-75501895D01*
X143151582Y-75572103D01*
X143071825Y-75721317D01*
X143022712Y-75883223D01*
X143006128Y-76051600D01*
X143006128Y-76551600D01*
X143022712Y-76719977D01*
X143071825Y-76881883D01*
X143151582Y-77031097D01*
X143258916Y-77161884D01*
X143389703Y-77269218D01*
X143538917Y-77348975D01*
X143700823Y-77398088D01*
X143869200Y-77414672D01*
X144319200Y-77414672D01*
X144487577Y-77398088D01*
X144649483Y-77348975D01*
X144795551Y-77270900D01*
X144839706Y-77307137D01*
X144950020Y-77366102D01*
X145069718Y-77402412D01*
X145194200Y-77414672D01*
X145358450Y-77411600D01*
X145517200Y-77252850D01*
X145517200Y-76428600D01*
X145771200Y-76428600D01*
X145771200Y-77252850D01*
X145929950Y-77411600D01*
X146094200Y-77414672D01*
X146218682Y-77402412D01*
X146338380Y-77366102D01*
X146448694Y-77307137D01*
X146545385Y-77227785D01*
X146624737Y-77131094D01*
X146683702Y-77020780D01*
X146720012Y-76901082D01*
X146732272Y-76776600D01*
X146729200Y-76587350D01*
X146570450Y-76428600D01*
X145771200Y-76428600D01*
X145517200Y-76428600D01*
X145497200Y-76428600D01*
X145497200Y-76174600D01*
X145517200Y-76174600D01*
X145517200Y-75350350D01*
X145771200Y-75350350D01*
X145771200Y-76174600D01*
X146570450Y-76174600D01*
X146729200Y-76015850D01*
X146732272Y-75826600D01*
X146720012Y-75702118D01*
X146683702Y-75582420D01*
X146624737Y-75472106D01*
X146545385Y-75375415D01*
X146448694Y-75296063D01*
X146338380Y-75237098D01*
X146218682Y-75200788D01*
X146094200Y-75188528D01*
X145929950Y-75191600D01*
X145771200Y-75350350D01*
X145517200Y-75350350D01*
X145358450Y-75191600D01*
X145194200Y-75188528D01*
X145069718Y-75200788D01*
X144979200Y-75228246D01*
X144979200Y-74160400D01*
X149058128Y-74160400D01*
X149070388Y-74284882D01*
X149106698Y-74404580D01*
X149165663Y-74514894D01*
X149245015Y-74611585D01*
X149341706Y-74690937D01*
X149452020Y-74749902D01*
X149571718Y-74786212D01*
X149696200Y-74798472D01*
X150285450Y-74795400D01*
X150444200Y-74636650D01*
X150444200Y-73812400D01*
X149219950Y-73812400D01*
X149061200Y-73971150D01*
X149058128Y-74160400D01*
X144979200Y-74160400D01*
X144979200Y-73623472D01*
X145146200Y-73623472D01*
X145270682Y-73611212D01*
X145390380Y-73574902D01*
X145500694Y-73515937D01*
X145597385Y-73436585D01*
X145676737Y-73339894D01*
X145735702Y-73229580D01*
X145772012Y-73109882D01*
X145784272Y-72985400D01*
X145784272Y-72270400D01*
X149211215Y-72270400D01*
X149245015Y-72311585D01*
X149341706Y-72390937D01*
X149452020Y-72449902D01*
X149571718Y-72486212D01*
X149696200Y-72498472D01*
X150432694Y-72498472D01*
X150509622Y-72575400D01*
X150444198Y-72575400D01*
X150444198Y-72734148D01*
X150285450Y-72575400D01*
X149696200Y-72572328D01*
X149571718Y-72584588D01*
X149452020Y-72620898D01*
X149341706Y-72679863D01*
X149245015Y-72759215D01*
X149165663Y-72855906D01*
X149106698Y-72966220D01*
X149070388Y-73085918D01*
X149058128Y-73210400D01*
X149061200Y-73399650D01*
X149219950Y-73558400D01*
X150444200Y-73558400D01*
X150444200Y-73538400D01*
X150698200Y-73538400D01*
X150698200Y-73558400D01*
X150718200Y-73558400D01*
X150718200Y-73812400D01*
X150698200Y-73812400D01*
X150698200Y-74636650D01*
X150856950Y-74795400D01*
X151446200Y-74798472D01*
X151570682Y-74786212D01*
X151690380Y-74749902D01*
X151800694Y-74690937D01*
X151897385Y-74611585D01*
X151976737Y-74514894D01*
X152035702Y-74404580D01*
X152072012Y-74284882D01*
X152084272Y-74160400D01*
X152081200Y-73971150D01*
X151922452Y-73812402D01*
X152081200Y-73812402D01*
X152081200Y-73809923D01*
X152109199Y-73812681D01*
X152152665Y-73808400D01*
X152928346Y-73808400D01*
X152976544Y-73840605D01*
X153164902Y-73918626D01*
X153364861Y-73958400D01*
X153568739Y-73958400D01*
X153768698Y-73918626D01*
X153957056Y-73840605D01*
X154005254Y-73808400D01*
X170380455Y-73808400D01*
X170466503Y-73879018D01*
X170615717Y-73958775D01*
X170777623Y-74007888D01*
X170946000Y-74024472D01*
X171032494Y-74024472D01*
X171375808Y-74367787D01*
X171375808Y-74493120D01*
X171384207Y-74578400D01*
X160393669Y-74578400D01*
X160350200Y-74574119D01*
X160306731Y-74578400D01*
X160306723Y-74578400D01*
X160176710Y-74591205D01*
X160009887Y-74641811D01*
X159924485Y-74687459D01*
X159856141Y-74723989D01*
X159755153Y-74806868D01*
X159755151Y-74806870D01*
X159721383Y-74834583D01*
X159693670Y-74868351D01*
X157095000Y-77467021D01*
X157095000Y-75722454D01*
X157127205Y-75674256D01*
X157205226Y-75485898D01*
X157245000Y-75285939D01*
X157245000Y-75082061D01*
X157205226Y-74882102D01*
X157127205Y-74693744D01*
X157013937Y-74524226D01*
X156869774Y-74380063D01*
X156700256Y-74266795D01*
X156511898Y-74188774D01*
X156311939Y-74149000D01*
X156108061Y-74149000D01*
X155908102Y-74188774D01*
X155719744Y-74266795D01*
X155550226Y-74380063D01*
X155406063Y-74524226D01*
X155292795Y-74693744D01*
X155214774Y-74882102D01*
X155175000Y-75082061D01*
X155175000Y-75285939D01*
X155214774Y-75485898D01*
X155292795Y-75674256D01*
X155325001Y-75722455D01*
X155325000Y-77147491D01*
X153337982Y-79134510D01*
X153339062Y-79123540D01*
X153335990Y-78809850D01*
X153177240Y-78651100D01*
X151328120Y-78651100D01*
X151328120Y-78671100D01*
X151074120Y-78671100D01*
X151074120Y-78651100D01*
X149225000Y-78651100D01*
X149066250Y-78809850D01*
X149063178Y-79123540D01*
X149075438Y-79248022D01*
X149111748Y-79367720D01*
X149170713Y-79478034D01*
X149208100Y-79523590D01*
X149170713Y-79569146D01*
X149111748Y-79679460D01*
X149075438Y-79799158D01*
X149063178Y-79923640D01*
X149063178Y-81122520D01*
X149075438Y-81247002D01*
X149111748Y-81366700D01*
X149170713Y-81477014D01*
X149208100Y-81522570D01*
X149170713Y-81568126D01*
X149111748Y-81678440D01*
X149075438Y-81798138D01*
X149063178Y-81922620D01*
X149063178Y-83121500D01*
X149075438Y-83245982D01*
X149111748Y-83365680D01*
X149170713Y-83475994D01*
X149209142Y-83522820D01*
X149170713Y-83569646D01*
X149111748Y-83679960D01*
X149075438Y-83799658D01*
X149063178Y-83924140D01*
X149063178Y-85123020D01*
X149075438Y-85247502D01*
X149111748Y-85367200D01*
X149170713Y-85477514D01*
X149207057Y-85521800D01*
X149170713Y-85566086D01*
X149111748Y-85676400D01*
X149075438Y-85796098D01*
X149063178Y-85920580D01*
X149063178Y-87119460D01*
X149075438Y-87243942D01*
X149111748Y-87363640D01*
X149170713Y-87473954D01*
X149209142Y-87520780D01*
X149170713Y-87567606D01*
X149111748Y-87677920D01*
X149075438Y-87797618D01*
X149063178Y-87922100D01*
X149063178Y-89120980D01*
X149075438Y-89245462D01*
X149111748Y-89365160D01*
X149170713Y-89475474D01*
X149208100Y-89521030D01*
X149170713Y-89566586D01*
X149111748Y-89676900D01*
X149075438Y-89796598D01*
X149063178Y-89921080D01*
X149063178Y-91119960D01*
X149075438Y-91244442D01*
X149111748Y-91364140D01*
X149170713Y-91474454D01*
X149208100Y-91520010D01*
X149170713Y-91565566D01*
X149111748Y-91675880D01*
X149075438Y-91795578D01*
X149063178Y-91920060D01*
X149066250Y-92233750D01*
X149225000Y-92392500D01*
X151074120Y-92392500D01*
X151074120Y-92372500D01*
X151328120Y-92372500D01*
X151328120Y-92392500D01*
X153177240Y-92392500D01*
X153335990Y-92233750D01*
X153339062Y-91920060D01*
X153326802Y-91795578D01*
X153290492Y-91675880D01*
X153231527Y-91565566D01*
X153194140Y-91520010D01*
X153231527Y-91474454D01*
X153290492Y-91364140D01*
X153326802Y-91244442D01*
X153339062Y-91119960D01*
X164059338Y-91119960D01*
X164071598Y-91244442D01*
X164107908Y-91364140D01*
X164166873Y-91474454D01*
X164204260Y-91520010D01*
X164166873Y-91565566D01*
X164107908Y-91675880D01*
X164071598Y-91795578D01*
X164059338Y-91920060D01*
X164059338Y-93118940D01*
X164071598Y-93243422D01*
X164107908Y-93363120D01*
X164166873Y-93473434D01*
X164246225Y-93570125D01*
X164342916Y-93649477D01*
X164453230Y-93708442D01*
X164572928Y-93744752D01*
X164697410Y-93757012D01*
X167697150Y-93757012D01*
X167821632Y-93744752D01*
X167941330Y-93708442D01*
X168051644Y-93649477D01*
X168148335Y-93570125D01*
X168227687Y-93473434D01*
X168264534Y-93404500D01*
X174905628Y-93404500D01*
X174976573Y-93510677D01*
X175195923Y-93730027D01*
X175453852Y-93902370D01*
X175740448Y-94021082D01*
X176044696Y-94081600D01*
X176354904Y-94081600D01*
X176659152Y-94021082D01*
X176945748Y-93902370D01*
X177203677Y-93730027D01*
X177338704Y-93595000D01*
X179575524Y-93595000D01*
X179498716Y-93636055D01*
X179369790Y-93928585D01*
X180521600Y-95080395D01*
X180535743Y-95066253D01*
X180715348Y-95245858D01*
X180701205Y-95260000D01*
X181853015Y-96411810D01*
X182145545Y-96282884D01*
X182313896Y-95946414D01*
X182413371Y-95583565D01*
X182440145Y-95208282D01*
X182393191Y-94834985D01*
X182274313Y-94478022D01*
X182253384Y-94438867D01*
X182513473Y-94546600D01*
X182882481Y-94620000D01*
X183258719Y-94620000D01*
X183627727Y-94546600D01*
X183897774Y-94434743D01*
X183828304Y-94573586D01*
X183728829Y-94936435D01*
X183702055Y-95311718D01*
X183749009Y-95685015D01*
X183867887Y-96041978D01*
X183996655Y-96282884D01*
X184289185Y-96411810D01*
X185440995Y-95260000D01*
X185426853Y-95245858D01*
X185606458Y-95066253D01*
X185620600Y-95080395D01*
X186772410Y-93928585D01*
X186643484Y-93636055D01*
X186307014Y-93467704D01*
X185944165Y-93368229D01*
X185568882Y-93341455D01*
X185195585Y-93388409D01*
X184838622Y-93507287D01*
X184798935Y-93528500D01*
X184907200Y-93267127D01*
X184980600Y-92898119D01*
X184980600Y-92521881D01*
X184907200Y-92152873D01*
X184795343Y-91882826D01*
X184934186Y-91952296D01*
X185297035Y-92051771D01*
X185672318Y-92078545D01*
X186045615Y-92031591D01*
X186402578Y-91912713D01*
X186643484Y-91783945D01*
X186772410Y-91491415D01*
X185620600Y-90339605D01*
X185606458Y-90353748D01*
X185426853Y-90174143D01*
X185440995Y-90160000D01*
X184289185Y-89008190D01*
X183996655Y-89137116D01*
X183828304Y-89473586D01*
X183728829Y-89836435D01*
X183702055Y-90211718D01*
X183749009Y-90585015D01*
X183867887Y-90941978D01*
X183889100Y-90981665D01*
X183627727Y-90873400D01*
X183258719Y-90800000D01*
X182882481Y-90800000D01*
X182513473Y-90873400D01*
X182244688Y-90984735D01*
X182313896Y-90846414D01*
X182413371Y-90483565D01*
X182440145Y-90108282D01*
X182393191Y-89734985D01*
X182274313Y-89378022D01*
X182145545Y-89137116D01*
X181853015Y-89008190D01*
X180701205Y-90160000D01*
X180715348Y-90174143D01*
X180535743Y-90353748D01*
X180521600Y-90339605D01*
X179369790Y-91491415D01*
X179498716Y-91783945D01*
X179580769Y-91825000D01*
X177621941Y-91825000D01*
X177595370Y-91760852D01*
X177423027Y-91502923D01*
X177203677Y-91283573D01*
X176945748Y-91111230D01*
X176659152Y-90992518D01*
X176354904Y-90932000D01*
X176044696Y-90932000D01*
X175740448Y-90992518D01*
X175453852Y-91111230D01*
X175195923Y-91283573D01*
X174976573Y-91502923D01*
X174888656Y-91634500D01*
X168264534Y-91634500D01*
X168227687Y-91565566D01*
X168190300Y-91520010D01*
X168227687Y-91474454D01*
X168286652Y-91364140D01*
X168322962Y-91244442D01*
X168335222Y-91119960D01*
X168332150Y-90806270D01*
X168173400Y-90647520D01*
X166324280Y-90647520D01*
X166324280Y-90667520D01*
X166070280Y-90667520D01*
X166070280Y-90647520D01*
X164221160Y-90647520D01*
X164062410Y-90806270D01*
X164059338Y-91119960D01*
X153339062Y-91119960D01*
X153339062Y-89921080D01*
X153326802Y-89796598D01*
X153290492Y-89676900D01*
X153253236Y-89607200D01*
X163545546Y-89607200D01*
X163593744Y-89639405D01*
X163782102Y-89717426D01*
X163982061Y-89757200D01*
X164083549Y-89757200D01*
X164071598Y-89796598D01*
X164059338Y-89921080D01*
X164062410Y-90234770D01*
X164221160Y-90393520D01*
X166070280Y-90393520D01*
X166070280Y-90373520D01*
X166324280Y-90373520D01*
X166324280Y-90393520D01*
X168173400Y-90393520D01*
X168332150Y-90234770D01*
X168335222Y-89921080D01*
X168322962Y-89796598D01*
X168286652Y-89676900D01*
X168227687Y-89566586D01*
X168190300Y-89521030D01*
X168227687Y-89475474D01*
X168286652Y-89365160D01*
X168322962Y-89245462D01*
X168335222Y-89120980D01*
X168335222Y-87922100D01*
X168327979Y-87848555D01*
X168343220Y-87856702D01*
X168462918Y-87893012D01*
X168587400Y-87905272D01*
X168776650Y-87902200D01*
X168935400Y-87743450D01*
X168935400Y-86944200D01*
X168915400Y-86944200D01*
X168915400Y-86690200D01*
X168935400Y-86690200D01*
X168935400Y-86670200D01*
X169189400Y-86670200D01*
X169189400Y-86690200D01*
X169209400Y-86690200D01*
X169209400Y-86944200D01*
X169189400Y-86944200D01*
X169189400Y-87743450D01*
X169348150Y-87902200D01*
X169537400Y-87905272D01*
X169599801Y-87899126D01*
X169599801Y-88183744D01*
X169567595Y-88231944D01*
X169489574Y-88420302D01*
X169449800Y-88620261D01*
X169449800Y-88824139D01*
X169489574Y-89024098D01*
X169567595Y-89212456D01*
X169680863Y-89381974D01*
X169825026Y-89526137D01*
X169994544Y-89639405D01*
X170182902Y-89717426D01*
X170382861Y-89757200D01*
X170586739Y-89757200D01*
X170786698Y-89717426D01*
X170975056Y-89639405D01*
X171144574Y-89526137D01*
X171288737Y-89381974D01*
X171402005Y-89212456D01*
X171480026Y-89024098D01*
X171519800Y-88824139D01*
X171519800Y-88620261D01*
X171480026Y-88420302D01*
X171402005Y-88231944D01*
X171369800Y-88183746D01*
X171369800Y-87578750D01*
X171394574Y-87703298D01*
X171472595Y-87891656D01*
X171585863Y-88061174D01*
X171730026Y-88205337D01*
X171899544Y-88318605D01*
X172087902Y-88396626D01*
X172144756Y-88407935D01*
X172241400Y-88504579D01*
X172241400Y-88754923D01*
X172237118Y-88798400D01*
X172254205Y-88971890D01*
X172304811Y-89138713D01*
X172386989Y-89292459D01*
X172457792Y-89378732D01*
X172497583Y-89427217D01*
X172632341Y-89537811D01*
X172786087Y-89619989D01*
X172952910Y-89670595D01*
X173126400Y-89687682D01*
X173169876Y-89683400D01*
X177223131Y-89683400D01*
X177266600Y-89687681D01*
X177310069Y-89683400D01*
X177310077Y-89683400D01*
X177440090Y-89670595D01*
X177575682Y-89629463D01*
X177681863Y-89788374D01*
X177826026Y-89932537D01*
X177995544Y-90045805D01*
X178183902Y-90123826D01*
X178383861Y-90163600D01*
X178587739Y-90163600D01*
X178606758Y-90159817D01*
X178603055Y-90211718D01*
X178650009Y-90585015D01*
X178768887Y-90941978D01*
X178897655Y-91182884D01*
X179190185Y-91311810D01*
X180341995Y-90160000D01*
X180327853Y-90145858D01*
X180507458Y-89966253D01*
X180521600Y-89980395D01*
X181673410Y-88828585D01*
X184468790Y-88828585D01*
X185620600Y-89980395D01*
X186772410Y-88828585D01*
X186643484Y-88536055D01*
X186307014Y-88367704D01*
X185944165Y-88268229D01*
X185568882Y-88241455D01*
X185195585Y-88288409D01*
X184838622Y-88407287D01*
X184597716Y-88536055D01*
X184468790Y-88828585D01*
X181673410Y-88828585D01*
X181544484Y-88536055D01*
X181208014Y-88367704D01*
X181140377Y-88349161D01*
X182802770Y-86686769D01*
X182962094Y-86718460D01*
X183277306Y-86718460D01*
X183586461Y-86656966D01*
X183877679Y-86536339D01*
X184139768Y-86361217D01*
X184272131Y-86228854D01*
X184728711Y-86228854D01*
X184820272Y-86489698D01*
X185103956Y-86627111D01*
X185408996Y-86706539D01*
X185723671Y-86724930D01*
X186035888Y-86681578D01*
X186333648Y-86578148D01*
X186499128Y-86489698D01*
X186590689Y-86228854D01*
X185659700Y-85297865D01*
X184728711Y-86228854D01*
X184272131Y-86228854D01*
X184362657Y-86138328D01*
X184446292Y-86013159D01*
X184549106Y-86049249D01*
X185480095Y-85118260D01*
X185839305Y-85118260D01*
X186770294Y-86049249D01*
X187031138Y-85957688D01*
X187168551Y-85674004D01*
X187247979Y-85368964D01*
X187266370Y-85054289D01*
X187223018Y-84742072D01*
X187119588Y-84444312D01*
X187031138Y-84278832D01*
X186770294Y-84187271D01*
X185839305Y-85118260D01*
X185480095Y-85118260D01*
X184549106Y-84187271D01*
X184446292Y-84223361D01*
X184362657Y-84098192D01*
X184139768Y-83875303D01*
X184101196Y-83849530D01*
X184139768Y-83823757D01*
X184362657Y-83600868D01*
X184389700Y-83560395D01*
X184416743Y-83600868D01*
X184639632Y-83823757D01*
X184764078Y-83906909D01*
X184728711Y-84007666D01*
X185659700Y-84938655D01*
X186590689Y-84007666D01*
X186555322Y-83906909D01*
X186679768Y-83823757D01*
X186902657Y-83600868D01*
X187077779Y-83338779D01*
X187198406Y-83047561D01*
X187259900Y-82738406D01*
X187259900Y-82423194D01*
X187228209Y-82263870D01*
X187427000Y-82065078D01*
X187427001Y-89539233D01*
X187373313Y-89378022D01*
X187244545Y-89137116D01*
X186952015Y-89008190D01*
X185800205Y-90160000D01*
X186952015Y-91311810D01*
X187244545Y-91182884D01*
X187412896Y-90846414D01*
X187427001Y-90794965D01*
X187427001Y-94639234D01*
X187373313Y-94478022D01*
X187244545Y-94237116D01*
X186952015Y-94108190D01*
X185800205Y-95260000D01*
X186952015Y-96411810D01*
X187244545Y-96282884D01*
X187412896Y-95946414D01*
X187427001Y-95894965D01*
X187427001Y-101703634D01*
X187246329Y-101433239D01*
X186936761Y-101123671D01*
X186572749Y-100880446D01*
X186168279Y-100712909D01*
X185738897Y-100627500D01*
X185301103Y-100627500D01*
X184871721Y-100712909D01*
X184467251Y-100880446D01*
X184103239Y-101123671D01*
X183793671Y-101433239D01*
X183550446Y-101797251D01*
X183382909Y-102201721D01*
X183297500Y-102631103D01*
X183297500Y-103068897D01*
X183382909Y-103498279D01*
X183550446Y-103902749D01*
X183793671Y-104266761D01*
X184103239Y-104576329D01*
X184467251Y-104819554D01*
X184871721Y-104987091D01*
X185301103Y-105072500D01*
X185738897Y-105072500D01*
X186168279Y-104987091D01*
X186572749Y-104819554D01*
X186936761Y-104576329D01*
X187246329Y-104266761D01*
X187427001Y-103996366D01*
X187427001Y-109830000D01*
X167624160Y-109830000D01*
X167701388Y-109685514D01*
X167710019Y-109657061D01*
X168808374Y-108558706D01*
X168861921Y-108687979D01*
X169037043Y-108950068D01*
X169259932Y-109172957D01*
X169522021Y-109348079D01*
X169813239Y-109468706D01*
X170122394Y-109530200D01*
X170437606Y-109530200D01*
X170746761Y-109468706D01*
X171037979Y-109348079D01*
X171300068Y-109172957D01*
X171522957Y-108950068D01*
X171550000Y-108909595D01*
X171577043Y-108950068D01*
X171799932Y-109172957D01*
X172062021Y-109348079D01*
X172353239Y-109468706D01*
X172662394Y-109530200D01*
X172977606Y-109530200D01*
X173286761Y-109468706D01*
X173577979Y-109348079D01*
X173840068Y-109172957D01*
X174062957Y-108950068D01*
X174090000Y-108909595D01*
X174117043Y-108950068D01*
X174339932Y-109172957D01*
X174602021Y-109348079D01*
X174893239Y-109468706D01*
X175202394Y-109530200D01*
X175517606Y-109530200D01*
X175826761Y-109468706D01*
X176117979Y-109348079D01*
X176380068Y-109172957D01*
X176602957Y-108950068D01*
X176630000Y-108909595D01*
X176657043Y-108950068D01*
X176879932Y-109172957D01*
X177142021Y-109348079D01*
X177433239Y-109468706D01*
X177742394Y-109530200D01*
X178057606Y-109530200D01*
X178366761Y-109468706D01*
X178657979Y-109348079D01*
X178920068Y-109172957D01*
X179142957Y-108950068D01*
X179170000Y-108909595D01*
X179197043Y-108950068D01*
X179419932Y-109172957D01*
X179682021Y-109348079D01*
X179973239Y-109468706D01*
X180282394Y-109530200D01*
X180597606Y-109530200D01*
X180906761Y-109468706D01*
X181197979Y-109348079D01*
X181460068Y-109172957D01*
X181682957Y-108950068D01*
X181710000Y-108909595D01*
X181737043Y-108950068D01*
X181959932Y-109172957D01*
X182222021Y-109348079D01*
X182513239Y-109468706D01*
X182822394Y-109530200D01*
X183137606Y-109530200D01*
X183446761Y-109468706D01*
X183737979Y-109348079D01*
X184000068Y-109172957D01*
X184222957Y-108950068D01*
X184398079Y-108687979D01*
X184518706Y-108396761D01*
X184580200Y-108087606D01*
X184580200Y-107772394D01*
X184518706Y-107463239D01*
X184398079Y-107172021D01*
X184222957Y-106909932D01*
X184000068Y-106687043D01*
X183737979Y-106511921D01*
X183446761Y-106391294D01*
X183137606Y-106329800D01*
X182822394Y-106329800D01*
X182513239Y-106391294D01*
X182222021Y-106511921D01*
X181959932Y-106687043D01*
X181737043Y-106909932D01*
X181710000Y-106950405D01*
X181682957Y-106909932D01*
X181460068Y-106687043D01*
X181197979Y-106511921D01*
X180906761Y-106391294D01*
X180597606Y-106329800D01*
X180282394Y-106329800D01*
X179973239Y-106391294D01*
X179682021Y-106511921D01*
X179419932Y-106687043D01*
X179197043Y-106909932D01*
X179170000Y-106950405D01*
X179142957Y-106909932D01*
X178920068Y-106687043D01*
X178657979Y-106511921D01*
X178366761Y-106391294D01*
X178057606Y-106329800D01*
X177742394Y-106329800D01*
X177433239Y-106391294D01*
X177142021Y-106511921D01*
X176879932Y-106687043D01*
X176657043Y-106909932D01*
X176630000Y-106950405D01*
X176602957Y-106909932D01*
X176380068Y-106687043D01*
X176117979Y-106511921D01*
X175826761Y-106391294D01*
X175517606Y-106329800D01*
X175202394Y-106329800D01*
X174893239Y-106391294D01*
X174602021Y-106511921D01*
X174339932Y-106687043D01*
X174117043Y-106909932D01*
X174090000Y-106950405D01*
X174062957Y-106909932D01*
X173840068Y-106687043D01*
X173577979Y-106511921D01*
X173286761Y-106391294D01*
X172977606Y-106329800D01*
X172662394Y-106329800D01*
X172353239Y-106391294D01*
X172062021Y-106511921D01*
X171799932Y-106687043D01*
X171577043Y-106909932D01*
X171550000Y-106950405D01*
X171522957Y-106909932D01*
X171300068Y-106687043D01*
X171037979Y-106511921D01*
X170908706Y-106458374D01*
X178595946Y-98771135D01*
X178652800Y-98759826D01*
X178841158Y-98681805D01*
X179010676Y-98568537D01*
X179154839Y-98424374D01*
X179268107Y-98254856D01*
X179346128Y-98066498D01*
X179385902Y-97866539D01*
X179385902Y-97662661D01*
X179346128Y-97462702D01*
X179268107Y-97274344D01*
X179154839Y-97104826D01*
X179010676Y-96960663D01*
X178841158Y-96847395D01*
X178652800Y-96769374D01*
X178452841Y-96729600D01*
X178248963Y-96729600D01*
X178049004Y-96769374D01*
X177860646Y-96847395D01*
X177691128Y-96960663D01*
X177546965Y-97104826D01*
X177433697Y-97274344D01*
X177355676Y-97462702D01*
X177344367Y-97519556D01*
X166800200Y-108063724D01*
X166800200Y-107772394D01*
X166738706Y-107463239D01*
X166618079Y-107172021D01*
X166442957Y-106909932D01*
X166220068Y-106687043D01*
X165957979Y-106511921D01*
X165666761Y-106391294D01*
X165357606Y-106329800D01*
X165042394Y-106329800D01*
X164733239Y-106391294D01*
X164442021Y-106511921D01*
X164179932Y-106687043D01*
X163957043Y-106909932D01*
X163873408Y-107035101D01*
X163770594Y-106999011D01*
X162839605Y-107930000D01*
X162853748Y-107944143D01*
X162674143Y-108123748D01*
X162660000Y-108109605D01*
X162645858Y-108123748D01*
X162466253Y-107944143D01*
X162480395Y-107930000D01*
X161549406Y-106999011D01*
X161390000Y-107054965D01*
X161230594Y-106999011D01*
X160299605Y-107930000D01*
X160313748Y-107944143D01*
X160134143Y-108123748D01*
X160120000Y-108109605D01*
X160105858Y-108123748D01*
X159926253Y-107944143D01*
X159940395Y-107930000D01*
X159009406Y-106999011D01*
X158906592Y-107035101D01*
X158822957Y-106909932D01*
X158732431Y-106819406D01*
X159189011Y-106819406D01*
X160120000Y-107750395D01*
X161050989Y-106819406D01*
X161729011Y-106819406D01*
X162660000Y-107750395D01*
X163590989Y-106819406D01*
X163499428Y-106558562D01*
X163215744Y-106421149D01*
X162910704Y-106341721D01*
X162596029Y-106323330D01*
X162283812Y-106366682D01*
X161986052Y-106470112D01*
X161820572Y-106558562D01*
X161729011Y-106819406D01*
X161050989Y-106819406D01*
X160959428Y-106558562D01*
X160675744Y-106421149D01*
X160370704Y-106341721D01*
X160056029Y-106323330D01*
X159743812Y-106366682D01*
X159446052Y-106470112D01*
X159280572Y-106558562D01*
X159189011Y-106819406D01*
X158732431Y-106819406D01*
X158600068Y-106687043D01*
X158337979Y-106511921D01*
X158046761Y-106391294D01*
X157737606Y-106329800D01*
X157422394Y-106329800D01*
X157113239Y-106391294D01*
X156822021Y-106511921D01*
X156559932Y-106687043D01*
X156337043Y-106909932D01*
X156310000Y-106950405D01*
X156282957Y-106909932D01*
X156060068Y-106687043D01*
X155797979Y-106511921D01*
X155506761Y-106391294D01*
X155197606Y-106329800D01*
X154882394Y-106329800D01*
X154573239Y-106391294D01*
X154282021Y-106511921D01*
X154019932Y-106687043D01*
X153797043Y-106909932D01*
X153770000Y-106950405D01*
X153742957Y-106909932D01*
X153520068Y-106687043D01*
X153257979Y-106511921D01*
X152966761Y-106391294D01*
X152657606Y-106329800D01*
X152342394Y-106329800D01*
X152033239Y-106391294D01*
X151742021Y-106511921D01*
X151479932Y-106687043D01*
X151257043Y-106909932D01*
X151230000Y-106950405D01*
X151202957Y-106909932D01*
X150980068Y-106687043D01*
X150717979Y-106511921D01*
X150426761Y-106391294D01*
X150117606Y-106329800D01*
X149802394Y-106329800D01*
X149493239Y-106391294D01*
X149202021Y-106511921D01*
X148939932Y-106687043D01*
X148717043Y-106909932D01*
X148690000Y-106950405D01*
X148662957Y-106909932D01*
X148440068Y-106687043D01*
X148177979Y-106511921D01*
X147886761Y-106391294D01*
X147577606Y-106329800D01*
X147262394Y-106329800D01*
X146953239Y-106391294D01*
X146662021Y-106511921D01*
X146399932Y-106687043D01*
X146177043Y-106909932D01*
X146001921Y-107172021D01*
X145881294Y-107463239D01*
X145819800Y-107772394D01*
X145819800Y-108087606D01*
X145881294Y-108396761D01*
X146001921Y-108687979D01*
X146177043Y-108950068D01*
X146399932Y-109172957D01*
X146662021Y-109348079D01*
X146953239Y-109468706D01*
X147262394Y-109530200D01*
X147577606Y-109530200D01*
X147886761Y-109468706D01*
X148177979Y-109348079D01*
X148440068Y-109172957D01*
X148662957Y-108950068D01*
X148690000Y-108909595D01*
X148717043Y-108950068D01*
X148939932Y-109172957D01*
X149202021Y-109348079D01*
X149493239Y-109468706D01*
X149802394Y-109530200D01*
X150117606Y-109530200D01*
X150426761Y-109468706D01*
X150717979Y-109348079D01*
X150980068Y-109172957D01*
X151202957Y-108950068D01*
X151230000Y-108909595D01*
X151257043Y-108950068D01*
X151479932Y-109172957D01*
X151742021Y-109348079D01*
X151790817Y-109368291D01*
X151843468Y-109432446D01*
X151843471Y-109432449D01*
X151871184Y-109466217D01*
X151904952Y-109493930D01*
X152241022Y-109830000D01*
X135890000Y-109830000D01*
X135890000Y-105537000D01*
X135887560Y-105512224D01*
X135880333Y-105488399D01*
X135868597Y-105466443D01*
X135852803Y-105447197D01*
X135833557Y-105431403D01*
X135811601Y-105419667D01*
X135787776Y-105412440D01*
X135763000Y-105410000D01*
X131851000Y-105410000D01*
X131851000Y-98203418D01*
X131854193Y-98171000D01*
X131841450Y-98041617D01*
X131826000Y-97990686D01*
X131826000Y-97790000D01*
X131823560Y-97765224D01*
X131816333Y-97741399D01*
X131804597Y-97719443D01*
X131788803Y-97700197D01*
X131769557Y-97684403D01*
X131747601Y-97672667D01*
X131723776Y-97665440D01*
X131699000Y-97663000D01*
X131612363Y-97663000D01*
X131559450Y-97619575D01*
X131444793Y-97558290D01*
X131320383Y-97520550D01*
X131223419Y-97511000D01*
X131191000Y-97507807D01*
X131158581Y-97511000D01*
X123698000Y-97511000D01*
X123698000Y-96591415D01*
X179369790Y-96591415D01*
X179498716Y-96883945D01*
X179835186Y-97052296D01*
X180198035Y-97151771D01*
X180573318Y-97178545D01*
X180946615Y-97131591D01*
X181303578Y-97012713D01*
X181544484Y-96883945D01*
X181673410Y-96591415D01*
X184468790Y-96591415D01*
X184597716Y-96883945D01*
X184934186Y-97052296D01*
X185297035Y-97151771D01*
X185672318Y-97178545D01*
X186045615Y-97131591D01*
X186402578Y-97012713D01*
X186643484Y-96883945D01*
X186772410Y-96591415D01*
X185620600Y-95439605D01*
X184468790Y-96591415D01*
X181673410Y-96591415D01*
X180521600Y-95439605D01*
X179369790Y-96591415D01*
X123698000Y-96591415D01*
X123698000Y-95311718D01*
X178603055Y-95311718D01*
X178650009Y-95685015D01*
X178768887Y-96041978D01*
X178897655Y-96282884D01*
X179190185Y-96411810D01*
X180341995Y-95260000D01*
X179190185Y-94108190D01*
X178897655Y-94237116D01*
X178729304Y-94573586D01*
X178629829Y-94936435D01*
X178603055Y-95311718D01*
X123698000Y-95311718D01*
X123698000Y-93118940D01*
X149063178Y-93118940D01*
X149075438Y-93243422D01*
X149111748Y-93363120D01*
X149170713Y-93473434D01*
X149250065Y-93570125D01*
X149346756Y-93649477D01*
X149457070Y-93708442D01*
X149576768Y-93744752D01*
X149701250Y-93757012D01*
X150915370Y-93753940D01*
X151074120Y-93595190D01*
X151074120Y-92646500D01*
X151328120Y-92646500D01*
X151328120Y-93595190D01*
X151486870Y-93753940D01*
X152700990Y-93757012D01*
X152825472Y-93744752D01*
X152945170Y-93708442D01*
X153055484Y-93649477D01*
X153152175Y-93570125D01*
X153231527Y-93473434D01*
X153290492Y-93363120D01*
X153326802Y-93243422D01*
X153339062Y-93118940D01*
X153335990Y-92805250D01*
X153177240Y-92646500D01*
X151328120Y-92646500D01*
X151074120Y-92646500D01*
X149225000Y-92646500D01*
X149066250Y-92805250D01*
X149063178Y-93118940D01*
X123698000Y-93118940D01*
X123698000Y-82411476D01*
X131392129Y-82411476D01*
X131480623Y-82669723D01*
X131759976Y-82804597D01*
X132060275Y-82882381D01*
X132369977Y-82900084D01*
X132677184Y-82857027D01*
X132970086Y-82754865D01*
X133129377Y-82669723D01*
X133217871Y-82411476D01*
X132305000Y-81498605D01*
X131392129Y-82411476D01*
X123698000Y-82411476D01*
X123698000Y-81383977D01*
X130723916Y-81383977D01*
X130766973Y-81691184D01*
X130869135Y-81984086D01*
X130954277Y-82143377D01*
X131212524Y-82231871D01*
X132125395Y-81319000D01*
X131212524Y-80406129D01*
X130954277Y-80494623D01*
X130819403Y-80773976D01*
X130741619Y-81074275D01*
X130723916Y-81383977D01*
X123698000Y-81383977D01*
X123698000Y-80226524D01*
X131392129Y-80226524D01*
X132305000Y-81139395D01*
X133217871Y-80226524D01*
X133129377Y-79968277D01*
X132850024Y-79833403D01*
X132549725Y-79755619D01*
X132240023Y-79737916D01*
X131932816Y-79780973D01*
X131639914Y-79883135D01*
X131480623Y-79968277D01*
X131392129Y-80226524D01*
X123698000Y-80226524D01*
X123698000Y-79248000D01*
X129794000Y-79248000D01*
X129818776Y-79245560D01*
X129842601Y-79238333D01*
X129864557Y-79226597D01*
X129883803Y-79210803D01*
X129899597Y-79191557D01*
X129911333Y-79169601D01*
X129918560Y-79145776D01*
X129921000Y-79121000D01*
X129921000Y-78539314D01*
X129936450Y-78488383D01*
X129949193Y-78359000D01*
X129946000Y-78326581D01*
X129946000Y-66453418D01*
X129949193Y-66421000D01*
X129936450Y-66291617D01*
X129921000Y-66240686D01*
X129921000Y-66167000D01*
X129918560Y-66142224D01*
X129911333Y-66118399D01*
X129899597Y-66096443D01*
X129883803Y-66077197D01*
X129864557Y-66061403D01*
X129842601Y-66049667D01*
X129832559Y-66046621D01*
X129754948Y-65952052D01*
X129654450Y-65869575D01*
X129539793Y-65808290D01*
X129415383Y-65770550D01*
X129318419Y-65761000D01*
X129286000Y-65757807D01*
X129253581Y-65761000D01*
X120167000Y-65761000D01*
X120167000Y-57810000D01*
X133503292Y-57810000D01*
X133303239Y-57943671D01*
G36*
X175467201Y-82280081D02*
G01*
X175462919Y-82323560D01*
X175480005Y-82497050D01*
X175530612Y-82663873D01*
X175612790Y-82817619D01*
X175695668Y-82918606D01*
X175695671Y-82918609D01*
X175723384Y-82952377D01*
X175757151Y-82980089D01*
X176011160Y-83234099D01*
X176013405Y-83256890D01*
X176064011Y-83423713D01*
X176146189Y-83577459D01*
X176256783Y-83712217D01*
X176391541Y-83822811D01*
X176545287Y-83904989D01*
X176712110Y-83955595D01*
X176842123Y-83968400D01*
X176921221Y-83968400D01*
X176367294Y-84522328D01*
X176305800Y-84522328D01*
X176142300Y-84538431D01*
X175985084Y-84586122D01*
X175840192Y-84663569D01*
X175713194Y-84767794D01*
X175652581Y-84841651D01*
X175581337Y-84735026D01*
X175437174Y-84590863D01*
X175267656Y-84477595D01*
X175079298Y-84399574D01*
X174879339Y-84359800D01*
X174675461Y-84359800D01*
X174475502Y-84399574D01*
X174287144Y-84477595D01*
X174165561Y-84558834D01*
X174098300Y-84538431D01*
X173934800Y-84522328D01*
X173384800Y-84522328D01*
X173221300Y-84538431D01*
X173064084Y-84586122D01*
X172919192Y-84663569D01*
X172792194Y-84767794D01*
X172687969Y-84894792D01*
X172610522Y-85039684D01*
X172562831Y-85196900D01*
X172546728Y-85360400D01*
X172546728Y-85760400D01*
X172562831Y-85923900D01*
X172610522Y-86081116D01*
X172687969Y-86226008D01*
X172792194Y-86353006D01*
X172831666Y-86385400D01*
X172792194Y-86417794D01*
X172773815Y-86440188D01*
X172691698Y-86406174D01*
X172491739Y-86366400D01*
X172287861Y-86366400D01*
X172087902Y-86406174D01*
X171899544Y-86484195D01*
X171730026Y-86597463D01*
X171585863Y-86741626D01*
X171472595Y-86911144D01*
X171394574Y-87099502D01*
X171369800Y-87224050D01*
X171369800Y-83383120D01*
X171375808Y-83383120D01*
X171388068Y-83507602D01*
X171424378Y-83627300D01*
X171483343Y-83737614D01*
X171562695Y-83834305D01*
X171659386Y-83913657D01*
X171769700Y-83972622D01*
X171889398Y-84008932D01*
X172013880Y-84021192D01*
X172327570Y-84018120D01*
X172486320Y-83859370D01*
X172486320Y-83210400D01*
X172740320Y-83210400D01*
X172740320Y-83859370D01*
X172899070Y-84018120D01*
X173212760Y-84021192D01*
X173337242Y-84008932D01*
X173456940Y-83972622D01*
X173567254Y-83913657D01*
X173663945Y-83834305D01*
X173743297Y-83737614D01*
X173802262Y-83627300D01*
X173838572Y-83507602D01*
X173850832Y-83383120D01*
X173847760Y-83369150D01*
X173689010Y-83210400D01*
X172740320Y-83210400D01*
X172486320Y-83210400D01*
X171537630Y-83210400D01*
X171378880Y-83369150D01*
X171375808Y-83383120D01*
X171369800Y-83383120D01*
X171369800Y-81939058D01*
X171375808Y-81933050D01*
X171375808Y-82113120D01*
X171388068Y-82237602D01*
X171424378Y-82357300D01*
X171473073Y-82448400D01*
X171424378Y-82539500D01*
X171388068Y-82659198D01*
X171375808Y-82783680D01*
X171378880Y-82797650D01*
X171537630Y-82956400D01*
X172486320Y-82956400D01*
X172486320Y-82936400D01*
X172740320Y-82936400D01*
X172740320Y-82956400D01*
X173689010Y-82956400D01*
X173752773Y-82892637D01*
X173913461Y-82924600D01*
X174117339Y-82924600D01*
X174317298Y-82884826D01*
X174505656Y-82806805D01*
X174675174Y-82693537D01*
X174819337Y-82549374D01*
X174932605Y-82379856D01*
X175010626Y-82191498D01*
X175021935Y-82134643D01*
X175467201Y-81689378D01*
X175467201Y-82280081D01*
G37*
X175467201Y-82280081D02*
X175462919Y-82323560D01*
X175480005Y-82497050D01*
X175530612Y-82663873D01*
X175612790Y-82817619D01*
X175695668Y-82918606D01*
X175695671Y-82918609D01*
X175723384Y-82952377D01*
X175757151Y-82980089D01*
X176011160Y-83234099D01*
X176013405Y-83256890D01*
X176064011Y-83423713D01*
X176146189Y-83577459D01*
X176256783Y-83712217D01*
X176391541Y-83822811D01*
X176545287Y-83904989D01*
X176712110Y-83955595D01*
X176842123Y-83968400D01*
X176921221Y-83968400D01*
X176367294Y-84522328D01*
X176305800Y-84522328D01*
X176142300Y-84538431D01*
X175985084Y-84586122D01*
X175840192Y-84663569D01*
X175713194Y-84767794D01*
X175652581Y-84841651D01*
X175581337Y-84735026D01*
X175437174Y-84590863D01*
X175267656Y-84477595D01*
X175079298Y-84399574D01*
X174879339Y-84359800D01*
X174675461Y-84359800D01*
X174475502Y-84399574D01*
X174287144Y-84477595D01*
X174165561Y-84558834D01*
X174098300Y-84538431D01*
X173934800Y-84522328D01*
X173384800Y-84522328D01*
X173221300Y-84538431D01*
X173064084Y-84586122D01*
X172919192Y-84663569D01*
X172792194Y-84767794D01*
X172687969Y-84894792D01*
X172610522Y-85039684D01*
X172562831Y-85196900D01*
X172546728Y-85360400D01*
X172546728Y-85760400D01*
X172562831Y-85923900D01*
X172610522Y-86081116D01*
X172687969Y-86226008D01*
X172792194Y-86353006D01*
X172831666Y-86385400D01*
X172792194Y-86417794D01*
X172773815Y-86440188D01*
X172691698Y-86406174D01*
X172491739Y-86366400D01*
X172287861Y-86366400D01*
X172087902Y-86406174D01*
X171899544Y-86484195D01*
X171730026Y-86597463D01*
X171585863Y-86741626D01*
X171472595Y-86911144D01*
X171394574Y-87099502D01*
X171369800Y-87224050D01*
X171369800Y-83383120D01*
X171375808Y-83383120D01*
X171388068Y-83507602D01*
X171424378Y-83627300D01*
X171483343Y-83737614D01*
X171562695Y-83834305D01*
X171659386Y-83913657D01*
X171769700Y-83972622D01*
X171889398Y-84008932D01*
X172013880Y-84021192D01*
X172327570Y-84018120D01*
X172486320Y-83859370D01*
X172486320Y-83210400D01*
X172740320Y-83210400D01*
X172740320Y-83859370D01*
X172899070Y-84018120D01*
X173212760Y-84021192D01*
X173337242Y-84008932D01*
X173456940Y-83972622D01*
X173567254Y-83913657D01*
X173663945Y-83834305D01*
X173743297Y-83737614D01*
X173802262Y-83627300D01*
X173838572Y-83507602D01*
X173850832Y-83383120D01*
X173847760Y-83369150D01*
X173689010Y-83210400D01*
X172740320Y-83210400D01*
X172486320Y-83210400D01*
X171537630Y-83210400D01*
X171378880Y-83369150D01*
X171375808Y-83383120D01*
X171369800Y-83383120D01*
X171369800Y-81939058D01*
X171375808Y-81933050D01*
X171375808Y-82113120D01*
X171388068Y-82237602D01*
X171424378Y-82357300D01*
X171473073Y-82448400D01*
X171424378Y-82539500D01*
X171388068Y-82659198D01*
X171375808Y-82783680D01*
X171378880Y-82797650D01*
X171537630Y-82956400D01*
X172486320Y-82956400D01*
X172486320Y-82936400D01*
X172740320Y-82936400D01*
X172740320Y-82956400D01*
X173689010Y-82956400D01*
X173752773Y-82892637D01*
X173913461Y-82924600D01*
X174117339Y-82924600D01*
X174317298Y-82884826D01*
X174505656Y-82806805D01*
X174675174Y-82693537D01*
X174819337Y-82549374D01*
X174932605Y-82379856D01*
X175010626Y-82191498D01*
X175021935Y-82134643D01*
X175467201Y-81689378D01*
X175467201Y-82280081D01*
%TD*%
M02*
