%TF.GenerationSoftware,KiCad,Pcbnew,5.1.6+dfsg1-1*%
%TF.CreationDate,2021-02-21T15:05:16+01:00*%
%TF.ProjectId,RFMduino,52464d64-7569-46e6-9f2e-6b696361645f,rev?*%
%TF.SameCoordinates,Original*%
%TF.FileFunction,Soldermask,Top*%
%TF.FilePolarity,Negative*%
%FSLAX46Y46*%
G04 Gerber Fmt 4.6, Leading zero omitted, Abs format (unit mm)*
G04 Created by KiCad (PCBNEW 5.1.6+dfsg1-1) date 2021-02-21 15:05:16*
%MOMM*%
%LPD*%
G01*
G04 APERTURE LIST*
%ADD10C,2.082800*%
%ADD11C,2.550000*%
%ADD12R,1.750000X0.950000*%
%ADD13R,1.750000X3.200000*%
%ADD14R,1.402080X0.802640*%
%ADD15R,3.202940X1.402080*%
%ADD16C,2.133600*%
%ADD17C,3.378200*%
G04 APERTURE END LIST*
%TO.C,R6*%
G36*
G01*
X140264500Y-77721750D02*
X140264500Y-78234250D01*
G75*
G02*
X140045750Y-78453000I-218750J0D01*
G01*
X139608250Y-78453000D01*
G75*
G02*
X139389500Y-78234250I0J218750D01*
G01*
X139389500Y-77721750D01*
G75*
G02*
X139608250Y-77503000I218750J0D01*
G01*
X140045750Y-77503000D01*
G75*
G02*
X140264500Y-77721750I0J-218750D01*
G01*
G37*
G36*
G01*
X141839500Y-77721750D02*
X141839500Y-78234250D01*
G75*
G02*
X141620750Y-78453000I-218750J0D01*
G01*
X141183250Y-78453000D01*
G75*
G02*
X140964500Y-78234250I0J218750D01*
G01*
X140964500Y-77721750D01*
G75*
G02*
X141183250Y-77503000I218750J0D01*
G01*
X141620750Y-77503000D01*
G75*
G02*
X141839500Y-77721750I0J-218750D01*
G01*
G37*
%TD*%
%TO.C,R5*%
G36*
G01*
X136722500Y-78234250D02*
X136722500Y-77721750D01*
G75*
G02*
X136941250Y-77503000I218750J0D01*
G01*
X137378750Y-77503000D01*
G75*
G02*
X137597500Y-77721750I0J-218750D01*
G01*
X137597500Y-78234250D01*
G75*
G02*
X137378750Y-78453000I-218750J0D01*
G01*
X136941250Y-78453000D01*
G75*
G02*
X136722500Y-78234250I0J218750D01*
G01*
G37*
G36*
G01*
X135147500Y-78234250D02*
X135147500Y-77721750D01*
G75*
G02*
X135366250Y-77503000I218750J0D01*
G01*
X135803750Y-77503000D01*
G75*
G02*
X136022500Y-77721750I0J-218750D01*
G01*
X136022500Y-78234250D01*
G75*
G02*
X135803750Y-78453000I-218750J0D01*
G01*
X135366250Y-78453000D01*
G75*
G02*
X135147500Y-78234250I0J218750D01*
G01*
G37*
%TD*%
%TO.C,R1*%
G36*
G01*
X173384800Y-86810400D02*
X173934800Y-86810400D01*
G75*
G02*
X174134800Y-87010400I0J-200000D01*
G01*
X174134800Y-87410400D01*
G75*
G02*
X173934800Y-87610400I-200000J0D01*
G01*
X173384800Y-87610400D01*
G75*
G02*
X173184800Y-87410400I0J200000D01*
G01*
X173184800Y-87010400D01*
G75*
G02*
X173384800Y-86810400I200000J0D01*
G01*
G37*
G36*
G01*
X173384800Y-85160400D02*
X173934800Y-85160400D01*
G75*
G02*
X174134800Y-85360400I0J-200000D01*
G01*
X174134800Y-85760400D01*
G75*
G02*
X173934800Y-85960400I-200000J0D01*
G01*
X173384800Y-85960400D01*
G75*
G02*
X173184800Y-85760400I0J200000D01*
G01*
X173184800Y-85360400D01*
G75*
G02*
X173384800Y-85160400I200000J0D01*
G01*
G37*
%TD*%
%TO.C,C1*%
G36*
G01*
X142119600Y-66721800D02*
X142119600Y-66221800D01*
G75*
G02*
X142344600Y-65996800I225000J0D01*
G01*
X142794600Y-65996800D01*
G75*
G02*
X143019600Y-66221800I0J-225000D01*
G01*
X143019600Y-66721800D01*
G75*
G02*
X142794600Y-66946800I-225000J0D01*
G01*
X142344600Y-66946800D01*
G75*
G02*
X142119600Y-66721800I0J225000D01*
G01*
G37*
G36*
G01*
X143669600Y-66721800D02*
X143669600Y-66221800D01*
G75*
G02*
X143894600Y-65996800I225000J0D01*
G01*
X144344600Y-65996800D01*
G75*
G02*
X144569600Y-66221800I0J-225000D01*
G01*
X144569600Y-66721800D01*
G75*
G02*
X144344600Y-66946800I-225000J0D01*
G01*
X143894600Y-66946800D01*
G75*
G02*
X143669600Y-66721800I0J225000D01*
G01*
G37*
%TD*%
%TO.C,C2*%
G36*
G01*
X145194200Y-76551600D02*
X145194200Y-76051600D01*
G75*
G02*
X145419200Y-75826600I225000J0D01*
G01*
X145869200Y-75826600D01*
G75*
G02*
X146094200Y-76051600I0J-225000D01*
G01*
X146094200Y-76551600D01*
G75*
G02*
X145869200Y-76776600I-225000J0D01*
G01*
X145419200Y-76776600D01*
G75*
G02*
X145194200Y-76551600I0J225000D01*
G01*
G37*
G36*
G01*
X143644200Y-76551600D02*
X143644200Y-76051600D01*
G75*
G02*
X143869200Y-75826600I225000J0D01*
G01*
X144319200Y-75826600D01*
G75*
G02*
X144544200Y-76051600I0J-225000D01*
G01*
X144544200Y-76551600D01*
G75*
G02*
X144319200Y-76776600I-225000J0D01*
G01*
X143869200Y-76776600D01*
G75*
G02*
X143644200Y-76551600I0J225000D01*
G01*
G37*
%TD*%
%TO.C,C3*%
G36*
G01*
X171446000Y-71836400D02*
X170946000Y-71836400D01*
G75*
G02*
X170721000Y-71611400I0J225000D01*
G01*
X170721000Y-71161400D01*
G75*
G02*
X170946000Y-70936400I225000J0D01*
G01*
X171446000Y-70936400D01*
G75*
G02*
X171671000Y-71161400I0J-225000D01*
G01*
X171671000Y-71611400D01*
G75*
G02*
X171446000Y-71836400I-225000J0D01*
G01*
G37*
G36*
G01*
X171446000Y-73386400D02*
X170946000Y-73386400D01*
G75*
G02*
X170721000Y-73161400I0J225000D01*
G01*
X170721000Y-72711400D01*
G75*
G02*
X170946000Y-72486400I225000J0D01*
G01*
X171446000Y-72486400D01*
G75*
G02*
X171671000Y-72711400I0J-225000D01*
G01*
X171671000Y-73161400D01*
G75*
G02*
X171446000Y-73386400I-225000J0D01*
G01*
G37*
%TD*%
%TO.C,C4*%
G36*
G01*
X168812400Y-84817200D02*
X169312400Y-84817200D01*
G75*
G02*
X169537400Y-85042200I0J-225000D01*
G01*
X169537400Y-85492200D01*
G75*
G02*
X169312400Y-85717200I-225000J0D01*
G01*
X168812400Y-85717200D01*
G75*
G02*
X168587400Y-85492200I0J225000D01*
G01*
X168587400Y-85042200D01*
G75*
G02*
X168812400Y-84817200I225000J0D01*
G01*
G37*
G36*
G01*
X168812400Y-86367200D02*
X169312400Y-86367200D01*
G75*
G02*
X169537400Y-86592200I0J-225000D01*
G01*
X169537400Y-87042200D01*
G75*
G02*
X169312400Y-87267200I-225000J0D01*
G01*
X168812400Y-87267200D01*
G75*
G02*
X168587400Y-87042200I0J225000D01*
G01*
X168587400Y-86592200D01*
G75*
G02*
X168812400Y-86367200I225000J0D01*
G01*
G37*
%TD*%
D10*
%TO.C,J1*%
X139979400Y-69113400D03*
X139979400Y-71653400D03*
%TD*%
%TO.C,J2*%
X139925000Y-81319000D03*
X137385000Y-81319000D03*
X134845000Y-81319000D03*
X132305000Y-81319000D03*
%TD*%
%TO.C,J3*%
X176199800Y-92506800D03*
%TD*%
D11*
%TO.C,J4*%
X183070600Y-92710000D03*
X180521600Y-95260000D03*
X185620600Y-95260000D03*
X185620600Y-90160000D03*
X180521600Y-90160000D03*
%TD*%
%TO.C,R2*%
G36*
G01*
X176305800Y-85160400D02*
X176855800Y-85160400D01*
G75*
G02*
X177055800Y-85360400I0J-200000D01*
G01*
X177055800Y-85760400D01*
G75*
G02*
X176855800Y-85960400I-200000J0D01*
G01*
X176305800Y-85960400D01*
G75*
G02*
X176105800Y-85760400I0J200000D01*
G01*
X176105800Y-85360400D01*
G75*
G02*
X176305800Y-85160400I200000J0D01*
G01*
G37*
G36*
G01*
X176305800Y-86810400D02*
X176855800Y-86810400D01*
G75*
G02*
X177055800Y-87010400I0J-200000D01*
G01*
X177055800Y-87410400D01*
G75*
G02*
X176855800Y-87610400I-200000J0D01*
G01*
X176305800Y-87610400D01*
G75*
G02*
X176105800Y-87410400I0J200000D01*
G01*
X176105800Y-87010400D01*
G75*
G02*
X176305800Y-86810400I200000J0D01*
G01*
G37*
%TD*%
D12*
%TO.C,U1*%
X150571200Y-73685400D03*
X150571200Y-71385400D03*
X150571200Y-69085400D03*
D13*
X144271200Y-71385400D03*
%TD*%
D14*
%TO.C,U2*%
X172613320Y-74193400D03*
X172613320Y-75463400D03*
X172613320Y-76733400D03*
X172613320Y-78003400D03*
X172613320Y-79273400D03*
X172613320Y-80543400D03*
X172613320Y-81813400D03*
X172613320Y-83083400D03*
X178211480Y-83083400D03*
X178211480Y-81813400D03*
X178211480Y-80543400D03*
X178211480Y-79273400D03*
X178211480Y-78003400D03*
X178211480Y-76733400D03*
X178211480Y-75463400D03*
X178211480Y-74193400D03*
%TD*%
D15*
%TO.C,U3*%
X151201120Y-78524100D03*
X151201120Y-80523080D03*
X151201120Y-82522060D03*
X151201120Y-84523580D03*
X151201120Y-86520020D03*
X151201120Y-88521540D03*
X151201120Y-90520520D03*
X151201120Y-92519500D03*
X166197280Y-92519500D03*
X166197280Y-90520520D03*
X166197280Y-88521540D03*
X166197280Y-86520020D03*
X166197280Y-84523580D03*
X166197280Y-82522060D03*
X166197280Y-80523080D03*
X166197280Y-78524100D03*
%TD*%
D16*
%TO.C,B1*%
X155040000Y-107930000D03*
X157580000Y-107930000D03*
X170280000Y-107930000D03*
X172820000Y-107930000D03*
X175360000Y-107930000D03*
X177900000Y-107930000D03*
X180440000Y-107930000D03*
X182980000Y-107930000D03*
X143356000Y-59670000D03*
X182980000Y-59670000D03*
X180440000Y-59670000D03*
X177900000Y-59670000D03*
X175360000Y-59670000D03*
X172820000Y-59670000D03*
X170280000Y-59670000D03*
X167740000Y-59670000D03*
X165200000Y-59670000D03*
X161136000Y-59670000D03*
X158596000Y-59670000D03*
X156056000Y-59670000D03*
X153516000Y-59670000D03*
X150976000Y-59670000D03*
X148436000Y-59670000D03*
X160120000Y-107930000D03*
X162660000Y-107930000D03*
X145896000Y-59670000D03*
X185659700Y-85118260D03*
X149960000Y-107930000D03*
X183119700Y-80040800D03*
X185659700Y-82580800D03*
X147420000Y-107930000D03*
X152500000Y-107930000D03*
X183119700Y-85118260D03*
X183119700Y-82580800D03*
X138276000Y-59670000D03*
X140816000Y-59670000D03*
X185659700Y-80040800D03*
X165200000Y-107930000D03*
D17*
X134720000Y-59670000D03*
X185520000Y-74910000D03*
X185520000Y-102850000D03*
X133450000Y-107930000D03*
%TD*%
M02*
