%TF.GenerationSoftware,KiCad,Pcbnew,5.1.6+dfsg1-1*%
%TF.CreationDate,2021-02-21T15:05:16+01:00*%
%TF.ProjectId,RFMduino,52464d64-7569-46e6-9f2e-6b696361645f,rev?*%
%TF.SameCoordinates,Original*%
%TF.FileFunction,Soldermask,Bot*%
%TF.FilePolarity,Negative*%
%FSLAX46Y46*%
G04 Gerber Fmt 4.6, Leading zero omitted, Abs format (unit mm)*
G04 Created by KiCad (PCBNEW 5.1.6+dfsg1-1) date 2021-02-21 15:05:16*
%MOMM*%
%LPD*%
G01*
G04 APERTURE LIST*
%ADD10C,2.082800*%
%ADD11C,2.550000*%
%ADD12R,0.900000X0.800000*%
%ADD13C,2.133600*%
%ADD14C,3.378200*%
G04 APERTURE END LIST*
D10*
%TO.C,J1*%
X139979400Y-69113400D03*
X139979400Y-71653400D03*
%TD*%
%TO.C,J2*%
X139925000Y-81319000D03*
X137385000Y-81319000D03*
X134845000Y-81319000D03*
X132305000Y-81319000D03*
%TD*%
%TO.C,J3*%
X176199800Y-92506800D03*
%TD*%
D11*
%TO.C,J4*%
X183070600Y-92710000D03*
X180521600Y-95260000D03*
X185620600Y-95260000D03*
X185620600Y-90160000D03*
X180521600Y-90160000D03*
%TD*%
D12*
%TO.C,Q1*%
X160659800Y-76042400D03*
X160659800Y-74142400D03*
X162659800Y-75092400D03*
%TD*%
%TO.C,R3*%
G36*
G01*
X182428600Y-73639000D02*
X182428600Y-74189000D01*
G75*
G02*
X182228600Y-74389000I-200000J0D01*
G01*
X181828600Y-74389000D01*
G75*
G02*
X181628600Y-74189000I0J200000D01*
G01*
X181628600Y-73639000D01*
G75*
G02*
X181828600Y-73439000I200000J0D01*
G01*
X182228600Y-73439000D01*
G75*
G02*
X182428600Y-73639000I0J-200000D01*
G01*
G37*
G36*
G01*
X180778600Y-73639000D02*
X180778600Y-74189000D01*
G75*
G02*
X180578600Y-74389000I-200000J0D01*
G01*
X180178600Y-74389000D01*
G75*
G02*
X179978600Y-74189000I0J200000D01*
G01*
X179978600Y-73639000D01*
G75*
G02*
X180178600Y-73439000I200000J0D01*
G01*
X180578600Y-73439000D01*
G75*
G02*
X180778600Y-73639000I0J-200000D01*
G01*
G37*
%TD*%
%TO.C,R4*%
G36*
G01*
X158934800Y-74992400D02*
X158384800Y-74992400D01*
G75*
G02*
X158184800Y-74792400I0J200000D01*
G01*
X158184800Y-74392400D01*
G75*
G02*
X158384800Y-74192400I200000J0D01*
G01*
X158934800Y-74192400D01*
G75*
G02*
X159134800Y-74392400I0J-200000D01*
G01*
X159134800Y-74792400D01*
G75*
G02*
X158934800Y-74992400I-200000J0D01*
G01*
G37*
G36*
G01*
X158934800Y-76642400D02*
X158384800Y-76642400D01*
G75*
G02*
X158184800Y-76442400I0J200000D01*
G01*
X158184800Y-76042400D01*
G75*
G02*
X158384800Y-75842400I200000J0D01*
G01*
X158934800Y-75842400D01*
G75*
G02*
X159134800Y-76042400I0J-200000D01*
G01*
X159134800Y-76442400D01*
G75*
G02*
X158934800Y-76642400I-200000J0D01*
G01*
G37*
%TD*%
D13*
%TO.C,B1*%
X155040000Y-107930000D03*
X157580000Y-107930000D03*
X170280000Y-107930000D03*
X172820000Y-107930000D03*
X175360000Y-107930000D03*
X177900000Y-107930000D03*
X180440000Y-107930000D03*
X182980000Y-107930000D03*
X143356000Y-59670000D03*
X182980000Y-59670000D03*
X180440000Y-59670000D03*
X177900000Y-59670000D03*
X175360000Y-59670000D03*
X172820000Y-59670000D03*
X170280000Y-59670000D03*
X167740000Y-59670000D03*
X165200000Y-59670000D03*
X161136000Y-59670000D03*
X158596000Y-59670000D03*
X156056000Y-59670000D03*
X153516000Y-59670000D03*
X150976000Y-59670000D03*
X148436000Y-59670000D03*
X160120000Y-107930000D03*
X162660000Y-107930000D03*
X145896000Y-59670000D03*
X185659700Y-85118260D03*
X149960000Y-107930000D03*
X183119700Y-80040800D03*
X185659700Y-82580800D03*
X147420000Y-107930000D03*
X152500000Y-107930000D03*
X183119700Y-85118260D03*
X183119700Y-82580800D03*
X138276000Y-59670000D03*
X140816000Y-59670000D03*
X185659700Y-80040800D03*
X165200000Y-107930000D03*
D14*
X134720000Y-59670000D03*
X185520000Y-74910000D03*
X185520000Y-102850000D03*
X133450000Y-107930000D03*
%TD*%
M02*
