M48
; DRILL file {KiCad 5.1.6+dfsg1-1} date Sun Feb 21 15:05:12 2021
; FORMAT={-:-/ absolute / inch / decimal}
; #@! TF.CreationDate,2021-02-21T15:05:12+01:00
; #@! TF.GenerationSoftware,Kicad,Pcbnew,5.1.6+dfsg1-1
; #@! TF.FileFunction,Plated,1,2,PTH
FMAT,2
INCH
T1C0.0157
T2C0.0400
T3C0.0669
%
G90
G05
T1
X6.001Y-2.925
X6.01Y-2.8285
X6.042Y-2.871
X6.15Y-2.96
X6.394Y-3.258
X6.45Y-3.438
X6.46Y-3.493
X6.712Y-3.493
X6.787Y-3.441
X6.851Y-3.224
X6.87Y-3.12
X6.871Y-3.021
X6.881Y-3.362
X6.894Y-3.449
X6.899Y-2.55
X6.907Y-2.432
X7.0217Y-3.849
X7.027Y-3.509
X7.03Y-2.795
X7.124Y-3.119
X7.145Y-3.006
X7.212Y-3.033
T2
X6.937Y-3.642
X5.2089Y-3.2015
X5.3089Y-3.2015
X5.4089Y-3.2015
X5.5089Y-3.2015
X5.511Y-2.721
X5.511Y-2.821
X5.4439Y-2.3492
X5.5439Y-2.3492
X5.6439Y-2.3492
X5.7439Y-2.3492
X5.8039Y-4.2492
X5.8439Y-2.3492
X5.9039Y-4.2492
X5.9439Y-2.3492
X6.0039Y-4.2492
X6.0439Y-2.3492
X6.1039Y-4.2492
X6.1439Y-2.3492
X6.2039Y-4.2492
X6.2439Y-2.3492
X6.3039Y-4.2492
X6.3439Y-2.3492
X6.4039Y-4.2492
X6.5039Y-2.3492
X6.5039Y-4.2492
X6.6039Y-2.3492
X6.7039Y-2.3492
X6.7039Y-4.2492
X6.8039Y-2.3492
X6.8039Y-4.2492
X6.9039Y-2.3492
X6.9039Y-4.2492
X7.0039Y-2.3492
X7.0039Y-4.2492
X7.1039Y-2.3492
X7.1039Y-4.2492
X7.2039Y-2.3492
X7.2039Y-4.2492
X7.2094Y-3.1512
X7.2094Y-3.2512
X7.2094Y-3.3511
X7.3094Y-3.1512
X7.3094Y-3.2512
X7.3094Y-3.3511
T3
X7.1071Y-3.5496
X7.1071Y-3.7504
X7.2075Y-3.65
X7.3079Y-3.5496
X7.3079Y-3.7504
T0
M30
