%TF.GenerationSoftware,KiCad,Pcbnew,5.1.6+dfsg1-1*%
%TF.CreationDate,2021-02-21T15:05:16+01:00*%
%TF.ProjectId,RFMduino,52464d64-7569-46e6-9f2e-6b696361645f,rev?*%
%TF.SameCoordinates,Original*%
%TF.FileFunction,Copper,L2,Bot*%
%TF.FilePolarity,Positive*%
%FSLAX46Y46*%
G04 Gerber Fmt 4.6, Leading zero omitted, Abs format (unit mm)*
G04 Created by KiCad (PCBNEW 5.1.6+dfsg1-1) date 2021-02-21 15:05:16*
%MOMM*%
%LPD*%
G01*
G04 APERTURE LIST*
%TA.AperFunction,ComponentPad*%
%ADD10C,1.879600*%
%TD*%
%TA.AperFunction,ComponentPad*%
%ADD11C,2.550000*%
%TD*%
%TA.AperFunction,SMDPad,CuDef*%
%ADD12R,0.900000X0.800000*%
%TD*%
%TA.AperFunction,ComponentPad*%
%ADD13C,1.930400*%
%TD*%
%TA.AperFunction,ViaPad*%
%ADD14C,0.800000*%
%TD*%
%TA.AperFunction,Conductor*%
%ADD15C,0.500000*%
%TD*%
%TA.AperFunction,Conductor*%
%ADD16C,0.254000*%
%TD*%
G04 APERTURE END LIST*
D10*
%TO.P,J1,1*%
%TO.N,Net-(C1-Pad1)*%
X139979400Y-69113400D03*
%TO.P,J1,2*%
%TO.N,VCC*%
X139979400Y-71653400D03*
%TD*%
%TO.P,J2,1*%
%TO.N,/SDA*%
X139925000Y-81319000D03*
%TO.P,J2,2*%
%TO.N,/SCL*%
X137385000Y-81319000D03*
%TO.P,J2,3*%
%TO.N,5V*%
X134845000Y-81319000D03*
%TO.P,J2,4*%
%TO.N,Earth*%
X132305000Y-81319000D03*
%TD*%
%TO.P,J3,1*%
%TO.N,/ANT*%
X176199800Y-92506800D03*
%TD*%
D11*
%TO.P,J4,1*%
%TO.N,/ANT*%
X183070600Y-92710000D03*
%TO.P,J4,2*%
%TO.N,Earth*%
X180521600Y-95260000D03*
%TO.P,J4,3*%
X185620600Y-95260000D03*
%TO.P,J4,4*%
X185620600Y-90160000D03*
%TO.P,J4,5*%
X180521600Y-90160000D03*
%TD*%
D12*
%TO.P,Q1,1*%
%TO.N,+3V3*%
X160659800Y-76042400D03*
%TO.P,Q1,2*%
%TO.N,/MISO_3V3*%
X160659800Y-74142400D03*
%TO.P,Q1,3*%
%TO.N,/MISO_5V*%
X162659800Y-75092400D03*
%TD*%
%TO.P,R3,1*%
%TO.N,5V*%
%TA.AperFunction,SMDPad,CuDef*%
G36*
G01*
X182428600Y-73639000D02*
X182428600Y-74189000D01*
G75*
G02*
X182228600Y-74389000I-200000J0D01*
G01*
X181828600Y-74389000D01*
G75*
G02*
X181628600Y-74189000I0J200000D01*
G01*
X181628600Y-73639000D01*
G75*
G02*
X181828600Y-73439000I200000J0D01*
G01*
X182228600Y-73439000D01*
G75*
G02*
X182428600Y-73639000I0J-200000D01*
G01*
G37*
%TD.AperFunction*%
%TO.P,R3,2*%
%TO.N,/MISO_5V*%
%TA.AperFunction,SMDPad,CuDef*%
G36*
G01*
X180778600Y-73639000D02*
X180778600Y-74189000D01*
G75*
G02*
X180578600Y-74389000I-200000J0D01*
G01*
X180178600Y-74389000D01*
G75*
G02*
X179978600Y-74189000I0J200000D01*
G01*
X179978600Y-73639000D01*
G75*
G02*
X180178600Y-73439000I200000J0D01*
G01*
X180578600Y-73439000D01*
G75*
G02*
X180778600Y-73639000I0J-200000D01*
G01*
G37*
%TD.AperFunction*%
%TD*%
%TO.P,R4,2*%
%TO.N,/MISO_3V3*%
%TA.AperFunction,SMDPad,CuDef*%
G36*
G01*
X158934800Y-74992400D02*
X158384800Y-74992400D01*
G75*
G02*
X158184800Y-74792400I0J200000D01*
G01*
X158184800Y-74392400D01*
G75*
G02*
X158384800Y-74192400I200000J0D01*
G01*
X158934800Y-74192400D01*
G75*
G02*
X159134800Y-74392400I0J-200000D01*
G01*
X159134800Y-74792400D01*
G75*
G02*
X158934800Y-74992400I-200000J0D01*
G01*
G37*
%TD.AperFunction*%
%TO.P,R4,1*%
%TO.N,+3V3*%
%TA.AperFunction,SMDPad,CuDef*%
G36*
G01*
X158934800Y-76642400D02*
X158384800Y-76642400D01*
G75*
G02*
X158184800Y-76442400I0J200000D01*
G01*
X158184800Y-76042400D01*
G75*
G02*
X158384800Y-75842400I200000J0D01*
G01*
X158934800Y-75842400D01*
G75*
G02*
X159134800Y-76042400I0J-200000D01*
G01*
X159134800Y-76442400D01*
G75*
G02*
X158934800Y-76642400I-200000J0D01*
G01*
G37*
%TD.AperFunction*%
%TD*%
D13*
%TO.P,B1,3.3V*%
%TO.N,Net-(B1-Pad3.3V)*%
X155040000Y-107930000D03*
%TO.P,B1,5V*%
%TO.N,5V*%
X157580000Y-107930000D03*
%TO.P,B1,A0*%
%TO.N,Net-(B1-PadA0)*%
X170280000Y-107930000D03*
%TO.P,B1,A1*%
%TO.N,Net-(B1-PadA1)*%
X172820000Y-107930000D03*
%TO.P,B1,A2*%
%TO.N,Net-(B1-PadA2)*%
X175360000Y-107930000D03*
%TO.P,B1,A3*%
%TO.N,Net-(B1-PadA3)*%
X177900000Y-107930000D03*
%TO.P,B1,A4*%
%TO.N,Net-(B1-PadA4)*%
X180440000Y-107930000D03*
%TO.P,B1,A5*%
%TO.N,Net-(B1-PadA5)*%
X182980000Y-107930000D03*
%TO.P,B1,AREF*%
%TO.N,Net-(B1-PadAREF)*%
X143356000Y-59670000D03*
%TO.P,B1,D0*%
%TO.N,Net-(B1-PadD0)*%
X182980000Y-59670000D03*
%TO.P,B1,D1*%
%TO.N,Net-(B1-PadD1)*%
X180440000Y-59670000D03*
%TO.P,B1,D2*%
%TO.N,Net-(B1-PadD2)*%
X177900000Y-59670000D03*
%TO.P,B1,D3*%
%TO.N,/RST_5V*%
X175360000Y-59670000D03*
%TO.P,B1,D4*%
%TO.N,/CS_5V*%
X172820000Y-59670000D03*
%TO.P,B1,D5*%
%TO.N,Net-(B1-PadD5)*%
X170280000Y-59670000D03*
%TO.P,B1,D6*%
%TO.N,Net-(B1-PadD6)*%
X167740000Y-59670000D03*
%TO.P,B1,D7*%
%TO.N,Net-(B1-PadD7)*%
X165200000Y-59670000D03*
%TO.P,B1,D8*%
%TO.N,Net-(B1-PadD8)*%
X161136000Y-59670000D03*
%TO.P,B1,D9*%
%TO.N,Net-(B1-PadD9)*%
X158596000Y-59670000D03*
%TO.P,B1,D10*%
%TO.N,Net-(B1-PadD10)*%
X156056000Y-59670000D03*
%TO.P,B1,D11*%
%TO.N,Net-(B1-PadD11)*%
X153516000Y-59670000D03*
%TO.P,B1,D12*%
%TO.N,Net-(B1-PadD12)*%
X150976000Y-59670000D03*
%TO.P,B1,D13*%
%TO.N,Net-(B1-PadD13)*%
X148436000Y-59670000D03*
%TO.P,B1,GND@*%
%TO.N,Earth*%
X160120000Y-107930000D03*
X162660000Y-107930000D03*
X145896000Y-59670000D03*
X185659700Y-85118260D03*
%TO.P,B1,IORE*%
%TO.N,Net-(B1-PadIORE)*%
X149960000Y-107930000D03*
%TO.P,B1,MISO*%
%TO.N,/MISO_5V*%
X183119700Y-80040800D03*
%TO.P,B1,MOSI*%
%TO.N,/MOSI_5V*%
X185659700Y-82580800D03*
%TO.P,B1,NC*%
%TO.N,N/C*%
X147420000Y-107930000D03*
%TO.P,B1,RESE*%
%TO.N,Net-(B1-PadRESE)*%
X152500000Y-107930000D03*
X183119700Y-85118260D03*
%TO.P,B1,SCK*%
%TO.N,/SCK_5V*%
X183119700Y-82580800D03*
%TO.P,B1,SCL*%
%TO.N,/SCL*%
X138276000Y-59670000D03*
%TO.P,B1,SDA*%
%TO.N,/SDA*%
X140816000Y-59670000D03*
%TO.P,B1,VCC*%
%TO.N,VCC*%
X185659700Y-80040800D03*
%TO.P,B1,VIN*%
%TO.N,Net-(B1-PadVIN)*%
X165200000Y-107930000D03*
%TD*%
D14*
%TO.N,5V*%
X181483000Y-76352400D03*
X175107600Y-87604600D03*
%TO.N,Net-(B1-PadRESE)*%
X178485800Y-89128600D03*
X178350902Y-97764600D03*
%TO.N,/RST_5V*%
X174777400Y-85394800D03*
X174015400Y-81889600D03*
X175437800Y-61772800D03*
X175234600Y-64770000D03*
%TO.N,Earth*%
X152654000Y-71843000D03*
X152425400Y-74295000D03*
%TO.N,/MOSI_5V*%
X174523400Y-76733400D03*
X180949600Y-79222600D03*
%TO.N,/SCK_5V*%
X174498000Y-79248000D03*
%TO.N,VCC*%
X183184800Y-77038200D03*
X178562000Y-70993000D03*
%TO.N,+3V3*%
X162407600Y-82753200D03*
X153466800Y-72923400D03*
%TO.N,/MISO_3V3*%
X156210000Y-75184000D03*
%TO.N,/RST_3V3*%
X170484800Y-88722200D03*
X164084000Y-88722200D03*
%TO.N,/CS_3V3*%
X172389800Y-87401400D03*
X163830000Y-87325200D03*
%TD*%
D15*
%TO.N,5V*%
X182028600Y-75806800D02*
X181483000Y-76352400D01*
X182028600Y-73914000D02*
X182028600Y-75806800D01*
X157580000Y-104054000D02*
X134845000Y-81319000D01*
X157580000Y-107930000D02*
X157580000Y-104054000D01*
X157580000Y-105697885D02*
X157580000Y-107930000D01*
X175107600Y-88170285D02*
X157580000Y-105697885D01*
X175107600Y-87604600D02*
X175107600Y-88170285D01*
X182028600Y-73914000D02*
X182854600Y-73914000D01*
X182854600Y-73914000D02*
X184454800Y-72313800D01*
X184454800Y-72313800D02*
X186867800Y-72313800D01*
X187557501Y-73003501D02*
X187557501Y-86127499D01*
X186867800Y-72313800D02*
X187557501Y-73003501D01*
X186080400Y-87604600D02*
X175107600Y-87604600D01*
X187557501Y-86127499D02*
X186080400Y-87604600D01*
%TO.N,Net-(B1-PadRESE)*%
X178485800Y-97629702D02*
X178350902Y-97764600D01*
X178485800Y-89128600D02*
X178485800Y-97629702D01*
%TO.N,/RST_5V*%
X174777400Y-82651600D02*
X174015400Y-81889600D01*
X174777400Y-85394800D02*
X174777400Y-82651600D01*
X175437800Y-64566800D02*
X175234600Y-64770000D01*
X175437800Y-61772800D02*
X175437800Y-64566800D01*
%TO.N,Earth*%
X152425400Y-72071600D02*
X152425400Y-74295000D01*
X152654000Y-71843000D02*
X152425400Y-72071600D01*
%TO.N,/MISO_5V*%
X178171300Y-75092400D02*
X183119700Y-80040800D01*
X162659800Y-75092400D02*
X178171300Y-75092400D01*
X179200200Y-75092400D02*
X180378600Y-73914000D01*
X178171300Y-75092400D02*
X179200200Y-75092400D01*
%TO.N,/MOSI_5V*%
X178460400Y-76733400D02*
X180949600Y-79222600D01*
X174523400Y-76733400D02*
X178460400Y-76733400D01*
%TO.N,/SCK_5V*%
X174498000Y-79248000D02*
X176047400Y-80797400D01*
X181336300Y-80797400D02*
X183119700Y-82580800D01*
X176047400Y-80797400D02*
X181336300Y-80797400D01*
%TO.N,VCC*%
X185659700Y-80040800D02*
X185659700Y-78370100D01*
X184327800Y-77038200D02*
X183184800Y-77038200D01*
X185659700Y-78370100D02*
X184327800Y-77038200D01*
X140639800Y-70993000D02*
X139979400Y-71653400D01*
X178562000Y-70993000D02*
X140639800Y-70993000D01*
%TO.N,+3V3*%
X158859800Y-76042400D02*
X158659800Y-76242400D01*
X160659800Y-76042400D02*
X158859800Y-76042400D01*
X160659800Y-81005400D02*
X160659800Y-76042400D01*
X162407600Y-82753200D02*
X160659800Y-81005400D01*
X158659800Y-76242400D02*
X154957000Y-76242400D01*
X154957000Y-76242400D02*
X153390600Y-74676000D01*
X153390600Y-72999600D02*
X153466800Y-72923400D01*
X153390600Y-74676000D02*
X153390600Y-72999600D01*
%TO.N,/MISO_3V3*%
X158068200Y-75184000D02*
X158659800Y-74592400D01*
X156210000Y-75184000D02*
X158068200Y-75184000D01*
X160209800Y-74592400D02*
X160659800Y-74142400D01*
X158659800Y-74592400D02*
X160209800Y-74592400D01*
%TO.N,/RST_3V3*%
X170484800Y-88722200D02*
X164084000Y-88722200D01*
%TO.N,/CS_3V3*%
X172364400Y-87376000D02*
X172389800Y-87401400D01*
X163880800Y-87376000D02*
X172364400Y-87376000D01*
X163830000Y-87325200D02*
X163880800Y-87376000D01*
%TD*%
D16*
%TO.N,Earth*%
G36*
X133303239Y-57943671D02*
G01*
X132993671Y-58253239D01*
X132750446Y-58617251D01*
X132582909Y-59021721D01*
X132497500Y-59451103D01*
X132497500Y-59888897D01*
X132582909Y-60318279D01*
X132750446Y-60722749D01*
X132993671Y-61086761D01*
X133303239Y-61396329D01*
X133667251Y-61639554D01*
X134071721Y-61807091D01*
X134501103Y-61892500D01*
X134938897Y-61892500D01*
X135368279Y-61807091D01*
X135772749Y-61639554D01*
X136136761Y-61396329D01*
X136446329Y-61086761D01*
X136689554Y-60722749D01*
X136834786Y-60372127D01*
X136857921Y-60427979D01*
X137033043Y-60690068D01*
X137255932Y-60912957D01*
X137518021Y-61088079D01*
X137809239Y-61208706D01*
X138118394Y-61270200D01*
X138433606Y-61270200D01*
X138742761Y-61208706D01*
X139033979Y-61088079D01*
X139296068Y-60912957D01*
X139518957Y-60690068D01*
X139546000Y-60649595D01*
X139573043Y-60690068D01*
X139795932Y-60912957D01*
X140058021Y-61088079D01*
X140349239Y-61208706D01*
X140658394Y-61270200D01*
X140973606Y-61270200D01*
X141282761Y-61208706D01*
X141573979Y-61088079D01*
X141836068Y-60912957D01*
X142058957Y-60690068D01*
X142086000Y-60649595D01*
X142113043Y-60690068D01*
X142335932Y-60912957D01*
X142598021Y-61088079D01*
X142889239Y-61208706D01*
X143198394Y-61270200D01*
X143513606Y-61270200D01*
X143822761Y-61208706D01*
X144113979Y-61088079D01*
X144376068Y-60912957D01*
X144508431Y-60780594D01*
X144965011Y-60780594D01*
X145056572Y-61041438D01*
X145340256Y-61178851D01*
X145645296Y-61258279D01*
X145959971Y-61276670D01*
X146272188Y-61233318D01*
X146569948Y-61129888D01*
X146735428Y-61041438D01*
X146826989Y-60780594D01*
X145896000Y-59849605D01*
X144965011Y-60780594D01*
X144508431Y-60780594D01*
X144598957Y-60690068D01*
X144682592Y-60564899D01*
X144785406Y-60600989D01*
X145716395Y-59670000D01*
X146075605Y-59670000D01*
X147006594Y-60600989D01*
X147109408Y-60564899D01*
X147193043Y-60690068D01*
X147415932Y-60912957D01*
X147678021Y-61088079D01*
X147969239Y-61208706D01*
X148278394Y-61270200D01*
X148593606Y-61270200D01*
X148902761Y-61208706D01*
X149193979Y-61088079D01*
X149456068Y-60912957D01*
X149678957Y-60690068D01*
X149706000Y-60649595D01*
X149733043Y-60690068D01*
X149955932Y-60912957D01*
X150218021Y-61088079D01*
X150509239Y-61208706D01*
X150818394Y-61270200D01*
X151133606Y-61270200D01*
X151442761Y-61208706D01*
X151733979Y-61088079D01*
X151996068Y-60912957D01*
X152218957Y-60690068D01*
X152246000Y-60649595D01*
X152273043Y-60690068D01*
X152495932Y-60912957D01*
X152758021Y-61088079D01*
X153049239Y-61208706D01*
X153358394Y-61270200D01*
X153673606Y-61270200D01*
X153982761Y-61208706D01*
X154273979Y-61088079D01*
X154536068Y-60912957D01*
X154758957Y-60690068D01*
X154786000Y-60649595D01*
X154813043Y-60690068D01*
X155035932Y-60912957D01*
X155298021Y-61088079D01*
X155589239Y-61208706D01*
X155898394Y-61270200D01*
X156213606Y-61270200D01*
X156522761Y-61208706D01*
X156813979Y-61088079D01*
X157076068Y-60912957D01*
X157298957Y-60690068D01*
X157326000Y-60649595D01*
X157353043Y-60690068D01*
X157575932Y-60912957D01*
X157838021Y-61088079D01*
X158129239Y-61208706D01*
X158438394Y-61270200D01*
X158753606Y-61270200D01*
X159062761Y-61208706D01*
X159353979Y-61088079D01*
X159616068Y-60912957D01*
X159838957Y-60690068D01*
X159866000Y-60649595D01*
X159893043Y-60690068D01*
X160115932Y-60912957D01*
X160378021Y-61088079D01*
X160669239Y-61208706D01*
X160978394Y-61270200D01*
X161293606Y-61270200D01*
X161602761Y-61208706D01*
X161893979Y-61088079D01*
X162156068Y-60912957D01*
X162378957Y-60690068D01*
X162554079Y-60427979D01*
X162674706Y-60136761D01*
X162736200Y-59827606D01*
X162736200Y-59512394D01*
X163599800Y-59512394D01*
X163599800Y-59827606D01*
X163661294Y-60136761D01*
X163781921Y-60427979D01*
X163957043Y-60690068D01*
X164179932Y-60912957D01*
X164442021Y-61088079D01*
X164733239Y-61208706D01*
X165042394Y-61270200D01*
X165357606Y-61270200D01*
X165666761Y-61208706D01*
X165957979Y-61088079D01*
X166220068Y-60912957D01*
X166442957Y-60690068D01*
X166470000Y-60649595D01*
X166497043Y-60690068D01*
X166719932Y-60912957D01*
X166982021Y-61088079D01*
X167273239Y-61208706D01*
X167582394Y-61270200D01*
X167897606Y-61270200D01*
X168206761Y-61208706D01*
X168497979Y-61088079D01*
X168760068Y-60912957D01*
X168982957Y-60690068D01*
X169010000Y-60649595D01*
X169037043Y-60690068D01*
X169259932Y-60912957D01*
X169522021Y-61088079D01*
X169813239Y-61208706D01*
X170122394Y-61270200D01*
X170437606Y-61270200D01*
X170746761Y-61208706D01*
X171037979Y-61088079D01*
X171300068Y-60912957D01*
X171522957Y-60690068D01*
X171550000Y-60649595D01*
X171577043Y-60690068D01*
X171799932Y-60912957D01*
X172062021Y-61088079D01*
X172353239Y-61208706D01*
X172662394Y-61270200D01*
X172977606Y-61270200D01*
X173286761Y-61208706D01*
X173577979Y-61088079D01*
X173840068Y-60912957D01*
X174062957Y-60690068D01*
X174090000Y-60649595D01*
X174117043Y-60690068D01*
X174339932Y-60912957D01*
X174602021Y-61088079D01*
X174642177Y-61104712D01*
X174633863Y-61113026D01*
X174520595Y-61282544D01*
X174442574Y-61470902D01*
X174402800Y-61670861D01*
X174402800Y-61874739D01*
X174442574Y-62074698D01*
X174520595Y-62263056D01*
X174552800Y-62311255D01*
X174552801Y-63988088D01*
X174430663Y-64110226D01*
X174317395Y-64279744D01*
X174239374Y-64468102D01*
X174199600Y-64668061D01*
X174199600Y-64871939D01*
X174239374Y-65071898D01*
X174317395Y-65260256D01*
X174430663Y-65429774D01*
X174574826Y-65573937D01*
X174744344Y-65687205D01*
X174932702Y-65765226D01*
X175132661Y-65805000D01*
X175336539Y-65805000D01*
X175536498Y-65765226D01*
X175724856Y-65687205D01*
X175894374Y-65573937D01*
X176038537Y-65429774D01*
X176151805Y-65260256D01*
X176229826Y-65071898D01*
X176268726Y-64876335D01*
X176309995Y-64740290D01*
X176322800Y-64610277D01*
X176322800Y-64610267D01*
X176327081Y-64566801D01*
X176322800Y-64523335D01*
X176322800Y-62311254D01*
X176355005Y-62263056D01*
X176433026Y-62074698D01*
X176472800Y-61874739D01*
X176472800Y-61670861D01*
X176433026Y-61470902D01*
X176355005Y-61282544D01*
X176241737Y-61113026D01*
X176177212Y-61048501D01*
X176380068Y-60912957D01*
X176602957Y-60690068D01*
X176630000Y-60649595D01*
X176657043Y-60690068D01*
X176879932Y-60912957D01*
X177142021Y-61088079D01*
X177433239Y-61208706D01*
X177742394Y-61270200D01*
X178057606Y-61270200D01*
X178366761Y-61208706D01*
X178657979Y-61088079D01*
X178920068Y-60912957D01*
X179142957Y-60690068D01*
X179170000Y-60649595D01*
X179197043Y-60690068D01*
X179419932Y-60912957D01*
X179682021Y-61088079D01*
X179973239Y-61208706D01*
X180282394Y-61270200D01*
X180597606Y-61270200D01*
X180906761Y-61208706D01*
X181197979Y-61088079D01*
X181460068Y-60912957D01*
X181682957Y-60690068D01*
X181710000Y-60649595D01*
X181737043Y-60690068D01*
X181959932Y-60912957D01*
X182222021Y-61088079D01*
X182513239Y-61208706D01*
X182822394Y-61270200D01*
X183137606Y-61270200D01*
X183446761Y-61208706D01*
X183737979Y-61088079D01*
X184000068Y-60912957D01*
X184222957Y-60690068D01*
X184398079Y-60427979D01*
X184518706Y-60136761D01*
X184580200Y-59827606D01*
X184580200Y-59512394D01*
X184518706Y-59203239D01*
X184398079Y-58912021D01*
X184222957Y-58649932D01*
X184000068Y-58427043D01*
X183737979Y-58251921D01*
X183446761Y-58131294D01*
X183137606Y-58069800D01*
X182822394Y-58069800D01*
X182513239Y-58131294D01*
X182222021Y-58251921D01*
X181959932Y-58427043D01*
X181737043Y-58649932D01*
X181710000Y-58690405D01*
X181682957Y-58649932D01*
X181460068Y-58427043D01*
X181197979Y-58251921D01*
X180906761Y-58131294D01*
X180597606Y-58069800D01*
X180282394Y-58069800D01*
X179973239Y-58131294D01*
X179682021Y-58251921D01*
X179419932Y-58427043D01*
X179197043Y-58649932D01*
X179170000Y-58690405D01*
X179142957Y-58649932D01*
X178920068Y-58427043D01*
X178657979Y-58251921D01*
X178366761Y-58131294D01*
X178057606Y-58069800D01*
X177742394Y-58069800D01*
X177433239Y-58131294D01*
X177142021Y-58251921D01*
X176879932Y-58427043D01*
X176657043Y-58649932D01*
X176630000Y-58690405D01*
X176602957Y-58649932D01*
X176380068Y-58427043D01*
X176117979Y-58251921D01*
X175826761Y-58131294D01*
X175517606Y-58069800D01*
X175202394Y-58069800D01*
X174893239Y-58131294D01*
X174602021Y-58251921D01*
X174339932Y-58427043D01*
X174117043Y-58649932D01*
X174090000Y-58690405D01*
X174062957Y-58649932D01*
X173840068Y-58427043D01*
X173577979Y-58251921D01*
X173286761Y-58131294D01*
X172977606Y-58069800D01*
X172662394Y-58069800D01*
X172353239Y-58131294D01*
X172062021Y-58251921D01*
X171799932Y-58427043D01*
X171577043Y-58649932D01*
X171550000Y-58690405D01*
X171522957Y-58649932D01*
X171300068Y-58427043D01*
X171037979Y-58251921D01*
X170746761Y-58131294D01*
X170437606Y-58069800D01*
X170122394Y-58069800D01*
X169813239Y-58131294D01*
X169522021Y-58251921D01*
X169259932Y-58427043D01*
X169037043Y-58649932D01*
X169010000Y-58690405D01*
X168982957Y-58649932D01*
X168760068Y-58427043D01*
X168497979Y-58251921D01*
X168206761Y-58131294D01*
X167897606Y-58069800D01*
X167582394Y-58069800D01*
X167273239Y-58131294D01*
X166982021Y-58251921D01*
X166719932Y-58427043D01*
X166497043Y-58649932D01*
X166470000Y-58690405D01*
X166442957Y-58649932D01*
X166220068Y-58427043D01*
X165957979Y-58251921D01*
X165666761Y-58131294D01*
X165357606Y-58069800D01*
X165042394Y-58069800D01*
X164733239Y-58131294D01*
X164442021Y-58251921D01*
X164179932Y-58427043D01*
X163957043Y-58649932D01*
X163781921Y-58912021D01*
X163661294Y-59203239D01*
X163599800Y-59512394D01*
X162736200Y-59512394D01*
X162674706Y-59203239D01*
X162554079Y-58912021D01*
X162378957Y-58649932D01*
X162156068Y-58427043D01*
X161893979Y-58251921D01*
X161602761Y-58131294D01*
X161293606Y-58069800D01*
X160978394Y-58069800D01*
X160669239Y-58131294D01*
X160378021Y-58251921D01*
X160115932Y-58427043D01*
X159893043Y-58649932D01*
X159866000Y-58690405D01*
X159838957Y-58649932D01*
X159616068Y-58427043D01*
X159353979Y-58251921D01*
X159062761Y-58131294D01*
X158753606Y-58069800D01*
X158438394Y-58069800D01*
X158129239Y-58131294D01*
X157838021Y-58251921D01*
X157575932Y-58427043D01*
X157353043Y-58649932D01*
X157326000Y-58690405D01*
X157298957Y-58649932D01*
X157076068Y-58427043D01*
X156813979Y-58251921D01*
X156522761Y-58131294D01*
X156213606Y-58069800D01*
X155898394Y-58069800D01*
X155589239Y-58131294D01*
X155298021Y-58251921D01*
X155035932Y-58427043D01*
X154813043Y-58649932D01*
X154786000Y-58690405D01*
X154758957Y-58649932D01*
X154536068Y-58427043D01*
X154273979Y-58251921D01*
X153982761Y-58131294D01*
X153673606Y-58069800D01*
X153358394Y-58069800D01*
X153049239Y-58131294D01*
X152758021Y-58251921D01*
X152495932Y-58427043D01*
X152273043Y-58649932D01*
X152246000Y-58690405D01*
X152218957Y-58649932D01*
X151996068Y-58427043D01*
X151733979Y-58251921D01*
X151442761Y-58131294D01*
X151133606Y-58069800D01*
X150818394Y-58069800D01*
X150509239Y-58131294D01*
X150218021Y-58251921D01*
X149955932Y-58427043D01*
X149733043Y-58649932D01*
X149706000Y-58690405D01*
X149678957Y-58649932D01*
X149456068Y-58427043D01*
X149193979Y-58251921D01*
X148902761Y-58131294D01*
X148593606Y-58069800D01*
X148278394Y-58069800D01*
X147969239Y-58131294D01*
X147678021Y-58251921D01*
X147415932Y-58427043D01*
X147193043Y-58649932D01*
X147109408Y-58775101D01*
X147006594Y-58739011D01*
X146075605Y-59670000D01*
X145716395Y-59670000D01*
X144785406Y-58739011D01*
X144682592Y-58775101D01*
X144598957Y-58649932D01*
X144508431Y-58559406D01*
X144965011Y-58559406D01*
X145896000Y-59490395D01*
X146826989Y-58559406D01*
X146735428Y-58298562D01*
X146451744Y-58161149D01*
X146146704Y-58081721D01*
X145832029Y-58063330D01*
X145519812Y-58106682D01*
X145222052Y-58210112D01*
X145056572Y-58298562D01*
X144965011Y-58559406D01*
X144508431Y-58559406D01*
X144376068Y-58427043D01*
X144113979Y-58251921D01*
X143822761Y-58131294D01*
X143513606Y-58069800D01*
X143198394Y-58069800D01*
X142889239Y-58131294D01*
X142598021Y-58251921D01*
X142335932Y-58427043D01*
X142113043Y-58649932D01*
X142086000Y-58690405D01*
X142058957Y-58649932D01*
X141836068Y-58427043D01*
X141573979Y-58251921D01*
X141282761Y-58131294D01*
X140973606Y-58069800D01*
X140658394Y-58069800D01*
X140349239Y-58131294D01*
X140058021Y-58251921D01*
X139795932Y-58427043D01*
X139573043Y-58649932D01*
X139546000Y-58690405D01*
X139518957Y-58649932D01*
X139296068Y-58427043D01*
X139033979Y-58251921D01*
X138742761Y-58131294D01*
X138433606Y-58069800D01*
X138118394Y-58069800D01*
X137809239Y-58131294D01*
X137518021Y-58251921D01*
X137255932Y-58427043D01*
X137033043Y-58649932D01*
X136857921Y-58912021D01*
X136834786Y-58967873D01*
X136689554Y-58617251D01*
X136446329Y-58253239D01*
X136136761Y-57943671D01*
X135936708Y-57810000D01*
X187427000Y-57810000D01*
X187427000Y-71627850D01*
X187361859Y-71574389D01*
X187208113Y-71492211D01*
X187041290Y-71441605D01*
X186911277Y-71428800D01*
X186911269Y-71428800D01*
X186867800Y-71424519D01*
X186824331Y-71428800D01*
X184498269Y-71428800D01*
X184454800Y-71424519D01*
X184411331Y-71428800D01*
X184411323Y-71428800D01*
X184281310Y-71441605D01*
X184114486Y-71492211D01*
X183960741Y-71574389D01*
X183859753Y-71657268D01*
X183859751Y-71657270D01*
X183825983Y-71684983D01*
X183798270Y-71718751D01*
X182616428Y-72900594D01*
X182549316Y-72864722D01*
X182392100Y-72817031D01*
X182228600Y-72800928D01*
X181828600Y-72800928D01*
X181665100Y-72817031D01*
X181507884Y-72864722D01*
X181362992Y-72942169D01*
X181235994Y-73046394D01*
X181203600Y-73085866D01*
X181171206Y-73046394D01*
X181044208Y-72942169D01*
X180899316Y-72864722D01*
X180742100Y-72817031D01*
X180578600Y-72800928D01*
X180178600Y-72800928D01*
X180015100Y-72817031D01*
X179857884Y-72864722D01*
X179712992Y-72942169D01*
X179585994Y-73046394D01*
X179481769Y-73173392D01*
X179404322Y-73318284D01*
X179356631Y-73475500D01*
X179340528Y-73639000D01*
X179340528Y-73700493D01*
X178833622Y-74207400D01*
X178214769Y-74207400D01*
X178171300Y-74203119D01*
X178127831Y-74207400D01*
X163519781Y-74207400D01*
X163464294Y-74161863D01*
X163353980Y-74102898D01*
X163234282Y-74066588D01*
X163109800Y-74054328D01*
X162209800Y-74054328D01*
X162085318Y-74066588D01*
X161965620Y-74102898D01*
X161855306Y-74161863D01*
X161758615Y-74241215D01*
X161747872Y-74254305D01*
X161747872Y-73742400D01*
X161735612Y-73617918D01*
X161699302Y-73498220D01*
X161640337Y-73387906D01*
X161560985Y-73291215D01*
X161464294Y-73211863D01*
X161353980Y-73152898D01*
X161234282Y-73116588D01*
X161109800Y-73104328D01*
X160209800Y-73104328D01*
X160085318Y-73116588D01*
X159965620Y-73152898D01*
X159855306Y-73211863D01*
X159758615Y-73291215D01*
X159679263Y-73387906D01*
X159620298Y-73498220D01*
X159583988Y-73617918D01*
X159575175Y-73707400D01*
X159414824Y-73707400D01*
X159400408Y-73695569D01*
X159255516Y-73618122D01*
X159098300Y-73570431D01*
X158934800Y-73554328D01*
X158384800Y-73554328D01*
X158221300Y-73570431D01*
X158064084Y-73618122D01*
X157919192Y-73695569D01*
X157792194Y-73799794D01*
X157687969Y-73926792D01*
X157610522Y-74071684D01*
X157562831Y-74228900D01*
X157555927Y-74299000D01*
X156748454Y-74299000D01*
X156700256Y-74266795D01*
X156511898Y-74188774D01*
X156311939Y-74149000D01*
X156108061Y-74149000D01*
X155908102Y-74188774D01*
X155719744Y-74266795D01*
X155550226Y-74380063D01*
X155406063Y-74524226D01*
X155292795Y-74693744D01*
X155214774Y-74882102D01*
X155175000Y-75082061D01*
X155175000Y-75208821D01*
X154275600Y-74309422D01*
X154275600Y-73575896D01*
X154384005Y-73413656D01*
X154462026Y-73225298D01*
X154501800Y-73025339D01*
X154501800Y-72821461D01*
X154462026Y-72621502D01*
X154384005Y-72433144D01*
X154270737Y-72263626D01*
X154126574Y-72119463D01*
X153957056Y-72006195D01*
X153768698Y-71928174D01*
X153568739Y-71888400D01*
X153364861Y-71888400D01*
X153164902Y-71928174D01*
X152976544Y-72006195D01*
X152807026Y-72119463D01*
X152662863Y-72263626D01*
X152549595Y-72433144D01*
X152471574Y-72621502D01*
X152431800Y-72821461D01*
X152431800Y-73025339D01*
X152471574Y-73225298D01*
X152505601Y-73307445D01*
X152505600Y-74632531D01*
X152501319Y-74676000D01*
X152505600Y-74719469D01*
X152505600Y-74719476D01*
X152513854Y-74803281D01*
X152517834Y-74843687D01*
X152518405Y-74849489D01*
X152569011Y-75016312D01*
X152651189Y-75170058D01*
X152761783Y-75304817D01*
X152795556Y-75332534D01*
X154300470Y-76837449D01*
X154328183Y-76871217D01*
X154361951Y-76898930D01*
X154361953Y-76898932D01*
X154433452Y-76957610D01*
X154462941Y-76981811D01*
X154616687Y-77063989D01*
X154783510Y-77114595D01*
X154913523Y-77127400D01*
X154913533Y-77127400D01*
X154956999Y-77131681D01*
X155000465Y-77127400D01*
X157904776Y-77127400D01*
X157919192Y-77139231D01*
X158064084Y-77216678D01*
X158221300Y-77264369D01*
X158384800Y-77280472D01*
X158934800Y-77280472D01*
X159098300Y-77264369D01*
X159255516Y-77216678D01*
X159400408Y-77139231D01*
X159527406Y-77035006D01*
X159615716Y-76927400D01*
X159774801Y-76927400D01*
X159774800Y-80961931D01*
X159770519Y-81005400D01*
X159774800Y-81048869D01*
X159774800Y-81048876D01*
X159787605Y-81178889D01*
X159838211Y-81345712D01*
X159920389Y-81499458D01*
X160030983Y-81634217D01*
X160064756Y-81661934D01*
X161401065Y-82998244D01*
X161412374Y-83055098D01*
X161490395Y-83243456D01*
X161603663Y-83412974D01*
X161747826Y-83557137D01*
X161917344Y-83670405D01*
X162105702Y-83748426D01*
X162305661Y-83788200D01*
X162509539Y-83788200D01*
X162709498Y-83748426D01*
X162897856Y-83670405D01*
X163067374Y-83557137D01*
X163211537Y-83412974D01*
X163324805Y-83243456D01*
X163402826Y-83055098D01*
X163442600Y-82855139D01*
X163442600Y-82651261D01*
X163402826Y-82451302D01*
X163324805Y-82262944D01*
X163211537Y-82093426D01*
X163067374Y-81949263D01*
X162897856Y-81835995D01*
X162781169Y-81787661D01*
X172980400Y-81787661D01*
X172980400Y-81991539D01*
X173020174Y-82191498D01*
X173098195Y-82379856D01*
X173211463Y-82549374D01*
X173355626Y-82693537D01*
X173525144Y-82806805D01*
X173713502Y-82884826D01*
X173770356Y-82896135D01*
X173892401Y-83018180D01*
X173892400Y-84856345D01*
X173860195Y-84904544D01*
X173782174Y-85092902D01*
X173742400Y-85292861D01*
X173742400Y-85496739D01*
X173782174Y-85696698D01*
X173860195Y-85885056D01*
X173973463Y-86054574D01*
X174117626Y-86198737D01*
X174287144Y-86312005D01*
X174475502Y-86390026D01*
X174675461Y-86429800D01*
X174879339Y-86429800D01*
X175079298Y-86390026D01*
X175267656Y-86312005D01*
X175437174Y-86198737D01*
X175581337Y-86054574D01*
X175694605Y-85885056D01*
X175772626Y-85696698D01*
X175812400Y-85496739D01*
X175812400Y-85292861D01*
X175772626Y-85092902D01*
X175694605Y-84904544D01*
X175662400Y-84856346D01*
X175662400Y-82695069D01*
X175666681Y-82651600D01*
X175662400Y-82608131D01*
X175662400Y-82608123D01*
X175649595Y-82478110D01*
X175598989Y-82311287D01*
X175516811Y-82157541D01*
X175458706Y-82086740D01*
X175433932Y-82056553D01*
X175433930Y-82056551D01*
X175406217Y-82022783D01*
X175372449Y-81995070D01*
X175021935Y-81644556D01*
X175010626Y-81587702D01*
X174932605Y-81399344D01*
X174819337Y-81229826D01*
X174675174Y-81085663D01*
X174505656Y-80972395D01*
X174317298Y-80894374D01*
X174117339Y-80854600D01*
X173913461Y-80854600D01*
X173713502Y-80894374D01*
X173525144Y-80972395D01*
X173355626Y-81085663D01*
X173211463Y-81229826D01*
X173098195Y-81399344D01*
X173020174Y-81587702D01*
X172980400Y-81787661D01*
X162781169Y-81787661D01*
X162709498Y-81757974D01*
X162652644Y-81746665D01*
X161544800Y-80638822D01*
X161544800Y-76906868D01*
X161560985Y-76893585D01*
X161640337Y-76796894D01*
X161699302Y-76686580D01*
X161735612Y-76566882D01*
X161747872Y-76442400D01*
X161747872Y-75930495D01*
X161758615Y-75943585D01*
X161855306Y-76022937D01*
X161965620Y-76081902D01*
X162085318Y-76118212D01*
X162209800Y-76130472D01*
X163109800Y-76130472D01*
X163234282Y-76118212D01*
X163353980Y-76081902D01*
X163464294Y-76022937D01*
X163519781Y-75977400D01*
X173815689Y-75977400D01*
X173719463Y-76073626D01*
X173606195Y-76243144D01*
X173528174Y-76431502D01*
X173488400Y-76631461D01*
X173488400Y-76835339D01*
X173528174Y-77035298D01*
X173606195Y-77223656D01*
X173719463Y-77393174D01*
X173863626Y-77537337D01*
X174033144Y-77650605D01*
X174221502Y-77728626D01*
X174421461Y-77768400D01*
X174625339Y-77768400D01*
X174825298Y-77728626D01*
X175013656Y-77650605D01*
X175061854Y-77618400D01*
X178093822Y-77618400D01*
X179943065Y-79467644D01*
X179954374Y-79524498D01*
X180032395Y-79712856D01*
X180145663Y-79882374D01*
X180175689Y-79912400D01*
X176413979Y-79912400D01*
X175504535Y-79002957D01*
X175493226Y-78946102D01*
X175415205Y-78757744D01*
X175301937Y-78588226D01*
X175157774Y-78444063D01*
X174988256Y-78330795D01*
X174799898Y-78252774D01*
X174599939Y-78213000D01*
X174396061Y-78213000D01*
X174196102Y-78252774D01*
X174007744Y-78330795D01*
X173838226Y-78444063D01*
X173694063Y-78588226D01*
X173580795Y-78757744D01*
X173502774Y-78946102D01*
X173463000Y-79146061D01*
X173463000Y-79349939D01*
X173502774Y-79549898D01*
X173580795Y-79738256D01*
X173694063Y-79907774D01*
X173838226Y-80051937D01*
X174007744Y-80165205D01*
X174196102Y-80243226D01*
X174252957Y-80254535D01*
X175390870Y-81392449D01*
X175418583Y-81426217D01*
X175452351Y-81453930D01*
X175452353Y-81453932D01*
X175458381Y-81458879D01*
X175553341Y-81536811D01*
X175707087Y-81618989D01*
X175873910Y-81669595D01*
X176003923Y-81682400D01*
X176003933Y-81682400D01*
X176047399Y-81686681D01*
X176090865Y-81682400D01*
X180969722Y-81682400D01*
X181551191Y-82263870D01*
X181519500Y-82423194D01*
X181519500Y-82738406D01*
X181580994Y-83047561D01*
X181701621Y-83338779D01*
X181876743Y-83600868D01*
X182099632Y-83823757D01*
X182138204Y-83849530D01*
X182099632Y-83875303D01*
X181876743Y-84098192D01*
X181701621Y-84360281D01*
X181580994Y-84651499D01*
X181519500Y-84960654D01*
X181519500Y-85275866D01*
X181580994Y-85585021D01*
X181701621Y-85876239D01*
X181876743Y-86138328D01*
X182099632Y-86361217D01*
X182361721Y-86536339D01*
X182652939Y-86656966D01*
X182962094Y-86718460D01*
X183277306Y-86718460D01*
X183586461Y-86656966D01*
X183877679Y-86536339D01*
X184139768Y-86361217D01*
X184362657Y-86138328D01*
X184446292Y-86013159D01*
X184549106Y-86049249D01*
X185480095Y-85118260D01*
X184549106Y-84187271D01*
X184446292Y-84223361D01*
X184362657Y-84098192D01*
X184139768Y-83875303D01*
X184101196Y-83849530D01*
X184139768Y-83823757D01*
X184362657Y-83600868D01*
X184389700Y-83560395D01*
X184416743Y-83600868D01*
X184639632Y-83823757D01*
X184764078Y-83906909D01*
X184728711Y-84007666D01*
X185659700Y-84938655D01*
X185673843Y-84924513D01*
X185853448Y-85104118D01*
X185839305Y-85118260D01*
X185853448Y-85132403D01*
X185673843Y-85312008D01*
X185659700Y-85297865D01*
X184728711Y-86228854D01*
X184820272Y-86489698D01*
X185103956Y-86627111D01*
X185408996Y-86706539D01*
X185632473Y-86719600D01*
X175646054Y-86719600D01*
X175597856Y-86687395D01*
X175409498Y-86609374D01*
X175209539Y-86569600D01*
X175005661Y-86569600D01*
X174805702Y-86609374D01*
X174617344Y-86687395D01*
X174447826Y-86800663D01*
X174303663Y-86944826D01*
X174190395Y-87114344D01*
X174112374Y-87302702D01*
X174072600Y-87502661D01*
X174072600Y-87706539D01*
X174112374Y-87906498D01*
X174114551Y-87911755D01*
X158370599Y-103655708D01*
X158319411Y-103559941D01*
X158208817Y-103425183D01*
X158175049Y-103397470D01*
X142000840Y-87223261D01*
X162795000Y-87223261D01*
X162795000Y-87427139D01*
X162834774Y-87627098D01*
X162912795Y-87815456D01*
X163026063Y-87984974D01*
X163170226Y-88129137D01*
X163215345Y-88159284D01*
X163166795Y-88231944D01*
X163088774Y-88420302D01*
X163049000Y-88620261D01*
X163049000Y-88824139D01*
X163088774Y-89024098D01*
X163166795Y-89212456D01*
X163280063Y-89381974D01*
X163424226Y-89526137D01*
X163593744Y-89639405D01*
X163782102Y-89717426D01*
X163982061Y-89757200D01*
X164185939Y-89757200D01*
X164385898Y-89717426D01*
X164574256Y-89639405D01*
X164622454Y-89607200D01*
X169946346Y-89607200D01*
X169994544Y-89639405D01*
X170182902Y-89717426D01*
X170382861Y-89757200D01*
X170586739Y-89757200D01*
X170786698Y-89717426D01*
X170975056Y-89639405D01*
X171144574Y-89526137D01*
X171288737Y-89381974D01*
X171402005Y-89212456D01*
X171480026Y-89024098D01*
X171519800Y-88824139D01*
X171519800Y-88620261D01*
X171480026Y-88420302D01*
X171414040Y-88261000D01*
X171813332Y-88261000D01*
X171899544Y-88318605D01*
X172087902Y-88396626D01*
X172287861Y-88436400D01*
X172491739Y-88436400D01*
X172691698Y-88396626D01*
X172880056Y-88318605D01*
X173049574Y-88205337D01*
X173193737Y-88061174D01*
X173307005Y-87891656D01*
X173385026Y-87703298D01*
X173424800Y-87503339D01*
X173424800Y-87299461D01*
X173385026Y-87099502D01*
X173307005Y-86911144D01*
X173193737Y-86741626D01*
X173049574Y-86597463D01*
X172880056Y-86484195D01*
X172691698Y-86406174D01*
X172491739Y-86366400D01*
X172287861Y-86366400D01*
X172087902Y-86406174D01*
X171899544Y-86484195D01*
X171889360Y-86491000D01*
X164444482Y-86491000D01*
X164320256Y-86407995D01*
X164131898Y-86329974D01*
X163931939Y-86290200D01*
X163728061Y-86290200D01*
X163528102Y-86329974D01*
X163339744Y-86407995D01*
X163170226Y-86521263D01*
X163026063Y-86665426D01*
X162912795Y-86834944D01*
X162834774Y-87023302D01*
X162795000Y-87223261D01*
X142000840Y-87223261D01*
X137649599Y-82872020D01*
X137844352Y-82833282D01*
X138130948Y-82714570D01*
X138388877Y-82542227D01*
X138608227Y-82322877D01*
X138655000Y-82252876D01*
X138701773Y-82322877D01*
X138921123Y-82542227D01*
X139179052Y-82714570D01*
X139465648Y-82833282D01*
X139769896Y-82893800D01*
X140080104Y-82893800D01*
X140384352Y-82833282D01*
X140670948Y-82714570D01*
X140928877Y-82542227D01*
X141148227Y-82322877D01*
X141320570Y-82064948D01*
X141439282Y-81778352D01*
X141499800Y-81474104D01*
X141499800Y-81163896D01*
X141439282Y-80859648D01*
X141320570Y-80573052D01*
X141148227Y-80315123D01*
X140928877Y-80095773D01*
X140670948Y-79923430D01*
X140384352Y-79804718D01*
X140080104Y-79744200D01*
X139769896Y-79744200D01*
X139465648Y-79804718D01*
X139179052Y-79923430D01*
X138921123Y-80095773D01*
X138701773Y-80315123D01*
X138655000Y-80385124D01*
X138608227Y-80315123D01*
X138388877Y-80095773D01*
X138130948Y-79923430D01*
X137844352Y-79804718D01*
X137540104Y-79744200D01*
X137229896Y-79744200D01*
X136925648Y-79804718D01*
X136639052Y-79923430D01*
X136381123Y-80095773D01*
X136161773Y-80315123D01*
X136115000Y-80385124D01*
X136068227Y-80315123D01*
X135848877Y-80095773D01*
X135590948Y-79923430D01*
X135304352Y-79804718D01*
X135000104Y-79744200D01*
X134689896Y-79744200D01*
X134385648Y-79804718D01*
X134099052Y-79923430D01*
X133841123Y-80095773D01*
X133621773Y-80315123D01*
X133530505Y-80451714D01*
X133397476Y-80406129D01*
X132484605Y-81319000D01*
X133397476Y-82231871D01*
X133530505Y-82186286D01*
X133621773Y-82322877D01*
X133841123Y-82542227D01*
X134099052Y-82714570D01*
X134385648Y-82833282D01*
X134689896Y-82893800D01*
X135000104Y-82893800D01*
X135140330Y-82865908D01*
X156695001Y-104420580D01*
X156695001Y-105654403D01*
X156695000Y-105654409D01*
X156695000Y-105654416D01*
X156690719Y-105697885D01*
X156695000Y-105741354D01*
X156695000Y-106596793D01*
X156559932Y-106687043D01*
X156337043Y-106909932D01*
X156310000Y-106950405D01*
X156282957Y-106909932D01*
X156060068Y-106687043D01*
X155797979Y-106511921D01*
X155506761Y-106391294D01*
X155197606Y-106329800D01*
X154882394Y-106329800D01*
X154573239Y-106391294D01*
X154282021Y-106511921D01*
X154019932Y-106687043D01*
X153797043Y-106909932D01*
X153770000Y-106950405D01*
X153742957Y-106909932D01*
X153520068Y-106687043D01*
X153257979Y-106511921D01*
X152966761Y-106391294D01*
X152657606Y-106329800D01*
X152342394Y-106329800D01*
X152033239Y-106391294D01*
X151742021Y-106511921D01*
X151479932Y-106687043D01*
X151257043Y-106909932D01*
X151230000Y-106950405D01*
X151202957Y-106909932D01*
X150980068Y-106687043D01*
X150717979Y-106511921D01*
X150426761Y-106391294D01*
X150117606Y-106329800D01*
X149802394Y-106329800D01*
X149493239Y-106391294D01*
X149202021Y-106511921D01*
X148939932Y-106687043D01*
X148717043Y-106909932D01*
X148690000Y-106950405D01*
X148662957Y-106909932D01*
X148440068Y-106687043D01*
X148177979Y-106511921D01*
X147886761Y-106391294D01*
X147577606Y-106329800D01*
X147262394Y-106329800D01*
X146953239Y-106391294D01*
X146662021Y-106511921D01*
X146399932Y-106687043D01*
X146177043Y-106909932D01*
X146001921Y-107172021D01*
X145881294Y-107463239D01*
X145819800Y-107772394D01*
X145819800Y-108087606D01*
X145881294Y-108396761D01*
X146001921Y-108687979D01*
X146177043Y-108950068D01*
X146399932Y-109172957D01*
X146662021Y-109348079D01*
X146953239Y-109468706D01*
X147262394Y-109530200D01*
X147577606Y-109530200D01*
X147886761Y-109468706D01*
X148177979Y-109348079D01*
X148440068Y-109172957D01*
X148662957Y-108950068D01*
X148690000Y-108909595D01*
X148717043Y-108950068D01*
X148939932Y-109172957D01*
X149202021Y-109348079D01*
X149493239Y-109468706D01*
X149802394Y-109530200D01*
X150117606Y-109530200D01*
X150426761Y-109468706D01*
X150717979Y-109348079D01*
X150980068Y-109172957D01*
X151202957Y-108950068D01*
X151230000Y-108909595D01*
X151257043Y-108950068D01*
X151479932Y-109172957D01*
X151742021Y-109348079D01*
X152033239Y-109468706D01*
X152342394Y-109530200D01*
X152657606Y-109530200D01*
X152966761Y-109468706D01*
X153257979Y-109348079D01*
X153520068Y-109172957D01*
X153742957Y-108950068D01*
X153770000Y-108909595D01*
X153797043Y-108950068D01*
X154019932Y-109172957D01*
X154282021Y-109348079D01*
X154573239Y-109468706D01*
X154882394Y-109530200D01*
X155197606Y-109530200D01*
X155506761Y-109468706D01*
X155797979Y-109348079D01*
X156060068Y-109172957D01*
X156282957Y-108950068D01*
X156310000Y-108909595D01*
X156337043Y-108950068D01*
X156559932Y-109172957D01*
X156822021Y-109348079D01*
X157113239Y-109468706D01*
X157422394Y-109530200D01*
X157737606Y-109530200D01*
X158046761Y-109468706D01*
X158337979Y-109348079D01*
X158600068Y-109172957D01*
X158732431Y-109040594D01*
X159189011Y-109040594D01*
X159280572Y-109301438D01*
X159564256Y-109438851D01*
X159869296Y-109518279D01*
X160183971Y-109536670D01*
X160496188Y-109493318D01*
X160793948Y-109389888D01*
X160959428Y-109301438D01*
X161050989Y-109040594D01*
X161729011Y-109040594D01*
X161820572Y-109301438D01*
X162104256Y-109438851D01*
X162409296Y-109518279D01*
X162723971Y-109536670D01*
X163036188Y-109493318D01*
X163333948Y-109389888D01*
X163499428Y-109301438D01*
X163590989Y-109040594D01*
X162660000Y-108109605D01*
X161729011Y-109040594D01*
X161050989Y-109040594D01*
X160120000Y-108109605D01*
X159189011Y-109040594D01*
X158732431Y-109040594D01*
X158822957Y-108950068D01*
X158906592Y-108824899D01*
X159009406Y-108860989D01*
X159940395Y-107930000D01*
X160299605Y-107930000D01*
X161230594Y-108860989D01*
X161390000Y-108805035D01*
X161549406Y-108860989D01*
X162480395Y-107930000D01*
X162839605Y-107930000D01*
X163770594Y-108860989D01*
X163873408Y-108824899D01*
X163957043Y-108950068D01*
X164179932Y-109172957D01*
X164442021Y-109348079D01*
X164733239Y-109468706D01*
X165042394Y-109530200D01*
X165357606Y-109530200D01*
X165666761Y-109468706D01*
X165957979Y-109348079D01*
X166220068Y-109172957D01*
X166442957Y-108950068D01*
X166618079Y-108687979D01*
X166738706Y-108396761D01*
X166800200Y-108087606D01*
X166800200Y-107772394D01*
X168679800Y-107772394D01*
X168679800Y-108087606D01*
X168741294Y-108396761D01*
X168861921Y-108687979D01*
X169037043Y-108950068D01*
X169259932Y-109172957D01*
X169522021Y-109348079D01*
X169813239Y-109468706D01*
X170122394Y-109530200D01*
X170437606Y-109530200D01*
X170746761Y-109468706D01*
X171037979Y-109348079D01*
X171300068Y-109172957D01*
X171522957Y-108950068D01*
X171550000Y-108909595D01*
X171577043Y-108950068D01*
X171799932Y-109172957D01*
X172062021Y-109348079D01*
X172353239Y-109468706D01*
X172662394Y-109530200D01*
X172977606Y-109530200D01*
X173286761Y-109468706D01*
X173577979Y-109348079D01*
X173840068Y-109172957D01*
X174062957Y-108950068D01*
X174090000Y-108909595D01*
X174117043Y-108950068D01*
X174339932Y-109172957D01*
X174602021Y-109348079D01*
X174893239Y-109468706D01*
X175202394Y-109530200D01*
X175517606Y-109530200D01*
X175826761Y-109468706D01*
X176117979Y-109348079D01*
X176380068Y-109172957D01*
X176602957Y-108950068D01*
X176630000Y-108909595D01*
X176657043Y-108950068D01*
X176879932Y-109172957D01*
X177142021Y-109348079D01*
X177433239Y-109468706D01*
X177742394Y-109530200D01*
X178057606Y-109530200D01*
X178366761Y-109468706D01*
X178657979Y-109348079D01*
X178920068Y-109172957D01*
X179142957Y-108950068D01*
X179170000Y-108909595D01*
X179197043Y-108950068D01*
X179419932Y-109172957D01*
X179682021Y-109348079D01*
X179973239Y-109468706D01*
X180282394Y-109530200D01*
X180597606Y-109530200D01*
X180906761Y-109468706D01*
X181197979Y-109348079D01*
X181460068Y-109172957D01*
X181682957Y-108950068D01*
X181710000Y-108909595D01*
X181737043Y-108950068D01*
X181959932Y-109172957D01*
X182222021Y-109348079D01*
X182513239Y-109468706D01*
X182822394Y-109530200D01*
X183137606Y-109530200D01*
X183446761Y-109468706D01*
X183737979Y-109348079D01*
X184000068Y-109172957D01*
X184222957Y-108950068D01*
X184398079Y-108687979D01*
X184518706Y-108396761D01*
X184580200Y-108087606D01*
X184580200Y-107772394D01*
X184518706Y-107463239D01*
X184398079Y-107172021D01*
X184222957Y-106909932D01*
X184000068Y-106687043D01*
X183737979Y-106511921D01*
X183446761Y-106391294D01*
X183137606Y-106329800D01*
X182822394Y-106329800D01*
X182513239Y-106391294D01*
X182222021Y-106511921D01*
X181959932Y-106687043D01*
X181737043Y-106909932D01*
X181710000Y-106950405D01*
X181682957Y-106909932D01*
X181460068Y-106687043D01*
X181197979Y-106511921D01*
X180906761Y-106391294D01*
X180597606Y-106329800D01*
X180282394Y-106329800D01*
X179973239Y-106391294D01*
X179682021Y-106511921D01*
X179419932Y-106687043D01*
X179197043Y-106909932D01*
X179170000Y-106950405D01*
X179142957Y-106909932D01*
X178920068Y-106687043D01*
X178657979Y-106511921D01*
X178366761Y-106391294D01*
X178057606Y-106329800D01*
X177742394Y-106329800D01*
X177433239Y-106391294D01*
X177142021Y-106511921D01*
X176879932Y-106687043D01*
X176657043Y-106909932D01*
X176630000Y-106950405D01*
X176602957Y-106909932D01*
X176380068Y-106687043D01*
X176117979Y-106511921D01*
X175826761Y-106391294D01*
X175517606Y-106329800D01*
X175202394Y-106329800D01*
X174893239Y-106391294D01*
X174602021Y-106511921D01*
X174339932Y-106687043D01*
X174117043Y-106909932D01*
X174090000Y-106950405D01*
X174062957Y-106909932D01*
X173840068Y-106687043D01*
X173577979Y-106511921D01*
X173286761Y-106391294D01*
X172977606Y-106329800D01*
X172662394Y-106329800D01*
X172353239Y-106391294D01*
X172062021Y-106511921D01*
X171799932Y-106687043D01*
X171577043Y-106909932D01*
X171550000Y-106950405D01*
X171522957Y-106909932D01*
X171300068Y-106687043D01*
X171037979Y-106511921D01*
X170746761Y-106391294D01*
X170437606Y-106329800D01*
X170122394Y-106329800D01*
X169813239Y-106391294D01*
X169522021Y-106511921D01*
X169259932Y-106687043D01*
X169037043Y-106909932D01*
X168861921Y-107172021D01*
X168741294Y-107463239D01*
X168679800Y-107772394D01*
X166800200Y-107772394D01*
X166738706Y-107463239D01*
X166618079Y-107172021D01*
X166442957Y-106909932D01*
X166220068Y-106687043D01*
X165957979Y-106511921D01*
X165666761Y-106391294D01*
X165357606Y-106329800D01*
X165042394Y-106329800D01*
X164733239Y-106391294D01*
X164442021Y-106511921D01*
X164179932Y-106687043D01*
X163957043Y-106909932D01*
X163873408Y-107035101D01*
X163770594Y-106999011D01*
X162839605Y-107930000D01*
X162480395Y-107930000D01*
X161549406Y-106999011D01*
X161390000Y-107054965D01*
X161230594Y-106999011D01*
X160299605Y-107930000D01*
X159940395Y-107930000D01*
X159009406Y-106999011D01*
X158906592Y-107035101D01*
X158822957Y-106909932D01*
X158732431Y-106819406D01*
X159189011Y-106819406D01*
X160120000Y-107750395D01*
X161050989Y-106819406D01*
X161729011Y-106819406D01*
X162660000Y-107750395D01*
X163590989Y-106819406D01*
X163499428Y-106558562D01*
X163215744Y-106421149D01*
X162910704Y-106341721D01*
X162596029Y-106323330D01*
X162283812Y-106366682D01*
X161986052Y-106470112D01*
X161820572Y-106558562D01*
X161729011Y-106819406D01*
X161050989Y-106819406D01*
X160959428Y-106558562D01*
X160675744Y-106421149D01*
X160370704Y-106341721D01*
X160056029Y-106323330D01*
X159743812Y-106366682D01*
X159446052Y-106470112D01*
X159280572Y-106558562D01*
X159189011Y-106819406D01*
X158732431Y-106819406D01*
X158600068Y-106687043D01*
X158465000Y-106596794D01*
X158465000Y-106064463D01*
X175702649Y-88826815D01*
X175736417Y-88799102D01*
X175799530Y-88722200D01*
X175847011Y-88664344D01*
X175929189Y-88510599D01*
X175935559Y-88489600D01*
X177667982Y-88489600D01*
X177568595Y-88638344D01*
X177490574Y-88826702D01*
X177450800Y-89026661D01*
X177450800Y-89230539D01*
X177490574Y-89430498D01*
X177568595Y-89618856D01*
X177600800Y-89667054D01*
X177600800Y-91773962D01*
X177595370Y-91760852D01*
X177423027Y-91502923D01*
X177203677Y-91283573D01*
X176945748Y-91111230D01*
X176659152Y-90992518D01*
X176354904Y-90932000D01*
X176044696Y-90932000D01*
X175740448Y-90992518D01*
X175453852Y-91111230D01*
X175195923Y-91283573D01*
X174976573Y-91502923D01*
X174804230Y-91760852D01*
X174685518Y-92047448D01*
X174625000Y-92351696D01*
X174625000Y-92661904D01*
X174685518Y-92966152D01*
X174804230Y-93252748D01*
X174976573Y-93510677D01*
X175195923Y-93730027D01*
X175453852Y-93902370D01*
X175740448Y-94021082D01*
X176044696Y-94081600D01*
X176354904Y-94081600D01*
X176659152Y-94021082D01*
X176945748Y-93902370D01*
X177203677Y-93730027D01*
X177423027Y-93510677D01*
X177595370Y-93252748D01*
X177600800Y-93239638D01*
X177600801Y-97050990D01*
X177546965Y-97104826D01*
X177433697Y-97274344D01*
X177355676Y-97462702D01*
X177315902Y-97662661D01*
X177315902Y-97866539D01*
X177355676Y-98066498D01*
X177433697Y-98254856D01*
X177546965Y-98424374D01*
X177691128Y-98568537D01*
X177860646Y-98681805D01*
X178049004Y-98759826D01*
X178248963Y-98799600D01*
X178452841Y-98799600D01*
X178652800Y-98759826D01*
X178841158Y-98681805D01*
X179010676Y-98568537D01*
X179154839Y-98424374D01*
X179268107Y-98254856D01*
X179346128Y-98066498D01*
X179385902Y-97866539D01*
X179385902Y-97662661D01*
X179370898Y-97587232D01*
X179370800Y-97586233D01*
X179370800Y-96593707D01*
X179498716Y-96883945D01*
X179835186Y-97052296D01*
X180198035Y-97151771D01*
X180573318Y-97178545D01*
X180946615Y-97131591D01*
X181303578Y-97012713D01*
X181544484Y-96883945D01*
X181673410Y-96591415D01*
X184468790Y-96591415D01*
X184597716Y-96883945D01*
X184934186Y-97052296D01*
X185297035Y-97151771D01*
X185672318Y-97178545D01*
X186045615Y-97131591D01*
X186402578Y-97012713D01*
X186643484Y-96883945D01*
X186772410Y-96591415D01*
X185620600Y-95439605D01*
X184468790Y-96591415D01*
X181673410Y-96591415D01*
X180521600Y-95439605D01*
X180507458Y-95453748D01*
X180327853Y-95274143D01*
X180341995Y-95260000D01*
X180327853Y-95245858D01*
X180507458Y-95066253D01*
X180521600Y-95080395D01*
X180535743Y-95066253D01*
X180715348Y-95245858D01*
X180701205Y-95260000D01*
X181853015Y-96411810D01*
X182145545Y-96282884D01*
X182313896Y-95946414D01*
X182413371Y-95583565D01*
X182440145Y-95208282D01*
X182393191Y-94834985D01*
X182274313Y-94478022D01*
X182253384Y-94438867D01*
X182513473Y-94546600D01*
X182882481Y-94620000D01*
X183258719Y-94620000D01*
X183627727Y-94546600D01*
X183897774Y-94434743D01*
X183828304Y-94573586D01*
X183728829Y-94936435D01*
X183702055Y-95311718D01*
X183749009Y-95685015D01*
X183867887Y-96041978D01*
X183996655Y-96282884D01*
X184289185Y-96411810D01*
X185440995Y-95260000D01*
X185426853Y-95245858D01*
X185606458Y-95066253D01*
X185620600Y-95080395D01*
X186772410Y-93928585D01*
X186643484Y-93636055D01*
X186307014Y-93467704D01*
X185944165Y-93368229D01*
X185568882Y-93341455D01*
X185195585Y-93388409D01*
X184838622Y-93507287D01*
X184798935Y-93528500D01*
X184907200Y-93267127D01*
X184980600Y-92898119D01*
X184980600Y-92521881D01*
X184907200Y-92152873D01*
X184795343Y-91882826D01*
X184934186Y-91952296D01*
X185297035Y-92051771D01*
X185672318Y-92078545D01*
X186045615Y-92031591D01*
X186402578Y-91912713D01*
X186643484Y-91783945D01*
X186772410Y-91491415D01*
X185620600Y-90339605D01*
X185606458Y-90353748D01*
X185426853Y-90174143D01*
X185440995Y-90160000D01*
X184289185Y-89008190D01*
X183996655Y-89137116D01*
X183828304Y-89473586D01*
X183728829Y-89836435D01*
X183702055Y-90211718D01*
X183749009Y-90585015D01*
X183867887Y-90941978D01*
X183889100Y-90981665D01*
X183627727Y-90873400D01*
X183258719Y-90800000D01*
X182882481Y-90800000D01*
X182513473Y-90873400D01*
X182244688Y-90984735D01*
X182313896Y-90846414D01*
X182413371Y-90483565D01*
X182440145Y-90108282D01*
X182393191Y-89734985D01*
X182274313Y-89378022D01*
X182145545Y-89137116D01*
X181853015Y-89008190D01*
X180701205Y-90160000D01*
X180715348Y-90174143D01*
X180535743Y-90353748D01*
X180521600Y-90339605D01*
X180507458Y-90353748D01*
X180327853Y-90174143D01*
X180341995Y-90160000D01*
X180327853Y-90145858D01*
X180507458Y-89966253D01*
X180521600Y-89980395D01*
X181673410Y-88828585D01*
X181544484Y-88536055D01*
X181451638Y-88489600D01*
X184684626Y-88489600D01*
X184597716Y-88536055D01*
X184468790Y-88828585D01*
X185620600Y-89980395D01*
X186772410Y-88828585D01*
X186643484Y-88536055D01*
X186422256Y-88425365D01*
X186574459Y-88344011D01*
X186709217Y-88233417D01*
X186736934Y-88199644D01*
X187427001Y-87509578D01*
X187427001Y-89539233D01*
X187373313Y-89378022D01*
X187244545Y-89137116D01*
X186952015Y-89008190D01*
X185800205Y-90160000D01*
X186952015Y-91311810D01*
X187244545Y-91182884D01*
X187412896Y-90846414D01*
X187427001Y-90794965D01*
X187427001Y-94639234D01*
X187373313Y-94478022D01*
X187244545Y-94237116D01*
X186952015Y-94108190D01*
X185800205Y-95260000D01*
X186952015Y-96411810D01*
X187244545Y-96282884D01*
X187412896Y-95946414D01*
X187427001Y-95894965D01*
X187427001Y-101703634D01*
X187246329Y-101433239D01*
X186936761Y-101123671D01*
X186572749Y-100880446D01*
X186168279Y-100712909D01*
X185738897Y-100627500D01*
X185301103Y-100627500D01*
X184871721Y-100712909D01*
X184467251Y-100880446D01*
X184103239Y-101123671D01*
X183793671Y-101433239D01*
X183550446Y-101797251D01*
X183382909Y-102201721D01*
X183297500Y-102631103D01*
X183297500Y-103068897D01*
X183382909Y-103498279D01*
X183550446Y-103902749D01*
X183793671Y-104266761D01*
X184103239Y-104576329D01*
X184467251Y-104819554D01*
X184871721Y-104987091D01*
X185301103Y-105072500D01*
X185738897Y-105072500D01*
X186168279Y-104987091D01*
X186572749Y-104819554D01*
X186936761Y-104576329D01*
X187246329Y-104266761D01*
X187427001Y-103996366D01*
X187427001Y-109830000D01*
X135890000Y-109830000D01*
X135890000Y-105537000D01*
X135887560Y-105512224D01*
X135880333Y-105488399D01*
X135868597Y-105466443D01*
X135852803Y-105447197D01*
X135833557Y-105431403D01*
X135811601Y-105419667D01*
X135787776Y-105412440D01*
X135763000Y-105410000D01*
X131851000Y-105410000D01*
X131851000Y-98203418D01*
X131854193Y-98171000D01*
X131841450Y-98041617D01*
X131826000Y-97990686D01*
X131826000Y-97790000D01*
X131823560Y-97765224D01*
X131816333Y-97741399D01*
X131804597Y-97719443D01*
X131788803Y-97700197D01*
X131769557Y-97684403D01*
X131747601Y-97672667D01*
X131723776Y-97665440D01*
X131699000Y-97663000D01*
X131612363Y-97663000D01*
X131559450Y-97619575D01*
X131444793Y-97558290D01*
X131320383Y-97520550D01*
X131223419Y-97511000D01*
X131191000Y-97507807D01*
X131158581Y-97511000D01*
X123698000Y-97511000D01*
X123698000Y-82411476D01*
X131392129Y-82411476D01*
X131480623Y-82669723D01*
X131759976Y-82804597D01*
X132060275Y-82882381D01*
X132369977Y-82900084D01*
X132677184Y-82857027D01*
X132970086Y-82754865D01*
X133129377Y-82669723D01*
X133217871Y-82411476D01*
X132305000Y-81498605D01*
X131392129Y-82411476D01*
X123698000Y-82411476D01*
X123698000Y-81383977D01*
X130723916Y-81383977D01*
X130766973Y-81691184D01*
X130869135Y-81984086D01*
X130954277Y-82143377D01*
X131212524Y-82231871D01*
X132125395Y-81319000D01*
X131212524Y-80406129D01*
X130954277Y-80494623D01*
X130819403Y-80773976D01*
X130741619Y-81074275D01*
X130723916Y-81383977D01*
X123698000Y-81383977D01*
X123698000Y-80226524D01*
X131392129Y-80226524D01*
X132305000Y-81139395D01*
X133217871Y-80226524D01*
X133129377Y-79968277D01*
X132850024Y-79833403D01*
X132549725Y-79755619D01*
X132240023Y-79737916D01*
X131932816Y-79780973D01*
X131639914Y-79883135D01*
X131480623Y-79968277D01*
X131392129Y-80226524D01*
X123698000Y-80226524D01*
X123698000Y-79248000D01*
X129794000Y-79248000D01*
X129818776Y-79245560D01*
X129842601Y-79238333D01*
X129864557Y-79226597D01*
X129883803Y-79210803D01*
X129899597Y-79191557D01*
X129911333Y-79169601D01*
X129918560Y-79145776D01*
X129921000Y-79121000D01*
X129921000Y-78539314D01*
X129936450Y-78488383D01*
X129949193Y-78359000D01*
X129946000Y-78326581D01*
X129946000Y-68958296D01*
X138404600Y-68958296D01*
X138404600Y-69268504D01*
X138465118Y-69572752D01*
X138583830Y-69859348D01*
X138756173Y-70117277D01*
X138975523Y-70336627D01*
X139045524Y-70383400D01*
X138975523Y-70430173D01*
X138756173Y-70649523D01*
X138583830Y-70907452D01*
X138465118Y-71194048D01*
X138404600Y-71498296D01*
X138404600Y-71808504D01*
X138465118Y-72112752D01*
X138583830Y-72399348D01*
X138756173Y-72657277D01*
X138975523Y-72876627D01*
X139233452Y-73048970D01*
X139520048Y-73167682D01*
X139824296Y-73228200D01*
X140134504Y-73228200D01*
X140438752Y-73167682D01*
X140725348Y-73048970D01*
X140983277Y-72876627D01*
X141202627Y-72657277D01*
X141374970Y-72399348D01*
X141493682Y-72112752D01*
X141540377Y-71878000D01*
X178023546Y-71878000D01*
X178071744Y-71910205D01*
X178260102Y-71988226D01*
X178460061Y-72028000D01*
X178663939Y-72028000D01*
X178863898Y-71988226D01*
X179052256Y-71910205D01*
X179221774Y-71796937D01*
X179365937Y-71652774D01*
X179479205Y-71483256D01*
X179557226Y-71294898D01*
X179597000Y-71094939D01*
X179597000Y-70891061D01*
X179557226Y-70691102D01*
X179479205Y-70502744D01*
X179365937Y-70333226D01*
X179221774Y-70189063D01*
X179052256Y-70075795D01*
X178863898Y-69997774D01*
X178663939Y-69958000D01*
X178460061Y-69958000D01*
X178260102Y-69997774D01*
X178071744Y-70075795D01*
X178023546Y-70108000D01*
X141208826Y-70108000D01*
X141374970Y-69859348D01*
X141493682Y-69572752D01*
X141554200Y-69268504D01*
X141554200Y-68958296D01*
X141493682Y-68654048D01*
X141374970Y-68367452D01*
X141202627Y-68109523D01*
X140983277Y-67890173D01*
X140725348Y-67717830D01*
X140438752Y-67599118D01*
X140134504Y-67538600D01*
X139824296Y-67538600D01*
X139520048Y-67599118D01*
X139233452Y-67717830D01*
X138975523Y-67890173D01*
X138756173Y-68109523D01*
X138583830Y-68367452D01*
X138465118Y-68654048D01*
X138404600Y-68958296D01*
X129946000Y-68958296D01*
X129946000Y-66453418D01*
X129949193Y-66421000D01*
X129936450Y-66291617D01*
X129921000Y-66240686D01*
X129921000Y-66167000D01*
X129918560Y-66142224D01*
X129911333Y-66118399D01*
X129899597Y-66096443D01*
X129883803Y-66077197D01*
X129864557Y-66061403D01*
X129842601Y-66049667D01*
X129832559Y-66046621D01*
X129754948Y-65952052D01*
X129654450Y-65869575D01*
X129539793Y-65808290D01*
X129415383Y-65770550D01*
X129318419Y-65761000D01*
X129286000Y-65757807D01*
X129253581Y-65761000D01*
X120167000Y-65761000D01*
X120167000Y-57810000D01*
X133503292Y-57810000D01*
X133303239Y-57943671D01*
G37*
X133303239Y-57943671D02*
X132993671Y-58253239D01*
X132750446Y-58617251D01*
X132582909Y-59021721D01*
X132497500Y-59451103D01*
X132497500Y-59888897D01*
X132582909Y-60318279D01*
X132750446Y-60722749D01*
X132993671Y-61086761D01*
X133303239Y-61396329D01*
X133667251Y-61639554D01*
X134071721Y-61807091D01*
X134501103Y-61892500D01*
X134938897Y-61892500D01*
X135368279Y-61807091D01*
X135772749Y-61639554D01*
X136136761Y-61396329D01*
X136446329Y-61086761D01*
X136689554Y-60722749D01*
X136834786Y-60372127D01*
X136857921Y-60427979D01*
X137033043Y-60690068D01*
X137255932Y-60912957D01*
X137518021Y-61088079D01*
X137809239Y-61208706D01*
X138118394Y-61270200D01*
X138433606Y-61270200D01*
X138742761Y-61208706D01*
X139033979Y-61088079D01*
X139296068Y-60912957D01*
X139518957Y-60690068D01*
X139546000Y-60649595D01*
X139573043Y-60690068D01*
X139795932Y-60912957D01*
X140058021Y-61088079D01*
X140349239Y-61208706D01*
X140658394Y-61270200D01*
X140973606Y-61270200D01*
X141282761Y-61208706D01*
X141573979Y-61088079D01*
X141836068Y-60912957D01*
X142058957Y-60690068D01*
X142086000Y-60649595D01*
X142113043Y-60690068D01*
X142335932Y-60912957D01*
X142598021Y-61088079D01*
X142889239Y-61208706D01*
X143198394Y-61270200D01*
X143513606Y-61270200D01*
X143822761Y-61208706D01*
X144113979Y-61088079D01*
X144376068Y-60912957D01*
X144508431Y-60780594D01*
X144965011Y-60780594D01*
X145056572Y-61041438D01*
X145340256Y-61178851D01*
X145645296Y-61258279D01*
X145959971Y-61276670D01*
X146272188Y-61233318D01*
X146569948Y-61129888D01*
X146735428Y-61041438D01*
X146826989Y-60780594D01*
X145896000Y-59849605D01*
X144965011Y-60780594D01*
X144508431Y-60780594D01*
X144598957Y-60690068D01*
X144682592Y-60564899D01*
X144785406Y-60600989D01*
X145716395Y-59670000D01*
X146075605Y-59670000D01*
X147006594Y-60600989D01*
X147109408Y-60564899D01*
X147193043Y-60690068D01*
X147415932Y-60912957D01*
X147678021Y-61088079D01*
X147969239Y-61208706D01*
X148278394Y-61270200D01*
X148593606Y-61270200D01*
X148902761Y-61208706D01*
X149193979Y-61088079D01*
X149456068Y-60912957D01*
X149678957Y-60690068D01*
X149706000Y-60649595D01*
X149733043Y-60690068D01*
X149955932Y-60912957D01*
X150218021Y-61088079D01*
X150509239Y-61208706D01*
X150818394Y-61270200D01*
X151133606Y-61270200D01*
X151442761Y-61208706D01*
X151733979Y-61088079D01*
X151996068Y-60912957D01*
X152218957Y-60690068D01*
X152246000Y-60649595D01*
X152273043Y-60690068D01*
X152495932Y-60912957D01*
X152758021Y-61088079D01*
X153049239Y-61208706D01*
X153358394Y-61270200D01*
X153673606Y-61270200D01*
X153982761Y-61208706D01*
X154273979Y-61088079D01*
X154536068Y-60912957D01*
X154758957Y-60690068D01*
X154786000Y-60649595D01*
X154813043Y-60690068D01*
X155035932Y-60912957D01*
X155298021Y-61088079D01*
X155589239Y-61208706D01*
X155898394Y-61270200D01*
X156213606Y-61270200D01*
X156522761Y-61208706D01*
X156813979Y-61088079D01*
X157076068Y-60912957D01*
X157298957Y-60690068D01*
X157326000Y-60649595D01*
X157353043Y-60690068D01*
X157575932Y-60912957D01*
X157838021Y-61088079D01*
X158129239Y-61208706D01*
X158438394Y-61270200D01*
X158753606Y-61270200D01*
X159062761Y-61208706D01*
X159353979Y-61088079D01*
X159616068Y-60912957D01*
X159838957Y-60690068D01*
X159866000Y-60649595D01*
X159893043Y-60690068D01*
X160115932Y-60912957D01*
X160378021Y-61088079D01*
X160669239Y-61208706D01*
X160978394Y-61270200D01*
X161293606Y-61270200D01*
X161602761Y-61208706D01*
X161893979Y-61088079D01*
X162156068Y-60912957D01*
X162378957Y-60690068D01*
X162554079Y-60427979D01*
X162674706Y-60136761D01*
X162736200Y-59827606D01*
X162736200Y-59512394D01*
X163599800Y-59512394D01*
X163599800Y-59827606D01*
X163661294Y-60136761D01*
X163781921Y-60427979D01*
X163957043Y-60690068D01*
X164179932Y-60912957D01*
X164442021Y-61088079D01*
X164733239Y-61208706D01*
X165042394Y-61270200D01*
X165357606Y-61270200D01*
X165666761Y-61208706D01*
X165957979Y-61088079D01*
X166220068Y-60912957D01*
X166442957Y-60690068D01*
X166470000Y-60649595D01*
X166497043Y-60690068D01*
X166719932Y-60912957D01*
X166982021Y-61088079D01*
X167273239Y-61208706D01*
X167582394Y-61270200D01*
X167897606Y-61270200D01*
X168206761Y-61208706D01*
X168497979Y-61088079D01*
X168760068Y-60912957D01*
X168982957Y-60690068D01*
X169010000Y-60649595D01*
X169037043Y-60690068D01*
X169259932Y-60912957D01*
X169522021Y-61088079D01*
X169813239Y-61208706D01*
X170122394Y-61270200D01*
X170437606Y-61270200D01*
X170746761Y-61208706D01*
X171037979Y-61088079D01*
X171300068Y-60912957D01*
X171522957Y-60690068D01*
X171550000Y-60649595D01*
X171577043Y-60690068D01*
X171799932Y-60912957D01*
X172062021Y-61088079D01*
X172353239Y-61208706D01*
X172662394Y-61270200D01*
X172977606Y-61270200D01*
X173286761Y-61208706D01*
X173577979Y-61088079D01*
X173840068Y-60912957D01*
X174062957Y-60690068D01*
X174090000Y-60649595D01*
X174117043Y-60690068D01*
X174339932Y-60912957D01*
X174602021Y-61088079D01*
X174642177Y-61104712D01*
X174633863Y-61113026D01*
X174520595Y-61282544D01*
X174442574Y-61470902D01*
X174402800Y-61670861D01*
X174402800Y-61874739D01*
X174442574Y-62074698D01*
X174520595Y-62263056D01*
X174552800Y-62311255D01*
X174552801Y-63988088D01*
X174430663Y-64110226D01*
X174317395Y-64279744D01*
X174239374Y-64468102D01*
X174199600Y-64668061D01*
X174199600Y-64871939D01*
X174239374Y-65071898D01*
X174317395Y-65260256D01*
X174430663Y-65429774D01*
X174574826Y-65573937D01*
X174744344Y-65687205D01*
X174932702Y-65765226D01*
X175132661Y-65805000D01*
X175336539Y-65805000D01*
X175536498Y-65765226D01*
X175724856Y-65687205D01*
X175894374Y-65573937D01*
X176038537Y-65429774D01*
X176151805Y-65260256D01*
X176229826Y-65071898D01*
X176268726Y-64876335D01*
X176309995Y-64740290D01*
X176322800Y-64610277D01*
X176322800Y-64610267D01*
X176327081Y-64566801D01*
X176322800Y-64523335D01*
X176322800Y-62311254D01*
X176355005Y-62263056D01*
X176433026Y-62074698D01*
X176472800Y-61874739D01*
X176472800Y-61670861D01*
X176433026Y-61470902D01*
X176355005Y-61282544D01*
X176241737Y-61113026D01*
X176177212Y-61048501D01*
X176380068Y-60912957D01*
X176602957Y-60690068D01*
X176630000Y-60649595D01*
X176657043Y-60690068D01*
X176879932Y-60912957D01*
X177142021Y-61088079D01*
X177433239Y-61208706D01*
X177742394Y-61270200D01*
X178057606Y-61270200D01*
X178366761Y-61208706D01*
X178657979Y-61088079D01*
X178920068Y-60912957D01*
X179142957Y-60690068D01*
X179170000Y-60649595D01*
X179197043Y-60690068D01*
X179419932Y-60912957D01*
X179682021Y-61088079D01*
X179973239Y-61208706D01*
X180282394Y-61270200D01*
X180597606Y-61270200D01*
X180906761Y-61208706D01*
X181197979Y-61088079D01*
X181460068Y-60912957D01*
X181682957Y-60690068D01*
X181710000Y-60649595D01*
X181737043Y-60690068D01*
X181959932Y-60912957D01*
X182222021Y-61088079D01*
X182513239Y-61208706D01*
X182822394Y-61270200D01*
X183137606Y-61270200D01*
X183446761Y-61208706D01*
X183737979Y-61088079D01*
X184000068Y-60912957D01*
X184222957Y-60690068D01*
X184398079Y-60427979D01*
X184518706Y-60136761D01*
X184580200Y-59827606D01*
X184580200Y-59512394D01*
X184518706Y-59203239D01*
X184398079Y-58912021D01*
X184222957Y-58649932D01*
X184000068Y-58427043D01*
X183737979Y-58251921D01*
X183446761Y-58131294D01*
X183137606Y-58069800D01*
X182822394Y-58069800D01*
X182513239Y-58131294D01*
X182222021Y-58251921D01*
X181959932Y-58427043D01*
X181737043Y-58649932D01*
X181710000Y-58690405D01*
X181682957Y-58649932D01*
X181460068Y-58427043D01*
X181197979Y-58251921D01*
X180906761Y-58131294D01*
X180597606Y-58069800D01*
X180282394Y-58069800D01*
X179973239Y-58131294D01*
X179682021Y-58251921D01*
X179419932Y-58427043D01*
X179197043Y-58649932D01*
X179170000Y-58690405D01*
X179142957Y-58649932D01*
X178920068Y-58427043D01*
X178657979Y-58251921D01*
X178366761Y-58131294D01*
X178057606Y-58069800D01*
X177742394Y-58069800D01*
X177433239Y-58131294D01*
X177142021Y-58251921D01*
X176879932Y-58427043D01*
X176657043Y-58649932D01*
X176630000Y-58690405D01*
X176602957Y-58649932D01*
X176380068Y-58427043D01*
X176117979Y-58251921D01*
X175826761Y-58131294D01*
X175517606Y-58069800D01*
X175202394Y-58069800D01*
X174893239Y-58131294D01*
X174602021Y-58251921D01*
X174339932Y-58427043D01*
X174117043Y-58649932D01*
X174090000Y-58690405D01*
X174062957Y-58649932D01*
X173840068Y-58427043D01*
X173577979Y-58251921D01*
X173286761Y-58131294D01*
X172977606Y-58069800D01*
X172662394Y-58069800D01*
X172353239Y-58131294D01*
X172062021Y-58251921D01*
X171799932Y-58427043D01*
X171577043Y-58649932D01*
X171550000Y-58690405D01*
X171522957Y-58649932D01*
X171300068Y-58427043D01*
X171037979Y-58251921D01*
X170746761Y-58131294D01*
X170437606Y-58069800D01*
X170122394Y-58069800D01*
X169813239Y-58131294D01*
X169522021Y-58251921D01*
X169259932Y-58427043D01*
X169037043Y-58649932D01*
X169010000Y-58690405D01*
X168982957Y-58649932D01*
X168760068Y-58427043D01*
X168497979Y-58251921D01*
X168206761Y-58131294D01*
X167897606Y-58069800D01*
X167582394Y-58069800D01*
X167273239Y-58131294D01*
X166982021Y-58251921D01*
X166719932Y-58427043D01*
X166497043Y-58649932D01*
X166470000Y-58690405D01*
X166442957Y-58649932D01*
X166220068Y-58427043D01*
X165957979Y-58251921D01*
X165666761Y-58131294D01*
X165357606Y-58069800D01*
X165042394Y-58069800D01*
X164733239Y-58131294D01*
X164442021Y-58251921D01*
X164179932Y-58427043D01*
X163957043Y-58649932D01*
X163781921Y-58912021D01*
X163661294Y-59203239D01*
X163599800Y-59512394D01*
X162736200Y-59512394D01*
X162674706Y-59203239D01*
X162554079Y-58912021D01*
X162378957Y-58649932D01*
X162156068Y-58427043D01*
X161893979Y-58251921D01*
X161602761Y-58131294D01*
X161293606Y-58069800D01*
X160978394Y-58069800D01*
X160669239Y-58131294D01*
X160378021Y-58251921D01*
X160115932Y-58427043D01*
X159893043Y-58649932D01*
X159866000Y-58690405D01*
X159838957Y-58649932D01*
X159616068Y-58427043D01*
X159353979Y-58251921D01*
X159062761Y-58131294D01*
X158753606Y-58069800D01*
X158438394Y-58069800D01*
X158129239Y-58131294D01*
X157838021Y-58251921D01*
X157575932Y-58427043D01*
X157353043Y-58649932D01*
X157326000Y-58690405D01*
X157298957Y-58649932D01*
X157076068Y-58427043D01*
X156813979Y-58251921D01*
X156522761Y-58131294D01*
X156213606Y-58069800D01*
X155898394Y-58069800D01*
X155589239Y-58131294D01*
X155298021Y-58251921D01*
X155035932Y-58427043D01*
X154813043Y-58649932D01*
X154786000Y-58690405D01*
X154758957Y-58649932D01*
X154536068Y-58427043D01*
X154273979Y-58251921D01*
X153982761Y-58131294D01*
X153673606Y-58069800D01*
X153358394Y-58069800D01*
X153049239Y-58131294D01*
X152758021Y-58251921D01*
X152495932Y-58427043D01*
X152273043Y-58649932D01*
X152246000Y-58690405D01*
X152218957Y-58649932D01*
X151996068Y-58427043D01*
X151733979Y-58251921D01*
X151442761Y-58131294D01*
X151133606Y-58069800D01*
X150818394Y-58069800D01*
X150509239Y-58131294D01*
X150218021Y-58251921D01*
X149955932Y-58427043D01*
X149733043Y-58649932D01*
X149706000Y-58690405D01*
X149678957Y-58649932D01*
X149456068Y-58427043D01*
X149193979Y-58251921D01*
X148902761Y-58131294D01*
X148593606Y-58069800D01*
X148278394Y-58069800D01*
X147969239Y-58131294D01*
X147678021Y-58251921D01*
X147415932Y-58427043D01*
X147193043Y-58649932D01*
X147109408Y-58775101D01*
X147006594Y-58739011D01*
X146075605Y-59670000D01*
X145716395Y-59670000D01*
X144785406Y-58739011D01*
X144682592Y-58775101D01*
X144598957Y-58649932D01*
X144508431Y-58559406D01*
X144965011Y-58559406D01*
X145896000Y-59490395D01*
X146826989Y-58559406D01*
X146735428Y-58298562D01*
X146451744Y-58161149D01*
X146146704Y-58081721D01*
X145832029Y-58063330D01*
X145519812Y-58106682D01*
X145222052Y-58210112D01*
X145056572Y-58298562D01*
X144965011Y-58559406D01*
X144508431Y-58559406D01*
X144376068Y-58427043D01*
X144113979Y-58251921D01*
X143822761Y-58131294D01*
X143513606Y-58069800D01*
X143198394Y-58069800D01*
X142889239Y-58131294D01*
X142598021Y-58251921D01*
X142335932Y-58427043D01*
X142113043Y-58649932D01*
X142086000Y-58690405D01*
X142058957Y-58649932D01*
X141836068Y-58427043D01*
X141573979Y-58251921D01*
X141282761Y-58131294D01*
X140973606Y-58069800D01*
X140658394Y-58069800D01*
X140349239Y-58131294D01*
X140058021Y-58251921D01*
X139795932Y-58427043D01*
X139573043Y-58649932D01*
X139546000Y-58690405D01*
X139518957Y-58649932D01*
X139296068Y-58427043D01*
X139033979Y-58251921D01*
X138742761Y-58131294D01*
X138433606Y-58069800D01*
X138118394Y-58069800D01*
X137809239Y-58131294D01*
X137518021Y-58251921D01*
X137255932Y-58427043D01*
X137033043Y-58649932D01*
X136857921Y-58912021D01*
X136834786Y-58967873D01*
X136689554Y-58617251D01*
X136446329Y-58253239D01*
X136136761Y-57943671D01*
X135936708Y-57810000D01*
X187427000Y-57810000D01*
X187427000Y-71627850D01*
X187361859Y-71574389D01*
X187208113Y-71492211D01*
X187041290Y-71441605D01*
X186911277Y-71428800D01*
X186911269Y-71428800D01*
X186867800Y-71424519D01*
X186824331Y-71428800D01*
X184498269Y-71428800D01*
X184454800Y-71424519D01*
X184411331Y-71428800D01*
X184411323Y-71428800D01*
X184281310Y-71441605D01*
X184114486Y-71492211D01*
X183960741Y-71574389D01*
X183859753Y-71657268D01*
X183859751Y-71657270D01*
X183825983Y-71684983D01*
X183798270Y-71718751D01*
X182616428Y-72900594D01*
X182549316Y-72864722D01*
X182392100Y-72817031D01*
X182228600Y-72800928D01*
X181828600Y-72800928D01*
X181665100Y-72817031D01*
X181507884Y-72864722D01*
X181362992Y-72942169D01*
X181235994Y-73046394D01*
X181203600Y-73085866D01*
X181171206Y-73046394D01*
X181044208Y-72942169D01*
X180899316Y-72864722D01*
X180742100Y-72817031D01*
X180578600Y-72800928D01*
X180178600Y-72800928D01*
X180015100Y-72817031D01*
X179857884Y-72864722D01*
X179712992Y-72942169D01*
X179585994Y-73046394D01*
X179481769Y-73173392D01*
X179404322Y-73318284D01*
X179356631Y-73475500D01*
X179340528Y-73639000D01*
X179340528Y-73700493D01*
X178833622Y-74207400D01*
X178214769Y-74207400D01*
X178171300Y-74203119D01*
X178127831Y-74207400D01*
X163519781Y-74207400D01*
X163464294Y-74161863D01*
X163353980Y-74102898D01*
X163234282Y-74066588D01*
X163109800Y-74054328D01*
X162209800Y-74054328D01*
X162085318Y-74066588D01*
X161965620Y-74102898D01*
X161855306Y-74161863D01*
X161758615Y-74241215D01*
X161747872Y-74254305D01*
X161747872Y-73742400D01*
X161735612Y-73617918D01*
X161699302Y-73498220D01*
X161640337Y-73387906D01*
X161560985Y-73291215D01*
X161464294Y-73211863D01*
X161353980Y-73152898D01*
X161234282Y-73116588D01*
X161109800Y-73104328D01*
X160209800Y-73104328D01*
X160085318Y-73116588D01*
X159965620Y-73152898D01*
X159855306Y-73211863D01*
X159758615Y-73291215D01*
X159679263Y-73387906D01*
X159620298Y-73498220D01*
X159583988Y-73617918D01*
X159575175Y-73707400D01*
X159414824Y-73707400D01*
X159400408Y-73695569D01*
X159255516Y-73618122D01*
X159098300Y-73570431D01*
X158934800Y-73554328D01*
X158384800Y-73554328D01*
X158221300Y-73570431D01*
X158064084Y-73618122D01*
X157919192Y-73695569D01*
X157792194Y-73799794D01*
X157687969Y-73926792D01*
X157610522Y-74071684D01*
X157562831Y-74228900D01*
X157555927Y-74299000D01*
X156748454Y-74299000D01*
X156700256Y-74266795D01*
X156511898Y-74188774D01*
X156311939Y-74149000D01*
X156108061Y-74149000D01*
X155908102Y-74188774D01*
X155719744Y-74266795D01*
X155550226Y-74380063D01*
X155406063Y-74524226D01*
X155292795Y-74693744D01*
X155214774Y-74882102D01*
X155175000Y-75082061D01*
X155175000Y-75208821D01*
X154275600Y-74309422D01*
X154275600Y-73575896D01*
X154384005Y-73413656D01*
X154462026Y-73225298D01*
X154501800Y-73025339D01*
X154501800Y-72821461D01*
X154462026Y-72621502D01*
X154384005Y-72433144D01*
X154270737Y-72263626D01*
X154126574Y-72119463D01*
X153957056Y-72006195D01*
X153768698Y-71928174D01*
X153568739Y-71888400D01*
X153364861Y-71888400D01*
X153164902Y-71928174D01*
X152976544Y-72006195D01*
X152807026Y-72119463D01*
X152662863Y-72263626D01*
X152549595Y-72433144D01*
X152471574Y-72621502D01*
X152431800Y-72821461D01*
X152431800Y-73025339D01*
X152471574Y-73225298D01*
X152505601Y-73307445D01*
X152505600Y-74632531D01*
X152501319Y-74676000D01*
X152505600Y-74719469D01*
X152505600Y-74719476D01*
X152513854Y-74803281D01*
X152517834Y-74843687D01*
X152518405Y-74849489D01*
X152569011Y-75016312D01*
X152651189Y-75170058D01*
X152761783Y-75304817D01*
X152795556Y-75332534D01*
X154300470Y-76837449D01*
X154328183Y-76871217D01*
X154361951Y-76898930D01*
X154361953Y-76898932D01*
X154433452Y-76957610D01*
X154462941Y-76981811D01*
X154616687Y-77063989D01*
X154783510Y-77114595D01*
X154913523Y-77127400D01*
X154913533Y-77127400D01*
X154956999Y-77131681D01*
X155000465Y-77127400D01*
X157904776Y-77127400D01*
X157919192Y-77139231D01*
X158064084Y-77216678D01*
X158221300Y-77264369D01*
X158384800Y-77280472D01*
X158934800Y-77280472D01*
X159098300Y-77264369D01*
X159255516Y-77216678D01*
X159400408Y-77139231D01*
X159527406Y-77035006D01*
X159615716Y-76927400D01*
X159774801Y-76927400D01*
X159774800Y-80961931D01*
X159770519Y-81005400D01*
X159774800Y-81048869D01*
X159774800Y-81048876D01*
X159787605Y-81178889D01*
X159838211Y-81345712D01*
X159920389Y-81499458D01*
X160030983Y-81634217D01*
X160064756Y-81661934D01*
X161401065Y-82998244D01*
X161412374Y-83055098D01*
X161490395Y-83243456D01*
X161603663Y-83412974D01*
X161747826Y-83557137D01*
X161917344Y-83670405D01*
X162105702Y-83748426D01*
X162305661Y-83788200D01*
X162509539Y-83788200D01*
X162709498Y-83748426D01*
X162897856Y-83670405D01*
X163067374Y-83557137D01*
X163211537Y-83412974D01*
X163324805Y-83243456D01*
X163402826Y-83055098D01*
X163442600Y-82855139D01*
X163442600Y-82651261D01*
X163402826Y-82451302D01*
X163324805Y-82262944D01*
X163211537Y-82093426D01*
X163067374Y-81949263D01*
X162897856Y-81835995D01*
X162781169Y-81787661D01*
X172980400Y-81787661D01*
X172980400Y-81991539D01*
X173020174Y-82191498D01*
X173098195Y-82379856D01*
X173211463Y-82549374D01*
X173355626Y-82693537D01*
X173525144Y-82806805D01*
X173713502Y-82884826D01*
X173770356Y-82896135D01*
X173892401Y-83018180D01*
X173892400Y-84856345D01*
X173860195Y-84904544D01*
X173782174Y-85092902D01*
X173742400Y-85292861D01*
X173742400Y-85496739D01*
X173782174Y-85696698D01*
X173860195Y-85885056D01*
X173973463Y-86054574D01*
X174117626Y-86198737D01*
X174287144Y-86312005D01*
X174475502Y-86390026D01*
X174675461Y-86429800D01*
X174879339Y-86429800D01*
X175079298Y-86390026D01*
X175267656Y-86312005D01*
X175437174Y-86198737D01*
X175581337Y-86054574D01*
X175694605Y-85885056D01*
X175772626Y-85696698D01*
X175812400Y-85496739D01*
X175812400Y-85292861D01*
X175772626Y-85092902D01*
X175694605Y-84904544D01*
X175662400Y-84856346D01*
X175662400Y-82695069D01*
X175666681Y-82651600D01*
X175662400Y-82608131D01*
X175662400Y-82608123D01*
X175649595Y-82478110D01*
X175598989Y-82311287D01*
X175516811Y-82157541D01*
X175458706Y-82086740D01*
X175433932Y-82056553D01*
X175433930Y-82056551D01*
X175406217Y-82022783D01*
X175372449Y-81995070D01*
X175021935Y-81644556D01*
X175010626Y-81587702D01*
X174932605Y-81399344D01*
X174819337Y-81229826D01*
X174675174Y-81085663D01*
X174505656Y-80972395D01*
X174317298Y-80894374D01*
X174117339Y-80854600D01*
X173913461Y-80854600D01*
X173713502Y-80894374D01*
X173525144Y-80972395D01*
X173355626Y-81085663D01*
X173211463Y-81229826D01*
X173098195Y-81399344D01*
X173020174Y-81587702D01*
X172980400Y-81787661D01*
X162781169Y-81787661D01*
X162709498Y-81757974D01*
X162652644Y-81746665D01*
X161544800Y-80638822D01*
X161544800Y-76906868D01*
X161560985Y-76893585D01*
X161640337Y-76796894D01*
X161699302Y-76686580D01*
X161735612Y-76566882D01*
X161747872Y-76442400D01*
X161747872Y-75930495D01*
X161758615Y-75943585D01*
X161855306Y-76022937D01*
X161965620Y-76081902D01*
X162085318Y-76118212D01*
X162209800Y-76130472D01*
X163109800Y-76130472D01*
X163234282Y-76118212D01*
X163353980Y-76081902D01*
X163464294Y-76022937D01*
X163519781Y-75977400D01*
X173815689Y-75977400D01*
X173719463Y-76073626D01*
X173606195Y-76243144D01*
X173528174Y-76431502D01*
X173488400Y-76631461D01*
X173488400Y-76835339D01*
X173528174Y-77035298D01*
X173606195Y-77223656D01*
X173719463Y-77393174D01*
X173863626Y-77537337D01*
X174033144Y-77650605D01*
X174221502Y-77728626D01*
X174421461Y-77768400D01*
X174625339Y-77768400D01*
X174825298Y-77728626D01*
X175013656Y-77650605D01*
X175061854Y-77618400D01*
X178093822Y-77618400D01*
X179943065Y-79467644D01*
X179954374Y-79524498D01*
X180032395Y-79712856D01*
X180145663Y-79882374D01*
X180175689Y-79912400D01*
X176413979Y-79912400D01*
X175504535Y-79002957D01*
X175493226Y-78946102D01*
X175415205Y-78757744D01*
X175301937Y-78588226D01*
X175157774Y-78444063D01*
X174988256Y-78330795D01*
X174799898Y-78252774D01*
X174599939Y-78213000D01*
X174396061Y-78213000D01*
X174196102Y-78252774D01*
X174007744Y-78330795D01*
X173838226Y-78444063D01*
X173694063Y-78588226D01*
X173580795Y-78757744D01*
X173502774Y-78946102D01*
X173463000Y-79146061D01*
X173463000Y-79349939D01*
X173502774Y-79549898D01*
X173580795Y-79738256D01*
X173694063Y-79907774D01*
X173838226Y-80051937D01*
X174007744Y-80165205D01*
X174196102Y-80243226D01*
X174252957Y-80254535D01*
X175390870Y-81392449D01*
X175418583Y-81426217D01*
X175452351Y-81453930D01*
X175452353Y-81453932D01*
X175458381Y-81458879D01*
X175553341Y-81536811D01*
X175707087Y-81618989D01*
X175873910Y-81669595D01*
X176003923Y-81682400D01*
X176003933Y-81682400D01*
X176047399Y-81686681D01*
X176090865Y-81682400D01*
X180969722Y-81682400D01*
X181551191Y-82263870D01*
X181519500Y-82423194D01*
X181519500Y-82738406D01*
X181580994Y-83047561D01*
X181701621Y-83338779D01*
X181876743Y-83600868D01*
X182099632Y-83823757D01*
X182138204Y-83849530D01*
X182099632Y-83875303D01*
X181876743Y-84098192D01*
X181701621Y-84360281D01*
X181580994Y-84651499D01*
X181519500Y-84960654D01*
X181519500Y-85275866D01*
X181580994Y-85585021D01*
X181701621Y-85876239D01*
X181876743Y-86138328D01*
X182099632Y-86361217D01*
X182361721Y-86536339D01*
X182652939Y-86656966D01*
X182962094Y-86718460D01*
X183277306Y-86718460D01*
X183586461Y-86656966D01*
X183877679Y-86536339D01*
X184139768Y-86361217D01*
X184362657Y-86138328D01*
X184446292Y-86013159D01*
X184549106Y-86049249D01*
X185480095Y-85118260D01*
X184549106Y-84187271D01*
X184446292Y-84223361D01*
X184362657Y-84098192D01*
X184139768Y-83875303D01*
X184101196Y-83849530D01*
X184139768Y-83823757D01*
X184362657Y-83600868D01*
X184389700Y-83560395D01*
X184416743Y-83600868D01*
X184639632Y-83823757D01*
X184764078Y-83906909D01*
X184728711Y-84007666D01*
X185659700Y-84938655D01*
X185673843Y-84924513D01*
X185853448Y-85104118D01*
X185839305Y-85118260D01*
X185853448Y-85132403D01*
X185673843Y-85312008D01*
X185659700Y-85297865D01*
X184728711Y-86228854D01*
X184820272Y-86489698D01*
X185103956Y-86627111D01*
X185408996Y-86706539D01*
X185632473Y-86719600D01*
X175646054Y-86719600D01*
X175597856Y-86687395D01*
X175409498Y-86609374D01*
X175209539Y-86569600D01*
X175005661Y-86569600D01*
X174805702Y-86609374D01*
X174617344Y-86687395D01*
X174447826Y-86800663D01*
X174303663Y-86944826D01*
X174190395Y-87114344D01*
X174112374Y-87302702D01*
X174072600Y-87502661D01*
X174072600Y-87706539D01*
X174112374Y-87906498D01*
X174114551Y-87911755D01*
X158370599Y-103655708D01*
X158319411Y-103559941D01*
X158208817Y-103425183D01*
X158175049Y-103397470D01*
X142000840Y-87223261D01*
X162795000Y-87223261D01*
X162795000Y-87427139D01*
X162834774Y-87627098D01*
X162912795Y-87815456D01*
X163026063Y-87984974D01*
X163170226Y-88129137D01*
X163215345Y-88159284D01*
X163166795Y-88231944D01*
X163088774Y-88420302D01*
X163049000Y-88620261D01*
X163049000Y-88824139D01*
X163088774Y-89024098D01*
X163166795Y-89212456D01*
X163280063Y-89381974D01*
X163424226Y-89526137D01*
X163593744Y-89639405D01*
X163782102Y-89717426D01*
X163982061Y-89757200D01*
X164185939Y-89757200D01*
X164385898Y-89717426D01*
X164574256Y-89639405D01*
X164622454Y-89607200D01*
X169946346Y-89607200D01*
X169994544Y-89639405D01*
X170182902Y-89717426D01*
X170382861Y-89757200D01*
X170586739Y-89757200D01*
X170786698Y-89717426D01*
X170975056Y-89639405D01*
X171144574Y-89526137D01*
X171288737Y-89381974D01*
X171402005Y-89212456D01*
X171480026Y-89024098D01*
X171519800Y-88824139D01*
X171519800Y-88620261D01*
X171480026Y-88420302D01*
X171414040Y-88261000D01*
X171813332Y-88261000D01*
X171899544Y-88318605D01*
X172087902Y-88396626D01*
X172287861Y-88436400D01*
X172491739Y-88436400D01*
X172691698Y-88396626D01*
X172880056Y-88318605D01*
X173049574Y-88205337D01*
X173193737Y-88061174D01*
X173307005Y-87891656D01*
X173385026Y-87703298D01*
X173424800Y-87503339D01*
X173424800Y-87299461D01*
X173385026Y-87099502D01*
X173307005Y-86911144D01*
X173193737Y-86741626D01*
X173049574Y-86597463D01*
X172880056Y-86484195D01*
X172691698Y-86406174D01*
X172491739Y-86366400D01*
X172287861Y-86366400D01*
X172087902Y-86406174D01*
X171899544Y-86484195D01*
X171889360Y-86491000D01*
X164444482Y-86491000D01*
X164320256Y-86407995D01*
X164131898Y-86329974D01*
X163931939Y-86290200D01*
X163728061Y-86290200D01*
X163528102Y-86329974D01*
X163339744Y-86407995D01*
X163170226Y-86521263D01*
X163026063Y-86665426D01*
X162912795Y-86834944D01*
X162834774Y-87023302D01*
X162795000Y-87223261D01*
X142000840Y-87223261D01*
X137649599Y-82872020D01*
X137844352Y-82833282D01*
X138130948Y-82714570D01*
X138388877Y-82542227D01*
X138608227Y-82322877D01*
X138655000Y-82252876D01*
X138701773Y-82322877D01*
X138921123Y-82542227D01*
X139179052Y-82714570D01*
X139465648Y-82833282D01*
X139769896Y-82893800D01*
X140080104Y-82893800D01*
X140384352Y-82833282D01*
X140670948Y-82714570D01*
X140928877Y-82542227D01*
X141148227Y-82322877D01*
X141320570Y-82064948D01*
X141439282Y-81778352D01*
X141499800Y-81474104D01*
X141499800Y-81163896D01*
X141439282Y-80859648D01*
X141320570Y-80573052D01*
X141148227Y-80315123D01*
X140928877Y-80095773D01*
X140670948Y-79923430D01*
X140384352Y-79804718D01*
X140080104Y-79744200D01*
X139769896Y-79744200D01*
X139465648Y-79804718D01*
X139179052Y-79923430D01*
X138921123Y-80095773D01*
X138701773Y-80315123D01*
X138655000Y-80385124D01*
X138608227Y-80315123D01*
X138388877Y-80095773D01*
X138130948Y-79923430D01*
X137844352Y-79804718D01*
X137540104Y-79744200D01*
X137229896Y-79744200D01*
X136925648Y-79804718D01*
X136639052Y-79923430D01*
X136381123Y-80095773D01*
X136161773Y-80315123D01*
X136115000Y-80385124D01*
X136068227Y-80315123D01*
X135848877Y-80095773D01*
X135590948Y-79923430D01*
X135304352Y-79804718D01*
X135000104Y-79744200D01*
X134689896Y-79744200D01*
X134385648Y-79804718D01*
X134099052Y-79923430D01*
X133841123Y-80095773D01*
X133621773Y-80315123D01*
X133530505Y-80451714D01*
X133397476Y-80406129D01*
X132484605Y-81319000D01*
X133397476Y-82231871D01*
X133530505Y-82186286D01*
X133621773Y-82322877D01*
X133841123Y-82542227D01*
X134099052Y-82714570D01*
X134385648Y-82833282D01*
X134689896Y-82893800D01*
X135000104Y-82893800D01*
X135140330Y-82865908D01*
X156695001Y-104420580D01*
X156695001Y-105654403D01*
X156695000Y-105654409D01*
X156695000Y-105654416D01*
X156690719Y-105697885D01*
X156695000Y-105741354D01*
X156695000Y-106596793D01*
X156559932Y-106687043D01*
X156337043Y-106909932D01*
X156310000Y-106950405D01*
X156282957Y-106909932D01*
X156060068Y-106687043D01*
X155797979Y-106511921D01*
X155506761Y-106391294D01*
X155197606Y-106329800D01*
X154882394Y-106329800D01*
X154573239Y-106391294D01*
X154282021Y-106511921D01*
X154019932Y-106687043D01*
X153797043Y-106909932D01*
X153770000Y-106950405D01*
X153742957Y-106909932D01*
X153520068Y-106687043D01*
X153257979Y-106511921D01*
X152966761Y-106391294D01*
X152657606Y-106329800D01*
X152342394Y-106329800D01*
X152033239Y-106391294D01*
X151742021Y-106511921D01*
X151479932Y-106687043D01*
X151257043Y-106909932D01*
X151230000Y-106950405D01*
X151202957Y-106909932D01*
X150980068Y-106687043D01*
X150717979Y-106511921D01*
X150426761Y-106391294D01*
X150117606Y-106329800D01*
X149802394Y-106329800D01*
X149493239Y-106391294D01*
X149202021Y-106511921D01*
X148939932Y-106687043D01*
X148717043Y-106909932D01*
X148690000Y-106950405D01*
X148662957Y-106909932D01*
X148440068Y-106687043D01*
X148177979Y-106511921D01*
X147886761Y-106391294D01*
X147577606Y-106329800D01*
X147262394Y-106329800D01*
X146953239Y-106391294D01*
X146662021Y-106511921D01*
X146399932Y-106687043D01*
X146177043Y-106909932D01*
X146001921Y-107172021D01*
X145881294Y-107463239D01*
X145819800Y-107772394D01*
X145819800Y-108087606D01*
X145881294Y-108396761D01*
X146001921Y-108687979D01*
X146177043Y-108950068D01*
X146399932Y-109172957D01*
X146662021Y-109348079D01*
X146953239Y-109468706D01*
X147262394Y-109530200D01*
X147577606Y-109530200D01*
X147886761Y-109468706D01*
X148177979Y-109348079D01*
X148440068Y-109172957D01*
X148662957Y-108950068D01*
X148690000Y-108909595D01*
X148717043Y-108950068D01*
X148939932Y-109172957D01*
X149202021Y-109348079D01*
X149493239Y-109468706D01*
X149802394Y-109530200D01*
X150117606Y-109530200D01*
X150426761Y-109468706D01*
X150717979Y-109348079D01*
X150980068Y-109172957D01*
X151202957Y-108950068D01*
X151230000Y-108909595D01*
X151257043Y-108950068D01*
X151479932Y-109172957D01*
X151742021Y-109348079D01*
X152033239Y-109468706D01*
X152342394Y-109530200D01*
X152657606Y-109530200D01*
X152966761Y-109468706D01*
X153257979Y-109348079D01*
X153520068Y-109172957D01*
X153742957Y-108950068D01*
X153770000Y-108909595D01*
X153797043Y-108950068D01*
X154019932Y-109172957D01*
X154282021Y-109348079D01*
X154573239Y-109468706D01*
X154882394Y-109530200D01*
X155197606Y-109530200D01*
X155506761Y-109468706D01*
X155797979Y-109348079D01*
X156060068Y-109172957D01*
X156282957Y-108950068D01*
X156310000Y-108909595D01*
X156337043Y-108950068D01*
X156559932Y-109172957D01*
X156822021Y-109348079D01*
X157113239Y-109468706D01*
X157422394Y-109530200D01*
X157737606Y-109530200D01*
X158046761Y-109468706D01*
X158337979Y-109348079D01*
X158600068Y-109172957D01*
X158732431Y-109040594D01*
X159189011Y-109040594D01*
X159280572Y-109301438D01*
X159564256Y-109438851D01*
X159869296Y-109518279D01*
X160183971Y-109536670D01*
X160496188Y-109493318D01*
X160793948Y-109389888D01*
X160959428Y-109301438D01*
X161050989Y-109040594D01*
X161729011Y-109040594D01*
X161820572Y-109301438D01*
X162104256Y-109438851D01*
X162409296Y-109518279D01*
X162723971Y-109536670D01*
X163036188Y-109493318D01*
X163333948Y-109389888D01*
X163499428Y-109301438D01*
X163590989Y-109040594D01*
X162660000Y-108109605D01*
X161729011Y-109040594D01*
X161050989Y-109040594D01*
X160120000Y-108109605D01*
X159189011Y-109040594D01*
X158732431Y-109040594D01*
X158822957Y-108950068D01*
X158906592Y-108824899D01*
X159009406Y-108860989D01*
X159940395Y-107930000D01*
X160299605Y-107930000D01*
X161230594Y-108860989D01*
X161390000Y-108805035D01*
X161549406Y-108860989D01*
X162480395Y-107930000D01*
X162839605Y-107930000D01*
X163770594Y-108860989D01*
X163873408Y-108824899D01*
X163957043Y-108950068D01*
X164179932Y-109172957D01*
X164442021Y-109348079D01*
X164733239Y-109468706D01*
X165042394Y-109530200D01*
X165357606Y-109530200D01*
X165666761Y-109468706D01*
X165957979Y-109348079D01*
X166220068Y-109172957D01*
X166442957Y-108950068D01*
X166618079Y-108687979D01*
X166738706Y-108396761D01*
X166800200Y-108087606D01*
X166800200Y-107772394D01*
X168679800Y-107772394D01*
X168679800Y-108087606D01*
X168741294Y-108396761D01*
X168861921Y-108687979D01*
X169037043Y-108950068D01*
X169259932Y-109172957D01*
X169522021Y-109348079D01*
X169813239Y-109468706D01*
X170122394Y-109530200D01*
X170437606Y-109530200D01*
X170746761Y-109468706D01*
X171037979Y-109348079D01*
X171300068Y-109172957D01*
X171522957Y-108950068D01*
X171550000Y-108909595D01*
X171577043Y-108950068D01*
X171799932Y-109172957D01*
X172062021Y-109348079D01*
X172353239Y-109468706D01*
X172662394Y-109530200D01*
X172977606Y-109530200D01*
X173286761Y-109468706D01*
X173577979Y-109348079D01*
X173840068Y-109172957D01*
X174062957Y-108950068D01*
X174090000Y-108909595D01*
X174117043Y-108950068D01*
X174339932Y-109172957D01*
X174602021Y-109348079D01*
X174893239Y-109468706D01*
X175202394Y-109530200D01*
X175517606Y-109530200D01*
X175826761Y-109468706D01*
X176117979Y-109348079D01*
X176380068Y-109172957D01*
X176602957Y-108950068D01*
X176630000Y-108909595D01*
X176657043Y-108950068D01*
X176879932Y-109172957D01*
X177142021Y-109348079D01*
X177433239Y-109468706D01*
X177742394Y-109530200D01*
X178057606Y-109530200D01*
X178366761Y-109468706D01*
X178657979Y-109348079D01*
X178920068Y-109172957D01*
X179142957Y-108950068D01*
X179170000Y-108909595D01*
X179197043Y-108950068D01*
X179419932Y-109172957D01*
X179682021Y-109348079D01*
X179973239Y-109468706D01*
X180282394Y-109530200D01*
X180597606Y-109530200D01*
X180906761Y-109468706D01*
X181197979Y-109348079D01*
X181460068Y-109172957D01*
X181682957Y-108950068D01*
X181710000Y-108909595D01*
X181737043Y-108950068D01*
X181959932Y-109172957D01*
X182222021Y-109348079D01*
X182513239Y-109468706D01*
X182822394Y-109530200D01*
X183137606Y-109530200D01*
X183446761Y-109468706D01*
X183737979Y-109348079D01*
X184000068Y-109172957D01*
X184222957Y-108950068D01*
X184398079Y-108687979D01*
X184518706Y-108396761D01*
X184580200Y-108087606D01*
X184580200Y-107772394D01*
X184518706Y-107463239D01*
X184398079Y-107172021D01*
X184222957Y-106909932D01*
X184000068Y-106687043D01*
X183737979Y-106511921D01*
X183446761Y-106391294D01*
X183137606Y-106329800D01*
X182822394Y-106329800D01*
X182513239Y-106391294D01*
X182222021Y-106511921D01*
X181959932Y-106687043D01*
X181737043Y-106909932D01*
X181710000Y-106950405D01*
X181682957Y-106909932D01*
X181460068Y-106687043D01*
X181197979Y-106511921D01*
X180906761Y-106391294D01*
X180597606Y-106329800D01*
X180282394Y-106329800D01*
X179973239Y-106391294D01*
X179682021Y-106511921D01*
X179419932Y-106687043D01*
X179197043Y-106909932D01*
X179170000Y-106950405D01*
X179142957Y-106909932D01*
X178920068Y-106687043D01*
X178657979Y-106511921D01*
X178366761Y-106391294D01*
X178057606Y-106329800D01*
X177742394Y-106329800D01*
X177433239Y-106391294D01*
X177142021Y-106511921D01*
X176879932Y-106687043D01*
X176657043Y-106909932D01*
X176630000Y-106950405D01*
X176602957Y-106909932D01*
X176380068Y-106687043D01*
X176117979Y-106511921D01*
X175826761Y-106391294D01*
X175517606Y-106329800D01*
X175202394Y-106329800D01*
X174893239Y-106391294D01*
X174602021Y-106511921D01*
X174339932Y-106687043D01*
X174117043Y-106909932D01*
X174090000Y-106950405D01*
X174062957Y-106909932D01*
X173840068Y-106687043D01*
X173577979Y-106511921D01*
X173286761Y-106391294D01*
X172977606Y-106329800D01*
X172662394Y-106329800D01*
X172353239Y-106391294D01*
X172062021Y-106511921D01*
X171799932Y-106687043D01*
X171577043Y-106909932D01*
X171550000Y-106950405D01*
X171522957Y-106909932D01*
X171300068Y-106687043D01*
X171037979Y-106511921D01*
X170746761Y-106391294D01*
X170437606Y-106329800D01*
X170122394Y-106329800D01*
X169813239Y-106391294D01*
X169522021Y-106511921D01*
X169259932Y-106687043D01*
X169037043Y-106909932D01*
X168861921Y-107172021D01*
X168741294Y-107463239D01*
X168679800Y-107772394D01*
X166800200Y-107772394D01*
X166738706Y-107463239D01*
X166618079Y-107172021D01*
X166442957Y-106909932D01*
X166220068Y-106687043D01*
X165957979Y-106511921D01*
X165666761Y-106391294D01*
X165357606Y-106329800D01*
X165042394Y-106329800D01*
X164733239Y-106391294D01*
X164442021Y-106511921D01*
X164179932Y-106687043D01*
X163957043Y-106909932D01*
X163873408Y-107035101D01*
X163770594Y-106999011D01*
X162839605Y-107930000D01*
X162480395Y-107930000D01*
X161549406Y-106999011D01*
X161390000Y-107054965D01*
X161230594Y-106999011D01*
X160299605Y-107930000D01*
X159940395Y-107930000D01*
X159009406Y-106999011D01*
X158906592Y-107035101D01*
X158822957Y-106909932D01*
X158732431Y-106819406D01*
X159189011Y-106819406D01*
X160120000Y-107750395D01*
X161050989Y-106819406D01*
X161729011Y-106819406D01*
X162660000Y-107750395D01*
X163590989Y-106819406D01*
X163499428Y-106558562D01*
X163215744Y-106421149D01*
X162910704Y-106341721D01*
X162596029Y-106323330D01*
X162283812Y-106366682D01*
X161986052Y-106470112D01*
X161820572Y-106558562D01*
X161729011Y-106819406D01*
X161050989Y-106819406D01*
X160959428Y-106558562D01*
X160675744Y-106421149D01*
X160370704Y-106341721D01*
X160056029Y-106323330D01*
X159743812Y-106366682D01*
X159446052Y-106470112D01*
X159280572Y-106558562D01*
X159189011Y-106819406D01*
X158732431Y-106819406D01*
X158600068Y-106687043D01*
X158465000Y-106596794D01*
X158465000Y-106064463D01*
X175702649Y-88826815D01*
X175736417Y-88799102D01*
X175799530Y-88722200D01*
X175847011Y-88664344D01*
X175929189Y-88510599D01*
X175935559Y-88489600D01*
X177667982Y-88489600D01*
X177568595Y-88638344D01*
X177490574Y-88826702D01*
X177450800Y-89026661D01*
X177450800Y-89230539D01*
X177490574Y-89430498D01*
X177568595Y-89618856D01*
X177600800Y-89667054D01*
X177600800Y-91773962D01*
X177595370Y-91760852D01*
X177423027Y-91502923D01*
X177203677Y-91283573D01*
X176945748Y-91111230D01*
X176659152Y-90992518D01*
X176354904Y-90932000D01*
X176044696Y-90932000D01*
X175740448Y-90992518D01*
X175453852Y-91111230D01*
X175195923Y-91283573D01*
X174976573Y-91502923D01*
X174804230Y-91760852D01*
X174685518Y-92047448D01*
X174625000Y-92351696D01*
X174625000Y-92661904D01*
X174685518Y-92966152D01*
X174804230Y-93252748D01*
X174976573Y-93510677D01*
X175195923Y-93730027D01*
X175453852Y-93902370D01*
X175740448Y-94021082D01*
X176044696Y-94081600D01*
X176354904Y-94081600D01*
X176659152Y-94021082D01*
X176945748Y-93902370D01*
X177203677Y-93730027D01*
X177423027Y-93510677D01*
X177595370Y-93252748D01*
X177600800Y-93239638D01*
X177600801Y-97050990D01*
X177546965Y-97104826D01*
X177433697Y-97274344D01*
X177355676Y-97462702D01*
X177315902Y-97662661D01*
X177315902Y-97866539D01*
X177355676Y-98066498D01*
X177433697Y-98254856D01*
X177546965Y-98424374D01*
X177691128Y-98568537D01*
X177860646Y-98681805D01*
X178049004Y-98759826D01*
X178248963Y-98799600D01*
X178452841Y-98799600D01*
X178652800Y-98759826D01*
X178841158Y-98681805D01*
X179010676Y-98568537D01*
X179154839Y-98424374D01*
X179268107Y-98254856D01*
X179346128Y-98066498D01*
X179385902Y-97866539D01*
X179385902Y-97662661D01*
X179370898Y-97587232D01*
X179370800Y-97586233D01*
X179370800Y-96593707D01*
X179498716Y-96883945D01*
X179835186Y-97052296D01*
X180198035Y-97151771D01*
X180573318Y-97178545D01*
X180946615Y-97131591D01*
X181303578Y-97012713D01*
X181544484Y-96883945D01*
X181673410Y-96591415D01*
X184468790Y-96591415D01*
X184597716Y-96883945D01*
X184934186Y-97052296D01*
X185297035Y-97151771D01*
X185672318Y-97178545D01*
X186045615Y-97131591D01*
X186402578Y-97012713D01*
X186643484Y-96883945D01*
X186772410Y-96591415D01*
X185620600Y-95439605D01*
X184468790Y-96591415D01*
X181673410Y-96591415D01*
X180521600Y-95439605D01*
X180507458Y-95453748D01*
X180327853Y-95274143D01*
X180341995Y-95260000D01*
X180327853Y-95245858D01*
X180507458Y-95066253D01*
X180521600Y-95080395D01*
X180535743Y-95066253D01*
X180715348Y-95245858D01*
X180701205Y-95260000D01*
X181853015Y-96411810D01*
X182145545Y-96282884D01*
X182313896Y-95946414D01*
X182413371Y-95583565D01*
X182440145Y-95208282D01*
X182393191Y-94834985D01*
X182274313Y-94478022D01*
X182253384Y-94438867D01*
X182513473Y-94546600D01*
X182882481Y-94620000D01*
X183258719Y-94620000D01*
X183627727Y-94546600D01*
X183897774Y-94434743D01*
X183828304Y-94573586D01*
X183728829Y-94936435D01*
X183702055Y-95311718D01*
X183749009Y-95685015D01*
X183867887Y-96041978D01*
X183996655Y-96282884D01*
X184289185Y-96411810D01*
X185440995Y-95260000D01*
X185426853Y-95245858D01*
X185606458Y-95066253D01*
X185620600Y-95080395D01*
X186772410Y-93928585D01*
X186643484Y-93636055D01*
X186307014Y-93467704D01*
X185944165Y-93368229D01*
X185568882Y-93341455D01*
X185195585Y-93388409D01*
X184838622Y-93507287D01*
X184798935Y-93528500D01*
X184907200Y-93267127D01*
X184980600Y-92898119D01*
X184980600Y-92521881D01*
X184907200Y-92152873D01*
X184795343Y-91882826D01*
X184934186Y-91952296D01*
X185297035Y-92051771D01*
X185672318Y-92078545D01*
X186045615Y-92031591D01*
X186402578Y-91912713D01*
X186643484Y-91783945D01*
X186772410Y-91491415D01*
X185620600Y-90339605D01*
X185606458Y-90353748D01*
X185426853Y-90174143D01*
X185440995Y-90160000D01*
X184289185Y-89008190D01*
X183996655Y-89137116D01*
X183828304Y-89473586D01*
X183728829Y-89836435D01*
X183702055Y-90211718D01*
X183749009Y-90585015D01*
X183867887Y-90941978D01*
X183889100Y-90981665D01*
X183627727Y-90873400D01*
X183258719Y-90800000D01*
X182882481Y-90800000D01*
X182513473Y-90873400D01*
X182244688Y-90984735D01*
X182313896Y-90846414D01*
X182413371Y-90483565D01*
X182440145Y-90108282D01*
X182393191Y-89734985D01*
X182274313Y-89378022D01*
X182145545Y-89137116D01*
X181853015Y-89008190D01*
X180701205Y-90160000D01*
X180715348Y-90174143D01*
X180535743Y-90353748D01*
X180521600Y-90339605D01*
X180507458Y-90353748D01*
X180327853Y-90174143D01*
X180341995Y-90160000D01*
X180327853Y-90145858D01*
X180507458Y-89966253D01*
X180521600Y-89980395D01*
X181673410Y-88828585D01*
X181544484Y-88536055D01*
X181451638Y-88489600D01*
X184684626Y-88489600D01*
X184597716Y-88536055D01*
X184468790Y-88828585D01*
X185620600Y-89980395D01*
X186772410Y-88828585D01*
X186643484Y-88536055D01*
X186422256Y-88425365D01*
X186574459Y-88344011D01*
X186709217Y-88233417D01*
X186736934Y-88199644D01*
X187427001Y-87509578D01*
X187427001Y-89539233D01*
X187373313Y-89378022D01*
X187244545Y-89137116D01*
X186952015Y-89008190D01*
X185800205Y-90160000D01*
X186952015Y-91311810D01*
X187244545Y-91182884D01*
X187412896Y-90846414D01*
X187427001Y-90794965D01*
X187427001Y-94639234D01*
X187373313Y-94478022D01*
X187244545Y-94237116D01*
X186952015Y-94108190D01*
X185800205Y-95260000D01*
X186952015Y-96411810D01*
X187244545Y-96282884D01*
X187412896Y-95946414D01*
X187427001Y-95894965D01*
X187427001Y-101703634D01*
X187246329Y-101433239D01*
X186936761Y-101123671D01*
X186572749Y-100880446D01*
X186168279Y-100712909D01*
X185738897Y-100627500D01*
X185301103Y-100627500D01*
X184871721Y-100712909D01*
X184467251Y-100880446D01*
X184103239Y-101123671D01*
X183793671Y-101433239D01*
X183550446Y-101797251D01*
X183382909Y-102201721D01*
X183297500Y-102631103D01*
X183297500Y-103068897D01*
X183382909Y-103498279D01*
X183550446Y-103902749D01*
X183793671Y-104266761D01*
X184103239Y-104576329D01*
X184467251Y-104819554D01*
X184871721Y-104987091D01*
X185301103Y-105072500D01*
X185738897Y-105072500D01*
X186168279Y-104987091D01*
X186572749Y-104819554D01*
X186936761Y-104576329D01*
X187246329Y-104266761D01*
X187427001Y-103996366D01*
X187427001Y-109830000D01*
X135890000Y-109830000D01*
X135890000Y-105537000D01*
X135887560Y-105512224D01*
X135880333Y-105488399D01*
X135868597Y-105466443D01*
X135852803Y-105447197D01*
X135833557Y-105431403D01*
X135811601Y-105419667D01*
X135787776Y-105412440D01*
X135763000Y-105410000D01*
X131851000Y-105410000D01*
X131851000Y-98203418D01*
X131854193Y-98171000D01*
X131841450Y-98041617D01*
X131826000Y-97990686D01*
X131826000Y-97790000D01*
X131823560Y-97765224D01*
X131816333Y-97741399D01*
X131804597Y-97719443D01*
X131788803Y-97700197D01*
X131769557Y-97684403D01*
X131747601Y-97672667D01*
X131723776Y-97665440D01*
X131699000Y-97663000D01*
X131612363Y-97663000D01*
X131559450Y-97619575D01*
X131444793Y-97558290D01*
X131320383Y-97520550D01*
X131223419Y-97511000D01*
X131191000Y-97507807D01*
X131158581Y-97511000D01*
X123698000Y-97511000D01*
X123698000Y-82411476D01*
X131392129Y-82411476D01*
X131480623Y-82669723D01*
X131759976Y-82804597D01*
X132060275Y-82882381D01*
X132369977Y-82900084D01*
X132677184Y-82857027D01*
X132970086Y-82754865D01*
X133129377Y-82669723D01*
X133217871Y-82411476D01*
X132305000Y-81498605D01*
X131392129Y-82411476D01*
X123698000Y-82411476D01*
X123698000Y-81383977D01*
X130723916Y-81383977D01*
X130766973Y-81691184D01*
X130869135Y-81984086D01*
X130954277Y-82143377D01*
X131212524Y-82231871D01*
X132125395Y-81319000D01*
X131212524Y-80406129D01*
X130954277Y-80494623D01*
X130819403Y-80773976D01*
X130741619Y-81074275D01*
X130723916Y-81383977D01*
X123698000Y-81383977D01*
X123698000Y-80226524D01*
X131392129Y-80226524D01*
X132305000Y-81139395D01*
X133217871Y-80226524D01*
X133129377Y-79968277D01*
X132850024Y-79833403D01*
X132549725Y-79755619D01*
X132240023Y-79737916D01*
X131932816Y-79780973D01*
X131639914Y-79883135D01*
X131480623Y-79968277D01*
X131392129Y-80226524D01*
X123698000Y-80226524D01*
X123698000Y-79248000D01*
X129794000Y-79248000D01*
X129818776Y-79245560D01*
X129842601Y-79238333D01*
X129864557Y-79226597D01*
X129883803Y-79210803D01*
X129899597Y-79191557D01*
X129911333Y-79169601D01*
X129918560Y-79145776D01*
X129921000Y-79121000D01*
X129921000Y-78539314D01*
X129936450Y-78488383D01*
X129949193Y-78359000D01*
X129946000Y-78326581D01*
X129946000Y-68958296D01*
X138404600Y-68958296D01*
X138404600Y-69268504D01*
X138465118Y-69572752D01*
X138583830Y-69859348D01*
X138756173Y-70117277D01*
X138975523Y-70336627D01*
X139045524Y-70383400D01*
X138975523Y-70430173D01*
X138756173Y-70649523D01*
X138583830Y-70907452D01*
X138465118Y-71194048D01*
X138404600Y-71498296D01*
X138404600Y-71808504D01*
X138465118Y-72112752D01*
X138583830Y-72399348D01*
X138756173Y-72657277D01*
X138975523Y-72876627D01*
X139233452Y-73048970D01*
X139520048Y-73167682D01*
X139824296Y-73228200D01*
X140134504Y-73228200D01*
X140438752Y-73167682D01*
X140725348Y-73048970D01*
X140983277Y-72876627D01*
X141202627Y-72657277D01*
X141374970Y-72399348D01*
X141493682Y-72112752D01*
X141540377Y-71878000D01*
X178023546Y-71878000D01*
X178071744Y-71910205D01*
X178260102Y-71988226D01*
X178460061Y-72028000D01*
X178663939Y-72028000D01*
X178863898Y-71988226D01*
X179052256Y-71910205D01*
X179221774Y-71796937D01*
X179365937Y-71652774D01*
X179479205Y-71483256D01*
X179557226Y-71294898D01*
X179597000Y-71094939D01*
X179597000Y-70891061D01*
X179557226Y-70691102D01*
X179479205Y-70502744D01*
X179365937Y-70333226D01*
X179221774Y-70189063D01*
X179052256Y-70075795D01*
X178863898Y-69997774D01*
X178663939Y-69958000D01*
X178460061Y-69958000D01*
X178260102Y-69997774D01*
X178071744Y-70075795D01*
X178023546Y-70108000D01*
X141208826Y-70108000D01*
X141374970Y-69859348D01*
X141493682Y-69572752D01*
X141554200Y-69268504D01*
X141554200Y-68958296D01*
X141493682Y-68654048D01*
X141374970Y-68367452D01*
X141202627Y-68109523D01*
X140983277Y-67890173D01*
X140725348Y-67717830D01*
X140438752Y-67599118D01*
X140134504Y-67538600D01*
X139824296Y-67538600D01*
X139520048Y-67599118D01*
X139233452Y-67717830D01*
X138975523Y-67890173D01*
X138756173Y-68109523D01*
X138583830Y-68367452D01*
X138465118Y-68654048D01*
X138404600Y-68958296D01*
X129946000Y-68958296D01*
X129946000Y-66453418D01*
X129949193Y-66421000D01*
X129936450Y-66291617D01*
X129921000Y-66240686D01*
X129921000Y-66167000D01*
X129918560Y-66142224D01*
X129911333Y-66118399D01*
X129899597Y-66096443D01*
X129883803Y-66077197D01*
X129864557Y-66061403D01*
X129842601Y-66049667D01*
X129832559Y-66046621D01*
X129754948Y-65952052D01*
X129654450Y-65869575D01*
X129539793Y-65808290D01*
X129415383Y-65770550D01*
X129318419Y-65761000D01*
X129286000Y-65757807D01*
X129253581Y-65761000D01*
X120167000Y-65761000D01*
X120167000Y-57810000D01*
X133503292Y-57810000D01*
X133303239Y-57943671D01*
%TD*%
M02*
