%TF.GenerationSoftware,KiCad,Pcbnew,(5.1.9)-1*%
%TF.CreationDate,2021-01-06T17:39:48+00:00*%
%TF.ProjectId,RFMduino,52464d64-7569-46e6-9f2e-6b696361645f,rev?*%
%TF.SameCoordinates,Original*%
%TF.FileFunction,Soldermask,Bot*%
%TF.FilePolarity,Negative*%
%FSLAX46Y46*%
G04 Gerber Fmt 4.6, Leading zero omitted, Abs format (unit mm)*
G04 Created by KiCad (PCBNEW (5.1.9)-1) date 2021-01-06 17:39:48*
%MOMM*%
%LPD*%
G01*
G04 APERTURE LIST*
%ADD10C,2.082800*%
%ADD11C,2.550000*%
%ADD12C,2.133600*%
%ADD13C,3.378200*%
G04 APERTURE END LIST*
D10*
%TO.C,J1*%
X151500000Y-70000000D03*
X151500000Y-67460000D03*
%TD*%
%TO.C,J2*%
X172310000Y-69000000D03*
X169770000Y-69000000D03*
X167230000Y-69000000D03*
X164690000Y-69000000D03*
%TD*%
%TO.C,J3*%
X132000000Y-85500000D03*
%TD*%
D11*
%TO.C,J4*%
X124810000Y-85455000D03*
X122261000Y-88005000D03*
X127360000Y-88005000D03*
X127360000Y-82905000D03*
X122261000Y-82905000D03*
%TD*%
D12*
%TO.C,B1*%
X155040000Y-107930000D03*
X157580000Y-107930000D03*
X170280000Y-107930000D03*
X172820000Y-107930000D03*
X175360000Y-107930000D03*
X177900000Y-107930000D03*
X180440000Y-107930000D03*
X182980000Y-107930000D03*
X143356000Y-59670000D03*
X182980000Y-59670000D03*
X180440000Y-59670000D03*
X177900000Y-59670000D03*
X175360000Y-59670000D03*
X172820000Y-59670000D03*
X170280000Y-59670000D03*
X167740000Y-59670000D03*
X165200000Y-59670000D03*
X161136000Y-59670000D03*
X158596000Y-59670000D03*
X156056000Y-59670000D03*
X153516000Y-59670000D03*
X150976000Y-59670000D03*
X148436000Y-59670000D03*
X160120000Y-107930000D03*
X162660000Y-107930000D03*
X145896000Y-59670000D03*
X185659700Y-85118260D03*
X149960000Y-107930000D03*
X183119700Y-80040800D03*
X185659700Y-82580800D03*
X147420000Y-107930000D03*
X152500000Y-107930000D03*
X183119700Y-85118260D03*
X183119700Y-82580800D03*
X138276000Y-59670000D03*
X140816000Y-59670000D03*
X185659700Y-80040800D03*
X165200000Y-107930000D03*
D13*
X134720000Y-59670000D03*
X185520000Y-74910000D03*
X185520000Y-102850000D03*
X133450000Y-107930000D03*
%TD*%
M02*
